<?xml version="1.0" encoding="UTF-8"?>
<!DOCTYPE svg PUBLIC "-//W3C//DTD SVG 1.1//EN" "http://www.w3.org/Graphics/SVG/1.1/DTD/svg11.dtd">
<!-- Creator: CorelDRAW X6 -->
<svg xmlns="http://www.w3.org/2000/svg" xml:space="preserve" width="35.2778in" height="27.7778in" version="1.1" style="shape-rendering:geometricPrecision; text-rendering:geometricPrecision; image-rendering:optimizeQuality; fill-rule:evenodd; clip-rule:evenodd"
viewBox="0 0 35278 27778"
 xmlns:xlink="http://www.w3.org/1999/xlink">
 <defs>
  <style type="text/css">
   <![CDATA[
    .fil48 {fill:#1D3B54;fill-rule:nonzero}
    .fil33 {fill:#1E2D40;fill-rule:nonzero}
    .fil34 {fill:#23344A;fill-rule:nonzero}
    .fil27 {fill:#292C47;fill-rule:nonzero}
    .fil32 {fill:#2F4563;fill-rule:nonzero}
    .fil23 {fill:#323657;fill-rule:nonzero}
    .fil43 {fill:#33373B;fill-rule:nonzero}
    .fil42 {fill:#3C4145;fill-rule:nonzero}
    .fil35 {fill:#41608A;fill-rule:nonzero}
    .fil26 {fill:#424773;fill-rule:nonzero}
    .fil49 {fill:#434343;fill-rule:nonzero}
    .fil38 {fill:#464240;fill-rule:nonzero}
    .fil24 {fill:#4DA8F2;fill-rule:nonzero}
    .fil41 {fill:#5C544D;fill-rule:nonzero}
    .fil40 {fill:#6E6760;fill-rule:nonzero}
    .fil13 {fill:#78C2FF;fill-rule:nonzero}
    .fil6 {fill:#8F8F8F;fill-rule:nonzero}
    .fil39 {fill:#A77860;fill-rule:nonzero}
    .fil53 {fill:#B8B8B8;fill-rule:nonzero}
    .fil46 {fill:#C98462;fill-rule:nonzero}
    .fil10 {fill:#CCCCCC;fill-rule:nonzero}
    .fil50 {fill:#CF8C6C;fill-rule:nonzero}
    .fil45 {fill:#D6D6D6;fill-rule:nonzero}
    .fil28 {fill:#D88A51;fill-rule:nonzero}
    .fil54 {fill:#D9D9D9;fill-rule:nonzero}
    .fil22 {fill:#DB9C7C;fill-rule:nonzero}
    .fil31 {fill:#DE9673;fill-rule:nonzero}
    .fil47 {fill:#DE9D7D;fill-rule:nonzero}
    .fil30 {fill:#DFE1E8;fill-rule:nonzero}
    .fil52 {fill:#E0E0E0;fill-rule:nonzero}
    .fil29 {fill:#E2D2CA;fill-rule:nonzero}
    .fil12 {fill:#E6E6E6;fill-rule:nonzero}
    .fil37 {fill:#EB4747;fill-rule:nonzero}
    .fil21 {fill:#EEA886;fill-rule:nonzero}
    .fil36 {fill:#EEA987;fill-rule:nonzero}
    .fil51 {fill:#EEF0F7;fill-rule:nonzero}
    .fil25 {fill:#EFAA88;fill-rule:nonzero}
    .fil5 {fill:#F0C141;fill-rule:nonzero}
    .fil7 {fill:#F0F0F0;fill-rule:nonzero}
    .fil14 {fill:#F3F3F3;fill-rule:nonzero}
    .fil11 {fill:#F5F7FF;fill-rule:nonzero}
    .fil44 {fill:#FCCCA2;fill-rule:nonzero}
    .fil0 {fill:#FCFCFC;fill-rule:nonzero}
    .fil8 {fill:white;fill-rule:nonzero}
    .fil55 {fill:url(#id0)}
    .fil9 {fill:url(#id1)}
    .fil56 {fill:url(#id2)}
    .fil20 {fill:url(#id3)}
    .fil19 {fill:url(#id4)}
    .fil16 {fill:url(#id5)}
    .fil17 {fill:url(#id6)}
    .fil18 {fill:url(#id7)}
    .fil15 {fill:url(#id8)}
    .fil2 {fill:url(#id9)}
    .fil3 {fill:url(#id10)}
    .fil1 {fill:url(#id11)}
    .fil4 {fill:url(#id12)}
   ]]>
  </style>
  <linearGradient id="id0" gradientUnits="userSpaceOnUse" x1="19151.8" y1="10522.6" x2="10799.4" y2="10522.6">
   <stop offset="0" style="stop-color:#40D5E6"/>
   <stop offset="1" style="stop-color:#5577FF"/>
  </linearGradient>
  <linearGradient id="id1" gradientUnits="userSpaceOnUse" xlink:href="#id0" x1="9942" y1="7605.24" x2="25376.9" y2="7605.24">
  </linearGradient>
  <linearGradient id="id2" gradientUnits="userSpaceOnUse" xlink:href="#id0" x1="10799.4" y1="10212.7" x2="19156.3" y2="10212.7">
  </linearGradient>
  <linearGradient id="id3" gradientUnits="userSpaceOnUse" x1="5024.13" y1="22357.2" x2="7246.93" y2="22357.2">
   <stop offset="0" style="stop-color:#C97332"/>
   <stop offset="1" style="stop-color:#FFCE45"/>
  </linearGradient>
  <linearGradient id="id4" gradientUnits="userSpaceOnUse" x1="5024.13" y1="22357.2" x2="7246.93" y2="22357.2">
   <stop offset="0" style="stop-color:#FF9340"/>
   <stop offset="1" style="stop-color:#FFCE45"/>
  </linearGradient>
  <linearGradient id="id5" gradientUnits="userSpaceOnUse" xlink:href="#id0" x1="6254.89" y1="20151.2" x2="3390.46" y2="20151.2">
  </linearGradient>
  <linearGradient id="id6" gradientUnits="userSpaceOnUse" xlink:href="#id0" x1="5947.25" y1="20566.5" x2="3878.89" y2="20566.5">
  </linearGradient>
  <linearGradient id="id7" gradientUnits="userSpaceOnUse" xlink:href="#id0" x1="7055.97" y1="18977.6" x2="3910.34" y2="18977.6">
  </linearGradient>
  <linearGradient id="id8" gradientUnits="userSpaceOnUse" xlink:href="#id0" x1="9045.2" y1="18653.6" x2="4841.15" y2="18653.6">
  </linearGradient>
  <linearGradient id="id9" gradientUnits="userSpaceOnUse" xlink:href="#id0" x1="10439.9" y1="13735.9" x2="7723.76" y2="10660.7">
  </linearGradient>
  <linearGradient id="id10" gradientUnits="userSpaceOnUse" xlink:href="#id0" x1="11090.4" y1="10224.8" x2="7257.93" y2="10018.3">
  </linearGradient>
  <linearGradient id="id11" gradientUnits="userSpaceOnUse" xlink:href="#id0" x1="10657.3" y1="11542.8" x2="5273.42" y2="11252.8">
  </linearGradient>
  <linearGradient id="id12" gradientUnits="userSpaceOnUse" xlink:href="#id0" x1="10037.2" y1="12134.7" x2="8469.5" y2="9358.63">
  </linearGradient>
 </defs>
 <g id="Layer_x0020_1">
  <metadata id="CorelCorpID_0Corel-Layer"/>
  <polygon class="fil0" points="0,27778 35280,27778 35280,0 0,0 "/>
  <path class="fil1" d="M10090 11988c349,762 546,1484 288,1806 -15,19 -32,36 -50,52 -198,175 -588,178 -1246,-81 -1751,-692 -1834,-1886 -2189,-3051 -349,-1151 -1569,-957 -1600,-952 2842,-990 4203,934 4796,2226z"/>
  <path class="fil2" d="M10379 13793c-15,19 -32,36 -50,52 -329,-198 -959,-618 -1256,-1090 -140,-223 -258,-473 -383,-738 -236,-501 -480,-1019 -906,-1416l47 -51c436,407 682,931 921,1438 124,263 241,511 379,730 290,460 926,882 1247,1075z"/>
  <path class="fil3" d="M9786 12299c-21,51 -34,79 -35,83 -5,-28 -11,-56 -16,-83 -234,-1197 -546,-1322 -1483,-2369 -958,-1071 -407,-2069 -407,-2069 3209,927 2159,3903 1941,4438z"/>
  <path class="fil4" d="M9786 12299c-21,51 -34,79 -35,83 -5,-28 -11,-56 -16,-83 104,-1035 -520,-2249 -716,-2467 -203,-226 -328,-536 -375,-653 -8,-19 -15,-38 -18,-42l45 -26c4,7 9,20 21,48 46,115 169,419 366,637 249,276 825,1496 729,2502z"/>
  <path class="fil5" d="M27988 7379l-396 -648c-32,-53 -16,-122 38,-155 53,-32 122,-16 155,37l280 458 744 -440c54,-32 123,-14 154,40 32,54 14,123 -40,154l-935 553z"/>
  <path class="fil5" d="M28253 5735c-672,0 -1219,547 -1219,1219 0,672 547,1219 1219,1219 672,0 1219,-547 1219,-1219 0,-672 -547,-1219 -1219,-1219zm0 2642c-785,0 -1422,-638 -1422,-1422 0,-784 638,-1422 1422,-1422 784,0 1422,638 1422,1422 0,784 -638,1422 -1422,1422z"/>
  <path class="fil5" d="M23582 5286l-244 -400c-20,-33 -10,-76 23,-96 33,-20 76,-10 96,23l173 283 460 -272c33,-20 76,-9 95,24 20,33 9,76 -24,95l-578 342z"/>
  <path class="fil5" d="M23747 4271c-415,0 -753,338 -753,753 0,415 338,753 753,753 415,0 753,-338 753,-753 0,-415 -338,-753 -753,-753zm0 1632c-485,0 -879,-394 -879,-879 0,-485 394,-879 879,-879 485,0 879,394 879,879 0,485 -394,879 -879,879z"/>
  <path class="fil5" d="M19062 3809l-375 -614c-31,-50 -15,-116 36,-147 50,-31 116,-15 147,36l265 434 705 -417c51,-30 116,-13 146,38 30,51 13,116 -38,146l-886 524z"/>
  <path class="fil5" d="M19314 2251c-637,0 -1156,519 -1156,1156 0,637 519,1156 1156,1156 637,0 1156,-518 1156,-1156 0,-637 -518,-1156 -1156,-1156zm0 2504c-743,0 -1348,-605 -1348,-1348 0,-744 605,-1348 1348,-1348 744,0 1348,605 1348,1348 0,743 -605,1348 -1348,1348z"/>
  <path class="fil5" d="M15096 5281l-248 -406c-20,-33 -10,-77 23,-97 33,-20 77,-10 97,23l175 287 466 -276c33,-20 77,-9 97,25 20,34 9,77 -25,97l-586 347z"/>
  <path class="fil5" d="M15263 4251c-421,0 -764,343 -764,764 0,421 343,764 764,764 421,0 764,-343 764,-764 0,-421 -343,-764 -764,-764zm0 1655c-491,0 -891,-400 -891,-891 0,-491 400,-891 891,-891 491,0 891,400 891,891 0,491 -400,891 -891,891z"/>
  <path class="fil5" d="M11616 3332l-310 -508c-25,-42 -12,-96 29,-121 42,-26 96,-12 121,29l219 359 583 -345c42,-25 96,-11 121,31 25,42 11,96 -31,121l-733 434z"/>
  <path class="fil5" d="M11824 2044c-527,0 -956,429 -956,956 0,527 429,956 956,956 527,0 956,-429 956,-956 0,-527 -429,-956 -956,-956zm0 2071c-615,0 -1115,-500 -1115,-1115 0,-615 500,-1116 1115,-1116 615,0 1115,500 1115,1116 0,615 -500,1115 -1115,1115z"/>
  <path class="fil5" d="M7665 5857l-344 -563c-28,-46 -14,-106 33,-135 46,-28 106,-14 135,33l243 398 646 -383c47,-28 107,-12 134,34 28,47 12,107 -34,134l-813 481z"/>
  <path class="fil5" d="M7895 4428c-584,0 -1060,475 -1060,1060 0,584 476,1060 1060,1060 584,0 1060,-476 1060,-1060 0,-584 -475,-1060 -1060,-1060zm0 2297c-682,0 -1237,-555 -1237,-1237 0,-682 555,-1237 1237,-1237 682,0 1237,555 1237,1237 0,682 -555,1237 -1237,1237z"/>
  <path class="fil5" d="M26530 3542l-195 -320c-16,-26 -8,-60 18,-77 26,-16 61,-8 77,19l138 226 368 -217c26,-16 61,-7 77,19 15,26 7,61 -20,76l-462 274z"/>
  <path class="fil5" d="M26661 2730c-332,0 -603,270 -603,603 0,332 270,603 603,603 332,0 603,-270 603,-603 0,-332 -270,-603 -603,-603zm0 1306c-388,0 -703,-315 -703,-703 0,-388 315,-703 703,-703 388,0 703,316 703,703 0,388 -315,703 -703,703z"/>
  <polygon class="fil6" points="16690,23052 18629,23052 18629,17161 16690,17161 "/>
  <path class="fil7" d="M10138 19999l15043 0c470,0 852,-381 852,-852l0 -10110c0,-470 -382,-852 -852,-852l-15043 0c-470,0 -852,381 -852,852l0 10110c0,470 381,852 852,852z"/>
  <polygon class="fil8" points="9942,18148 25377,18148 25377,6928 9942,6928 "/>
  <polygon class="fil9" points="9942,8283 25377,8283 25377,6928 9942,6928 "/>
  <path class="fil10" d="M23499 18995c0,298 284,540 635,540 351,0 635,-242 635,-540 0,-298 -284,-540 -635,-540 -351,0 -635,242 -635,540z"/>
  <polygon class="fil10" points="13297,23274 22022,23274 22022,22830 13297,22830 "/>
  <path class="fil11" d="M12604 7861l-1833 0c-102,0 -184,-82 -184,-184l0 -144c0,-102 82,-184 184,-184l1833 0c102,0 184,82 184,184l0 144c0,102 -82,184 -184,184z"/>
  <polygon class="fil12" points="11073,13282 19154,13282 19154,13005 11073,13005 "/>
  <polygon class="fil12" points="11073,13783 17067,13783 17067,13505 11073,13505 "/>
  <polygon class="fil12" points="11073,14870 14873,14870 14873,14592 11073,14592 "/>
  <polygon class="fil12" points="11073,15370 17901,15370 17901,15092 11073,15092 "/>
  <polygon class="fil12" points="11073,16565 17469,16565 17469,16288 11073,16288 "/>
  <polygon class="fil12" points="11073,17066 18883,17066 18883,16788 11073,16788 "/>
  <polygon class="fil13" points="10679,13783 10882,13783 10882,13005 10679,13005 "/>
  <polygon class="fil13" points="10679,15370 10882,15370 10882,14592 10679,14592 "/>
  <polygon class="fil13" points="10679,17066 10882,17066 10882,16288 10679,16288 "/>
  <path class="fil13" d="M21838 17416l-647 0c-129,0 -233,-104 -233,-233l0 -647c0,-129 104,-233 233,-233l647 0c129,0 233,104 233,233l0 647c0,129 -104,233 -233,233z"/>
  <path class="fil14" d="M21479 17105l-281 -245c-23,-20 -25,-55 -5,-78 20,-23 55,-25 78,-5l199 173 284 -316c20,-23 56,-25 78,-4 23,20 25,55 4,78l-357 398z"/>
  <path class="fil13" d="M21211 14677c-101,0 -183,82 -183,183l0 607c0,101 82,183 183,183l607 0c101,0 183,-82 183,-183l0 -607c0,-101 -82,-183 -183,-183l-607 0zm607 1043l-607 0c-140,0 -254,-114 -254,-254l0 -607c0,-140 114,-254 254,-254l607 0c140,0 254,114 254,254l0 607c0,140 -114,254 -254,254z"/>
  <path class="fil13" d="M22887 16373c-101,0 -183,82 -183,183l0 607c0,101 82,183 183,183l607 0c101,0 183,-82 183,-183l0 -607c0,-101 -82,-183 -183,-183l-607 0zm607 1043l-607 0c-140,0 -254,-114 -254,-254l0 -607c0,-140 114,-254 254,-254l607 0c140,0 254,114 254,254l0 607c0,140 -114,254 -254,254z"/>
  <path class="fil13" d="M23514 15720l-647 0c-129,0 -233,-104 -233,-233l0 -647c0,-129 104,-233 233,-233l647 0c129,0 233,104 233,233l0 647c0,129 -104,233 -233,233z"/>
  <path class="fil14" d="M23155 15409l-281 -245c-23,-20 -25,-55 -5,-78 20,-23 55,-25 78,-5l199 174 284 -317c20,-23 56,-25 78,-4 23,20 25,55 4,78l-357 398z"/>
  <path class="fil13" d="M22887 12982c-101,0 -183,82 -183,183l0 607c0,101 82,183 183,183l607 0c101,0 183,-82 183,-183l0 -607c0,-101 -82,-183 -183,-183l-607 0zm607 1043l-607 0c-140,0 -254,-114 -254,-254l0 -607c0,-140 114,-254 254,-254l607 0c140,0 254,114 254,254l0 607c0,140 -114,254 -254,254z"/>
  <path class="fil13" d="M21838 14025l-647 0c-129,0 -233,-104 -233,-233l0 -647c0,-129 104,-233 233,-233l647 0c129,0 233,104 233,233l0 647c0,129 -104,233 -233,233z"/>
  <path class="fil14" d="M21479 13713l-281 -245c-23,-20 -25,-55 -5,-78 20,-23 55,-25 78,-5l199 173 284 -316c20,-23 56,-25 78,-4 23,20 25,55 4,78l-357 398z"/>
  <path class="fil15" d="M8152 14439c-263,-126 -524,711 -524,711 -447,590 -1071,-195 -1010,687 107,1544 -1777,485 -908,2097 869,1612 -767,911 -227,2211 540,1299 -160,2849 653,2213 0,0 715,-1569 1453,-2054 738,-485 -442,-1061 -211,-1721 335,-958 1143,-920 561,-1949 -583,-1029 1107,-1767 214,-2194z"/>
  <path class="fil8" d="M5878 21767c352,-248 764,-1974 789,-3002 13,-527 168,-746 306,-940 131,-185 245,-345 179,-712 -126,-701 206,-1004 209,-1007l-38 -44c-15,13 -360,325 -228,1061 62,343 -40,486 -169,668 -135,191 -303,428 -316,972 -26,1103 -448,2733 -764,2956l34 48z"/>
  <path class="fil16" d="M4045 18598c-209,-114 -432,-137 -520,-53 -67,63 -35,172 3,252 73,153 165,247 247,330 113,115 203,207 157,384 -9,35 -19,70 -29,105 -72,246 -140,479 237,648 88,40 170,72 241,100 298,117 495,194 706,640 39,83 74,161 107,237 182,413 292,662 691,582 114,-23 189,-82 221,-175 84,-239 -117,-658 -293,-869 -13,-16 -317,-386 -283,-916 5,-86 14,-166 22,-236 21,-185 36,-319 -33,-397 -63,-71 -201,-103 -446,-104 -494,-2 -688,-206 -845,-370 -63,-66 -117,-122 -181,-158l0 0zm1095 2665c-33,-75 -68,-153 -107,-235 -201,-425 -379,-495 -675,-611 -72,-28 -154,-60 -244,-101 -423,-190 -341,-470 -269,-717 10,-35 20,-69 29,-103 37,-145 -34,-218 -142,-329 -80,-82 -181,-184 -258,-345 -84,-177 -41,-271 10,-319 107,-102 355,-83 588,45l0 0c73,40 132,102 196,168 149,156 334,350 803,352 267,1 414,38 490,123 86,97 70,241 47,442 -8,69 -17,148 -22,233 -32,506 267,872 270,875 179,213 399,654 304,925 -40,114 -129,185 -265,213 -54,11 -103,16 -149,16 -328,0 -448,-272 -607,-632z"/>
  <path class="fil17" d="M5889 22231l58 -3c-3,-55 -76,-1343 -593,-1720 -567,-414 -746,-858 -832,-1157 -100,-352 -611,-446 -633,-449l-10 57c5,1 497,92 587,408 88,307 271,763 853,1188 495,361 569,1663 570,1676z"/>
  <path class="fil18" d="M4706 15739c368,-126 291,582 447,1107 155,524 1728,229 1068,1542 -660,1313 835,439 388,1585 -447,1146 -39,2371 -524,2059 -485,-312 -273,-1754 -778,-1926 -505,-171 -587,-371 -87,-837 500,-466 -1310,-929 -863,-1870 447,-941 -75,-1514 350,-1659z"/>
  <path class="fil8" d="M5860 21976c46,-196 441,-1922 73,-2131 -325,-184 -317,-899 -266,-1574 45,-598 -723,-877 -756,-889l-19 55c8,3 759,276 717,830 -52,693 -58,1429 295,1629 280,158 22,1546 -101,2067l57 13z"/>
  <polygon class="fil19" points="7247,21362 6722,23353 5549,23353 5024,21362 "/>
  <path class="fil20" d="M7247 21362c0,0 -1156,217 -1156,1991l-542 0 -525 -1991 2223 0z"/>
  <path class="fil21" d="M16440 20040c0,0 40,66 46,120 4,43 40,107 55,142 16,35 66,195 68,237 1,17 -37,124 -32,158 5,34 25,102 -6,107 -31,4 -66,-51 -66,-51 0,0 3,32 -23,43 -51,23 -77,3 -77,3 0,0 -19,35 -42,39 -52,10 -77,-10 -77,-10 0,0 -23,19 -58,19 -46,-1 -65,-40 -65,-40 0,0 -58,12 -75,-15 -17,-27 -14,-56 -21,-80 -7,-24 -2,-245 73,-404 75,-159 -19,-314 -19,-314l319 48z"/>
  <path class="fil22" d="M16513 20732c0,0 5,-198 -47,-240 -52,-42 -58,29 -58,29 0,0 7,-71 -50,-80 -57,-9 -59,74 -59,74 0,0 -9,-54 -69,-43 -60,11 -46,81 -46,81 0,0 -57,-68 -94,-3 -63,111 -2,241 -2,241 0,0 18,30 75,15 0,0 38,77 123,22 0,0 87,48 119,-29 0,0 96,46 109,-67z"/>
  <path class="fil23" d="M17112 17185c0,0 -339,1131 -454,1548 -36,131 -123,1380 -138,1430 -15,50 -446,119 -446,119 0,0 52,-1563 57,-1648 5,-85 475,-1830 612,-1893 102,-47 157,-8 286,88 181,134 84,356 84,356z"/>
  <polygon class="fil24" points="20459,15659 20421,15601 21197,15093 21235,15150 "/>
  <path class="fil25" d="M21318 15385c0,0 -7,44 -20,62 0,0 -25,30 -42,53 -5,7 -10,14 -12,18 -10,18 -27,62 -64,100 -37,38 -181,157 -181,157l-123 -105 -128 -57c0,0 72,-312 102,-351 3,-4 6,-8 9,-11 29,-30 63,-41 80,-55 6,-5 72,-53 96,-47 33,8 52,28 59,49 0,0 63,19 88,56 0,0 59,16 76,71 0,0 58,23 60,60z"/>
  <path class="fil26" d="M16837 24906c0,0 -31,215 -35,247 -4,32 -344,-19 -344,-19l-28 -256c0,0 364,-3 406,28z"/>
  <path class="fil27" d="M16806 25125c0,0 108,129 212,186 104,56 268,79 330,137 44,42 162,223 -271,220 -433,-4 -642,26 -688,-44 -46,-70 67,-513 67,-513 0,0 103,37 350,14z"/>
  <path class="fil26" d="M19274 24906c0,0 -31,215 -35,247 -4,32 -344,-19 -344,-19l-27 -256c0,0 364,-3 406,28z"/>
  <path class="fil27" d="M19243 25125c0,0 108,129 212,186 104,56 488,103 549,161 44,42 118,212 -491,196 -433,-11 -642,26 -688,-44 -46,-70 67,-513 67,-513 0,0 97,39 350,14z"/>
  <path class="fil27" d="M17119 19390c0,0 -320,508 -296,967 24,459 -116,960 -164,1440 -53,535 -272,1800 -281,2086 -8,286 34,1199 34,1199l438 10c0,0 368,-2213 464,-2438 95,-226 568,-1835 584,-2016 16,-181 -780,-1248 -780,-1248z"/>
  <path class="fil27" d="M18801 19459c0,0 241,1258 273,1539 32,281 53,1360 69,1535 16,176 148,2293 191,2559l-561 0c0,0 -430,-1543 -430,-2273 0,-730 -332,-1587 -547,-2069 -215,-482 -706,-493 -838,-1387 0,0 1665,-189 1843,95z"/>
  <path class="fil21" d="M17652 15120c0,0 429,-160 627,166 198,327 179,980 -37,1061 -216,80 -541,38 -652,-166 -111,-204 -211,-500 -206,-697 5,-197 156,-307 268,-364z"/>
  <path class="fil21" d="M18195 16362c0,0 -18,116 12,173 29,57 -556,58 -556,58 0,0 -48,-310 -138,-573 -90,-262 682,341 682,341z"/>
  <path class="fil28" d="M17513 16021c0,0 40,67 205,41 165,-26 366,-245 435,-269 69,-24 70,-64 70,-64l43 63 73 5c0,0 -67,-196 34,-276 101,-80 -104,-635 -633,-450 0,0 -406,112 -391,343 15,231 74,494 165,609z"/>
  <path class="fil29" d="M18241 16528c0,0 -2,-109 -51,-120 -49,-10 -545,-58 -606,-34l0 127c0,0 117,72 657,27z"/>
  <path class="fil21" d="M18212 15644c-9,-39 -108,-150 -146,-31 -38,119 57,278 110,264 53,-14 59,-135 36,-233z"/>
  <path class="fil23" d="M19061 16693c-340,-45 -820,-165 -820,-165l-657 -27c0,0 -603,133 -841,240 -22,10 -23,538 -84,677l197 416c0,0 114,823 138,1189 11,168 -235,1576 -235,1576 0,0 263,77 712,127 449,49 1570,-18 1577,-71 7,-53 -217,-1973 -227,-2072 -15,-153 53,-964 53,-964 104,-80 1013,-503 1261,-723 66,-59 347,-332 426,-426 282,-334 513,-620 542,-682 32,-35 -314,-222 -344,-232 -27,-9 -401,487 -548,647 -66,71 -338,269 -338,269 0,0 -597,233 -810,221z"/>
  <path class="fil28" d="M17530 15159c0,0 -547,43 -17,862l17 -862z"/>
  <polygon class="fil30" points="21235,15150 21280,15082 21197,15093 "/>
  <path class="fil31" d="M10283 19085c0,0 266,16 341,58 75,41 578,-117 587,-154 9,-37 0,-55 0,-55l-988 0 60 151z"/>
  <path class="fil31" d="M9088 17912c0,0 -85,667 0,754 324,334 1526,307 1526,307l0 136c0,0 -1827,228 -1997,-127 -204,-426 -125,-1120 -125,-1120l596 49z"/>
  <polygon class="fil32" points="8485,24942 8594,24818 8398,24613 8232,24729 "/>
  <path class="fil33" d="M8232 24729c0,0 224,168 286,175 62,7 92,35 84,129 -7,95 91,494 159,500 68,6 302,8 344,161 42,154 -740,121 -788,-5 -48,-126 -385,-737 -345,-786 40,-49 145,-160 260,-175z"/>
  <path class="fil34" d="M9667 19954c0,0 1461,2545 868,3071 -233,206 -456,393 -778,669 -171,147 -378,317 -622,572l-10 11c-175,182 -319,336 -363,383 -2,2 -3,3 -4,4l-5 5 -163 155 -239 -210c0,0 270,-374 423,-662 214,-403 574,-878 740,-1010 285,-227 363,-271 363,-488 0,-232 -1339,-1530 -1339,-1530 0,0 -194,-813 270,-1025 452,-207 859,53 859,53z"/>
  <path class="fil35" d="M8553 25336c0,0 -9,-117 11,-192 20,-75 -302,-32 -302,-32 0,0 -42,313 -29,385 12,72 321,-161 321,-161z"/>
  <path class="fil32" d="M8613 25144l-435 78c0,0 -31,-554 -26,-979 6,-457 -17,-816 123,-1179 130,-340 101,-469 112,-702 11,-232 -111,-1427 -111,-1427 0,0 -148,-535 195,-913 335,-368 1201,-2 1201,-2 0,0 -180,1632 -614,2642 -123,286 -56,459 -213,901 0,0 -237,963 -233,1579z"/>
  <path class="fil36" d="M8992 16794c-23,38 -39,88 -52,140 -12,49 -19,101 -24,149 -11,104 -9,190 -9,190 0,0 -580,-126 -484,-261 95,-135 39,-545 39,-545 0,0 605,201 529,327z"/>
  <path class="fil21" d="M9318 15677c0,0 148,129 82,500 0,0 33,296 78,347 45,52 -122,71 -139,108 -18,37 -51,211 -167,316 -116,105 -692,-211 -720,-389 -28,-178 -427,-943 204,-978 631,-35 662,97 662,97z"/>
  <path class="fil37" d="M9715 18416c-12,37 32,608 28,658 -22,270 48,681 75,828 7,35 10,53 10,53 -626,306 -1496,279 -1496,279 3,-24 125,-318 128,-340 52,-367 128,-535 107,-784l0 0c-12,-140 -47,-286 -121,-466 -213,-522 -201,-870 -166,-1157 35,-287 121,-451 121,-451l529 57c112,124 212,191 531,474 339,301 399,393 254,850z"/>
  <path class="fil34" d="M8212 25415c0,0 306,-87 315,-96 9,-8 11,-27 53,-10 42,17 60,81 101,101 41,20 294,94 432,162 50,25 261,105 292,173 30,67 21,169 -342,145 -363,-24 -761,27 -840,-12 -80,-40 -31,-357 -11,-462z"/>
  <path class="fil38" d="M9416 16044c0,0 71,-771 -676,-633 -747,138 -362,980 -261,1255 0,0 -12,-426 348,-440 360,-14 434,-97 590,-181z"/>
  <path class="fil36" d="M8767 16117c-45,-78 -199,-37 -182,83 18,119 141,238 182,181 41,-58 65,-148 -1,-263z"/>
  <path class="fil36" d="M8784 17631c0,0 -62,660 23,748 324,334 1604,340 1604,340l61 192c0,0 -1902,130 -2072,-225 -204,-426 -125,-1120 -125,-1120l508 65z"/>
  <path class="fil38" d="M8502 15600c0,0 -288,-276 -492,37 -205,313 243,749 425,490 182,-259 68,-527 68,-527z"/>
  <path class="fil39" d="M8940 16933c-12,49 -19,101 -24,149 -193,-88 -337,-356 -337,-356 139,120 360,207 360,207 0,0 0,0 0,0z"/>
  <polygon class="fil40" points="9877,19013 11691,19013 11691,18911 9877,18911 "/>
  <polygon class="fil40" points="12509,17393 11691,19013 11601,18967 12418,17347 "/>
  <path class="fil36" d="M10144 18719c0,0 266,-20 341,-73 75,-53 578,149 587,196 9,47 0,69 0,69l-988 0 60 -192z"/>
  <polygon class="fil37" points="8401,17036 8438,16935 8946,17036 8946,17126 "/>
  <path class="fil36" d="M8783 17640c0,0 54,-383 -212,-416 -266,-34 -296,344 -296,344l508 72z"/>
  <path class="fil41" d="M26143 24856c0,0 31,217 35,249 4,33 344,-19 344,-19l27 -258c0,0 -364,-3 -406,28z"/>
  <path class="fil42" d="M26174 25077c0,0 -108,131 -212,188 -104,57 -268,79 -330,138 -45,43 -162,226 271,222 433,-4 641,26 688,-44 46,-70 -67,-518 -67,-518 0,0 -102,37 -350,15z"/>
  <path class="fil41" d="M23706 24856c0,0 31,217 35,249 4,33 344,-19 344,-19l27 -258c0,0 -364,-3 -406,28z"/>
  <path class="fil42" d="M23737 25077c0,0 -108,131 -212,188 -104,57 -488,104 -549,163 -45,42 -118,214 491,198 433,-11 642,26 688,-44 46,-70 -67,-518 -67,-518 0,0 -97,40 -350,15z"/>
  <path class="fil43" d="M26022 19262c0,0 181,538 157,1001 -24,463 94,970 141,1454 54,540 273,1817 281,2106 8,289 -34,1210 -34,1210l-439 10c0,0 -368,-2233 -463,-2461 -96,-228 -568,-1853 -584,-2035 -16,-182 941,-1286 941,-1286z"/>
  <path class="fil42" d="M24179 19357c0,0 -241,1270 -273,1554 -32,284 -53,1372 -69,1550 -16,177 -106,2319 -191,2583l560 0c0,0 430,-1557 430,-2294 0,-737 332,-1602 547,-2088 215,-486 706,-498 838,-1400 0,0 -1665,-190 -1843,96z"/>
  <path class="fil21" d="M25318 15017c0,0 -442,-165 -646,171 -204,336 -184,1010 39,1093 223,83 557,39 671,-171 114,-210 217,-515 212,-718 -5,-203 -160,-316 -276,-375z"/>
  <path class="fil21" d="M24785 16260c0,0 18,116 -12,173 -30,57 556,58 556,58 0,0 48,-310 138,-573 90,-262 -682,341 -682,341z"/>
  <path class="fil44" d="M25467 15919c0,0 -40,67 -205,41 -165,-26 -366,-245 -435,-269 -69,-24 -70,-65 -70,-65l-43 63 -73 5c0,0 67,-196 -34,-276 -101,-80 104,-635 633,-450 0,0 406,112 391,343 -15,231 -74,494 -165,609z"/>
  <path class="fil29" d="M24739 16426c0,0 2,-109 51,-119 50,-10 546,-58 606,-34l0 127c0,0 -117,72 -657,27z"/>
  <path class="fil21" d="M24768 15542c9,-39 108,-149 145,-31 38,118 -57,278 -110,264 -53,-14 -59,-135 -36,-233z"/>
  <path class="fil37" d="M24739 16426c0,0 -272,98 -587,232 0,0 -362,135 -401,535 -21,212 -247,1339 -289,1435 -42,95 -544,1627 -561,1659 -18,32 409,209 438,195 28,-14 485,-1397 531,-1500 0,0 263,-829 270,-953 0,0 7,352 22,451 14,99 -234,2019 -227,2072 7,53 1128,120 1576,71 449,-49 811,-153 811,-153 0,0 -353,-1516 -342,-1684 24,-366 146,-1056 146,-1056l366 690 -468 1205 107 366c0,0 870,-1315 898,-1435 28,-120 -43,-273 -89,-372 -46,-99 -348,-852 -418,-958 -70,-106 -190,-530 -478,-648 -241,-99 -646,-180 -646,-180l-657 27z"/>
  <polygon class="fil45" points="24141,20981 22091,20456 22458,19026 24507,19552 "/>
  <path class="fil46" d="M22721 20600c0,0 -59,95 -80,122 -21,27 53,44 84,17 32,-27 -4,-138 -4,-138z"/>
  <path class="fil47" d="M23148 20923c0,0 35,-36 42,-59 0,0 10,-43 19,-73 3,-10 6,-18 8,-23 10,-22 38,-66 47,-125 9,-58 35,-321 35,-321l-159 -40 -128 -27c0,0 -276,275 -290,328 -1,5 -3,10 -3,15 -8,47 5,84 4,109 -1,9 1,100 22,117 29,24 59,28 84,20 0,0 60,44 110,41 0,0 54,42 115,21 0,0 59,37 94,14z"/>
  <path class="fil37" d="M23768 19265c0,0 -364,1102 -431,1217 0,0 -267,-56 -438,-195l399 -1189 469 167z"/>
  <path class="fil48" d="M31542 20580c0,0 -15,-254 -82,-293 -67,-39 -28,39 -28,39 0,0 38,184 46,259 0,3 64,-5 64,-5z"/>
  <path class="fil49" d="M29755 15245c0,0 631,-52 614,611 -17,664 -123,763 0,1232 123,469 -615,-266 -615,-266l1 -1577z"/>
  <path class="fil36" d="M29224 17038c0,0 -894,558 -969,498 -106,-83 -393,-790 -393,-790l-225 107c0,0 268,1223 629,1133 361,-90 1191,-603 1191,-603l-234 -345z"/>
  <path class="fil36" d="M30442 19345c0,0 232,296 314,492 82,196 218,625 200,958 -18,332 -128,957 -96,1098 32,141 64,433 98,533 34,100 171,392 185,692 14,301 -191,1622 -182,1745 9,123 -232,50 -232,50 0,0 -82,-1193 -128,-1398 -45,-205 -100,-902 -141,-952 -41,-50 -153,-569 -136,-651 17,-82 -447,-1312 -475,-1558 -27,-246 -712,-1008 -712,-1008 0,0 599,-229 1304,0z"/>
  <path class="fil36" d="M29333 19345c0,0 -12,124 -26,170 -14,45 -328,1207 -360,1653 -32,446 -114,825 -128,920 -14,95 14,414 41,496 27,82 -136,2018 -150,2063 -13,46 109,59 196,46 87,-14 524,-1421 497,-1658 -27,-237 -55,-742 23,-947 77,-205 774,-1690 779,-1781 5,-91 301,-1660 -872,-962z"/>
  <path class="fil36" d="M30733 24767c0,0 -22,157 -47,200 -25,43 -92,261 -123,302 -31,41 -98,347 0,384 98,37 329,98 407,-24 77,-123 88,-245 76,-339 -12,-94 -105,-525 -104,-568 1,-43 -208,45 -208,45z"/>
  <path class="fil37" d="M30603 25185c0,0 -11,238 169,238 180,0 259,-217 259,-217 0,0 61,106 0,333 -61,227 -316,180 -374,172 -57,-8 -328,-80 -55,-526z"/>
  <path class="fil37" d="M28730 24553c0,0 -127,227 -202,273 -94,57 -276,241 -340,250 -64,8 -293,49 -249,178 36,106 583,91 644,38 62,-53 246,-244 320,-240 74,4 47,275 47,275l81 0c0,0 28,-263 32,-309 10,-134 -85,-233 -90,-309 -4,-77 -9,-134 -9,-134l-234 -23z"/>
  <path class="fil36" d="M28206 25070c0,0 180,62 319,-18 139,-80 405,-201 499,-202 0,0 -51,-157 -52,-174 -1,-18 -7,-100 -7,-100l-233 -37c0,0 -151,222 -217,274 -67,52 -237,182 -309,257z"/>
  <path class="fil37" d="M29134 19325c0,0 -65,270 -89,348 -24,79 -177,1298 -215,2060 0,0 919,348 2183,290 0,0 31,-1401 -85,-1797 -116,-396 -326,-767 -485,-881 -141,-102 -1308,-21 -1308,-21z"/>
  <path class="fil36" d="M31231 20009c0,0 -19,114 -53,223 -35,110 -66,145 -52,208 10,47 64,83 78,68 13,-15 20,-200 96,-199 76,1 -23,228 23,212 45,-17 221,-113 210,-206 -11,-93 -81,-160 -77,-299 4,-126 -35,-179 -35,-179l-189 172z"/>
  <path class="fil21" d="M27576 16798c0,0 107,139 172,153 66,15 137,-142 137,-142l-39 -141 -271 130z"/>
  <path class="fil21" d="M27840 16752c0,0 51,-160 58,-184 7,-25 -18,-97 -63,-166 -44,-67 -99,-141 -119,-160 -10,-10 -16,-21 -49,-6 -33,15 -53,46 -53,46 0,0 -50,-1 -71,39 0,0 -47,1 -64,51 0,0 -46,3 -55,40 0,0 22,68 23,96 1,28 57,166 130,291 0,0 110,94 263,-46z"/>
  <path class="fil50" d="M27723 16544c0,0 -55,64 -62,90 -6,26 -167,-70 -167,-70 0,0 149,-84 229,-20z"/>
  <path class="fil22" d="M27724 16258c0,0 89,188 59,205 -30,16 -51,4 -51,4l-5 94c0,0 -38,61 -93,1 0,0 -30,61 -76,-3 0,0 -38,31 -64,5 -26,-26 -71,-153 -71,-153 0,0 3,-31 55,-40 0,0 13,-48 64,-51 0,0 29,-50 83,-52 0,0 31,-44 90,-27 0,0 5,8 8,16z"/>
  <path class="fil21" d="M27896 16561c0,0 -108,-95 -189,-121 -19,-6 -38,-8 -50,7 -13,15 -6,52 38,95 45,43 83,120 83,120 0,0 59,31 119,-101z"/>
  <path class="fil21" d="M27625 16269c0,0 110,196 109,219 -1,23 72,-16 72,-36 0,-20 -80,-194 -90,-210 -10,-16 -71,-28 -90,27z"/>
  <path class="fil21" d="M27738 16279c0,0 -175,-327 -201,-315 -38,17 -27,108 120,352 144,237 81,-37 81,-37z"/>
  <path class="fil23" d="M29176 17716l-361 -479c0,0 645,-500 844,-182 0,0 14,523 -483,661z"/>
  <path class="fil23" d="M28959 17699c10,161 92,294 106,352 13,58 0,191 17,325 17,133 68,769 51,950 -17,181 1243,99 1338,45 0,0 -212,-379 -218,-537 -2,-54 -34,-222 55,-345 47,-65 134,-272 221,-422 0,0 -16,-31 0,0 34,-59 69,-117 93,-161l0 0c32,-57 50,-124 50,-124 0,0 56,-697 -98,-775 -154,-79 -236,-92 -386,-99 -150,-7 -249,-38 -249,-38l-352 38c0,0 -225,79 -314,85 -89,7 -202,198 -191,321 10,123 -133,226 -123,386z"/>
  <path class="fil48" d="M31292 20301c0,0 -102,26 -96,370l115 -19c0,0 -2,-190 32,-294 0,0 -6,-67 -52,-57z"/>
  <polygon class="fil48" points="30870,20749 31767,20494 31764,21599 30871,22134 "/>
  <polygon class="fil48" points="30871,22134 30984,22155 31853,21615 31842,20499 31767,20494 "/>
  <path class="fil21" d="M30425 16941c0,0 280,-1 406,245 126,246 140,506 171,598 31,92 111,635 142,713 31,78 213,612 258,913 44,301 54,606 54,606l-224 -7c0,0 -223,-818 -299,-1013 -66,-166 -91,-457 -128,-559 -38,-103 -270,-823 -318,-875 -48,-51 -299,-575 -61,-621z"/>
  <path class="fil23" d="M30517 17938l569 -179c0,0 -175,-840 -661,-818 -390,18 92,997 92,997z"/>
  <path class="fil21" d="M29816 15312c-156,-26 -514,14 -616,424 0,0 0,114 17,205 17,91 -92,343 -73,358 19,15 102,41 102,41 0,0 59,295 159,304 100,9 487,-26 705,-359 218,-333 335,-870 -296,-973z"/>
  <path class="fil21" d="M29557 16530c0,0 8,41 15,102 4,31 7,67 9,105 6,106 3,228 -33,306 0,0 196,121 406,-171 0,0 -20,-364 100,-557 121,-193 -497,214 -497,214z"/>
  <path class="fil49" d="M29201 15736c0,0 235,203 485,267 249,64 381,344 381,344 0,0 441,-440 175,-867 -266,-427 -1040,-237 -1041,255z"/>
  <path class="fil39" d="M29572 16632c4,31 7,67 9,105 220,-107 341,-253 341,-253 -129,93 -350,148 -350,148z"/>
  <path class="fil49" d="M29731 16018c0,0 255,686 224,851 0,0 135,-23 375,50 0,0 -116,-1223 -600,-901z"/>
  <path class="fil21" d="M30041 16891c0,0 -84,514 -395,456 -311,-58 -75,-435 -75,-435 0,0 121,-109 470,-21z"/>
  <path class="fil51" d="M23975 10498c0,402 -144,770 -384,1055 -300,357 -750,585 -1256,585 -521,0 -994,-244 -1298,-637 -215,-277 -342,-625 -342,-1003 0,-906 734,-1640 1640,-1640 906,0 1640,734 1640,1640z"/>
  <path class="fil13" d="M23508 11377c-6,-6 -20,-11 -28,-16 -1,0 -1,-1 -2,-1l0 0c-72,-40 -283,-145 -699,-264 0,0 0,0 0,0 -75,-23 -133,-38 -152,-43l-35 -56c-6,-57 -4,-141 -3,-197 59,-68 111,-174 141,-340 9,7 17,-8 17,-8 -5,-9 79,-215 64,-262 -9,-26 -26,-23 -40,-15 2,-12 4,-24 6,-38 0,0 33,-316 -127,-492 -17,-16 -75,-20 -75,-20 -257,-79 -411,-44 -507,-2 -143,117 -154,316 -147,426 3,26 6,52 9,78 0,1 0,1 0,1 1,10 2,20 4,30 -13,-8 -31,-12 -41,14 -17,46 45,252 53,264 0,0 13,21 24,12 0,0 0,0 0,0 30,181 83,292 138,361 -4,73 -15,160 -22,215l-63 66 0 0 0 0c-3,1 -7,2 -10,3 0,0 0,0 0,0 -718,192 -921,325 -921,325 -18,11 -37,41 -55,85 300,388 771,637 1298,637 506,0 956,-229 1256,-585 -31,-75 -53,-146 -83,-176z"/>
  <polygon class="fil52" points="10785,11977 10814,11977 10814,9206 10785,9206 "/>
  <polygon class="fil52" points="12873,11977 12902,11977 12902,9206 12873,9206 "/>
  <polygon class="fil52" points="14961,11977 14990,11977 14990,9206 14961,9206 "/>
  <polygon class="fil52" points="17049,11977 17078,11977 17078,9206 17049,9206 "/>
  <polygon class="fil52" points="19137,11977 19167,11977 19167,9206 19137,9206 "/>
  <polygon class="fil53" points="10799,12237 11132,12237 11132,12141 10799,12141 "/>
  <polygon class="fil54" points="10799,8937 11300,8937 11300,8864 10799,8864 "/>
  <polygon class="fil54" points="10799,9070 11509,9070 11509,8998 10799,8998 "/>
  <polygon class="fil54" points="12865,8937 13452,8937 13452,8864 12865,8864 "/>
  <polygon class="fil54" points="12865,9070 13240,9070 13240,8998 12865,8998 "/>
  <polygon class="fil54" points="14990,8937 15354,8937 15354,8864 14990,8864 "/>
  <polygon class="fil54" points="14990,9070 15414,9070 15414,8998 14990,8998 "/>
  <polygon class="fil54" points="17078,8937 17608,8937 17608,8864 17078,8864 "/>
  <polygon class="fil54" points="17078,9070 17503,9070 17503,8998 17078,8998 "/>
  <polygon class="fil54" points="19152,8937 19468,8937 19468,8864 19152,8864 "/>
  <polygon class="fil54" points="19152,9070 19405,9070 19405,8998 19152,8998 "/>
  <polygon class="fil53" points="12887,12237 13220,12237 13220,12141 12887,12141 "/>
  <polygon class="fil53" points="14990,12237 15323,12237 15323,12141 14990,12141 "/>
  <polygon class="fil53" points="17078,12237 17411,12237 17411,12141 17078,12141 "/>
  <polygon class="fil53" points="19167,12237 19499,12237 19499,12141 19167,12141 "/>
  <path class="fil55" d="M18428 11154c-651,0 -1218,-253 -1808,-517 -729,-326 -1482,-663 -2486,-571 -641,59 -1043,294 -1398,501 -321,188 -625,353 -1037,367 -665,23 -896,-232 -900,-248l0 -164c1,3 146,289 899,286 371,-2 645,-161 961,-346 368,-215 786,-459 1460,-521 1044,-96 1816,249 2563,583 781,349 1527,677 2469,393l0 135c-269,81 -484,103 -724,103z"/>
  <path class="fil56" d="M14519 11122c-481,0 -862,-291 -1235,-575 -283,-216 -577,-437 -916,-545 -1035,-332 -1564,274 -1568,280l0 -185c6,-6 100,-117 373,-222 249,-96 666,-172 1241,8 365,114 667,345 960,568 594,453 1107,844 1998,231 675,-464 1311,-906 1937,-1068 612,-158 1250,-42 1848,495l-4 168c-1269,-1146 -2349,-420 -3695,505 -356,245 -663,340 -938,340z"/>
 </g>
</svg>
