<?xml version="1.0" encoding="UTF-8" standalone="no"?>
<svg
   xmlns:dc="http://purl.org/dc/elements/1.1/"
   xmlns:cc="http://creativecommons.org/ns#"
   xmlns:rdf="http://www.w3.org/1999/02/22-rdf-syntax-ns#"
   xmlns:svg="http://www.w3.org/2000/svg"
   xmlns="http://www.w3.org/2000/svg"
   viewBox="0 0 809.45331 565.91998"
   height="565.91998"
   width="809.45331"
   xml:space="preserve"
   id="svg2"
   version="1.1"><metadata
     id="metadata8"><rdf:RDF><cc:Work
         rdf:about=""><dc:format>image/svg+xml</dc:format><dc:type
           rdf:resource="http://purl.org/dc/dcmitype/StillImage" /></cc:Work></rdf:RDF></metadata><defs
     id="defs6"><clipPath
       id="clipPath32"
       clipPathUnits="userSpaceOnUse"><path
         id="path30"
         d="m 1755.09,3443.61 h 2896.08 v 254.27 H 1755.09 Z" /></clipPath><linearGradient
       id="linearGradient38"
       spreadMethod="pad"
       gradientTransform="matrix(2896.08,0,0,-2896.08,1755.09,3570.74)"
       gradientUnits="userSpaceOnUse"
       y2="0"
       x2="1"
       y1="0"
       x1="0"><stop
         id="stop34"
         offset="0"
         style="stop-opacity:1;stop-color:#40d5e6" /><stop
         id="stop36"
         offset="1"
         style="stop-opacity:1;stop-color:#5577ff" /></linearGradient></defs><g
     transform="matrix(1.3333333,0,0,-1.3333333,0,565.92)"
     id="g10"><g
       transform="scale(0.1)"
       id="g12"><path
         id="path14"
         style="fill:#f7f7f7;fill-opacity:1;fill-rule:nonzero;stroke:none"
         d="M 6070.85,0 H 0 V 4244.42 H 6070.85 V 0" /><path
         id="path16"
         style="fill:#73c0ff;fill-opacity:1;fill-rule:nonzero;stroke:none"
         d="m 4732.32,3311.54 c -143.15,0 -259.19,116.05 -259.19,259.2 0,143.15 116.04,259.2 259.19,259.2 143.15,0 259.2,-116.05 259.2,-259.2 0,-143.15 -116.05,-259.2 -259.2,-259.2 z m 337.33,346.6 c -8.2,31.74 -20.78,61.72 -37.03,89.29 l 37.7,56.7 -52.31,52.3 -52.3,52.3 -56.7,-37.69 c -27.57,16.25 -57.54,28.83 -89.29,37.03 l -13.43,66.7 h -73.97 -73.97 l -13.42,-66.7 c -31.75,-8.2 -61.72,-20.78 -89.29,-37.03 l -56.7,37.69 -52.3,-52.3 -52.31,-52.3 37.7,-56.7 c -16.25,-27.57 -28.83,-57.55 -37.03,-89.29 l -66.7,-13.43 v -73.97 -73.97 l 66.7,-13.42 c 8.2,-31.75 20.78,-61.73 37.03,-89.29 l -37.7,-56.7 52.31,-52.31 52.3,-52.3 56.7,37.7 c 27.57,-16.25 57.54,-28.83 89.29,-37.04 l 13.42,-66.69 h 73.97 73.97 l 13.43,66.69 c 31.75,8.21 61.72,20.79 89.29,37.04 l 56.7,-37.7 52.3,52.3 52.31,52.31 -37.7,56.7 c 16.25,27.56 28.83,57.54 37.03,89.29 l 66.7,13.42 v 73.97 73.97 l -66.7,13.43" /><path
         id="path18"
         style="fill:#73c0ff;fill-opacity:1;fill-rule:nonzero;stroke:none"
         d="m 5015.93,2870.18 c -65.63,0 -118.84,53.2 -118.84,118.83 0,65.62 53.21,118.83 118.84,118.83 65.63,0 118.83,-53.21 118.83,-118.83 0,-65.63 -53.2,-118.83 -118.83,-118.83 z m 154.64,158.89 c -3.76,14.56 -9.53,28.3 -16.98,40.94 l 17.29,25.99 -23.98,23.98 -23.98,23.98 -25.99,-17.28 c -12.64,7.45 -26.38,13.21 -40.94,16.97 l -6.15,30.58 h -33.91 -33.91 l -6.17,-30.58 c -14.55,-3.76 -28.29,-9.52 -40.92,-16.97 l -26,17.28 -23.97,-23.98 -23.99,-23.98 17.29,-25.99 c -7.45,-12.64 -13.22,-26.38 -16.99,-40.94 l -30.56,-6.15 v -33.91 -33.91 l 30.56,-6.16 c 3.77,-14.55 9.54,-28.29 16.99,-40.93 l -17.29,-26 23.99,-23.97 23.97,-23.99 26,17.29 c 12.63,-7.45 26.37,-13.22 40.92,-16.98 l 6.17,-30.57 h 33.91 33.91 l 6.15,30.57 c 14.56,3.76 28.3,9.53 40.94,16.98 l 25.99,-17.29 23.98,23.99 23.98,23.97 -17.29,26 c 7.45,12.64 13.22,26.38 16.98,40.93 l 30.58,6.16 v 33.91 33.91 l -30.58,6.15" /><path
         id="path20"
         style="fill:#4da8f2;fill-opacity:1;fill-rule:nonzero;stroke:none"
         d="m 3021.18,672.441 h 363.89 V 1777.71 H 3021.18 V 672.441" /><path
         id="path22"
         style="fill:#b5deff;fill-opacity:1;fill-rule:nonzero;stroke:none"
         d="m 1791.84,1245.29 h 2822.57 c 88.27,0 159.81,71.56 159.81,159.82 v 1897.03 c 0,88.26 -71.54,159.81 -159.81,159.81 H 1791.84 c -88.26,0 -159.81,-71.55 -159.81,-159.81 V 1405.11 c 0,-88.26 71.55,-159.82 159.81,-159.82" /><path
         id="path24"
         style="fill:#ffffff;fill-opacity:1;fill-rule:nonzero;stroke:none"
         d="M 1755.09,1592.67 H 4651.17 V 3697.88 H 1755.09 V 1592.67" /><g
         id="g26"><g
           clip-path="url(#clipPath32)"
           id="g28"><path
             id="path40"
             style="fill:url(#linearGradient38);fill-opacity:1;fill-rule:nonzero;stroke:none"
             d="m 1755.09,3443.61 h 2896.08 v 254.27 H 1755.09 v -254.27" /></g></g><path
         id="path42"
         style="fill:#4da8f2;fill-opacity:1;fill-rule:nonzero;stroke:none"
         d="m 3101.77,1433.71 c 0,-55.97 45.37,-101.36 101.36,-101.36 55.98,0 101.35,45.39 101.35,101.36 0,55.98 -45.37,101.36 -101.35,101.36 -55.99,0 -101.36,-45.38 -101.36,-101.36" /><path
         id="path44"
         style="fill:#dfe1e8;fill-opacity:1;fill-rule:nonzero;stroke:none"
         d="m 2732.59,3187.41 h 864.98 c 19.44,0 35.18,15.75 35.18,35.17 v 5.01 c 0,19.42 -15.74,35.17 -35.18,35.17 h -864.98 c -19.42,0 -35.17,-15.75 -35.17,-35.17 v -5.01 c 0,-19.42 15.75,-35.17 35.17,-35.17" /><path
         id="path46"
         style="fill:#dfe1e8;fill-opacity:1;fill-rule:nonzero;stroke:none"
         d="m 2732.59,3051.52 h 864.98 c 19.44,0 35.18,15.75 35.18,35.18 v 5 c 0,19.42 -15.74,35.17 -35.18,35.17 h -864.98 c -19.42,0 -35.17,-15.75 -35.17,-35.17 v -5 c 0,-19.43 15.75,-35.18 35.17,-35.18" /><path
         id="path48"
         style="fill:#dfe1e8;fill-opacity:1;fill-rule:nonzero;stroke:none"
         d="m 2732.59,2915.63 h 864.98 c 19.44,0 35.18,15.75 35.18,35.17 v 5 c 0,19.43 -15.74,35.18 -35.18,35.18 h -864.98 c -19.42,0 -35.17,-15.75 -35.17,-35.18 v -5 c 0,-19.42 15.75,-35.17 35.17,-35.17" /><path
         id="path50"
         style="fill:#dfe1e8;fill-opacity:1;fill-rule:nonzero;stroke:none"
         d="m 2053.33,2708.91 c -79.17,0 -143.58,-64.42 -143.58,-143.6 v -660.35 c 0,-79.18 64.41,-143.59 143.58,-143.59 h 1085.6 c 79.17,0 143.58,64.41 143.58,143.59 v 660.35 c 0,79.18 -64.41,143.6 -143.58,143.6 z m 1085.6,-968.12 h -1085.6 c -90.51,0 -164.16,73.64 -164.16,164.17 v 660.35 c 0,90.53 73.65,164.17 164.16,164.17 h 1085.6 c 90.52,0 164.16,-73.64 164.16,-164.17 v -660.35 c 0,-90.53 -73.64,-164.17 -164.16,-164.17" /><path
         id="path52"
         style="fill:#dfe1e8;fill-opacity:1;fill-rule:nonzero;stroke:none"
         d="m 2139.2,2480.61 h 913.86 c 40.04,0 72.5,32.46 72.5,72.5 v 13.8 c 0,40.04 -32.46,72.5 -72.5,72.5 H 2139.2 c -40.04,0 -72.5,-32.46 -72.5,-72.5 v -13.8 c 0,-40.04 32.46,-72.5 72.5,-72.5" /><path
         id="path54"
         style="fill:#b5deff;fill-opacity:1;fill-rule:nonzero;stroke:none"
         d="M 4021.67,630.719 H 2384.58 v 83.441 h 1637.09 v -83.441" /><path
         id="path56"
         style="fill:#eef0f7;fill-opacity:1;fill-rule:nonzero;stroke:none"
         d="m 4325.47,2512.52 c 0,-86.76 -46.88,-162.56 -116.7,-203.48 -14.03,-8.2 -28.99,-15.02 -44.68,-20.22 -1.41,-0.48 -2.84,-0.94 -4.26,-1.38 -22.12,-6.87 -45.63,-10.56 -70,-10.56 -37.63,0 -73.19,8.81 -104.75,24.49 -77.58,38.57 -130.91,118.63 -130.91,211.15 0,130.14 105.51,235.65 235.66,235.65 130.14,0 235.64,-105.51 235.64,-235.65" /><path
         id="path58"
         style="fill:#3c4145;fill-opacity:1;fill-rule:nonzero;stroke:none"
         d="m 4033.53,2537.39 c 0,0 -16.09,104.13 70.15,102.21 86.24,-1.92 85.08,-53.41 83.54,-104.51 -1.53,-51.1 -34.58,-47.26 2.7,-118.35 37.26,-71.08 -32.28,-71.08 -32.28,-71.08 l -53.96,74.16 -70.15,117.57" /><path
         id="path60"
         style="fill:#eea886;fill-opacity:1;fill-rule:nonzero;stroke:none"
         d="m 4094.24,2629.61 c 0,0 -58.41,-9.22 -60.71,-92.22 -2.3,-82.99 15.76,-100.67 66.86,-83.38 51.1,17.29 67.24,104.13 68.39,117.58 1.16,13.45 4.23,68.01 -74.54,58.02" /><path
         id="path62"
         style="fill:#e55353;fill-opacity:1;fill-rule:nonzero;stroke:none"
         d="m 4196.8,2340.94 c 0.18,-24.86 -13.12,-41.49 -32.71,-52.12 -1.41,-0.48 -2.84,-0.94 -4.26,-1.38 -22.12,-6.87 -45.63,-10.56 -70,-10.56 -37.63,0 -73.19,8.81 -104.75,24.49 -7.11,14.17 3.19,34.29 24.09,65.17 14.34,21.22 28.42,42.89 52.5,53.42 35.51,5.66 73.12,6 99.6,-8.97 21.12,-11.94 35.19,-33.6 35.53,-70.05" /><path
         id="path64"
         style="fill:#e55353;fill-opacity:1;fill-rule:nonzero;stroke:none"
         d="m 4020.6,2367.79 -26.85,-42.32 c 0.06,0.23 1.85,6.64 4.89,25.2 0.57,3.52 1.2,7.48 1.86,11.92 0.19,1.31 0.47,2.62 0.84,3.9 v 0.01 c 11.5,26.49 47.34,46.2 48.64,46.86 l -29.38,-45.57" /><path
         id="path66"
         style="fill:#eea886;fill-opacity:1;fill-rule:nonzero;stroke:none"
         d="m 4208.77,2309.04 c -14.03,-8.2 -28.99,-15.02 -44.68,-20.22 -1.41,-0.48 -2.84,-0.94 -4.26,-1.38 -5.96,15.38 -11.12,28.68 -12.25,32.13 -0.32,0.99 -1.09,2.87 -2.14,5.39 -4.84,11.77 -15.68,37.93 -15.81,58.41 -0.08,13.19 4.27,24.02 17.55,27.09 5.24,1.21 9.91,1.29 14.09,0.53 14.84,-2.69 23.49,-16.01 28.31,-27.82 0.09,-0.21 0.16,-0.4 0.23,-0.6 4.03,-10.04 5.29,-18.82 5.29,-18.82 0,0 0.24,-0.93 0.67,-2.6 0.83,-3.29 2.42,-9.54 4.49,-17.74 2.36,-9.41 5.34,-21.36 8.51,-34.37" /><path
         id="path68"
         style="fill:#eea886;fill-opacity:1;fill-rule:nonzero;stroke:none"
         d="m 4133.25,2491.4 c -5.07,-9.56 -10.41,-68.91 -10.41,-68.91 0,0 -71.44,-27 -64.12,-11.72 3.31,6.93 4.28,15.92 4.35,23.67 0.07,6.12 -0.44,11.46 -0.79,14.42 -0.19,1.56 -0.33,2.46 -0.33,2.46 0,0 76.36,49.64 71.3,40.08" /><path
         id="path70"
         style="fill:#3c4145;fill-opacity:1;fill-rule:nonzero;stroke:none"
         d="m 4070.42,2570.05 c 0,0 29.97,-48.79 57.25,-68.01 27.29,-19.21 13.45,-34.58 13.45,-34.58 0,0 71.18,149.86 3.5,160.23 -67.67,10.37 -109.17,11.14 -111.09,-90.3 0,0 30.74,33.43 36.89,32.66" /><path
         id="path72"
         style="fill:#a77860;fill-opacity:1;fill-rule:nonzero;stroke:none"
         d="m 4103.01,2454.97 c -10.96,-16.17 -39.93,-20.53 -39.93,-20.53 0,0 0,0 -0.01,0 0.07,6.12 -0.44,11.46 -0.79,14.42 18.6,-3.59 40.73,6.11 40.73,6.11" /><path
         id="path74"
         style="fill:#bd4444;fill-opacity:1;fill-rule:nonzero;stroke:none"
         d="m 4001.47,2366.81 c -0.01,0 -0.01,0 -0.01,0 0,0 -1.55,-3.22 -2.82,-16.14 l 10.52,15.87 c 0,0 18.78,26.95 25.23,33.95 6.44,7.01 15.76,13.16 15.76,13.16 0,0 -37.45,-17.78 -48.68,-46.84" /><path
         id="path76"
         style="fill:#e55353;fill-opacity:1;fill-rule:nonzero;stroke:none"
         d="m 4143.61,2326.63 c 0,0 45.85,17.99 59.41,19.03 0,0 -9.22,73.62 -54.26,65.82 -45.03,-7.8 -5.15,-84.85 -5.15,-84.85" /><path
         id="path78"
         style="fill:#eea886;fill-opacity:1;fill-rule:nonzero;stroke:none"
         d="m 4061.67,2419.96 c 0,0 -33.66,-51.76 -22.27,-56.27 11.4,-4.53 73.07,6.03 99.3,55.19 0,0 -39.21,20.11 -77.03,1.08" /><path
         id="path80"
         style="fill:#323657;fill-opacity:1;fill-rule:nonzero;stroke:none"
         d="m 1582.93,1248.95 -367.21,-2.79 -0.26,33.64 367.22,2.78 0.25,-33.63" /><path
         id="path82"
         style="fill:#323657;fill-opacity:1;fill-rule:nonzero;stroke:none"
         d="m 1690.44,1600.12 -107.39,-351.17 -32.17,9.83 107.4,351.16 32.16,-9.82" /><path
         id="path84"
         style="fill:#706865;fill-opacity:1;fill-rule:nonzero;stroke:none"
         d="m 2242.77,322.289 h -28.65 v 882.791 h 28.65 V 322.289" /><path
         id="path86"
         style="fill:#b59074;fill-opacity:1;fill-rule:nonzero;stroke:none"
         d="m 1139.09,1205.08 h 1259.4 v 50.19 h -1259.4 v -50.19" /><path
         id="path88"
         style="fill:#706865;fill-opacity:1;fill-rule:nonzero;stroke:none"
         d="m 1300.22,322.27 h 28.66 v 882.81 h -28.66 V 322.27" /><path
         id="path90"
         style="fill:#918783;fill-opacity:1;fill-rule:nonzero;stroke:none"
         d="m 759.027,467.141 h -34.449 v 434.781 h 34.449 V 467.141" /><path
         id="path92"
         style="fill:#1d3b54;fill-opacity:1;fill-rule:nonzero;stroke:none"
         d="m 1174.18,518.422 c 0,0 0.35,-19.223 6.58,-41.602 4.57,-16.41 13.76,-79.961 25.49,-88.851 11.72,-8.887 49.55,-32.438 43.99,-56.637 -5.55,-24.203 -10.25,-41.082 -51.09,-26.754 -40.84,14.344 -68.15,22.531 -76,58.383 -7.84,35.84 -30.19,68.48 -30.19,68.48 l -29.52,-73.429 -15.57,6.269 c 0,0 23.54,79.309 21.51,86.379 -2.02,7.07 10.8,70.078 60.2,85.692 49.39,15.597 44.6,-17.93 44.6,-17.93" /><path
         id="path94"
         style="fill:#1d3b54;fill-opacity:1;fill-rule:nonzero;stroke:none"
         d="m 1447,495.25 c 0,0 7.49,-17.691 21.62,-36.129 10.36,-13.519 42.59,-69.051 56.79,-72.922 14.2,-3.871 58.08,-11.621 61.95,-36.14 3.88,-24.52 5.81,-41.95 -37.43,-43.887 -43.24,-1.934 -71.63,-4.512 -92.28,25.816 -20.65,30.34 -53.56,52.274 -53.56,52.274 v -79.133 h -16.78 c 0,0 -7.74,82.351 -12.26,88.16 -4.52,5.813 -16.14,69.051 23.88,101.961 40.01,32.922 48.07,0 48.07,0" /><path
         id="path96"
         style="fill:#eea886;fill-opacity:1;fill-rule:nonzero;stroke:none"
         d="m 1007.36,1570.63 c 0,0 9.61,34.08 10.55,38.53 0.93,4.43 10.03,13.26 21.35,22.48 11.33,9.23 30.75,16.62 33.16,15.87 2.4,-0.75 5.18,-0.39 9.15,-5.49 3.97,-5.1 4.51,-11.6 4.51,-11.6 0,0 7.85,-3.99 7.91,-12.05 0,0 7.22,-4.09 5.8,-13.25 0,0 6.93,-4.2 5.34,-10.76 0,0 -9.1,-8.87 -11.53,-13.11 -2.42,-4.26 -22.61,-21.39 -44.5,-34.83 0,0 -27.95,-20.64 -41.74,24.21" /><path
         id="path98"
         style="fill:#cf8c6c;fill-opacity:1;fill-rule:nonzero;stroke:none"
         d="m 1049.18,1597.64 c 0,0 4.14,-14.35 3.27,-18.97 -0.88,-4.61 32.76,-5.28 32.76,-5.28 0,0 -18.46,28.81 -36.03,24.25" /><path
         id="path100"
         style="fill:#1d3b54;fill-opacity:1;fill-rule:nonzero;stroke:none"
         d="m 670.473,1512.03 c 13.586,21.99 31.699,31.9 89.25,-7.91 57.547,-39.79 44.031,-32 57.804,-44.62 13.782,-12.6 74.161,-44.17 74.161,-44.17 0,0 35.269,35.06 52.183,59.98 19.067,28.07 58.869,103.07 58.869,103.07 l 55.8,-41.54 c 0,0 -108.411,-196.56 -131.056,-211.09 -22.636,-14.52 -90.867,9.78 -126.386,24.74 -35.516,14.97 -73.118,34.34 -89.34,38.36 -16.223,4.02 -76.707,65.82 -41.285,123.18" /><path
         id="path102"
         style="fill:#eb4747;fill-opacity:1;fill-rule:nonzero;stroke:none"
         d="m 1062.56,1615.02 -10.41,2.29 27.14,123.16 10.42,-2.3 -27.15,-123.15" /><path
         id="path104"
         style="fill:#db9c7c;fill-opacity:1;fill-rule:nonzero;stroke:none"
         d="m 1069.36,1645.21 c 0,0 -28.13,-24.09 -24.81,-29.1 3.31,-5 7.57,-4.83 7.57,-4.83 l -7.08,-15.17 c 0,0 0.98,-12.68 14.51,-7.91 0,0 -0.31,-11.95 12.2,-5.78 0,0 3.31,-7.97 9.62,-6.14 6.3,1.83 23.76,18.08 23.76,18.08 0,0 2.14,5.07 -5.34,10.76 0,0 1.88,8.69 -5.8,13.25 0,0 0.42,7.21 -7.91,12.05 0,0 -0.33,16.12 -13.66,17.09 0,0 -1.88,-1.28 -3.06,-2.3" /><path
         id="path106"
         style="fill:#eea886;fill-opacity:1;fill-rule:nonzero;stroke:none"
         d="m 1018.3,1608.79 c 0,0 18.84,17.04 33.22,21.84 3.25,1.08 6.6,1.54 8.83,-1.08 2.23,-2.62 1.29,-9.16 -6.5,-16.96 -7.79,-7.8 -14.28,-21.45 -14.28,-21.45 0,0 -10.35,-5.67 -21.27,17.65" /><path
         id="path108"
         style="fill:#152c3d;fill-opacity:1;fill-rule:nonzero;stroke:none"
         d="m 938.734,1392.65 c 0,0 11.332,41.06 -2.015,72.86 0,0 5.078,-32.91 -9.336,-56.31 -10.442,-16.96 11.351,-16.55 11.351,-16.55" /><path
         id="path110"
         style="fill:#eddad3;fill-opacity:1;fill-rule:nonzero;stroke:none"
         d="m 1144.34,1386.29 c 0,0 30.37,225.1 83.34,323.24 h -77.89 c 0,0 -87.24,-153.72 -70.88,-308.97 l 65.43,-14.27" /><path
         id="path112"
         style="fill:#eea886;fill-opacity:1;fill-rule:nonzero;stroke:none"
         d="m 1162.98,1554.81 c 0,0 8.89,16.56 11.03,21.97 2.14,5.4 10.87,-3.98 9.55,-10.92 -1.31,-6.94 -20.58,-11.05 -20.58,-11.05" /><path
         id="path114"
         style="fill:#eea886;fill-opacity:1;fill-rule:nonzero;stroke:none"
         d="m 1232.06,1517.17 c 0,0 -2.36,-8.12 -5.11,-11.16 0,0 -5.44,-5.15 -9.09,-9.06 -1.15,-1.24 -2.13,-2.34 -2.68,-3.12 -2.33,-3.25 -6.46,-11.11 -14.25,-17.37 -7.77,-6.26 -37.48,-25.59 -37.48,-25.59 l -20.96,22.39 -16.78,17.45 c 0,0 14.18,53.3 20.76,59.97 0.64,0.66 1.3,1.27 1.97,1.8 6.12,5.11 12.81,6.35 16.32,8.65 1.29,0.85 14.74,8.36 19.02,6.7 5.96,-2.3 9.16,-6.32 10.08,-10.59 0,0 11.47,-5.03 15.29,-12.53 0,0 10.73,-4.3 12.83,-14.99 0,0 10.39,-5.58 10.08,-12.55" /><path
         id="path116"
         style="fill:#eea886;fill-opacity:1;fill-rule:nonzero;stroke:none"
         d="m 1369.95,935.891 c 0,0 -51.47,-115.801 -88.21,-198.442 -6.16,-13.91 -11.93,-26.871 -16.96,-38.179 -5.89,-13.258 -10.78,-24.239 -14.15,-31.829 -23.38,-52.601 -80.9,-167.32 -80.9,-167.32 0,0 -43.27,-1.652 -45.78,35.098 0,0 41.52,79.621 41.52,135.562 0,55.957 7.51,220.758 60.96,256.391 65.18,43.437 107.5,51.668 143.52,8.719" /><path
         id="path118"
         style="fill:#eea886;fill-opacity:1;fill-rule:nonzero;stroke:none"
         d="m 894.047,1155.99 c 0,0 10.859,-10.86 20.047,-13.36 9.183,-2.51 162.846,-14.21 233.826,-37.59 70.99,-23.38 165.36,-38.42 182.89,-58.46 17.54,-20.04 46.77,-130.271 45.93,-151.15 -0.83,-20.879 62.39,-372.711 70.26,-400.18 4.18,-14.551 -57.17,-8.98 -57.17,-8.98 0,0 -87.17,207.902 -105.78,246.312 -34.21,70.566 -35.92,156.996 -48.44,170.367 -12.53,13.36 -151.99,43.422 -232.16,43.422 -80.173,0 -259.72,-6.68 -278.93,4.18 -19.207,10.859 -139.461,90.189 -89.352,196.249 50.102,106.05 258.879,9.19 258.879,9.19" /><path
         id="path120"
         style="fill:#1d3b54;fill-opacity:1;fill-rule:nonzero;stroke:none"
         d="M 1240.83,1080.04 1113.64,835.289 c 0,0 -38.31,90.82 -105.15,106.461 -66.849,15.621 -333.603,7.25 -333.603,7.25 0,0 -122.407,154.84 -17.582,236.07 104.824,81.23 227.238,-12.78 227.238,-12.78 0,0 25.293,-27.42 37.523,-28.02 88.944,-4.43 183.784,-21 318.764,-64.23" /><path
         id="path122"
         style="fill:#eea886;fill-opacity:1;fill-rule:nonzero;stroke:none"
         d="m 1525.41,386.199 c 0,0 -38.72,-9.687 -53.56,0 -14.84,9.672 -65.31,94.961 -82.02,100.071 0,0 16.2,32.859 57.17,8.98 0,0 67.44,-94.859 78.41,-109.051" /><path
         id="path124"
         style="fill:#eea886;fill-opacity:1;fill-rule:nonzero;stroke:none"
         d="m 1206.25,387.969 c 0,0 -39.54,5.472 -49.7,19.992 -10.16,14.508 -25.16,112.469 -38.77,123.449 0,0 27.29,24.449 56.4,-12.988 0,0 27.18,-113.172 32.07,-130.453" /><path
         id="path126"
         style="fill:#eea886;fill-opacity:1;fill-rule:nonzero;stroke:none"
         d="m 802.27,1924.61 c 30.55,1.48 98.304,-13.89 108.746,-94.84 0,0 -2.442,-21.82 -7.739,-38.98 -5.297,-17.14 10.067,-67.7 6.059,-70.2 -4.008,-2.48 -20.582,-5.68 -20.582,-5.68 0,0 -17.816,-55.23 -37.211,-54.76 -19.391,0.48 -92.797,15.63 -127.371,84.35 -34.57,68.71 -45.25,174.14 78.098,180.11" /><path
         id="path128"
         style="fill:#eea886;fill-opacity:1;fill-rule:nonzero;stroke:none"
         d="m 825.348,1685.34 c 0,0 -2.383,-7.74 -5.094,-19.23 -1.387,-5.87 -2.856,-12.71 -4.137,-20 -3.515,-20.15 -5.582,-43.71 -0.359,-59.39 0,0 -42.871,-14.85 -76.742,45.74 0,0 14.543,65.28 -4.36,104.87 -18.898,39.57 90.692,-51.99 90.692,-51.99" /><path
         id="path130"
         style="fill:#1d3b54;fill-opacity:1;fill-rule:nonzero;stroke:none"
         d="m 911.016,1829.77 c 0,0 -46.868,-42.07 -96.442,-38.74 -50.344,3.39 -83.027,-59.53 -83.027,-59.53 0,0 -74.938,94.05 -14.527,170.08 60.414,76.06 204.71,22.55 193.996,-71.81" /><path
         id="path132"
         style="fill:#eea886;fill-opacity:1;fill-rule:nonzero;stroke:none"
         d="m 791.746,1791.4 c -0.266,9.53 -10.867,23.83 -26.476,10.81 -15.618,-13.03 5.378,-58.32 18.171,-53.89 12.797,4.44 8.586,33.23 8.305,43.08" /><path
         id="path134"
         style="fill:#a77860;fill-opacity:1;fill-rule:nonzero;stroke:none"
         d="m 820.254,1666.11 c -1.387,-5.87 -2.856,-12.71 -4.137,-20 -39.812,25.29 -59.851,55.98 -59.851,55.98 22.757,-20.58 63.988,-35.98 63.988,-35.98" /><path
         id="path136"
         style="fill:#1d3b54;fill-opacity:1;fill-rule:nonzero;stroke:none"
         d="m 936.477,1434.54 c -9.028,-41.82 -32.77,-44.01 -31.332,-74.91 1.441,-30.89 10.668,-33.54 -5.309,-82.26 -2.957,-9.01 -5.359,-18.83 -7.297,-28.85 -0.226,-1.18 -0.465,-2.38 -0.664,-3.57 -1.047,-5.62 -1.93,-11.29 -2.699,-16.87 -1.422,-10.34 -2.446,-20.44 -3.16,-29.66 -1.879,-24.04 15.824,-42.6 15.824,-42.6 0,0 -156.313,-93.65 -263.625,-80.51 0,0 27.781,116.78 43.086,156.9 15.297,40.11 10.676,225.47 -0.582,265.24 -16.614,58.7 16.578,146.71 61.949,158.18 l 70.352,-32.58 c 0,0 70.863,-84.63 86.761,-97.4 15.883,-12.79 45.86,-48.7 36.696,-91.11" /><path
         id="path138"
         style="fill:#1d3b54;fill-opacity:1;fill-rule:nonzero;stroke:none"
         d="m 703.941,1605.9 c 19.868,16.54 48.618,44.86 90.551,-11.15 41.934,-56.02 72.442,-92.11 81.504,-108.45 9.063,-16.34 87.891,-130.14 87.891,-130.14 0,0 41.873,38.88 65.823,57.12 26.99,20.57 100.55,97.21 100.55,97.21 l 48.62,-53.91 c 0,0 -168.67,-187.16 -194.747,-193.75 -26.082,-6.6 -99.133,59.13 -128.063,84.61 -28.925,25.47 -110.097,118.23 -124.199,127.2 -14.101,8.96 -79.738,88.11 -27.93,131.26" /><path
         id="path140"
         style="fill:#a77860;fill-opacity:1;fill-rule:nonzero;stroke:none"
         d="m 1281.74,737.449 c -6.16,-13.91 -11.93,-26.871 -16.96,-38.179 -18.93,60.871 -17.37,162.589 -17.37,162.589 11.37,-70.918 33.99,-123.597 34.33,-124.41" /><path
         id="path142"
         style="fill:#b5deff;fill-opacity:1;fill-rule:nonzero;stroke:none"
         d="M 466.723,949 H 1008.49 V 889.379 H 466.723 V 949" /><path
         id="path144"
         style="fill:#b5deff;fill-opacity:1;fill-rule:nonzero;stroke:none"
         d="m 748.633,1139.16 c 0,0 -13.656,-55.23 50.648,-67.78 64.313,-12.55 143.395,-28.58 143.395,-127.79 H 719.645 l 28.988,195.57" /><path
         id="path146"
         style="fill:#eea886;fill-opacity:1;fill-rule:nonzero;stroke:none"
         d="m 1079.29,1740.47 9.21,16.97 1.21,-19.27 z" /><path
         id="path148"
         style="fill:#b5deff;fill-opacity:1;fill-rule:nonzero;stroke:none"
         d="M 466.723,889.379 277.324,1685.38 c 0,0 342.406,53.5 383.199,-100.26 40.793,-153.77 107.907,-610.499 189.493,-638.741 81.586,-28.238 -383.293,-57 -383.293,-57" /><path
         id="path150"
         style="fill:#152c3d;fill-opacity:1;fill-rule:nonzero;stroke:none"
         d="m 907.141,1303.96 c 0,0 -3.493,-14.61 -7.219,-26.7 l -83.305,108.03 90.524,-81.33" /><path
         id="path152"
         style="fill:#1d3b54;fill-opacity:1;fill-rule:nonzero;stroke:none"
         d="m 698.297,1799.1 c 0,0 32.933,-87 23.976,-110.76 0,0 51.403,21.95 42.02,78.96 -9.383,56.99 -65.996,31.8 -65.996,31.8" /><path
         id="path154"
         style="fill:#1d3b54;fill-opacity:1;fill-rule:nonzero;stroke:none"
         d="m 817.074,1618.21 v 17.22 l -73.094,35.6 -25.289,-29.21 98.383,-23.61" /><path
         id="path156"
         style="fill:#bfb2ac;fill-opacity:1;fill-rule:nonzero;stroke:none"
         d="m 1076.19,354.891 c 0,-15.641 -12.68,-28.321 -28.32,-28.321 -15.64,0 -28.32,12.68 -28.32,28.321 0,15.648 12.68,28.32 28.32,28.32 15.64,0 28.32,-12.672 28.32,-28.32" /><path
         id="path158"
         style="fill:#918783;fill-opacity:1;fill-rule:nonzero;stroke:none"
         d="m 438.402,382.961 7.172,-20.18 303.059,93.899 -14.528,40.859 -295.703,-114.578" /><path
         id="path160"
         style="fill:#918783;fill-opacity:1;fill-rule:nonzero;stroke:none"
         d="m 1047.87,382.961 -7.17,-20.18 -303.059,93.899 13.316,43.422 296.913,-117.141" /><path
         id="path162"
         style="fill:#918783;fill-opacity:1;fill-rule:nonzero;stroke:none"
         d="m 834.348,364.941 v -23.472 l -96.707,115.211 13.316,43.422 83.391,-135.161" /><path
         id="path164"
         style="fill:#bfb2ac;fill-opacity:1;fill-rule:nonzero;stroke:none"
         d="m 836.754,354.891 c 0,-15.641 -12.684,-28.321 -28.324,-28.321 -15.641,0 -28.325,12.68 -28.325,28.321 0,15.648 12.684,28.32 28.325,28.32 15.64,0 28.324,-12.672 28.324,-28.32" /><path
         id="path166"
         style="fill:#bfb2ac;fill-opacity:1;fill-rule:nonzero;stroke:none"
         d="m 466.723,354.891 c 0,-15.641 -12.676,-28.321 -28.321,-28.321 -15.644,0 -28.32,12.68 -28.32,28.321 0,15.648 12.676,28.32 28.32,28.32 15.645,0 28.321,-12.672 28.321,-28.32" /><path
         id="path168"
         style="fill:#eef0f7;fill-opacity:1;fill-rule:nonzero;stroke:none"
         d="m 4412.51,3200.02 c 0,-75.14 -27.01,-143.93 -71.84,-197.26 -10.5,-12.47 -21.95,-24.09 -34.27,-34.74 -3.51,-3.03 -7.11,-6.01 -10.76,-8.87 -4.13,-3.27 -8.34,-6.41 -12.63,-9.47 -40.36,-28.6 -87.94,-47.69 -139.45,-53.99 -9.07,-1.12 -18.28,-1.83 -27.59,-2.13 -3.34,-0.11 -6.7,-0.16 -10.07,-0.16 -9.92,0 -19.73,0.47 -29.4,1.39 -10.81,1.03 -21.46,2.61 -31.91,4.75 -46.45,9.42 -89.09,29.34 -125.33,57.2 -10.94,8.39 -21.28,17.49 -30.95,27.26 -1.89,1.89 -3.75,3.82 -5.58,5.77 -6.88,7.26 -13.36,14.86 -19.46,22.77 -40.13,51.84 -64,116.87 -64,187.48 0,169.34 137.29,306.63 306.63,306.63 169.34,0 306.61,-137.29 306.61,-306.63" /><path
         id="path170"
         style="fill:#d9c7c1;fill-opacity:1;fill-rule:nonzero;stroke:none"
         d="m 4305.63,3030.83 -22.62,-81.15 c -40.36,-28.6 -87.94,-47.69 -139.45,-53.99 -9.07,-1.12 -18.28,-1.83 -27.59,-2.13 -3.34,-0.11 -6.7,-0.16 -10.07,-0.16 -9.92,0 -19.73,0.47 -29.4,1.39 -10.81,1.03 -21.46,2.61 -31.91,4.75 -46.45,9.42 -89.09,29.34 -125.33,57.2 -4.33,26.83 -8.99,56.52 -13.09,84.29 22.54,8.39 94.26,32.78 139.53,48.09 0.63,0.22 1.27,0.42 1.88,0.63 1,0.35 1.98,0.68 2.94,0.99 2.69,0.91 5.25,1.78 7.69,2.6 2.48,0.84 4.84,1.63 7.04,2.39 9.27,3.12 15.81,5.32 18.14,6.09 0.02,0.02 0.02,0.02 0.04,0.02 0.61,0.21 0.92,0.32 0.92,0.32 l 0.53,-0.03 60.87,-4.56 10.2,-0.76 3.19,-0.24 c 0,0 0.46,-0.11 1.38,-0.35 3.67,-0.93 14.34,-3.73 28.46,-8.04 0.02,0 0.05,-0.01 0.07,-0.01 36.04,-11.04 94.53,-31.99 116.58,-57.34" /><path
         id="path172"
         style="fill:#eea987;fill-opacity:1;fill-rule:nonzero;stroke:none"
         d="m 4121.86,3352.27 c 0,0 73,-12.32 60.62,-126.6 -12.39,-114.29 -76.81,-104.21 -81.14,-104.05 -4.3,0.16 -64.8,-1.38 -68,138.36 0,0 -0.92,103.32 88.52,92.29" /><path
         id="path174"
         style="fill:#eea987;fill-opacity:1;fill-rule:nonzero;stroke:none"
         d="m 4153.84,3154.75 c 0,0 -2.51,-47.03 1.93,-57.27 4.45,-10.24 -58.62,-42.63 -97.8,-5.74 0,0 7.92,51.42 5.46,69.57 -2.46,18.16 90.41,-6.56 90.41,-6.56" /><path
         id="path176"
         style="fill:#eea987;fill-opacity:1;fill-rule:nonzero;stroke:none"
         d="m 4183.97,3257.97 c 0,0 8.1,8.47 10.94,-0.22 2.84,-8.7 -12.94,-47.22 -11.96,-48.96 0,0 -1.49,-3.34 -3.39,-1.47 -1.91,1.87 4.41,50.65 4.41,50.65" /><path
         id="path178"
         style="fill:#eea987;fill-opacity:1;fill-rule:nonzero;stroke:none"
         d="m 4034.18,3261.05 c 0,0 -7.75,8.79 -10.94,0.22 -3.2,-8.56 8.47,-47.03 9.93,-49.4 0,0 2.51,-3.95 4.49,-2.16 1.97,1.79 -3.48,51.34 -3.48,51.34" /><path
         id="path180"
         style="fill:#e8734d;fill-opacity:1;fill-rule:nonzero;stroke:none"
         d="m 4188.64,3267.68 c -2.53,-15.64 -4.89,-27.26 -4.89,-27.26 l -10.63,-13.87 c 0,0 0.63,30.68 -1,35.5 -0.61,1.83 -1.33,5.06 -2.08,8.56 -1.23,5.78 -2.47,12.31 -3.33,14.48 -1.36,3.48 -62.56,21.35 -117.08,-3.75 0,0 0.47,-4.72 0.43,-9.98 -0.01,-6.13 -0.68,-12.98 -3.49,-14.02 -5.23,-1.91 -3.05,-35.9 -3.05,-35.9 l -8.5,9.8 c 0,0 -2.46,17.76 -4.87,38.17 0,0 -0.01,0.05 -0.02,0.15 -0.55,4.76 -1.11,9.65 -1.64,14.51 -1.22,20.53 0.81,57.81 27.55,79.7 18.04,7.73 46.84,14.29 94.84,-0.41 0,0 11.02,-0.73 14.11,-3.71 29.9,-32.9 23.65,-91.97 23.65,-91.97" /><path
         id="path182"
         style="fill:#c78d71;fill-opacity:1;fill-rule:nonzero;stroke:none"
         d="m 4068.44,3136.9 c 0,0 11.65,-16.18 38.72,-15.57 27.07,0.61 38.82,14.73 38.82,14.73 0,0 -12.81,-26.81 -38.94,-26.52 -26.15,0.28 -38.6,27.36 -38.6,27.36" /><path
         id="path184"
         style="fill:#eea987;fill-opacity:1;fill-rule:nonzero;stroke:none"
         d="m 4050.53,3090.76 c 0,0 19.56,-34.06 56.68,-37.27 23.56,-2.03 43.94,27.8 53.49,42.46 0,0 -52.73,22.57 -110.17,-5.19" /><path
         id="path186"
         style="fill:#eddad3;fill-opacity:1;fill-rule:nonzero;stroke:none"
         d="m 4153.93,3106.72 c 0,0 -14.92,-19.55 -46.72,-40.47 l 19.78,-30.47 33.71,60.17 -6.77,10.77" /><path
         id="path188"
         style="fill:#eddad3;fill-opacity:1;fill-rule:nonzero;stroke:none"
         d="m 4059.46,3102.16 c 0,0 18.99,-23.8 47.75,-35.91 l -21.7,-31.39 -37.93,54.9 11.88,12.4" /><path
         id="path190"
         style="fill:#5073ab;fill-opacity:1;fill-rule:nonzero;stroke:none"
         d="m 4107.21,3066.25 16.95,-25.79 c 0,0 -17.79,-10.06 -34.34,0.64 l 17.39,25.15" /><path
         id="path192"
         style="fill:#323657;fill-opacity:1;fill-rule:nonzero;stroke:none"
         d="m 4325.21,3035.62 c 0,0 -0.17,-0.58 -0.49,-1.69 -1.86,-6.62 -9.01,-32.07 -18.32,-65.91 -3.51,-3.03 -7.11,-6.01 -10.76,-8.87 -4.13,-3.27 -8.34,-6.41 -12.63,-9.47 -40.36,-28.6 -87.94,-47.69 -139.45,-53.99 4.54,106.14 17.14,200.26 17.14,200.26 9.94,-2.61 19.36,-5.21 28.28,-7.77 0.02,0 0.05,-0.01 0.07,-0.01 77.8,-22.33 117.25,-41.93 130.71,-49.37 0.11,-0.04 0.21,-0.11 0.29,-0.16 3.52,-1.96 5.16,-3.02 5.16,-3.02" /><path
         id="path194"
         style="fill:#323657;fill-opacity:1;fill-rule:nonzero;stroke:none"
         d="m 4044.59,2899.54 c -46.45,9.42 -89.09,29.34 -125.33,57.2 -10.94,8.39 -21.28,17.49 -30.95,27.26 -1.89,1.89 -3.75,3.82 -5.58,5.77 -5.37,22.79 -8.94,37.67 -9.17,38.63 l -0.01,0.05 c 0,0 37.94,24.93 172.15,60.75 0,0 0,-0.04 0,-0.08 0,-3.07 0.08,-89.17 -1.11,-189.58" /><path
         id="path196"
         style="fill:#5073ab;fill-opacity:1;fill-rule:nonzero;stroke:none"
         d="m 4116.92,3037.63 c -1.25,-27.95 -1.38,-82.19 -0.95,-144.07 -3.34,-0.11 -6.7,-0.16 -10.07,-0.16 -9.92,0 -19.73,0.47 -29.4,1.39 5.9,76.32 15.84,124.04 20.37,142.92 1.48,6.19 2.39,9.27 2.39,9.27 l 17.99,-2.97 c -0.13,-1.95 -0.23,-4.07 -0.33,-6.38" /><path
         id="path198"
         style="fill:#323657;fill-opacity:1;fill-rule:nonzero;stroke:none"
         d="m 4340.67,3002.76 c -10.5,-12.47 -21.95,-24.09 -34.27,-34.74 -3.51,-3.03 -7.11,-6.01 -10.76,-8.87 l 24.12,79.65 0.01,0.03 c 0.1,-0.06 0.2,-0.11 0.28,-0.19 1.49,-0.96 3.03,-2.55 4.67,-4.71 4.74,-6.19 10.16,-17.06 15.95,-31.17" /><path
         id="path200"
         style="fill:#323657;fill-opacity:1;fill-rule:nonzero;stroke:none"
         d="m 3888.31,2984 c -1.89,1.89 -3.75,3.82 -5.58,5.77 -6.88,7.26 -13.36,14.86 -19.46,22.77 3.45,8.28 6.91,13.84 10.28,15.91 l 0.01,-0.05 14.75,-44.4" /><path
         id="path202"
         style="fill:#f5f7ff;fill-opacity:1;fill-rule:nonzero;stroke:none"
         d="m 2254.57,3522.7 h -343.98 c -19.08,0 -34.55,15.46 -34.55,34.54 v 27 c 0,19.08 15.47,34.55 34.55,34.55 h 343.98 c 19.08,0 34.54,-15.47 34.54,-34.55 v -27 c 0,-19.08 -15.46,-34.54 -34.54,-34.54" /><path
         id="path204"
         style="fill:#78c2ff;fill-opacity:1;fill-rule:nonzero;stroke:none"
         d="m 1961.74,3083.31 c 0.61,47.52 23.46,89.56 58.52,116.32 25.55,19.53 57.54,30.95 92.15,30.51 63.63,-0.81 117.4,-41.47 137.92,-97.94 l 0.04,-0.08 c 4.87,-13.44 7.86,-27.76 8.67,-42.68 0.17,-3.29 0.22,-6.61 0.2,-9.96 -0.44,-33.63 -12.01,-64.49 -31.13,-89.15 -27.61,-35.61 -71,-58.3 -119.51,-57.67 -16.05,0.21 -31.43,2.94 -45.82,7.81 -59.43,20.09 -101.88,76.69 -101.04,142.84 z m 85.13,-189.88 c 19.17,-6.5 39.71,-10.13 61.07,-10.41 64.72,-0.83 122.61,29.41 159.43,76.88 25.53,32.92 40.95,74.1 41.5,118.95 0.06,4.45 -0.03,8.9 -0.26,13.28 -1.06,19.93 -5.07,39.07 -11.6,57.03 -27.36,75.31 -99.09,129.53 -183.95,130.63 -45.73,0.59 -88.02,-14.33 -121.91,-39.9 -47.34,-35.69 -78.23,-92.1 -79.04,-155.95 -1.13,-88.19 55.47,-163.69 134.76,-190.51" /><path
         id="path206"
         style="fill:#1a598c;fill-opacity:1;fill-rule:nonzero;stroke:none"
         d="m 2228.11,2990.32 39.25,-30.41 c -36.82,-47.48 -94.7,-77.72 -159.42,-76.89 -21.36,0.27 -41.89,3.91 -61.08,10.41 l 15.93,47.03 c 14.39,-4.86 29.78,-7.59 45.79,-7.79 48.52,-0.63 91.91,22.05 119.53,57.65" /><path
         id="path208"
         style="fill:#2273b5;fill-opacity:1;fill-rule:nonzero;stroke:none"
         d="m 2259.02,3089.45 49.59,2.69 c 0.23,-4.39 0.33,-8.83 0.26,-13.29 -0.57,-44.85 -15.98,-86.03 -41.51,-118.94 l -39.25,30.41 c 19.13,24.67 30.68,55.54 31.12,89.16 0.04,3.35 -0.03,6.68 -0.21,9.97" /><path
         id="path210"
         style="fill:#2273b5;fill-opacity:1;fill-rule:nonzero;stroke:none"
         d="m 2259.04,3089.44 c -0.81,14.92 -3.8,29.24 -8.67,42.68 l -0.04,0.08 46.68,16.96 c 6.53,-17.96 10.54,-37.1 11.6,-57.03 l -49.57,-2.69" /><path
         id="path212"
         style="fill:#4da8f2;fill-opacity:1;fill-rule:nonzero;stroke:none"
         d="m 1991.15,3239.89 c 33.89,25.57 76.18,40.49 121.91,39.9 84.86,-1.1 156.59,-55.32 183.95,-130.63 l -46.64,-17.04 -0.04,0.08 c -20.52,56.47 -74.29,97.13 -137.92,97.94 -34.61,0.44 -66.6,-10.98 -92.15,-30.51 l -29.11,40.26" /><path
         id="path214"
         style="fill:#78c2ff;fill-opacity:1;fill-rule:nonzero;stroke:none"
         d="m 3586.5,2498.18 h -128.52 c -25.54,0 -46.25,20.71 -46.25,46.25 v 128.52 c 0,25.54 20.71,46.25 46.25,46.25 h 128.52 c 25.55,0 46.25,-20.71 46.25,-46.25 v -128.52 c 0,-25.54 -20.7,-46.25 -46.25,-46.25" /><path
         id="path216"
         style="fill:#f3f3f3;fill-opacity:1;fill-rule:nonzero;stroke:none"
         d="m 3515.25,2560.01 -55.88,48.71 c -4.58,4 -5.06,10.95 -1.06,15.53 3.99,4.58 10.94,5.05 15.52,1.06 l 39.51,-34.44 56.34,62.84 c 4.07,4.53 11.03,4.9 15.55,0.85 4.53,-4.06 4.9,-11.02 0.84,-15.55 l -70.82,-79" /><path
         id="path218"
         style="fill:#78c2ff;fill-opacity:1;fill-rule:nonzero;stroke:none"
         d="m 3586.5,2214.97 h -128.52 c -25.54,0 -46.25,20.7 -46.25,46.25 v 128.51 c 0,25.54 20.71,46.25 46.25,46.25 h 128.52 c 25.55,0 46.25,-20.71 46.25,-46.25 v -128.51 c 0,-25.55 -20.7,-46.25 -46.25,-46.25" /><path
         id="path220"
         style="fill:#f3f3f3;fill-opacity:1;fill-rule:nonzero;stroke:none"
         d="m 3515.25,2276.79 -55.88,48.71 c -4.58,4 -5.06,10.95 -1.06,15.53 3.99,4.58 10.94,5.06 15.52,1.07 l 39.51,-34.45 56.34,62.84 c 4.07,4.53 11.03,4.91 15.55,0.85 4.53,-4.05 4.9,-11.01 0.84,-15.54 l -70.82,-79.01" /><path
         id="path222"
         style="fill:#78c2ff;fill-opacity:1;fill-rule:nonzero;stroke:none"
         d="m 3586.5,1931.75 h -128.52 c -25.54,0 -46.25,20.71 -46.25,46.25 v 128.51 c 0,25.55 20.71,46.25 46.25,46.25 h 128.52 c 25.55,0 46.25,-20.7 46.25,-46.25 V 1978 c 0,-25.54 -20.7,-46.25 -46.25,-46.25" /><path
         id="path224"
         style="fill:#1d2033;fill-opacity:1;fill-rule:nonzero;stroke:none"
         d="m 2711.54,623.031 c 0,0 6.67,-44.801 11.14,-63.902 4.47,-19.109 45.78,-73.899 45.05,-83.231 -0.73,-9.316 -18.21,-20.296 -27,-12.789 -8.79,7.5 -67.17,67.481 -79.64,93.172 -12.48,25.688 -53.76,59.188 -57.98,70.598 -4.22,11.41 48.69,44.781 62.31,50.101 13.63,5.329 46.12,-53.949 46.12,-53.949" /><path
         id="path226"
         style="fill:#eea886;fill-opacity:1;fill-rule:nonzero;stroke:none"
         d="m 2608.09,1420.06 c 0,0 5.46,-28.57 9.48,-33.85 4.02,-5.28 14.88,-31.84 15.97,-35.58 1.1,-3.73 7.78,-30.56 8.91,-33.95 1.13,-3.4 -6.5,-8.69 -11.72,-1.52 -3.25,4.45 -8.94,21.81 -11.25,27.42 -2.32,5.6 -9.43,23.33 -11.35,20.1 -1.92,-3.24 -1.46,-27.01 -1.78,-33.13 -0.31,-6.11 3.57,-24.92 5.39,-32.7 1.82,-7.79 12.18,-40.42 8.02,-42.18 -4.15,-1.76 -7.66,-1.28 -13.02,7.48 0,0 -8.49,-4.75 -13.44,6 0,0 -7.6,-2.76 -12.3,11.25 0,0 -5.4,2.96 -7.5,7.98 -2.09,5.02 -14.4,47.95 -14.29,65.47 0.11,17.5 4.22,29.71 3.47,42.06 -0.75,12.37 -7.08,38.8 -7.08,38.8 l 52.49,-13.65" /><path
         id="path228"
         style="fill:#50558a;fill-opacity:1;fill-rule:nonzero;stroke:none"
         d="m 2681.32,684 -15.9,-7.02 46.12,-53.949 15.28,16.91 -45.5,44.059" /><path
         id="path230"
         style="fill:#1d2033;fill-opacity:1;fill-rule:nonzero;stroke:none"
         d="m 2842.5,570.949 c 0,0 -10.26,-24.75 -18.92,-34.551 -8.65,-9.816 -41.79,-27.347 -41.97,-56.476 -0.19,-31.594 55.87,-22.82 77.79,-21.672 21.92,1.172 23.58,18.039 32.81,35.922 9.24,17.879 18.54,14.848 20.27,29.289 1.73,14.41 -7.07,46.711 -7.07,46.711 l -62.91,0.777" /><path
         id="path232"
         style="fill:#50558a;fill-opacity:1;fill-rule:nonzero;stroke:none"
         d="m 2841.55,580.09 -1.6,-14.988 c 0,0 34.48,-12.391 67.08,-1.293 l -1.82,20.48 -63.66,-4.199" /><path
         id="path234"
         style="fill:#292c47;fill-opacity:1;fill-rule:nonzero;stroke:none"
         d="m 2860.66,988.871 c -0.97,52.279 -24.23,345.289 -21.77,345.289 11.45,0 75.92,-279.03 78.31,-318.3 0.5,-8.04 -9.56,-26.032 -25.81,-49.712 -7.31,-10.66 -15.88,-22.457 -25.3,-35.027 l -0.02,-0.012 c -3.2,28.719 -5.27,49.84 -5.41,57.762 z m 172.13,-28.133 c 0,38.942 -28.43,378.732 -27.14,391.712 0.86,8.47 -8.18,89.82 -14.58,145.39 -0.05,0.48 -0.11,0.96 -0.17,1.42 0,0.12 -0.03,0.23 -0.03,0.34 -1.81,15.61 -3.38,29.07 -4.44,38.1 -0.49,4.18 -0.87,7.42 -1.11,9.47 -0.21,1.7 -0.31,2.6 -0.31,2.6 0,0 -183.39,36.16 -278.47,2 -3.97,-1.44 -7.78,-2.98 -11.42,-4.66 0,0 -0.23,-1.62 -0.65,-4.66 -0.95,-7.03 -2.94,-21.69 -5.58,-41.61 -0.45,-3.36 -0.92,-6.86 -1.41,-10.51 -13.53,-102.45 -4.84,-213.79 18.85,-327.77 23.24,-111.81 36.03,-195.431 38.42,-211.669 3.16,-21.313 12.48,-79.93 22.8,-144.219 -50.47,-62.25 -93.5,-115.184 -90.29,-120.442 7.97,-13.011 78.78,-86.332 82.68,-73.351 0,0 12.79,14.48 32.82,37.562 6.37,-39.332 10.73,-66.16 10.73,-66.16 0,0 77.62,-18.543 106.19,-1.66 0,0 -11.23,85.289 -22.94,178.027 71.26,85.313 146.05,179.692 146.05,200.09" /><path
         id="path236"
         style="fill:#d9c7c1;fill-opacity:1;fill-rule:nonzero;stroke:none"
         d="m 3063.41,2035.79 -49.31,-176.92 c -1.69,-5.73 -3.71,-12.79 -5.86,-21.01 l -0.08,-0.31 c -0.03,-0.07 -0.05,-0.14 -0.06,-0.21 -8.23,-31.54 -18.41,-79.61 -21.44,-133.02 -2.06,-36.41 4.69,-182.79 4.69,-182.79 0,0 -74.63,-27.84 -186.29,-20.79 0,0 -120.1,2.81 -110.31,76.45 25.92,194.9 0.57,275.26 -2.82,294.83 0,0 -16.3,94.67 -27.97,173.99 33.79,12.58 178.17,61.12 178.17,61.12 l 74.79,-5.6 c 0,0 113.66,-27.98 146.49,-65.74" /><path
         id="path238"
         style="fill:#eea987;fill-opacity:1;fill-rule:nonzero;stroke:none"
         d="m 2879.64,2357.24 c 0,0 73.01,-12.32 60.62,-126.6 -12.38,-114.3 -76.81,-104.21 -81.13,-104.05 -4.31,0.16 -64.81,-1.38 -68,138.36 0,0 -0.93,103.31 88.51,92.29" /><path
         id="path240"
         style="fill:#eea987;fill-opacity:1;fill-rule:nonzero;stroke:none"
         d="m 2911.63,2159.72 c 0,0 -2.52,-47.04 1.92,-57.28 4.45,-10.23 -58.61,-42.62 -97.8,-5.73 0,0 7.93,51.42 5.47,69.58 -2.47,18.15 90.41,-6.57 90.41,-6.57" /><path
         id="path242"
         style="fill:#eea987;fill-opacity:1;fill-rule:nonzero;stroke:none"
         d="m 2941.75,2262.94 c 0,0 8.1,8.46 10.94,-0.22 2.84,-8.7 -12.94,-47.22 -11.95,-48.96 0,0 -1.5,-3.35 -3.41,-1.48 -1.9,1.87 4.42,50.66 4.42,50.66" /><path
         id="path244"
         style="fill:#eea987;fill-opacity:1;fill-rule:nonzero;stroke:none"
         d="m 2791.97,2266.02 c 0,0 -7.75,8.79 -10.95,0.22 -3.2,-8.56 8.48,-47.03 9.93,-49.4 0,0 2.52,-3.95 4.49,-2.16 1.98,1.79 -3.47,51.34 -3.47,51.34" /><path
         id="path246"
         style="fill:#e8734d;fill-opacity:1;fill-rule:nonzero;stroke:none"
         d="m 2946.42,2272.65 c -2.52,-15.64 -4.9,-27.26 -4.9,-27.26 l -10.62,-13.88 c 0,0 0.63,30.68 -1,35.5 -0.61,1.83 -1.34,5.07 -2.08,8.57 -1.22,5.78 -2.46,12.31 -3.32,14.48 -1.37,3.47 -62.57,21.35 -117.08,-3.75 0,0 0.47,-4.72 0.43,-9.99 -0.02,-6.12 -0.69,-12.98 -3.5,-14.01 -5.22,-1.91 -3.04,-35.91 -3.04,-35.91 l -8.5,9.81 c 0,0 -2.46,17.76 -4.88,38.17 0,0 -0.01,0.04 -0.01,0.14 -0.55,4.76 -1.11,9.66 -1.65,14.51 -1.21,20.54 0.82,57.81 27.55,79.71 18.04,7.73 46.84,14.29 94.85,-0.41 0,0 11.01,-0.74 14.1,-3.71 29.9,-32.91 23.65,-91.97 23.65,-91.97" /><path
         id="path248"
         style="fill:#c78d71;fill-opacity:1;fill-rule:nonzero;stroke:none"
         d="m 2826.23,2141.87 c 0,0 11.65,-16.19 38.72,-15.57 27.07,0.61 38.81,14.72 38.81,14.72 0,0 -12.81,-26.8 -38.94,-26.52 -26.14,0.29 -38.59,27.37 -38.59,27.37" /><path
         id="path250"
         style="fill:#eea987;fill-opacity:1;fill-rule:nonzero;stroke:none"
         d="m 2808.31,2095.72 c 0,0 19.57,-34.06 56.69,-37.26 23.54,-2.04 43.93,27.8 53.48,42.46 0,0 -52.72,22.57 -110.17,-5.2" /><path
         id="path252"
         style="fill:#eddad3;fill-opacity:1;fill-rule:nonzero;stroke:none"
         d="m 2911.71,2111.69 c 0,0 -14.92,-19.56 -46.71,-40.48 l 19.77,-30.46 33.71,60.17 -6.77,10.77" /><path
         id="path254"
         style="fill:#eddad3;fill-opacity:1;fill-rule:nonzero;stroke:none"
         d="m 2817.24,2107.13 c 0,0 18.99,-23.81 47.76,-35.92 l -21.7,-31.37 -37.94,54.89 11.88,12.4" /><path
         id="path256"
         style="fill:#5073ab;fill-opacity:1;fill-rule:nonzero;stroke:none"
         d="m 2865,2071.21 16.94,-25.78 c 0,0 -17.79,-10.06 -34.33,0.65 l 17.39,25.13" /><path
         id="path258"
         style="fill:#1d2033;fill-opacity:1;fill-rule:nonzero;stroke:none"
         d="m 2690.66,1487.48 c 0,0 91.6,-33.79 298.74,-1.95 l -2.75,37.5 c 0,0 -120.07,-35.43 -292.33,-5.09 l -3.66,-30.46" /><path
         id="path260"
         style="fill:#323657;fill-opacity:1;fill-rule:nonzero;stroke:none"
         d="m 2918.48,2100.92 c 0,0 -21.41,-160 -18.48,-298 2.93,-138.01 107.17,-388.62 107.17,-388.62 0,0 45.56,44.06 65.39,69.01 0,0 -70.93,204.67 -69.63,241.59 1.3,36.92 80.05,315.69 80.05,315.69 0,0 -43.76,28.54 -164.5,60.33" /><path
         id="path262"
         style="fill:#323657;fill-opacity:1;fill-rule:nonzero;stroke:none"
         d="m 2803.49,2094.16 c 0,0 0.17,-153.24 -2.77,-291.24 -2.93,-138.01 -21.11,-394.92 -21.11,-394.92 0,0 -102.02,16.15 -121.85,41.1 0,0 41.33,238.88 40.03,275.8 -1.3,36.92 -66.45,308.51 -66.45,308.51 0,0 37.92,24.94 172.15,60.75" /><path
         id="path264"
         style="fill:#3a4066;fill-opacity:1;fill-rule:nonzero;stroke:none"
         d="m 2871.86,1469.63 h -56.27 v 41.85 h 56.27 v -41.85" /><path
         id="path266"
         style="fill:#5073ab;fill-opacity:1;fill-rule:nonzero;stroke:none"
         d="m 2857.05,2051.95 c 0,0 -25.15,-85.79 -27.34,-256.19 -2.19,-170.39 3.09,-219.25 3.09,-219.25 l 19.62,-38.82 26.15,40.51 c 0,0 -8.38,392.09 -3.53,470.77 l -17.99,2.98" /><path
         id="path268"
         style="fill:#eea886;fill-opacity:1;fill-rule:nonzero;stroke:none"
         d="m 3001.49,1412.85 c 0,0 6.15,4.1 7.84,7.01 0,0 2.6,5.52 4.72,9.35 0.68,1.2 1.31,2.25 1.79,2.88 2.01,2.67 7.35,8 10.13,15.57 2.78,7.55 5.1,42.75 5.1,42.75 l -21.58,6.34 -19.21,8.45 c 0,0 -42.05,-32.24 -45.58,-39.04 -0.34,-0.66 -0.65,-1.32 -0.88,-1.98 -2.35,-5.99 -1.19,-11.29 -2.01,-14.55 -0.29,-1.19 -2.27,-13.29 0.56,-15.97 3.93,-3.72 8.41,-4.91 12.36,-4.33 0,0 8.06,-6.99 15.72,-7.62 0,0 7.2,-6.66 17.02,-5.09 0,0 8.17,-6.03 14.02,-3.77" /><path
         id="path270"
         style="fill:#323657;fill-opacity:1;fill-rule:nonzero;stroke:none"
         d="m 2973.96,1509.08 c 0,0 29.18,-25.72 70.07,-39.45 0,0 135.56,220.9 137.27,236.83 1.59,14.75 -67.25,315.12 -98.32,334.13 l -56.41,-165.2 c 3.74,1.1 64.21,-125.49 64.44,-141.77 0.33,-21.82 -117.05,-224.54 -117.05,-224.54" /><path
         id="path272"
         style="fill:#323657;fill-opacity:1;fill-rule:nonzero;stroke:none"
         d="m 2624.05,1390.18 c 0,0 -30.46,-5.67 -74.53,-3.18 0,0 17.17,283.54 15.46,299.49 -1.59,14.74 35.3,327.91 66.36,346.92 l 55.4,-166.92 c -3.74,1.09 -37.14,-170.76 -37.37,-187.04 -0.33,-21.82 -25.32,-289.27 -25.32,-289.27" /><path
         id="path274"
         style="fill:#292c47;fill-opacity:1;fill-rule:nonzero;stroke:none"
         d="m 2938.48,1477.7 87.1,-45.18 -34.24,-63.39 -74.13,79.27 21.27,29.3" /><path
         id="path276"
         style="fill:#1d2033;fill-opacity:1;fill-rule:nonzero;stroke:none"
         d="m 2891.39,966.148 -8.8,-172.378 -16.5,137.339 v 0.012 c 9.42,12.57 17.99,24.367 25.3,35.027" /><path
         id="path278"
         style="fill:#78c2ff;fill-opacity:1;fill-rule:nonzero;stroke:none"
         d="m 2503.81,3061.5 h -50.84 v -166.71 h 50.84 v 166.71" /><path
         id="path280"
         style="fill:#eef0f7;fill-opacity:1;fill-rule:nonzero;stroke:none"
         d="m 4325.47,1950.94 c 0,-129.65 -105.05,-235.64 -235.64,-235.64 -130.39,0 -235.66,105.74 -235.66,235.64 0,130.15 105.51,235.66 235.66,235.66 130.14,0 235.64,-105.51 235.64,-235.66" /><path
         id="path282"
         style="fill:#78c2ff;fill-opacity:1;fill-rule:nonzero;stroke:none"
         d="m 2420.48,3014.74 h -50.84 v -119.95 h 50.84 v 119.95" /><path
         id="path284"
         style="fill:#78c2ff;fill-opacity:1;fill-rule:nonzero;stroke:none"
         d="m 2587.14,3138.76 h -50.84 v -243.97 h 50.84 v 243.97" /><path
         id="path286"
         style="fill:#e2d2ca;fill-opacity:1;fill-rule:nonzero;stroke:none"
         d="m 4654.5,1275.59 h 327.01 v -19.42 H 4654.5 v 19.42" /><path
         id="path288"
         style="fill:#706865;fill-opacity:1;fill-rule:nonzero;stroke:none"
         d="m 4937.68,322.852 h -28.65 v 882.808 h 28.65 V 322.852" /><path
         id="path290"
         style="fill:#ccbdb7;fill-opacity:1;fill-rule:nonzero;stroke:none"
         d="m 4478.37,1281.09 h 227.31 v -27.73 h -227.31 v 27.73" /><path
         id="path292"
         style="fill:#4667a8;fill-opacity:1;fill-rule:nonzero;stroke:none"
         d="m 4548.99,1256.17 h 86.07 v 261.45 h -86.07 v -261.45" /><path
         id="path294"
         style="fill:#b59074;fill-opacity:1;fill-rule:nonzero;stroke:none"
         d="m 3839.42,1205.66 h 1259.39 v 50.19 H 3839.42 v -50.19" /><path
         id="path296"
         style="fill:#ffc05c;fill-opacity:1;fill-rule:nonzero;stroke:none"
         d="m 5340.52,1559.67 c 0,0 13.77,-193.17 -23.97,-216.29 -23.64,-14.48 -117.91,-63.32 -115.12,-72.48 2.79,-9.16 53.23,-81.5 53.23,-81.5 0,0 181.08,119.23 186.92,156.81 5.7,36.71 -8.92,282.83 -33.8,294.17 -18.64,8.5 -28.49,1.47 -51.97,-15.97 -32.98,-24.49 -15.29,-64.74 -15.29,-64.74" /><path
         id="path298"
         style="fill:#424773;fill-opacity:1;fill-rule:nonzero;stroke:none"
         d="m 5117.73,443.379 c 0,0 5.62,-39.078 6.34,-44.949 0.7,-5.871 62.63,3.461 62.63,3.461 l 5.01,46.531 c 0,0 -66.24,0.476 -73.98,-5.043" /><path
         id="path300"
         style="fill:#292c47;fill-opacity:1;fill-rule:nonzero;stroke:none"
         d="m 5123.41,403.398 c 0,0 -19.63,-23.558 -38.61,-33.82 -18.97,-10.258 -48.8,-14.328 -60.03,-24.957 -8.1,-7.672 -29.5,-40.68 49.33,-40.019 78.82,0.668 116.82,-4.661 125.27,8 8.45,12.648 -12.22,93.449 -12.22,93.449 0,0 -18.67,-6.723 -63.74,-2.653" /><path
         id="path302"
         style="fill:#424773;fill-opacity:1;fill-rule:nonzero;stroke:none"
         d="m 4720.92,443.012 c 0,0 5.63,-39.082 6.33,-44.942 0.7,-5.879 62.64,3.45 62.64,3.45 l 5.02,46.531 c 0,0 -66.24,0.48 -73.99,-5.039" /><path
         id="path304"
         style="fill:#292c47;fill-opacity:1;fill-rule:nonzero;stroke:none"
         d="m 4726.6,403.031 c 0,0 -19.63,-23.562 -38.62,-33.82 -18.97,-10.262 -88.81,-18.699 -100.04,-29.332 -8.09,-7.649 -21.57,-38.539 89.34,-35.649 78.8,2.051 116.84,-4.66 125.27,8 8.46,12.649 -12.21,93.442 -12.21,93.442 0,0 -17.59,-7.172 -63.74,-2.641" /><path
         id="path306"
         style="fill:#292c47;fill-opacity:1;fill-rule:nonzero;stroke:none"
         d="m 5317.5,1118.52 c 0,0 -225.18,-38.1 -276.03,-46.08 -50.86,-7.99 -326.62,-76.612 -361.1,-97.518 -27.45,-16.641 14.39,-416.371 24.17,-568.871 h 108.61 l 7.88,457.469 c 130.34,-3.27 223.35,30.48 318.26,16.07 94.91,-14.41 174.04,-34.899 234.35,46 0,0 2.23,175.27 -56.14,192.93" /><path
         id="path308"
         style="fill:#292c47;fill-opacity:1;fill-rule:nonzero;stroke:none"
         d="m 5095.55,405.672 105.85,6.558 10.31,451.29 c 56.12,-1.411 75.35,2.152 120.77,7.652 l 85.44,198.658 c -74.89,-14.98 -314.86,-75.502 -346.86,-94.908 -27.45,-16.652 14.72,-416.742 24.49,-569.25" /><path
         id="path310"
         style="fill:#eea886;fill-opacity:1;fill-rule:nonzero;stroke:none"
         d="m 5213.84,1962.56 c 0,0 -82.54,22.81 -114.04,-41.27 -31.48,-64.08 -17.21,-185.56 24.39,-196.98 41.61,-11.44 101.42,1.73 118.7,41.61 17.26,39.88 31.04,96.55 26.91,133.25 -4.13,36.7 -34.03,54.62 -55.96,63.39" /><path
         id="path312"
         style="fill:#eea886;fill-opacity:1;fill-rule:nonzero;stroke:none"
         d="m 5145.76,1737.09 c 0,0 0.91,-48.73 -4.47,-59.12 -5.37,-10.39 114.95,-7.77 114.95,-7.77 0,0 -18.96,58.51 -8.21,108.37 10.65,49.34 -102.27,-41.48 -102.27,-41.48" /><path
         id="path314"
         style="fill:#3a3f47;fill-opacity:1;fill-rule:nonzero;stroke:none"
         d="m 5254.51,1797.01 c 0,0 -6.43,-13.06 -37.57,-10.95 -31.14,2.11 -72.22,39.67 -85.43,43.03 -13.23,3.35 -14.01,10.88 -14.01,10.88 l -7,-12.43 -13.54,-2.07 c 0,0 9.2,37.66 -10.86,50.92 -20.06,13.26 9.03,120.04 110.58,94.28 0,0 77.5,-14.18 78.54,-57.47 1.04,-43.27 -5.66,-93.26 -20.71,-116.19" /><path
         id="path316"
         style="fill:#e2d2ca;fill-opacity:1;fill-rule:nonzero;stroke:none"
         d="m 5134.97,1679.22 c 0,0 0.34,19.85 9.33,21.76 9.01,1.9 94.58,13.67 105.62,9.33 l 4.74,-26.21 c 0,0 -21.28,-13.1 -119.69,-4.88" /><path
         id="path318"
         style="fill:#eea886;fill-opacity:1;fill-rule:nonzero;stroke:none"
         d="m 5110.21,1848.85 c 2.3,16.27 20.8,34.95 31.4,9.61 10.59,-25.33 -7.15,-62.25 -19.04,-60.27 -11.88,1.99 -15.49,28.59 -12.36,50.66" /><path
         id="path320"
         style="fill:#323657;fill-opacity:1;fill-rule:nonzero;stroke:none"
         d="m 4776.53,1444.69 c 0.04,0.02 0.1,0.03 0.14,0.02 -0.61,-0.28 -0.7,-0.29 -0.14,-0.02" /><path
         id="path322"
         style="fill:#3a3f47;fill-opacity:1;fill-rule:nonzero;stroke:none"
         d="m 5237.92,1950.94 c 0,0 100.64,4.73 17.56,-152.37 l -17.56,152.37" /><path
         id="path324"
         style="fill:#918783;fill-opacity:1;fill-rule:nonzero;stroke:none"
         d="m 5462.16,352.148 -7.49,-21.058 -316.34,98 15.17,42.66 308.66,-119.602" /><path
         id="path326"
         style="fill:#918783;fill-opacity:1;fill-rule:nonzero;stroke:none"
         d="m 5127.49,444.102 h 35.95 v 343.929 h -35.95 V 444.102" /><path
         id="path328"
         style="fill:#5e5854;fill-opacity:1;fill-rule:nonzero;stroke:none"
         d="m 5039.43,786.039 h 212.07 v 20.27 h -212.07 v -20.27" /><path
         id="path330"
         style="fill:#918783;fill-opacity:1;fill-rule:nonzero;stroke:none"
         d="m 4825.98,352.148 7.49,-21.058 316.34,98 -13.9,45.332 -309.93,-122.274" /><path
         id="path332"
         style="fill:#918783;fill-opacity:1;fill-rule:nonzero;stroke:none"
         d="M 5048.87,333.328 V 308.84 l 100.94,120.25 -13.9,45.332 -87.04,-141.094" /><path
         id="path334"
         style="fill:#bfb2ac;fill-opacity:1;fill-rule:nonzero;stroke:none"
         d="m 4796.42,322.852 c 0,-16.332 13.24,-29.563 29.56,-29.563 16.33,0 29.57,13.231 29.57,29.563 0,16.32 -13.24,29.558 -29.57,29.558 -16.32,0 -29.56,-13.238 -29.56,-29.558" /><path
         id="path336"
         style="fill:#bfb2ac;fill-opacity:1;fill-rule:nonzero;stroke:none"
         d="m 5046.35,322.852 c 0,-16.332 13.24,-29.563 29.57,-29.563 16.33,0 29.56,13.231 29.56,29.563 0,16.32 -13.23,29.558 -29.56,29.558 -16.33,0 -29.57,-13.238 -29.57,-29.558" /><path
         id="path338"
         style="fill:#bfb2ac;fill-opacity:1;fill-rule:nonzero;stroke:none"
         d="m 5432.59,322.852 c 0,-16.332 13.24,-29.563 29.57,-29.563 16.33,0 29.56,13.231 29.56,29.563 0,16.32 -13.23,29.558 -29.56,29.558 -16.33,0 -29.57,-13.238 -29.57,-29.558" /><path
         id="path340"
         style="fill:#e2d2ca;fill-opacity:1;fill-rule:nonzero;stroke:none"
         d="m 4930.77,806.309 h 426.61 c 20.93,0 37.89,16.961 37.89,37.89 v 0.973 c 0,20.918 -16.96,37.898 -37.89,37.898 h -426.61 c -20.93,0 -37.89,-16.98 -37.89,-37.898 v -0.973 c 0,-20.929 16.96,-37.89 37.89,-37.89" /><path
         id="path342"
         style="fill:#706865;fill-opacity:1;fill-rule:nonzero;stroke:none"
         d="m 4000.55,322.852 h 28.64 v 882.808 h -28.64 V 322.852" /><path
         id="path344"
         style="fill:#5f8be3;fill-opacity:1;fill-rule:nonzero;stroke:none"
         d="m 4258.21,1391.67 h 667.63 c 20.88,0 37.81,16.92 37.81,37.8 v 448.72 c 0,20.88 -16.93,37.81 -37.81,37.81 h -667.63 c -20.89,0 -37.81,-16.93 -37.81,-37.81 v -448.72 c 0,-20.88 16.92,-37.8 37.81,-37.8" /><path
         id="path346"
         style="fill:#f5f7ff;fill-opacity:1;fill-rule:nonzero;stroke:none"
         d="m 4249.51,1473.84 h 685.04 v 413.82 h -685.04 v -413.82" /><path
         id="path348"
         style="fill:#cecfd6;fill-opacity:1;fill-rule:nonzero;stroke:none"
         d="m 4249.51,1854.73 h 685.04 v 32.93 h -685.04 v -32.93" /><path
         id="path350"
         style="fill:#cecfd6;fill-opacity:1;fill-rule:nonzero;stroke:none"
         d="m 4298.23,1499.33 h 35.8 c 12.93,0 23.4,10.47 23.4,23.39 v 283.83 c 0,12.92 -10.47,23.4 -23.4,23.4 h -35.8 c -12.92,0 -23.39,-10.48 -23.39,-23.4 v -283.83 c 0,-12.92 10.47,-23.39 23.39,-23.39" /><path
         id="path352"
         style="fill:#cecfd6;fill-opacity:1;fill-rule:nonzero;stroke:none"
         d="m 4777.14,1799.33 h 125.39 c 6.99,0 12.64,5.65 12.64,12.62 v 5.37 c 0,6.98 -5.65,12.63 -12.64,12.63 h -125.39 c -6.98,0 -12.63,-5.65 -12.63,-12.63 v -5.37 c 0,-6.97 5.65,-12.62 12.63,-12.62" /><path
         id="path354"
         style="fill:#cecfd6;fill-opacity:1;fill-rule:nonzero;stroke:none"
         d="m 4790.6,1490.88 h 98.47 c 14.41,0 26.1,11.68 26.1,26.09 v 235.73 c 0,14.41 -11.69,26.09 -26.1,26.09 h -98.47 c -14.41,0 -26.09,-11.68 -26.09,-26.09 v -235.73 c 0,-14.41 11.68,-26.09 26.09,-26.09" /><path
         id="path356"
         style="fill:#5c5552;fill-opacity:1;fill-rule:nonzero;stroke:none"
         d="m 4568.05,1435.2 c 0,-13.25 10.73,-23.98 23.98,-23.98 13.24,0 23.97,10.73 23.97,23.98 0,13.24 -10.73,23.97 -23.97,23.97 -13.25,0 -23.98,-10.73 -23.98,-23.97" /><path
         id="path358"
         style="fill:#2e436e;fill-opacity:1;fill-rule:nonzero;stroke:none"
         d="m 4438.16,1255.18 v 9.32 c 0,0 13.11,58.04 105.9,58.04 92.78,0 90.91,-67.36 90.91,-67.36 h -196.81" /><path
         id="path360"
         style="fill:#eea886;fill-opacity:1;fill-rule:nonzero;stroke:none"
         d="m 4636.1,1313.92 c 0,0 -20.17,1.57 -27.55,6.02 -7.38,4.46 -51.57,34.17 -61.94,29.42 -10.38,-4.76 -79.45,-25.92 -77.05,-36.02 2.4,-10.1 8.78,-9.12 13.66,-7.33 4.87,1.78 55.03,12.31 59.45,10.53 0,0 -49.26,-17.96 -49.45,-31.08 -0.21,-13.12 10.3,-16.3 14.97,-21.26 4.67,-4.96 10.28,-17.28 22.98,-18.21 12.69,-0.95 74.64,20.59 87.38,21.58 12.75,0.99 36.36,-0.79 37.96,1.29 1.61,2.08 -20.41,45.06 -20.41,45.06" /><path
         id="path362"
         style="fill:#ffc05c;fill-opacity:1;fill-rule:nonzero;stroke:none"
         d="m 5003.05,1651.71 c 64.27,11.3 131.92,27.51 131.92,27.51 l 119.69,4.88 c 0,0 109.86,-24.18 153.12,-43.72 4.1,-1.85 4.12,-98.01 15.38,-123.21 l -35.86,-75.67 c 0,0 -20.73,-149.9 -25.03,-216.56 -1.97,-30.6 5.59,-295.768 5.59,-295.768 0,0 -10.76,-5.301 -92.44,-14.313 -81.69,-9 -285.8,3.262 -287.09,12.891 -1.28,9.66 39.53,359.28 41.34,377.39 2.77,27.78 -8.03,156.19 -8.03,156.19 -15.39,-20.67 -54.62,-114.04 -95.53,-158.46 -24.05,-26.13 -143.19,-42.16 -165.64,-42.91 -48.87,-1.63 -138.04,-11.36 -140.65,-6.6 -2.07,2.85 -7.76,79.14 -2.18,81.01 4.9,1.63 170.47,11.16 212.89,33.67 15.52,8.23 61.91,109.39 61.91,109.39 0,0 75.16,158.35 110.61,174.28" /><path
         id="path364"
         style="fill:#e2d2ca;fill-opacity:1;fill-rule:nonzero;stroke:none"
         d="m 5238.94,936.828 h 200.94 c 40.17,0 72.76,32.594 72.76,72.762 v 334.33 c 0,40.18 -32.59,72.76 -72.76,72.76 h -200.94 c -40.19,0 -72.76,-32.58 -72.76,-72.76 v -334.33 c 0,-40.168 32.57,-72.762 72.76,-72.762" /><path
         id="path366"
         style="fill:#e2d2ca;fill-opacity:1;fill-rule:nonzero;stroke:none"
         d="m 5227.56,825.41 c 51.08,0 92.5,17.149 123.16,50.988 69.26,76.461 56.8,210.892 56.25,216.572 -1.06,10.6 -10.51,18.34 -21.09,17.28 -10.58,-1.05 -18.33,-10.48 -17.28,-21.08 0.15,-1.53 11.19,-123.369 -46.53,-186.971 -23.34,-25.73 -54.26,-38.238 -94.51,-38.238 -10.64,0 -19.27,-8.629 -19.27,-19.27 0,-10.652 8.63,-19.281 19.27,-19.281" /><path
         id="path368"
         style="fill:#eef0f7;fill-opacity:1;fill-rule:nonzero;stroke:none"
         d="m 4601.97,1718.52 c 0,-23.71 -8.54,-45.42 -22.68,-62.25 -3.32,-3.93 -6.93,-7.61 -10.82,-10.96 -1.1,-0.96 -2.23,-1.9 -3.39,-2.81 -1.31,-1.02 -2.63,-2.01 -3.98,-2.99 -12.75,-9.02 -27.76,-15.05 -44.01,-17.03 -2.87,-0.35 -5.77,-0.57 -8.71,-0.67 -1.05,-0.03 -2.11,-0.05 -3.17,-0.05 -3.13,0 -6.23,0.16 -9.28,0.44 -3.42,0.32 -6.77,0.83 -10.08,1.49 -14.64,2.98 -28.1,9.27 -39.55,18.06 -3.44,2.65 -6.71,5.52 -9.75,8.6 -0.6,0.59 -1.19,1.2 -1.76,1.82 -2.17,2.29 -4.23,4.69 -6.15,7.19 -12.66,16.35 -20.19,36.87 -20.19,59.16 0,53.43 43.31,96.75 96.76,96.75 53.43,0 96.76,-43.32 96.76,-96.75" /><path
         id="path370"
         style="fill:#d9c7c1;fill-opacity:1;fill-rule:nonzero;stroke:none"
         d="m 4568.23,1665.13 -7.13,-25.62 c -12.75,-9.02 -27.76,-15.05 -44.01,-17.03 -2.87,-0.35 -5.77,-0.57 -8.71,-0.67 -1.05,-0.03 -2.11,-0.05 -3.17,-0.05 -3.13,0 -6.23,0.16 -9.28,0.44 -3.42,0.32 -6.77,0.83 -10.08,1.49 -14.64,2.98 -28.1,9.27 -39.55,18.06 -1.36,8.46 -2.83,17.83 -4.12,26.59 7.11,2.66 29.75,10.35 44.04,15.18 0.19,0.07 0.39,0.13 0.58,0.19 0.32,0.12 0.63,0.22 0.93,0.32 0.85,0.29 1.66,0.56 2.42,0.82 0.78,0.27 1.53,0.52 2.23,0.76 2.93,0.98 4.99,1.68 5.72,1.92 0,0 0.01,0.01 0.02,0.01 0.19,0.06 0.29,0.1 0.29,0.1 l 0.16,-0.01 19.21,-1.44 3.22,-0.24 1.01,-0.08 c 0,0 0.14,-0.04 0.44,-0.11 1.15,-0.3 4.52,-1.18 8.97,-2.54 0.01,0 0.02,-0.01 0.02,-0.01 11.39,-3.47 29.83,-10.08 36.79,-18.08" /><path
         id="path372"
         style="fill:#eea987;fill-opacity:1;fill-rule:nonzero;stroke:none"
         d="m 4510.25,1766.56 c 0,0 23.03,-3.89 19.12,-39.96 -3.91,-36.05 -24.24,-32.87 -25.61,-32.83 -1.34,0.06 -20.44,-0.43 -21.45,43.67 0,0 -0.29,32.6 27.94,29.12" /><path
         id="path374"
         style="fill:#eea987;fill-opacity:1;fill-rule:nonzero;stroke:none"
         d="m 4520.34,1704.23 c 0,0 -0.79,-14.84 0.6,-18.08 1.41,-3.23 -18.49,-13.44 -30.86,-1.8 0,0 2.5,16.23 1.72,21.95 -0.77,5.73 28.54,-2.07 28.54,-2.07" /><path
         id="path376"
         style="fill:#eea987;fill-opacity:1;fill-rule:nonzero;stroke:none"
         d="m 4529.84,1736.8 c 0,0 2.56,2.67 3.46,-0.07 0.88,-2.74 -4.09,-14.9 -3.78,-15.45 0,0 -0.47,-1.05 -1.07,-0.46 -0.6,0.59 1.39,15.98 1.39,15.98" /><path
         id="path378"
         style="fill:#eea987;fill-opacity:1;fill-rule:nonzero;stroke:none"
         d="m 4482.57,1737.77 c 0,0 -2.44,2.78 -3.44,0.07 -1.01,-2.7 2.67,-14.84 3.13,-15.58 0,0 0.79,-1.25 1.42,-0.69 0.62,0.57 -1.11,16.2 -1.11,16.2" /><path
         id="path380"
         style="fill:#e8734d;fill-opacity:1;fill-rule:nonzero;stroke:none"
         d="m 4531.31,1739.86 c -0.8,-4.93 -1.54,-8.59 -1.54,-8.59 l -3.35,-4.38 c 0,0 0.2,9.67 -0.32,11.2 -0.19,0.57 -0.42,1.6 -0.66,2.7 -0.38,1.83 -0.77,3.88 -1.04,4.57 -0.43,1.1 -19.75,6.73 -36.94,-1.18 0,0 0.13,-1.49 0.13,-3.15 -0.01,-1.94 -0.22,-4.1 -1.11,-4.43 -1.64,-0.6 -0.96,-11.33 -0.96,-11.33 l -2.67,3.1 c 0,0 -0.78,5.6 -1.55,12.04 0,0 0,0.02 0,0.05 -0.17,1.5 -0.35,3.05 -0.52,4.58 -0.38,6.47 0.26,18.24 8.69,25.16 5.69,2.43 14.78,4.5 29.93,-0.14 0,0 3.48,-0.22 4.45,-1.17 9.44,-10.38 7.46,-29.03 7.46,-29.03" /><path
         id="path382"
         style="fill:#c78d71;fill-opacity:1;fill-rule:nonzero;stroke:none"
         d="m 4493.38,1698.59 c 0,0 3.69,-5.09 12.22,-4.91 8.55,0.2 12.26,4.65 12.26,4.65 0,0 -4.05,-8.46 -12.3,-8.37 -8.24,0.1 -12.18,8.63 -12.18,8.63" /><path
         id="path384"
         style="fill:#eea987;fill-opacity:1;fill-rule:nonzero;stroke:none"
         d="m 4487.73,1684.03 c 0,0 6.17,-10.75 17.89,-11.75 7.43,-0.65 13.87,8.77 16.88,13.39 0,0 -16.65,7.12 -34.77,-1.64" /><path
         id="path386"
         style="fill:#eddad3;fill-opacity:1;fill-rule:nonzero;stroke:none"
         d="m 4520.36,1689.07 c 0,0 -4.71,-6.16 -14.74,-12.77 l 6.24,-9.61 10.64,18.98 -2.14,3.4" /><path
         id="path388"
         style="fill:#eddad3;fill-opacity:1;fill-rule:nonzero;stroke:none"
         d="m 4490.55,1687.64 c 0,0 6,-7.51 15.07,-11.34 l -6.85,-9.9 -11.97,17.32 3.75,3.92" /><path
         id="path390"
         style="fill:#5073ab;fill-opacity:1;fill-rule:nonzero;stroke:none"
         d="m 4505.62,1676.3 5.35,-8.13 c 0,0 -5.61,-3.18 -10.84,0.2 l 5.49,7.93" /><path
         id="path392"
         style="fill:#323657;fill-opacity:1;fill-rule:nonzero;stroke:none"
         d="m 4574.41,1666.63 c -0.09,-0.32 -5.84,-20.99 -5.94,-21.32 -1.1,-0.96 -2.23,-1.9 -3.39,-2.81 -1.31,-1.02 -2.63,-2.01 -3.98,-2.99 -12.75,-9.02 -27.76,-15.05 -44.01,-17.03 1.43,33.5 5.41,63.19 5.41,63.19 3.14,-0.82 6.11,-1.64 8.92,-2.45 0.01,0 0.02,-0.01 0.02,-0.01 10.26,-2.94 33.78,-10.53 42.97,-16.58" /><path
         id="path394"
         style="fill:#323657;fill-opacity:1;fill-rule:nonzero;stroke:none"
         d="m 4485.85,1623.69 c -14.64,2.98 -28.1,9.27 -39.55,18.06 -3.44,2.65 -6.71,5.52 -9.75,8.6 -0.6,0.59 -1.19,1.2 -1.76,1.82 -1.7,7.19 -2.82,11.88 -2.9,12.19 v 0.02 c 0,0 11.96,7.87 54.33,19.17 0,0 0,-0.01 0,-0.03 0,-0.97 0.02,-28.14 -0.37,-59.83" /><path
         id="path396"
         style="fill:#5073ab;fill-opacity:1;fill-rule:nonzero;stroke:none"
         d="m 4508.69,1667.27 c -0.39,-8.81 -0.43,-25.93 -0.31,-45.46 -1.05,-0.03 -2.11,-0.05 -3.17,-0.05 -3.13,0 -6.23,0.16 -9.28,0.44 1.87,24.08 5,39.14 6.43,45.1 0.47,1.95 0.75,2.93 0.75,2.93 l 5.68,-0.94 c -0.04,-0.62 -0.07,-1.29 -0.1,-2.02" /><path
         id="path398"
         style="fill:#323657;fill-opacity:1;fill-rule:nonzero;stroke:none"
         d="m 4579.29,1656.27 c -3.32,-3.93 -6.93,-7.61 -10.82,-10.96 -1.1,-0.96 -2.23,-1.9 -3.39,-2.81 0,0.02 9.32,24.12 9.33,24.13 2.43,-1.38 3.82,-7.79 4.88,-10.36" /><path
         id="path400"
         style="fill:#323657;fill-opacity:1;fill-rule:nonzero;stroke:none"
         d="m 4436.55,1650.35 c -0.6,0.59 -1.19,1.2 -1.76,1.82 -2.17,2.29 -4.23,4.69 -6.15,7.19 1.09,2.6 2.18,4.36 3.25,5.02 v -0.02 l 4.66,-14.01" /><path
         id="path402"
         style="fill:#949494;fill-opacity:1;fill-rule:nonzero;stroke:none"
         d="m 4089.82,1856.99 c -6.55,0 -11.87,5.32 -11.87,11.88 v 164.17 c 0,6.55 5.32,11.86 11.87,11.86 6.56,0 11.87,-5.31 11.87,-11.86 v -164.17 c 0,-6.56 -5.31,-11.88 -11.87,-11.88" /><path
         id="path404"
         style="fill:#949494;fill-opacity:1;fill-rule:nonzero;stroke:none"
         d="m 4171.91,1939.08 h -164.17 c -6.56,0 -11.87,5.32 -11.87,11.88 0,6.55 5.31,11.86 11.87,11.86 h 164.17 c 6.56,0 11.86,-5.31 11.86,-11.86 0,-6.56 -5.3,-11.88 -11.86,-11.88" /></g></g></svg>