<?xml version="1.0" encoding="UTF-8" standalone="no"?>
<svg
   xmlns:dc="http://purl.org/dc/elements/1.1/"
   xmlns:cc="http://creativecommons.org/ns#"
   xmlns:rdf="http://www.w3.org/1999/02/22-rdf-syntax-ns#"
   xmlns:svg="http://www.w3.org/2000/svg"
   xmlns="http://www.w3.org/2000/svg"
   viewBox="0 0 3386.8401 2666.6667"
   height="2666.6667"
   width="3386.8401"
   xml:space="preserve"
   id="svg2"
   version="1.1"><metadata
     id="metadata8"><rdf:RDF><cc:Work
         rdf:about=""><dc:format>image/svg+xml</dc:format><dc:type
           rdf:resource="http://purl.org/dc/dcmitype/StillImage" /></cc:Work></rdf:RDF></metadata><defs
     id="defs6"><clipPath
       id="clipPath110"
       clipPathUnits="userSpaceOnUse"><path
         id="path108"
         d="M 7205.03,14294.8 H 18270 v 971.5 H 7205.03 Z" /></clipPath><linearGradient
       id="linearGradient118"
       spreadMethod="pad"
       gradientTransform="matrix(11065,0,0,-11065,7205.03,14780.5)"
       gradientUnits="userSpaceOnUse"
       y2="0"
       x2="1"
       y1="0"
       x1="0"><stop
         id="stop114"
         offset="0"
         style="stop-opacity:1;stop-color:#ff9f55" /><stop
         id="stop116"
         offset="1"
         style="stop-opacity:1;stop-color:#ffd255" /></linearGradient><clipPath
       id="clipPath180"
       clipPathUnits="userSpaceOnUse"><path
         id="path178"
         d="m 19450.3,10193.5 c 188.4,90 375.8,-509.6 375.8,-509.6 320.2,-423.1 767.6,139.7 723.9,-492.7 -76.6,-1106.6 1273.8,-348 650.8,-1503.4 -623,-1155.3 550.1,-653.2 162.9,-1584.9 -387.1,-931.6 114.7,-2042.7 -467.8,-1586.1 0,0 -513,1124.8 -1041.9,1472.8 -529,348 316.9,760.9 151.4,1233.6 -240.4,686.5 -819.6,659.5 -402,1397.3 417.6,737.8 -793.4,1266.7 -153.1,1573 z" /></clipPath><linearGradient
       id="linearGradient188"
       spreadMethod="pad"
       gradientTransform="matrix(2184.56,0,0,-2184.56,19259.4,7306.8)"
       gradientUnits="userSpaceOnUse"
       y2="0"
       x2="1"
       y1="0"
       x1="0"><stop
         id="stop184"
         offset="0"
         style="stop-opacity:1;stop-color:#40d5e6" /><stop
         id="stop186"
         offset="1"
         style="stop-opacity:1;stop-color:#5577ff" /></linearGradient><clipPath
       id="clipPath202"
       clipPathUnits="userSpaceOnUse"><path
         id="path200"
         d="m 22394.6,7211.8 c -46.3,-25.3 -85.1,-65.9 -130,-113 -112.2,-117.5 -251.9,-263.7 -605.7,-265.4 -176.2,-0.8 -274.8,-23.8 -319.9,-74.4 -49.3,-55.4 -38.6,-151.4 -23.7,-284.3 5.6,-50.2 12,-107 15.9,-168.9 23.9,-380 -193.9,-645.6 -203.2,-656.7 -126.7,-150.9 -270.2,-451.2 -210.2,-622.8 23.3,-66.6 76.7,-108.9 158.5,-125.4 285.6,-57.7 364.4,121 495.1,417 23.9,54.3 48.7,110.4 76.8,169.9 151.4,319.4 292.5,374.8 506.2,458.7 51.3,20.1 109.5,42.9 172.9,71.4 270.1,121.4 221.3,288.1 169.8,464.5 -7.4,25.3 -14.8,50.4 -21.2,75.3 -32.5,127 31.6,192.4 112.8,275.2 58.4,59.6 124.5,127.1 176.8,236.5 27.5,57.3 50.1,135.2 2.1,180.6 -63.1,59.9 -223.4,43.4 -373,-38.2 z M 21174.8,4848.4 c -32.6,0 -68,3.7 -106.8,11.6 -97.3,19.6 -161.1,71 -189.6,152.6 -68.1,194.6 89.6,510.9 217.6,663.3 2.1,2.5 216.4,264.4 193.5,627.3 -3.8,60.8 -10.1,117.2 -15.7,166.8 -16.1,143.7 -27.7,247.4 34,316.7 54.3,61.1 159.3,87.6 350.9,88.5 336,1.6 468.9,140.7 575.7,252.5 45.3,47.5 88.1,92.3 140.2,120.7 v 0 c 167.5,91.4 344.8,104.9 421.8,32 36.5,-34.7 67.4,-102.5 6.8,-229 -55.3,-115.7 -127,-188.9 -184.7,-247.7 -77.5,-79.1 -128.8,-131.4 -102.1,-235.6 6.3,-24.5 13.5,-49.2 20.7,-74 51.8,-177.1 110.6,-378 -192.7,-514.3 -64.3,-28.9 -123,-51.9 -174.7,-72.2 -211.7,-83.1 -339.5,-133.2 -483.7,-437.7 -27.9,-58.9 -52.6,-114.8 -76.4,-168.8 -113.7,-257.8 -199.8,-452.7 -434.8,-452.7 z" /></clipPath><linearGradient
       id="linearGradient210"
       spreadMethod="pad"
       gradientTransform="matrix(1975.54,0,0,-1975.54,20862,6087.8)"
       gradientUnits="userSpaceOnUse"
       y2="0"
       x2="1"
       y1="0"
       x1="0"><stop
         id="stop206"
         offset="0"
         style="stop-opacity:1;stop-color:#40d5e6" /><stop
         id="stop208"
         offset="1"
         style="stop-opacity:1;stop-color:#5577ff" /></linearGradient><clipPath
       id="clipPath220"
       clipPathUnits="userSpaceOnUse"><path
         id="path218"
         d="m 21072.5,4607.3 -41.7,2.2 c 2.1,39.2 54.7,962.7 425.5,1233 406.8,296.5 535.1,615.2 596.2,829.1 71.9,252 438.3,319.4 453.8,322.1 l 7.3,-41.1 c -3.5,-0.6 -356.2,-65.6 -421,-292.5 -62.8,-219.8 -194.5,-547.2 -611.7,-851.4 C 21126,5550 21073,4616.7 21072.5,4607.3 Z" /></clipPath><linearGradient
       id="linearGradient228"
       spreadMethod="pad"
       gradientTransform="matrix(1482.77,0,0,-1482.77,21030.8,5800.5)"
       gradientUnits="userSpaceOnUse"
       y2="0"
       x2="1"
       y1="0"
       x1="0"><stop
         id="stop224"
         offset="0"
         style="stop-opacity:1;stop-color:#40d5e6" /><stop
         id="stop226"
         offset="1"
         style="stop-opacity:1;stop-color:#5577ff" /></linearGradient><clipPath
       id="clipPath238"
       clipPathUnits="userSpaceOnUse"><path
         id="path236"
         d="m 21920.3,9261.5 c -263.5,90.3 -208.8,-417.6 -320.1,-793.5 -111.4,-375.8 -1238.9,-163.9 -765.6,-1105.1 473.3,-941.1 -598.6,-314.7 -278.4,-1136 320.1,-821.3 27.8,-1699.7 375.8,-1476.2 348,223.4 195.5,1257.6 557.4,1380.5 362,122.9 421,266.2 62.7,600.3 -358.4,334.1 939,665.7 618.8,1340.3 -320.2,674.6 53.9,1085.3 -250.6,1189.7 z" /></clipPath><linearGradient
       id="linearGradient246"
       spreadMethod="pad"
       gradientTransform="matrix(1726.83,0,0,-1726.83,20495.4,6993.7)"
       gradientUnits="userSpaceOnUse"
       y2="0"
       x2="1"
       y1="0"
       x1="0"><stop
         id="stop242"
         offset="0"
         style="stop-opacity:1;stop-color:#40d5e6" /><stop
         id="stop244"
         offset="1"
         style="stop-opacity:1;stop-color:#5577ff" /></linearGradient><clipPath
       id="clipPath260"
       clipPathUnits="userSpaceOnUse"><path
         id="path258"
         d="M 21692.6,5230.6 21316.3,3803 h -840.9 l -376.3,1427.6 z" /></clipPath><linearGradient
       id="linearGradient268"
       spreadMethod="pad"
       gradientTransform="matrix(1593.48,0,0,-1593.48,20099.1,4516.8)"
       gradientUnits="userSpaceOnUse"
       y2="0"
       x2="1"
       y1="0"
       x1="0"><stop
         id="stop264"
         offset="0"
         style="stop-opacity:1;stop-color:#ff9340" /><stop
         id="stop266"
         offset="1"
         style="stop-opacity:1;stop-color:#ffce45" /></linearGradient><clipPath
       id="clipPath278"
       clipPathUnits="userSpaceOnUse"><path
         id="path276"
         d="m 21692.6,5230.6 c 0,0 -828.4,-155.5 -828.4,-1427.6 h -388.8 l -376.3,1427.6 z" /></clipPath><linearGradient
       id="linearGradient286"
       spreadMethod="pad"
       gradientTransform="matrix(1593.48,0,0,-1593.48,20099.1,4516.8)"
       gradientUnits="userSpaceOnUse"
       y2="0"
       x2="1"
       y1="0"
       x1="0"><stop
         id="stop282"
         offset="0"
         style="stop-opacity:1;stop-color:#c97332" /><stop
         id="stop284"
         offset="1"
         style="stop-opacity:1;stop-color:#ffce45" /></linearGradient><clipPath
       id="clipPath418"
       clipPathUnits="userSpaceOnUse"><path
         id="path416"
         d="m 8724.59,13920.4 c -517.9,0 -939.23,-421.3 -939.23,-939.2 0,-367.6 216.31,-703.4 551.08,-855.5 122.09,-55.6 252.68,-83.7 388.15,-83.7 135.47,0 266.06,28.1 388.14,83.6 334.78,152.2 551.1,488 551.1,855.6 0,517.9 -421.34,939.2 -939.24,939.2 z m 0,-1930.8 c -143,0 -280.89,29.8 -409.82,88.4 -353.4,160.6 -581.76,515.1 -581.76,903.2 0,546.7 444.82,991.6 991.58,991.6 546.76,0 991.58,-444.9 991.58,-991.6 0,-388.1 -228.35,-742.6 -581.77,-903.2 -128.92,-58.6 -266.81,-88.4 -409.81,-88.4 z" /></clipPath><linearGradient
       id="linearGradient424"
       spreadMethod="pad"
       gradientTransform="matrix(-9.02e-5,-2063.22,-2063.22,9.02e-5,8724.59,13665.1)"
       gradientUnits="userSpaceOnUse"
       y2="0"
       x2="1"
       y1="0"
       x1="0"><stop
         id="stop420"
         offset="0"
         style="stop-opacity:1;stop-color:#d3dae0" /><stop
         id="stop422"
         offset="1"
         style="stop-opacity:1;stop-color:#ffffff" /></linearGradient></defs><g
     transform="matrix(1.3333333,0,0,-1.3333333,0,2666.6667)"
     id="g10"><g
       transform="scale(0.1)"
       id="g12"><g
         transform="scale(1.55834)"
         id="g14"><path
           id="path16"
           style="fill:#fcfcfc;fill-opacity:1;fill-rule:nonzero;stroke:none"
           d="M 16300.2,12834.1 V 0 H 0 v 12834.1 h 16300.2" /></g><path
         id="path18"
         style="fill:#ffba55;fill-opacity:1;fill-rule:nonzero;stroke:none"
         d="m 7800.08,10404.4 c -1.79,-0.1 -181.48,-1.7 -432.18,45.7 -231.41,43.7 -572.62,139.2 -884.1,346.3 -308.39,205 -708.31,276.8 -989.5,300.9 -304.99,26.2 -539.68,3.4 -542.01,3.2 l -1.93,19.4 c 2.35,0.2 238.83,23.1 545.61,-3.2 283.45,-24.3 686.79,-96.8 998.62,-304.1 308.59,-205.1 646.93,-299.9 876.43,-343.3 248.91,-47.1 427.05,-45.5 428.82,-45.5 l 0.24,-19.4" /><path
         id="path20"
         style="fill:#ffba55;fill-opacity:1;fill-rule:nonzero;stroke:none"
         d="m 4978.35,11113.7 c 269.55,-67.8 491.02,-238.4 746.23,-434.9 199.77,-153.9 426.2,-328.2 711.07,-477.1 234.04,-122.3 570.33,-170.4 922.63,-131.9 298.25,32.5 555.58,125 650.77,232.5 3.72,4.2 7.19,8.4 10.4,12.7 43.29,57.1 38.81,114.1 -13.32,169.5 -750.49,797.7 -1539.52,923.1 -2069.27,887.8 -498.14,-33.1 -866.77,-210.5 -958.51,-258.6 z m 3045.17,-824.5 c -205.54,-232.1 -1078.69,-375.6 -1596.9,-104.8 -286.38,149.7 -513.52,324.6 -713.94,479 -261.2,201.1 -486.78,374.8 -763.5,437.3 l -24.22,5.4 21.47,12.5 c 4.03,2.3 409.53,234.4 988.27,273.1 339.97,22.8 672.44,-24.6 988.18,-140.7 394.5,-145 763.73,-398.4 1097.45,-753.1 l -7.1,-6.7 7.1,6.7 c 58.77,-62.5 63.84,-129.8 14.65,-194.7 -3.54,-4.7 -7.38,-9.3 -11.46,-14" /><path
         id="path22"
         style="fill:#ffba55;fill-opacity:1;fill-rule:nonzero;stroke:none"
         d="m 5877.17,11057.2 -16.12,-11 -202.43,297.8 16.11,10.9 202.44,-297.7" /><path
         id="path24"
         style="fill:#ffba55;fill-opacity:1;fill-rule:nonzero;stroke:none"
         d="m 6119.91,10977.5 -364.71,-336.6 -13.23,14.3 364.72,336.6 13.22,-14.3" /><path
         id="path26"
         style="fill:#ffba55;fill-opacity:1;fill-rule:nonzero;stroke:none"
         d="m 6498.92,10805.2 -19.44,-1.4 -41.68,557.6 19.43,1.5 41.69,-557.7" /><path
         id="path28"
         style="fill:#ffba55;fill-opacity:1;fill-rule:nonzero;stroke:none"
         d="m 7705.2,11206.9 c -2.34,0.8 -236.59,84.3 -534.87,289.1 -275.19,188.9 -663.06,522.8 -948.02,1040.5 -330.32,600.2 -689.59,978.7 -932.81,1190.5 -263.51,229.5 -451.34,318.2 -453.21,319.1 l 7.9,16.9 c 1.89,-0.8 191.54,-90.3 456.88,-321.3 244.56,-212.8 605.76,-593.1 937.64,-1196.1 283.19,-514.6 668.69,-846.4 942.22,-1034.2 296.25,-203.4 528.17,-286.1 530.47,-286.9 l -6.2,-17.6" /><path
         id="path30"
         style="fill:#ffba55;fill-opacity:1;fill-rule:nonzero;stroke:none"
         d="M 4851.45,14048 C 5261,12354 6192.5,11686.8 6902.47,11425.4 c 402.75,-148.3 778.51,-184.6 1022.81,-189 185.72,-3.3 325.65,10.8 393.27,19.7 -70.08,22.1 -217.67,82.8 -417.16,240.8 -255.33,202.2 -646.69,609.6 -1061.13,1401.6 -412.06,787.5 -933.49,1057.4 -1298.36,1145.1 -358.18,86 -639.09,18.4 -690.45,4.4 z m 3568.26,-2794 -52.8,-9.7 c -1.71,-0.3 -174.76,-31.3 -441.14,-26.6 -245.72,4.3 -623.7,40.8 -1028.96,189.8 -455.6,167.6 -852.05,440.4 -1178.35,810.8 -407.59,462.6 -706.12,1079.7 -887.32,1834.1 l -2.04,8.5 8.34,2.6 c 3.05,0.9 308.97,94.4 708.83,-1.7 234.73,-56.5 455.6,-166.1 656.46,-326 250.77,-199.5 470.84,-478.3 654.12,-828.6 412.92,-789.1 802.26,-1194.5 1056.17,-1395.6 274,-217 451.98,-248.5 453.74,-248.8 l 52.95,-8.8" /><path
         id="path32"
         style="fill:#ffba55;fill-opacity:1;fill-rule:nonzero;stroke:none"
         d="m 6353.42,12327.5 -748.65,32.7 0.81,18.7 748.65,-32.7 -0.81,-18.7" /><path
         id="path34"
         style="fill:#ffba55;fill-opacity:1;fill-rule:nonzero;stroke:none"
         d="m 6125.59,12738.5 h -18.72 l -1.12,1051.5 h 18.72 l 1.12,-1051.5" /><path
         id="path36"
         style="fill:#ffba55;fill-opacity:1;fill-rule:nonzero;stroke:none"
         d="m 5635.48,13385.4 -606.27,31.7 0.98,18.7 606.27,-31.7 -0.98,-18.7" /><g
         transform="scale(1.27993)"
         id="g38"><path
           id="path40"
           style="fill:#78c2ff;fill-opacity:1;fill-rule:nonzero;stroke:none"
           d="m 15736.5,11674.9 -221.5,362.7 c -18.2,29.8 -8.8,68.6 21,86.8 29.7,18.1 68.6,8.7 86.7,-21 l 156.6,-256.5 416.6,246.5 c 30,17.8 68.6,7.9 86.4,-22.1 17.7,-30 7.8,-68.7 -22.2,-86.5 l -523.6,-309.9" /></g><g
         transform="scale(1.30992)"
         id="g42"><path
           id="path44"
           style="fill:#78c2ff;fill-opacity:1;fill-rule:nonzero;stroke:none"
           d="m 15521.6,12307 c -368,0 -667.3,-299.4 -667.3,-667.3 0,-367.9 299.3,-667.2 667.3,-667.2 367.8,0 667.2,299.3 667.2,667.2 0,367.9 -299.4,667.3 -667.2,667.3 z m 0,-1445.7 c -429.3,0 -778.6,349.2 -778.6,778.4 0,429.3 349.3,778.5 778.6,778.5 429.1,0 778.4,-349.2 778.4,-778.5 0,-429.2 -349.3,-778.4 -778.4,-778.4" /></g><g
         transform="scale(1.06928)"
         id="g46"><path
           id="path48"
           style="fill:#78c2ff;fill-opacity:1;fill-rule:nonzero;stroke:none"
           d="m 15883.2,15377.4 -163.9,268.4 c -13.4,22 -6.5,50.7 15.6,64.1 21.9,13.5 50.6,6.5 64.1,-15.5 l 115.9,-189.7 308,182.3 c 22.2,13.1 50.9,5.8 64,-16.4 13.1,-22.2 5.8,-50.8 -16.4,-63.9 l -387.3,-229.3" /></g><g
         transform="scale(1.08782)"
         id="g50"><path
           id="path52"
           style="fill:#78c2ff;fill-opacity:1;fill-rule:nonzero;stroke:none"
           d="m 15720.8,15784.7 c -273.9,0 -496.6,-222.7 -496.6,-496.5 0,-273.8 222.7,-496.5 496.6,-496.5 273.7,0 496.5,222.7 496.5,496.5 0,273.8 -222.8,496.5 -496.5,496.5 z m 0,-1075.8 c -319.5,0 -579.4,259.9 -579.4,579.3 0,319.4 259.9,579.3 579.4,579.3 319.3,0 579.2,-259.9 579.2,-579.3 0,-319.4 -259.9,-579.3 -579.2,-579.3" /></g><g
         transform="scale(1.10854)"
         id="g54"><path
           id="path56"
           style="fill:#78c2ff;fill-opacity:1;fill-rule:nonzero;stroke:none"
           d="m 12397.5,15788.2 -242.5,397 c -19.8,32.5 -9.5,75 23,94.9 32.6,19.9 75.1,9.6 94.9,-22.9 l 171.5,-280.8 455.8,269.8 c 32.9,19.5 75.3,8.6 94.7,-24.2 19.5,-32.9 8.5,-75.2 -24.3,-94.7 l -573.1,-339.1" /></g><g
         transform="scale(1.15072)"
         id="g58"><path
           id="path60"
           style="fill:#78c2ff;fill-opacity:1;fill-rule:nonzero;stroke:none"
           d="m 12099.9,16180 c -397,0 -720,-323 -720,-720.1 0,-397 323,-720 720,-720 397.1,0 720.1,323 720.1,720 0,397.1 -323,720.1 -720.1,720.1 z m 0,-1560.1 c -463.1,0 -840,376.8 -840,840 0,463.3 376.9,840.1 840,840.1 463.2,0 840.1,-376.8 840.1,-840.1 0,-463.2 -376.9,-840 -840.1,-840" /></g><g
         transform="scale(1.03201)"
         id="g62"><path
           id="path64"
           style="fill:#78c2ff;fill-opacity:1;fill-rule:nonzero;stroke:none"
           d="m 10561.9,15936.7 -172.1,281.8 c -14,23.1 -6.8,53.3 16.3,67.4 23.2,14.1 53.3,6.8 67.4,-16.3 l 121.7,-199.3 323.6,191.5 c 23.2,13.8 53.4,6.1 67.1,-17.2 13.8,-23.3 6.1,-53.3 -17.2,-67.1 l -406.8,-240.8" /></g><g
         transform="scale(1.05988)"
         id="g66"><path
           id="path68"
           style="fill:#78c2ff;fill-opacity:1;fill-rule:nonzero;stroke:none"
           d="m 10396.7,16213.9 c -284.8,0 -516.54,-231.7 -516.54,-516.6 0,-284.8 231.74,-516.5 516.54,-516.5 284.9,0 516.6,231.7 516.6,516.5 0,284.9 -231.7,516.6 -516.6,516.6 z m 0,-1119.2 c -332.3,0 -602.68,270.3 -602.68,602.6 0,332.4 270.38,602.7 602.68,602.7 332.3,0 602.6,-270.3 602.6,-602.7 0,-332.3 -270.3,-602.6 -602.6,-602.6" /></g><g
         transform="scale(1.1235)"
         id="g70"><path
           id="path72"
           style="fill:#78c2ff;fill-opacity:1;fill-rule:nonzero;stroke:none"
           d="m 7480.85,15882.3 -197.9,324 c -16.22,26.6 -7.85,61.2 18.73,77.5 26.56,16.2 61.25,7.8 77.49,-18.8 l 139.94,-229.1 372.05,220.2 c 26.8,15.9 61.37,7 77.23,-19.8 15.85,-26.8 6.98,-61.3 -19.8,-77.2 l -467.74,-276.8" /></g><g
         transform="scale(1.15839)"
         id="g74"><path
           id="path76"
           style="fill:#78c2ff;fill-opacity:1;fill-rule:nonzero;stroke:none"
           d="m 7384.39,16201.4 c -326.24,0 -591.66,-265.4 -591.66,-591.7 0,-326.2 265.42,-591.6 591.66,-591.6 326.25,0 591.67,265.4 591.67,591.6 0,326.3 -265.42,591.7 -591.67,591.7 z m 0,-1282 c -380.61,0 -690.27,309.7 -690.27,690.3 0,380.6 309.66,690.3 690.27,690.3 380.62,0 690.28,-309.7 690.28,-690.3 0,-380.6 -309.66,-690.3 -690.28,-690.3" /></g><g
         transform="scale(1.0156)"
         id="g78"><path
           id="path80"
           style="fill:#78c2ff;fill-opacity:1;fill-rule:nonzero;stroke:none"
           d="m 5486.81,15787.7 -242.72,397.4 c -19.9,32.5 -9.62,75.1 22.97,95 32.58,19.9 75.13,9.6 95.04,-23 l 171.63,-281 456.3,270.1 c 32.86,19.4 75.27,8.6 94.7,-24.3 19.45,-32.9 8.58,-75.3 -24.28,-94.7 l -573.64,-339.5" /></g><g
         transform="scale(1.05428)"
         id="g82"><path
           id="path84"
           style="fill:#78c2ff;fill-opacity:1;fill-rule:nonzero;stroke:none"
           d="m 5442.48,16179.9 c -397.42,0 -720.73,-323.3 -720.73,-720.7 0,-397.5 323.31,-720.8 720.73,-720.8 397.4,0 720.72,323.3 720.72,720.8 0,397.4 -323.32,720.7 -720.72,720.7 z m 0,-1561.6 c -463.65,0 -840.85,377.2 -840.85,840.9 0,463.6 377.2,840.8 840.85,840.8 463.63,0 840.83,-377.2 840.83,-840.8 0,-463.7 -377.2,-840.9 -840.83,-840.9" /></g><g
         transform="scale(1.19344)"
         id="g86"><path
           id="path88"
           style="fill:#78c2ff;fill-opacity:1;fill-rule:nonzero;stroke:none"
           d="m 16001.2,14825.6 -117.4,192.3 c -9.6,15.8 -4.7,36.4 11.1,46 15.8,9.6 36.3,4.7 46,-11.1 l 83,-136 220.9,130.7 c 15.8,9.4 36.3,4.1 45.7,-11.8 9.5,-15.9 4.2,-36.4 -11.7,-45.8 l -277.6,-164.3" /></g><g
         transform="scale(1.20826)"
         id="g90"><path
           id="path92"
           style="fill:#78c2ff;fill-opacity:1;fill-rule:nonzero;stroke:none"
           d="m 15882.8,15125.8 c -197.2,0 -357.6,-160.5 -357.6,-357.6 0,-197.2 160.4,-357.6 357.6,-357.6 197.2,0 357.6,160.4 357.6,357.6 0,197.1 -160.4,357.6 -357.6,357.6 z m 0,-774.8 c -230,0 -417.1,187.1 -417.1,417.2 0,230 187.1,417.2 417.1,417.2 230.1,0 417.2,-187.2 417.2,-417.2 0,-230.1 -187.1,-417.2 -417.2,-417.2" /></g><path
         id="path94"
         style="fill:#8f8f8f;fill-opacity:1;fill-rule:nonzero;stroke:none"
         d="m 12042.4,3707.1 h 1390.3 V 7929.9 H 12042.4 V 3707.1" /><g
         transform="scale(1.14971)"
         id="g96"><path
           id="path98"
           style="fill:#f0f0f0;fill-opacity:1;fill-rule:nonzero;stroke:none"
           d="m 6389,5128.01 h 9379.9 c 293.3,0 531.1,237.8 531.1,531.09 v 6304.2 c 0,293.3 -237.8,531.1 -531.1,531.1 H 6389 c -293.32,0 -531.1,-237.8 -531.1,-531.1 V 5659.1 c 0,-293.29 237.78,-531.09 531.1,-531.09" /></g><g
         transform="scale(1.12086)"
         id="g100"><path
           id="path102"
           style="fill:#ffffff;fill-opacity:1;fill-rule:nonzero;stroke:none"
           d="M 6428.13,6444.08 H 16300 V 13620.1 H 6428.13 V 6444.08" /></g><g
         id="g104"><g
           clip-path="url(#clipPath110)"
           id="g106"><g
             transform="scale(1.12086)"
             id="g112"><path
               id="path120"
               style="fill:url(#linearGradient118);fill-opacity:1;fill-rule:nonzero;stroke:none"
               d="M 6428.13,12753.4 H 16300 v 866.7 H 6428.13 v -866.7" /></g></g></g><g
         transform="scale(1.09412)"
         id="g122"><path
           id="path124"
           style="fill:#cccccc;fill-opacity:1;fill-rule:nonzero;stroke:none"
           d="m 15467.6,6046.49 c 0,-195.5 186.4,-353.98 416.2,-353.98 229.8,0 416.2,158.48 416.2,353.98 0,195.5 -186.4,353.98 -416.2,353.98 -229.8,0 -416.2,-158.48 -416.2,-353.98" /></g><path
         id="path126"
         style="fill:#cccccc;fill-opacity:1;fill-rule:nonzero;stroke:none"
         d="M 15864.9,3547.7 H 9610.13 v 318.7 h 6254.77 v -318.7" /><path
         id="path128"
         style="fill:#f5f7ff;fill-opacity:1;fill-rule:nonzero;stroke:none"
         d="M 9113.4,14597 H 7799.15 c -72.88,0 -131.97,59 -131.97,131.9 v 103.2 c 0,72.9 59.09,132 131.97,132 H 9113.4 c 72.88,0 131.96,-59.1 131.96,-132 v -103.2 c 0,-72.9 -59.08,-131.9 -131.96,-131.9" /><path
         id="path130"
         style="fill:#e6e6e6;fill-opacity:1;fill-rule:nonzero;stroke:none"
         d="M 13808.9,10710.7 H 8015.71 v 199.1 h 5793.19 v -199.1" /><path
         id="path132"
         style="fill:#e6e6e6;fill-opacity:1;fill-rule:nonzero;stroke:none"
         d="M 12312.5,10352 H 8015.71 v 199.2 H 12312.5 V 10352" /><path
         id="path134"
         style="fill:#e6e6e6;fill-opacity:1;fill-rule:nonzero;stroke:none"
         d="M 10740.2,9572.7 H 8015.71 v 199.2 h 2724.49 v -199.2" /><path
         id="path136"
         style="fill:#e6e6e6;fill-opacity:1;fill-rule:nonzero;stroke:none"
         d="M 12910.5,9214.1 H 8015.71 v 199.1 h 4894.79 v -199.1" /><path
         id="path138"
         style="fill:#e6e6e6;fill-opacity:1;fill-rule:nonzero;stroke:none"
         d="M 11498.6,8357.1 H 8015.71 v 199.1 h 3482.89 v -199.1" /><path
         id="path140"
         style="fill:#e6e6e6;fill-opacity:1;fill-rule:nonzero;stroke:none"
         d="M 12268.7,7998.5 H 8015.71 v 199.1 h 4252.99 v -199.1" /><path
         id="path142"
         style="fill:#78c2ff;fill-opacity:1;fill-rule:nonzero;stroke:none"
         d="m 7733.01,10352 h 145.57 v 557.8 H 7733.01 V 10352" /><path
         id="path144"
         style="fill:#78c2ff;fill-opacity:1;fill-rule:nonzero;stroke:none"
         d="m 7733.01,9214.1 h 145.57 v 557.8 h -145.57 v -557.8" /><path
         id="path146"
         style="fill:#78c2ff;fill-opacity:1;fill-rule:nonzero;stroke:none"
         d="m 7733.01,7998.5 h 145.57 v 557.7 h -145.57 v -557.7" /><path
         id="path148"
         style="fill:#78c2ff;fill-opacity:1;fill-rule:nonzero;stroke:none"
         d="m 15732.9,7747.3 h -464 c -92.2,0 -166.9,74.8 -166.9,167 v 464 c 0,92.2 74.7,166.9 166.9,166.9 h 464 c 92.2,0 167,-74.7 167,-166.9 v -464 c 0,-92.2 -74.8,-167 -167,-167" /><path
         id="path150"
         style="fill:#f3f3f3;fill-opacity:1;fill-rule:nonzero;stroke:none"
         d="m 15475.7,7970.5 -201.8,175.9 c -16.5,14.4 -18.2,39.5 -3.8,56 14.4,16.6 39.5,18.3 56.1,3.9 l 142.6,-124.4 203.4,226.9 c 14.7,16.3 39.8,17.7 56.1,3.1 16.4,-14.7 17.7,-39.8 3.1,-56.1 l -255.7,-285.3" /><path
         id="path152"
         style="fill:#78c2ff;fill-opacity:1;fill-rule:nonzero;stroke:none"
         d="m 15283.4,9710.6 c -72.3,0 -131.2,-58.9 -131.2,-131.2 v -435 c 0,-72.4 58.9,-131.2 131.2,-131.2 h 435 c 72.4,0 131.2,58.8 131.2,131.2 v 435 c 0,72.3 -58.8,131.2 -131.2,131.2 z m 435,-748.1 h -435 c -100.2,0 -181.8,81.6 -181.8,181.9 v 435 c 0,100.2 81.6,181.8 181.8,181.8 h 435 c 100.3,0 181.9,-81.6 181.9,-181.8 v -435 c 0,-100.3 -81.6,-181.9 -181.9,-181.9" /><g
         transform="scale(1.04918)"
         id="g154"><path
           id="path156"
           style="fill:#78c2ff;fill-opacity:1;fill-rule:nonzero;stroke:none"
           d="m 15712,10414 c -68.9,0 -125,-56.1 -125,-125.1 v -414.59 c 0,-68.96 56.1,-125.07 125,-125.07 h 414.6 c 68.9,0 125.1,56.11 125.1,125.07 v 414.59 c 0,69 -56.2,125.1 -125.1,125.1 z m 414.6,-713.01 H 15712 c -95.5,0 -173.3,77.74 -173.3,173.32 v 414.59 c 0,95.6 77.8,173.3 173.3,173.3 h 414.6 c 95.6,0 173.4,-77.7 173.4,-173.3 v -414.59 c 0,-95.58 -77.8,-173.32 -173.4,-173.32" /></g><g
         transform="scale(1.04918)"
         id="g158"><path
           id="path160"
           style="fill:#78c2ff;fill-opacity:1;fill-rule:nonzero;stroke:none"
           d="m 15712,8096.77 c -68.9,0 -125,-56.14 -125,-125.15 v -414.61 c 0,-68.9 56.1,-124.95 125,-124.95 h 414.6 c 68.9,0 125.1,56.05 125.1,124.95 v 414.61 c 0,69.01 -56.2,125.15 -125.1,125.15 z m 414.6,-713.03 H 15712 c -95.5,0 -173.3,77.77 -173.3,173.27 v 414.61 c 0,95.6 77.8,173.38 173.3,173.38 h 414.6 c 95.6,0 173.4,-77.78 173.4,-173.38 v -414.61 c 0,-95.5 -77.8,-173.27 -173.4,-173.27" /></g><g
         transform="scale(1.04916)"
         id="g162"><path
           id="path164"
           style="fill:#78c2ff;fill-opacity:1;fill-rule:nonzero;stroke:none"
           d="m 16140.8,8542.94 h -442.2 c -87.9,0 -159.2,71.29 -159.2,159.17 v 442.26 c 0,87.88 71.3,159.08 159.2,159.08 h 442.2 c 87.9,0 159.2,-71.2 159.2,-159.08 v -442.26 c 0,-87.88 -71.3,-159.17 -159.2,-159.17" /></g><g
         transform="scale(1.03972)"
         id="g166"><path
           id="path168"
           style="fill:#f3f3f3;fill-opacity:1;fill-rule:nonzero;stroke:none"
           d="m 16039.9,8835.19 -194,169.18 c -15.8,13.85 -17.5,37.99 -3.6,53.86 13.8,15.96 38,17.6 53.8,3.75 l 137.3,-119.65 195.6,218.23 c 14.1,15.68 38.3,17.03 54,2.98 15.7,-14.13 17,-38.28 3,-54.05 l -246.1,-274.3" /></g><path
         id="path170"
         style="fill:#78c2ff;fill-opacity:1;fill-rule:nonzero;stroke:none"
         d="m 15732.9,10178.5 h -464 c -92.2,0 -166.9,74.8 -166.9,167 v 464 c 0,92.2 74.7,166.9 166.9,166.9 h 464 c 92.2,0 167,-74.7 167,-166.9 v -464 c 0,-92.2 -74.8,-167 -167,-167" /><path
         id="path172"
         style="fill:#f3f3f3;fill-opacity:1;fill-rule:nonzero;stroke:none"
         d="m 15475.7,10401.7 -201.8,175.9 c -16.5,14.4 -18.2,39.5 -3.8,56 14.4,16.6 39.5,18.3 56.1,3.9 l 142.6,-124.4 203.4,226.9 c 14.7,16.4 39.8,17.7 56.1,3.1 16.4,-14.7 17.7,-39.8 3.1,-56.1 l -255.7,-285.3" /><g
         id="g174"><g
           clip-path="url(#clipPath180)"
           id="g176"><g
             transform="scale(1.31558)"
             id="g182"><path
               id="path190"
               style="fill:url(#linearGradient188);fill-opacity:1;fill-rule:nonzero;stroke:none"
               d="m 14784.6,7748.25 c 143.2,68.47 285.6,-387.33 285.6,-387.33 243.4,-321.61 583.5,106.19 550.3,-374.51 -58.3,-841.15 968.2,-264.52 494.6,-1142.76 -473.5,-878.17 418.2,-496.51 123.9,-1204.72 -294.3,-708.12 87.1,-1552.69 -355.6,-1205.62 0,0 -390,854.98 -792,1119.5 -402.1,264.52 240.9,578.38 115.1,937.68 -182.7,521.83 -623,501.3 -305.6,1062.12 317.4,560.82 -603.1,962.84 -116.3,1195.64" /></g></g></g><g
         transform="scale(1.29474)"
         id="g192"><path
           id="path194"
           style="fill:#ffffff;fill-opacity:1;fill-rule:nonzero;stroke:none"
           d="m 16281.5,3815.51 c -195.1,137.17 -423.3,1092.96 -436.9,1662.26 -7,291.56 -93.2,413.06 -169.2,520.26 -72.8,102.49 -135.5,190.92 -98.9,394.13 69.9,388.26 -113.9,555.86 -115.7,557.49 l 21.2,24.25 c 8.2,-7.11 199.6,-180.04 126.2,-587.45 -34.1,-189.85 22.2,-269.25 93.5,-369.73 74.8,-105.51 167.9,-236.73 175.1,-538.18 14.6,-611.01 248,-1513.43 423.2,-1636.62 l -18.5,-26.41" /></g><g
         id="g196"><g
           clip-path="url(#clipPath202)"
           id="g198"><g
             transform="scale(1.4011)"
             id="g204"><path
               id="path212"
               style="fill:url(#linearGradient210);fill-opacity:1;fill-rule:nonzero;stroke:none"
               d="m 15983.5,5147.23 c -33,-18.06 -60.7,-47.04 -92.7,-80.65 -80.1,-83.87 -179.8,-188.21 -432.4,-189.43 -125.7,-0.57 -196.1,-16.98 -228.3,-53.1 -35.2,-39.54 -27.5,-108.05 -16.9,-202.91 4,-35.83 8.6,-76.37 11.4,-120.55 17,-271.21 -138.4,-460.78 -145.1,-468.7 -90.4,-107.7 -192.8,-322.03 -150,-444.5 16.6,-47.54 54.8,-77.73 113.1,-89.51 203.9,-41.18 260.1,86.36 353.4,297.63 17.1,38.75 34.8,78.79 54.8,121.26 108.1,227.96 208.8,267.5 361.3,327.38 36.6,14.35 78.2,30.62 123.4,50.96 192.8,86.65 157.9,205.63 121.2,331.53 -5.3,18.05 -10.6,35.97 -15.1,53.74 -23.2,90.64 22.5,137.32 80.5,196.42 41.7,42.53 88.8,90.71 126.2,168.79 19.6,40.9 35.7,96.5 1.5,128.9 -45.1,42.75 -159.5,30.97 -266.3,-27.26 z m -870.6,-1686.82 c -23.2,0 -48.5,2.65 -76.2,8.28 -69.4,13.99 -115,50.68 -135.3,108.92 -48.6,138.89 63.9,364.64 155.3,473.41 1.5,1.78 154.4,188.71 138.1,447.72 -2.7,43.39 -7.2,83.65 -11.2,119.05 -11.5,102.56 -19.8,176.57 24.3,226.03 38.7,43.61 113.7,62.52 250.4,63.17 239.8,1.14 334.7,100.42 410.9,180.21 32.3,33.9 62.9,65.88 100.1,86.15 v 0 c 119.5,65.23 246.1,74.87 301,22.84 26.1,-24.77 48.1,-73.16 4.9,-163.44 -39.5,-82.58 -90.7,-134.83 -131.9,-176.8 -55.3,-56.45 -91.9,-93.78 -72.8,-168.15 4.5,-17.48 9.6,-35.11 14.7,-52.81 37,-126.4 79,-269.79 -137.5,-367.07 -45.9,-20.63 -87.8,-37.04 -124.7,-51.53 -151.1,-59.31 -242.3,-95.07 -345.2,-312.4 -19.9,-42.04 -37.5,-81.93 -54.5,-120.47 -81.2,-184 -142.6,-323.11 -310.4,-323.11" /></g></g></g><g
         id="g214"><g
           clip-path="url(#clipPath220)"
           id="g216"><g
             transform="scale(1.3812)"
             id="g222"><path
               id="path230"
               style="fill:url(#linearGradient228);fill-opacity:1;fill-rule:nonzero;stroke:none"
               d="m 15256.6,3335.72 -30.2,1.59 c 1.6,28.38 39.6,697 308.1,892.7 294.5,214.67 387.4,445.41 431.7,600.27 52,182.45 317.3,231.25 328.5,233.21 l 5.3,-29.76 c -2.5,-0.44 -257.9,-47.5 -304.8,-211.77 -45.5,-159.14 -140.8,-396.18 -442.9,-616.42 -256.9,-187.3 -295.3,-863.02 -295.7,-869.82" /></g></g></g><g
         id="g232"><g
           clip-path="url(#clipPath238)"
           id="g234"><g
             transform="scale(1.36337)"
             id="g240"><path
               id="path248"
               style="fill:url(#linearGradient246);fill-opacity:1;fill-rule:nonzero;stroke:none"
               d="m 16078,6793.07 c -193.3,66.24 -153.2,-306.29 -234.8,-582.01 -81.7,-275.64 -908.7,-120.21 -561.6,-810.56 347.2,-690.27 -439,-230.83 -204.2,-833.23 234.8,-602.4 20.4,-1246.69 275.7,-1082.75 255.2,163.86 143.4,922.41 408.8,1012.56 265.5,90.14 308.8,195.25 46,440.3 -262.9,245.06 688.7,488.28 453.9,983.08 -234.9,494.8 39.5,796.04 -183.8,872.61" /></g></g></g><g
         transform="scale(1.33667)"
         id="g250"><path
           id="path252"
           style="fill:#ffffff;fill-opacity:1;fill-rule:nonzero;stroke:none"
           d="m 15780.6,3583.52 c -24.9,105.19 -236.6,1030.84 -39,1142.76 174.2,98.6 169.8,482.17 142.7,844.41 -24,320.57 387.7,470.42 405.2,476.7 l 10.5,-29.47 c -4,-1.42 -406.8,-148.13 -384.5,-444.91 27.9,-371.97 30.9,-766.68 -158.5,-873.96 -150.1,-84.91 -11.9,-828.85 54,-1108.35 l -30.4,-7.18" /></g><g
         id="g254"><g
           clip-path="url(#clipPath260)"
           id="g256"><g
             transform="scale(1.33083)"
             id="g262"><path
               id="path270"
               style="fill:url(#linearGradient268);fill-opacity:1;fill-rule:nonzero;stroke:none"
               d="m 16300,3930.32 -282.8,-1072.71 h -631.8 l -282.8,1072.71 H 16300" /></g></g></g><g
         id="g272"><g
           clip-path="url(#clipPath278)"
           id="g274"><g
             transform="scale(1.33083)"
             id="g280"><path
               id="path288"
               style="fill:url(#linearGradient286);fill-opacity:1;fill-rule:nonzero;stroke:none"
               d="m 16300,3930.32 c 0,0 -622.5,-116.85 -622.5,-1072.71 h -292.1 l -282.8,1072.71 H 16300" /></g></g></g><g
         transform="scale(1.11387)"
         id="g290"><path
           id="path292"
           style="fill:#eea886;fill-opacity:1;fill-rule:nonzero;stroke:none"
           d="m 16060.6,4605.56 c 0,0 32.2,-126.59 36.6,-145.62 4.4,-19.03 202.8,33.4 202.8,33.4 l -0.2,154.78 c 0,0 -215.9,-21.73 -239.2,-42.56" /></g><g
         transform="scale(1.12043)"
         id="g294"><path
           id="path296"
           style="fill:#112230;fill-opacity:1;fill-rule:nonzero;stroke:none"
           d="m 15999,4449.81 c 0,0 -55.1,-83.8 -112.9,-123.97 -57.9,-40.25 -281,-92.2 -313.7,-130.84 -23.5,-27.93 -56.2,-133.61 301.9,-85.32 254.4,34.27 379.9,25.61 402.9,69.88 22.8,44.36 -72.6,301.22 -72.6,301.22 0,0 -54.5,-29.63 -205.6,-30.97" /></g><g
         transform="scale(1.10083)"
         id="g298"><path
           id="path300"
           style="fill:#f0c141;fill-opacity:1;fill-rule:nonzero;stroke:none"
           d="m 16208.3,1016.05 -727.4,7412.06 91.7,8.9 727.4,-7412.05 -91.7,-8.91" /></g><g
         transform="scale(1.20099)"
         id="g302"><path
           id="path304"
           style="fill:#f0c141;fill-opacity:1;fill-rule:nonzero;stroke:none"
           d="m 16216,1063.21 -666.8,6793.91 84,8.16 666.8,-6793.91 -84,-8.16" /></g><g
         transform="scale(1.1502)"
         id="g306"><path
           id="path308"
           style="fill:#f0c141;fill-opacity:1;fill-rule:nonzero;stroke:none"
           d="m 14880.6,7863.35 -8.5,87.82 1419.4,137.71 8.5,-87.72 -1419.4,-137.81" /></g><g
         transform="scale(1.15472)"
         id="g310"><path
           id="path312"
           style="fill:#f0c141;fill-opacity:1;fill-rule:nonzero;stroke:none"
           d="m 14886.2,7175.17 -8.5,87.38 1413.8,137.18 8.5,-87.38 -1413.8,-137.18" /></g><g
         transform="scale(1.15924)"
         id="g314"><path
           id="path316"
           style="fill:#f0c141;fill-opacity:1;fill-rule:nonzero;stroke:none"
           d="m 14891.7,6492.28 -8.5,87.12 1408.3,136.64 8.5,-87.04 -1408.3,-136.72" /></g><g
         transform="scale(1.16375)"
         id="g318"><path
           id="path320"
           style="fill:#f0c141;fill-opacity:1;fill-rule:nonzero;stroke:none"
           d="m 14897.2,5814.8 -8.4,86.7 1402.9,136.11 8.3,-86.7 -1402.8,-136.11" /></g><g
         transform="scale(1.16828)"
         id="g322"><path
           id="path324"
           style="fill:#f0c141;fill-opacity:1;fill-rule:nonzero;stroke:none"
           d="m 14902.6,5142.45 -8.4,86.36 1397.4,135.67 8.4,-86.45 -1397.4,-135.58" /></g><g
         transform="scale(1.1728)"
         id="g326"><path
           id="path328"
           style="fill:#f0c141;fill-opacity:1;fill-rule:nonzero;stroke:none"
           d="m 14907.9,4475.37 -8.3,86.03 1392,135.06 8.4,-86.03 -1392.1,-135.06" /></g><g
         transform="scale(1.17732)"
         id="g330"><path
           id="path332"
           style="fill:#f0c141;fill-opacity:1;fill-rule:nonzero;stroke:none"
           d="m 14913.3,3813.32 -8.3,85.71 1386.7,134.63 8.3,-85.79 -1386.7,-134.55" /></g><g
         transform="scale(1.18183)"
         id="g334"><path
           id="path336"
           style="fill:#f0c141;fill-opacity:1;fill-rule:nonzero;stroke:none"
           d="m 14918.7,3156.36 -8.3,85.47 1381.4,134.02 8.2,-85.37 -1381.3,-134.12" /></g><g
         transform="scale(1.18636)"
         id="g338"><path
           id="path340"
           style="fill:#f0c141;fill-opacity:1;fill-rule:nonzero;stroke:none"
           d="m 14923.9,2504.48 -8.3,85.05 1376.1,133.6 8.3,-85.13 -1376.1,-133.52" /></g><g
         transform="scale(1.19088)"
         id="g342"><path
           id="path344"
           style="fill:#f0c141;fill-opacity:1;fill-rule:nonzero;stroke:none"
           d="m 14929.1,1857.45 -8.2,84.82 1370.9,133.01 8.2,-84.73 -1370.9,-133.1" /></g><g
         transform="scale(1.1954)"
         id="g346"><path
           id="path348"
           style="fill:#f0c141;fill-opacity:1;fill-rule:nonzero;stroke:none"
           d="m 14934.3,1215.41 -8.2,84.41 1365.7,132.5 8.2,-84.4 -1365.7,-132.51" /></g><g
         transform="scale(1.15448)"
         id="g350"><path
           id="path352"
           style="fill:#152b3d;fill-opacity:1;fill-rule:nonzero;stroke:none"
           d="m 15259.5,7014.08 c 0,0 -139.3,-517.29 -176,-702.23 -31.9,-161.02 -96.3,-590.13 -105.5,-692.17 -9.2,-102.04 411.2,-1089.41 454.9,-1267.84 l 383,61.5 c 0,0 -404,1027.73 -298.7,1256.15 156.8,339.63 177.2,329.32 300.8,609.19 123.4,279.78 406.1,286.36 482,805.56 0,0 -937.7,94.41 -1040.5,-70.16" /></g><g
         transform="scale(1.14048)"
         id="g354"><path
           id="path356"
           style="fill:#eea886;fill-opacity:1;fill-rule:nonzero;stroke:none"
           d="m 16136.1,9644.12 c 0,0 -257.4,96.14 -376,-99.8 -118.8,-195.95 -107.3,-588.24 22.4,-636.48 129.8,-48.23 324.7,-23.01 391.1,99.59 66.4,122.63 126.4,299.87 123.6,418.34 -2.9,118.46 -93.5,184.15 -161.1,218.35" /></g><g
         transform="scale(1.13876)"
         id="g358"><path
           id="path360"
           style="fill:#eea886;fill-opacity:1;fill-rule:nonzero;stroke:none"
           d="m 15849.7,8933.39 c 0,0 10.4,-67.58 -6.8,-100.87 -17.2,-33.29 324.2,-34.15 324.2,-34.15 0,0 27.8,181.06 80.4,334.05 52.5,152.98 -397.8,-199.03 -397.8,-199.03" /></g><g
         transform="scale(1.14241)"
         id="g362"><path
           id="path364"
           style="fill:#3a3f47;fill-opacity:1;fill-rule:nonzero;stroke:none"
           d="m 16195.6,9103.24 c 0,0 -23.6,-38.76 -119.4,-23.72 -96,15.03 -212.9,142.62 -253,156.62 -40,14.02 -40.4,37.54 -40.4,37.54 l -25.1,-36.62 -42.5,-2.69 c 0,0 38.8,114.13 -19.7,160.68 -58.6,46.54 60.7,369.4 368.2,261.92 0,0 236.3,-65.12 227.6,-199.45 -8.5,-134.35 -42.9,-287.38 -95.7,-354.28" /></g><g
         transform="scale(1.11407)"
         id="g366"><path
           id="path368"
           style="fill:#eea886;fill-opacity:1;fill-rule:nonzero;stroke:none"
           d="m 16190.8,9559.67 c 5.4,23.1 64.2,89.13 86.8,18.43 22.4,-70.7 -34.1,-165.79 -65.6,-157.65 -31.5,8.14 -35.2,80.63 -21.2,139.22" /></g><g
         transform="scale(1.17711)"
         id="g370"><path
           id="path372"
           style="fill:#1d3b54;fill-opacity:1;fill-rule:nonzero;stroke:none"
           d="m 16274.9,7688.74 c -2.7,-32.7 -40.1,-68.04 -65.5,-85.54 -16.4,-11.22 -35.9,-18.01 -56.9,-18.69 l -14.8,-0.51 v 0 l -259.2,-8.84 c 0,0 -192.6,622.71 168.8,860.25 11.2,-1.2 252.7,-446.52 227.6,-746.67" /></g><g
         transform="scale(1.12043)"
         id="g374"><path
           id="path376"
           style="fill:#112230;fill-opacity:1;fill-rule:nonzero;stroke:none"
           d="m 16277.2,4179.56 c -23,-44.27 -148.5,-35.7 -402.9,-69.88 -69.6,-9.38 -124.3,-12.95 -167.3,-12.41 l -14.8,153.06 c 74.4,25.89 160.9,52.58 193.9,75.51 57.8,40.17 112.9,123.97 112.9,123.97 151.1,1.34 205.6,30.97 205.6,30.97 0,0 95.4,-256.86 72.6,-301.22" /></g><g
         transform="scale(1.13402)"
         id="g378"><path
           id="path380"
           style="fill:#1d3b54;fill-opacity:1;fill-rule:nonzero;stroke:none"
           d="m 15915.8,8889.18 c 0,0 211.1,49.1 330.1,8.93 l 17.9,-16.62 c 0,0 36.2,-69.37 -100,-75.28 -136,-6 -350,-15.87 -248,82.97" /></g><g
         transform="scale(1.18104)"
         id="g382"><path
           id="path384"
           style="fill:#eea886;fill-opacity:1;fill-rule:nonzero;stroke:none"
           d="m 16074.3,3785.49 c 0,0 30.4,-119.3 34.5,-137.26 4.2,-18.03 191.2,31.5 191.2,31.5 l -0.2,145.89 c 0,0 -203.6,-20.49 -225.5,-40.13" /></g><g
         transform="scale(1.18562)"
         id="g386"><path
           id="path388"
           style="fill:#152b3d;fill-opacity:1;fill-rule:nonzero;stroke:none"
           d="m 15871.9,6898.17 c 0,0 68,-280.37 88.1,-561.06 18.6,-259.36 52.5,-543.85 79.4,-815.1 29.9,-302.46 115.5,-791.32 120,-953.09 4.5,-161.77 140.6,-868.75 140.6,-868.75 l -348.3,-40.06 c 0,0 -226.3,1249.39 -279.7,1377.09 -53.5,127.7 -318.5,1038.19 -327.5,1140.41 -8.9,102.15 527.4,720.56 527.4,720.56" /></g><g
         transform="scale(1.1876)"
         id="g390"><path
           id="path392"
           style="fill:#112230;fill-opacity:1;fill-rule:nonzero;stroke:none"
           d="m 16016.1,3643.14 c 0,0 -52.2,-79.15 -106.7,-117.04 -54.5,-37.89 -265.1,-86.98 -295.8,-123.44 -22.3,-26.27 -53.1,-125.97 284.8,-80.5 240,32.33 358.4,24.17 380,66.01 21.6,41.85 -68.5,284.19 -68.5,284.19 0,0 -51.3,-27.95 -193.8,-29.22" /></g><g
         transform="scale(1.16375)"
         id="g394"><path
           id="path396"
           style="fill:#1d3b54;fill-opacity:1;fill-rule:nonzero;stroke:none"
           d="m 15066.1,6317.22 c -30.2,4.3 75.1,905.18 67,961.72 -5.3,37.72 -4.5,330.48 -2.3,513 l -32.9,184.74 c -18.3,13.32 -42.9,28.7 -72.4,45.72 -45.7,26.38 -103.1,56.53 -166.9,88.41 7.4,43.66 12.6,77.94 14.5,98.05 16,162.23 125,248.25 186.8,284.43 25.2,14.77 42.5,21.22 42.5,21.22 23.5,9.96 46.6,19.59 68.9,28.79 148.9,61.25 337.8,118.74 337.8,118.74 h 303.6 c 0,0 231.2,-46.19 369,-102.59 17.6,-7.22 34.2,-16.41 49.7,-27.24 l -41.2,-865.73 c -0.1,-0.18 -0.1,-0.35 -0.1,-0.52 -0.1,-0.26 -0.1,-0.69 -0.2,-1.12 -18.5,-121.84 -38.1,-265.43 -44.7,-366.22 -2.6,-41.08 44.4,-261.91 69,-464.71 l 85.8,-484.98 c 0,0 -49.6,-201.07 -1233.9,-31.71" /></g><path
         id="path398"
         style="fill:#eea886;fill-opacity:1;fill-rule:nonzero;stroke:none"
         d="m 15729.2,10619 c 0,0 20.9,-25.9 35.5,-32.7 0,0 27.6,-10.4 46.8,-19 6,-2.8 11.3,-5.3 14.5,-7.3 13.4,-8.3 40.3,-30.5 78.1,-41.4 37.7,-10.8 208.4,-49.7 208.4,-49.7 l 39.7,101.3 28.5,81.8 c 0,0 -158,204.7 -192,218.9 -3.4,1.4 -6.7,2.6 -9.9,3.5 -30,9.3 -56.1,3.5 -72.4,6.6 -6,1.1 -66.2,7.9 -79.2,-4.7 -18.1,-17.4 -23.6,-36.9 -20.5,-53.8 0,0 -33.9,-35.7 -36.3,-68.7 0,0 -32.4,-31.9 -23.8,-73.9 0,0 -29.2,-36.1 -17.4,-60.9" /><g
         transform="scale(1.09476)"
         id="g400"><path
           id="path402"
           style="fill:#1d3b54;fill-opacity:1;fill-rule:nonzero;stroke:none"
           d="m 16038.9,8486.69 c -36,23.21 -82.5,54.63 -243.9,135.28 -300.2,150.27 -671,422.56 -741.5,461.93 -108.4,60.48 -450.8,478.84 -450.8,478.84 17.7,63.01 180,189.48 180,189.48 0,0 519.1,-491.69 632.5,-552.21 97.6,-52.04 579.5,-104.6 712.2,-118.3 21.6,-2.19 33.9,-3.38 33.9,-3.38 138.7,-189.08 -44.9,-641.51 -122.4,-591.64" /></g><path
         id="path404"
         style="fill:#d6d6d6;fill-opacity:1;fill-rule:nonzero;stroke:none"
         d="m 9150.83,11504.3 h -852.48 v 105 h 852.48 v -105" /><path
         id="path406"
         style="fill:#d6d6d6;fill-opacity:1;fill-rule:nonzero;stroke:none"
         d="M 9357.65,11691.3 H 8091.53 v 105 h 1266.12 v -105" /><path
         id="path408"
         style="fill:#78c2ff;fill-opacity:1;fill-rule:nonzero;stroke:none"
         d="m 8946.64,13238 c 0,-121.6 -98.55,-220.1 -220.12,-220.1 -121.56,0 -220.11,98.5 -220.11,220.1 0,121.6 98.55,220.1 220.11,220.1 121.57,0 220.12,-98.5 220.12,-220.1" /><path
         id="path410"
         style="fill:#78c2ff;fill-opacity:1;fill-rule:nonzero;stroke:none"
         d="m 9123.57,12520.4 v -418.6 c -121.56,-55.3 -256.71,-86 -398.98,-86 -142.26,0 -277.42,30.7 -398.98,86 v 418.6 c 0,220.3 178.56,399 398.98,399 220.42,0 398.98,-178.7 398.98,-399" /><g
         id="g412"><g
           clip-path="url(#clipPath418)"
           id="g414"><path
             id="path426"
             style="fill:url(#linearGradient424);fill-opacity:1;fill-rule:nonzero;stroke:none"
             d="m 8724.59,13920.4 c -517.9,0 -939.23,-421.3 -939.23,-939.2 0,-367.6 216.31,-703.4 551.08,-855.5 122.09,-55.6 252.68,-83.7 388.15,-83.7 135.47,0 266.06,28.1 388.14,83.6 334.78,152.2 551.1,488 551.1,855.6 0,517.9 -421.34,939.2 -939.24,939.2 z m 0,-1930.8 c -143,0 -280.89,29.8 -409.82,88.4 -353.4,160.6 -581.76,515.1 -581.76,903.2 0,546.7 444.82,991.6 991.58,991.6 546.76,0 991.58,-444.9 991.58,-991.6 0,-388.1 -228.35,-742.6 -581.77,-903.2 -128.92,-58.6 -266.81,-88.4 -409.81,-88.4" /></g></g><path
         id="path428"
         style="fill:#c9e0ff;fill-opacity:1;fill-rule:nonzero;stroke:none"
         d="m 10316.8,12042 h -69 v 1590.4 h 69 V 12042" /><path
         id="path430"
         style="fill:#c9e0ff;fill-opacity:1;fill-rule:nonzero;stroke:none"
         d="m 10634.3,12042 h -69.1 v 1590.4 h 69.1 V 12042" /><path
         id="path432"
         style="fill:#c9e0ff;fill-opacity:1;fill-rule:nonzero;stroke:none"
         d="m 10951.8,12042 h -69.1 v 1590.4 h 69.1 V 12042" /><path
         id="path434"
         style="fill:#c9e0ff;fill-opacity:1;fill-rule:nonzero;stroke:none"
         d="m 11269.2,12042 h -69.1 v 1590.4 h 69.1 V 12042" /><path
         id="path436"
         style="fill:#c9e0ff;fill-opacity:1;fill-rule:nonzero;stroke:none"
         d="m 11586.7,12042 h -69.1 v 1590.4 h 69.1 V 12042" /><path
         id="path438"
         style="fill:#c9e0ff;fill-opacity:1;fill-rule:nonzero;stroke:none"
         d="m 11904.2,12042 h -69.1 v 1590.4 h 69.1 V 12042" /><path
         id="path440"
         style="fill:#c9e0ff;fill-opacity:1;fill-rule:nonzero;stroke:none"
         d="m 12221.6,12042 h -69.1 v 1590.4 h 69.1 V 12042" /><path
         id="path442"
         style="fill:#c9e0ff;fill-opacity:1;fill-rule:nonzero;stroke:none"
         d="m 12539.1,12042 h -69.1 v 1590.4 h 69.1 V 12042" /><path
         id="path444"
         style="fill:#c9e0ff;fill-opacity:1;fill-rule:nonzero;stroke:none"
         d="m 12856.5,12042 h -69.1 v 1590.4 h 69.1 V 12042" /><path
         id="path446"
         style="fill:#c9e0ff;fill-opacity:1;fill-rule:nonzero;stroke:none"
         d="m 13174,12042 h -69.1 v 1590.4 h 69.1 V 12042" /><path
         id="path448"
         style="fill:#c9e0ff;fill-opacity:1;fill-rule:nonzero;stroke:none"
         d="m 13491.5,12042 h -69.1 v 1590.4 h 69.1 V 12042" /><path
         id="path450"
         style="fill:#c9e0ff;fill-opacity:1;fill-rule:nonzero;stroke:none"
         d="m 13808.9,12042 h -69.1 v 1590.4 h 69.1 V 12042" /><path
         id="path452"
         style="fill:#4aafff;fill-opacity:1;fill-rule:nonzero;stroke:none"
         d="m 10316.8,12042 h -69 v 1114.9 h 69 V 12042" /><path
         id="path454"
         style="fill:#4aafff;fill-opacity:1;fill-rule:nonzero;stroke:none"
         d="m 10634.3,12042 h -69.1 v 729.6 h 69.1 V 12042" /><path
         id="path456"
         style="fill:#4aafff;fill-opacity:1;fill-rule:nonzero;stroke:none"
         d="m 10951.8,12042 h -69.1 v 1360.9 h 69.1 V 12042" /><path
         id="path458"
         style="fill:#4aafff;fill-opacity:1;fill-rule:nonzero;stroke:none"
         d="m 11269.2,12042 h -69.1 v 396.2 h 69.1 V 12042" /><path
         id="path460"
         style="fill:#4aafff;fill-opacity:1;fill-rule:nonzero;stroke:none"
         d="m 11586.7,12042 h -69.1 v 795.2 h 69.1 V 12042" /><path
         id="path462"
         style="fill:#4aafff;fill-opacity:1;fill-rule:nonzero;stroke:none"
         d="m 11904.2,12042 h -69.1 v 1093.1 h 69.1 V 12042" /><path
         id="path464"
         style="fill:#4aafff;fill-opacity:1;fill-rule:nonzero;stroke:none"
         d="m 12221.6,12042 h -69.1 v 705 h 69.1 v -705" /><path
         id="path466"
         style="fill:#4aafff;fill-opacity:1;fill-rule:nonzero;stroke:none"
         d="m 12539.1,12042 h -69.1 v 1194.2 h 69.1 V 12042" /><path
         id="path468"
         style="fill:#4aafff;fill-opacity:1;fill-rule:nonzero;stroke:none"
         d="m 12856.5,12042 h -69.1 v 655.8 h 69.1 V 12042" /><path
         id="path470"
         style="fill:#4aafff;fill-opacity:1;fill-rule:nonzero;stroke:none"
         d="m 13174,12042 h -69.1 v 1049.3 h 69.1 V 12042" /><path
         id="path472"
         style="fill:#4aafff;fill-opacity:1;fill-rule:nonzero;stroke:none"
         d="m 13491.5,12042 h -69.1 v 524.7 h 69.1 V 12042" /><path
         id="path474"
         style="fill:#4aafff;fill-opacity:1;fill-rule:nonzero;stroke:none"
         d="m 13808.9,12042 h -69.1 v 1049.3 h 69.1 V 12042" /><g
         transform="scale(1.0334)"
         id="g476"><path
           id="path478"
           style="fill:#4aafff;fill-opacity:1;fill-rule:nonzero;stroke:none"
           d="m 15542.5,11833.1 c -261.5,-93.5 -543.2,-9.1 -713.1,190.5 -40.4,47.6 -74.6,101.7 -100.5,161.6 -5.8,13.2 -11.1,26.7 -16.1,40.5 -49.3,138.1 -49.1,282 -8.4,411.9 58.7,187.6 201.7,346.4 401,417.7 65.8,23.5 132.9,35.8 199.2,37.8 273.6,8.3 533.2,-158.6 630.5,-430.3 120.7,-337.6 -55.1,-709 -392.6,-829.7 z m 596.6,902.6 c -129.7,362.4 -476,585 -841,574 -88.4,-2.7 -177.9,-19 -265.7,-50.4 -265.9,-95.1 -456.5,-306.9 -534.8,-557.1 -54.3,-173.4 -54.7,-365.2 11.2,-549.5 6.6,-18.3 13.8,-36.4 21.3,-54 34.8,-79.8 80.2,-152 134.2,-215.5 226.6,-266.3 602.4,-378.8 951.2,-254.1 450.1,161 684.5,656.4 523.6,1106.6" /></g><path
         id="path480"
         style="fill:#1a598c;fill-opacity:1;fill-rule:nonzero;stroke:none"
         d="m 15195.6,13059.8 -213.7,66.7 c 80.9,258.6 277.9,477.4 552.7,575.7 90.7,32.5 183.2,49.4 274.5,52.1 l 6.7,-223.8 c -68.5,-2.1 -137.8,-14.8 -205.8,-39.1 -206,-73.6 -353.7,-237.7 -414.4,-431.6" /><path
         id="path482"
         style="fill:#2273b5;fill-opacity:1;fill-rule:nonzero;stroke:none"
         d="m 15220.9,12592.2 -205.4,-89.3 c -7.8,18.2 -15.2,36.8 -22,55.7 -68.1,190.5 -67.7,388.7 -11.6,567.9 l 213.7,-66.7 c -42.1,-134.3 -42.3,-283 8.7,-425.7 5.1,-14.3 10.6,-28.2 16.6,-41.9" /><path
         id="path484"
         style="fill:#3788cc;fill-opacity:1;fill-rule:nonzero;stroke:none"
         d="m 15154.2,12280.2 c -55.8,65.6 -102.8,140.2 -138.7,222.7 l 205.4,89.3 c 26.8,-61.8 62.1,-117.8 103.9,-166.9 l -170.6,-145.1" /><g
         transform="scale(1.08696)"
         id="g486"><path
           id="path488"
           style="fill:#4aafff;fill-opacity:1;fill-rule:nonzero;stroke:none"
           d="m 16142.6,11188.6 c -46.8,-98.7 -148.5,-153.6 -251.3,-145.3 -24.4,2 -49,7.5 -72.9,17 -5.3,2 -10.5,4.3 -15.7,6.8 -52.1,24.6 -92.1,64.7 -116.9,112.2 -35.9,68.5 -40.3,152.4 -4.7,227.6 11.8,24.9 27.1,46.9 44.9,65.9 73.8,78.4 192.5,104.2 295.1,55.7 127.4,-60.3 181.7,-212.5 121.5,-339.9 z m -85.1,416.9 c -136.8,64.7 -295.1,30.3 -393.5,-74.2 -23.8,-25.4 -44.2,-54.8 -59.9,-87.9 -47.5,-100.4 -41.6,-212.3 6.2,-303.7 33.2,-63.3 86.4,-116.7 156,-149.7 6.9,-3.2 13.9,-6.3 20.9,-9 31.8,-12.6 64.6,-20 97.2,-22.6 137.1,-11.1 272.9,62.1 335.2,193.8 80.4,169.9 7.8,372.9 -162.1,453.3" /></g><g
         transform="scale(1.04868)"
         id="g490"><path
           id="path492"
           style="fill:#1a598c;fill-opacity:1;fill-rule:nonzero;stroke:none"
           d="m 16258.3,11587.3 -78.3,-41 c -49.5,94.7 -55.6,210.7 -6.3,314.8 16.3,34.3 37.3,64.8 62,91 l 64.3,-60.5 c -18.5,-19.7 -34.3,-42.6 -46.5,-68.3 -36.9,-78 -32.4,-165 4.8,-236" /></g><g
         transform="scale(1.05484)"
         id="g494"><path
           id="path496"
           style="fill:#2273b5;fill-opacity:1;fill-rule:nonzero;stroke:none"
           d="m 16300,11397 -32.1,-81.7 c -7.2,2.9 -14.4,6 -21.6,9.4 -71.7,33.9 -126.5,88.9 -160.7,154.2 l 77.8,40.8 c 25.6,-49 66.7,-90.2 120.5,-115.7 5.3,-2.5 10.7,-4.8 16.1,-7" /></g><g
         transform="scale(1.08591)"
         id="g498"><path
           id="path500"
           style="fill:#4aafff;fill-opacity:1;fill-rule:nonzero;stroke:none"
           d="m 15817.9,12115.4 c -98.8,46.7 -153.8,148.7 -145.5,251.5 2,24.5 7.6,49.1 17.1,73 2,5.3 4.3,10.5 6.7,15.7 24.7,52.2 64.8,92.2 112.3,117 68.6,35.9 152.6,40.3 227.9,4.7 24.9,-11.8 47,-27.1 66,-44.9 78.4,-73.9 104.3,-192.7 55.7,-295.3 -60.3,-127.6 -212.6,-182.1 -340.2,-121.7 z m 417.3,85.2 c 64.8,136.9 30.4,295.3 -74.3,393.8 -25.4,23.9 -54.8,44.3 -88,60 -100.5,47.5 -212.5,41.6 -304,-6.2 -63.3,-33.2 -116.8,-86.5 -149.8,-156.1 -3.2,-7 -6.3,-14 -9,-21 -12.6,-31.8 -20,-64.6 -22.7,-97.3 -11,-137.2 62.3,-273.2 194,-335.5 170.1,-80.5 373.3,-7.8 453.8,162.3" /></g><g
         transform="scale(1.07664)"
         id="g502"><path
           id="path504"
           style="fill:#4aafff;fill-opacity:1;fill-rule:nonzero;stroke:none"
           d="m 15944.6,12680.9 -39.9,76.2 c 92.2,48.2 205.3,54.2 306.6,6.2 33.4,-15.8 63.2,-36.3 88.7,-60.4 l -59,-62.6 c -19.1,18 -41.4,33.4 -66.5,45.3 -76,35.9 -160.7,31.5 -229.9,-4.7" /></g><g
         transform="scale(1.05317)"
         id="g506"><path
           id="path508"
           style="fill:#2273b5;fill-opacity:1;fill-rule:nonzero;stroke:none"
           d="m 16177.2,12826.6 -81.8,32.2 c 2.8,7.3 6,14.5 9.3,21.6 34,71.8 89.1,126.8 154.5,161 l 40.8,-77.9 c -49,-25.6 -90.3,-66.8 -115.8,-120.7 -2.5,-5.3 -4.9,-10.7 -7,-16.2" /></g><g
         transform="scale(1.04524)"
         id="g510"><path
           id="path512"
           style="fill:#3788cc;fill-opacity:1;fill-rule:nonzero;stroke:none"
           d="m 16194,12855.3 c 2.8,34 10.4,68 23.5,101.1 l 82.5,-32.4 c -9.9,-24.8 -15.6,-50.4 -17.7,-75.8 l -88.3,7.1" /></g><g
         transform="scale(1.0541)"
         id="g514"><path
           id="path516"
           style="fill:#e2f3fe;fill-opacity:1;fill-rule:nonzero;stroke:none"
           d="m 16300,11068.6 h -655.5 v 13 h 642.5 v 247.7 h 13 v -260.7" /></g><path
         id="path518"
         style="fill:#e2f3fe;fill-opacity:1;fill-rule:nonzero;stroke:none"
         d="m 15880.6,11667.4 h -898.7 v 13.7 h 885 v 427.3 h 13.7 v -441" /><path
         id="path520"
         style="fill:#4aafff;fill-opacity:1;fill-rule:nonzero;stroke:none"
         d="m 15600.3,11741.6 h -618.4 v 82.4 h 618.4 v -82.4" /><g
         transform="scale(1.03402)"
         id="g522"><path
           id="path524"
           style="fill:#4aafff;fill-opacity:1;fill-rule:nonzero;stroke:none"
           d="m 16300,11355.3 h -351.8 v 79.7 h 351.8 v -79.7" /></g><path
         id="path526"
         style="fill:#3b3b40;fill-opacity:1;fill-rule:nonzero;stroke:none"
         d="m 6979.38,9172.2 c 0,0 -261.19,8.8 -344.54,-205.2 -83.35,-214.1 -20.43,-378.3 3.34,-456.2 62.08,-203.7 67.18,-277.6 37.13,-400.5 -26.64,-108.9 -51.14,-165.2 -81.87,-267 -30.73,-101.9 20.52,-90.5 24.98,-98 4.46,-7.4 1022.75,-101.5 1022.75,-101.5 0,0 -27.21,220.6 -98.91,271.8 -71.7,51.2 -142.59,61.6 -88.04,279.9 54.55,218.3 89.15,319.6 58.58,477.9 -35.43,183.4 -57.73,298 -230.2,418.3 -103.97,72.5 -220.79,88.5 -303.22,80.5" /><path
         id="path528"
         style="fill:#cccccc;fill-opacity:1;fill-rule:nonzero;stroke:none"
         d="m 6678.05,1972.1 c 0,0 143.64,-213.3 201.53,-264.7 0,0 128.62,-47.2 141.49,-137.2 12.86,-90.1 10.72,-150.2 -141.49,-154.4 -152.22,-4.3 -252.01,23 -279.88,115.2 -27.86,92.2 -88.87,154.9 -88.87,154.9 V 1493 h -34.3 c 0,0 -8.58,186.5 -10.72,220.8 -2.14,34.3 -24.63,166.2 47.72,224.6 72.34,58.4 164.52,33.7 164.52,33.7" /><path
         id="path530"
         style="fill:#cccccc;fill-opacity:1;fill-rule:nonzero;stroke:none"
         d="m 7397.1,2142.6 c 0,0 24.86,-58.8 71.82,-120.1 34.42,-44.9 141.49,-229.4 188.65,-242.2 47.17,-12.9 192.95,-38.6 205.81,-120.1 12.87,-81.5 19.3,-139.3 -124.34,-145.8 -143.63,-6.4 -237.97,-15 -306.57,85.8 -68.6,100.7 -177.94,173.6 -177.94,173.6 v -262.9 h -55.74 c 0,0 -25.72,273.7 -40.73,292.9 -15.01,19.3 -53.6,229.4 79.32,338.8 132.92,109.3 159.72,0 159.72,0" /><path
         id="path532"
         style="fill:#eea886;fill-opacity:1;fill-rule:nonzero;stroke:none"
         d="m 6581.58,6089.4 c 0,0 -161.42,-240 -210.62,-519.8 -49.2,-279.8 9.1,-1214.6 6.96,-1352.9 -2.15,-138.2 -130.78,-482.3 -105.05,-742.8 25.72,-260.5 240.66,-1535.5 240.66,-1535.5 l 164.52,33.7 c 0,0 -16.08,1321.7 0,1431.1 16.08,109.3 48.36,507.8 54.78,552.9 6.44,45 408.29,1227.1 408.29,1428.9 0,201.7 -122.19,1033.5 -559.54,704.4" /><path
         id="path534"
         style="fill:#eea886;fill-opacity:1;fill-rule:nonzero;stroke:none"
         d="m 7492.71,5997.2 c 0,0 298,-1137.3 333.37,-1294.9 35.38,-157.5 86.62,-287.5 86.62,-354.4 0,-155.2 -57.68,-404.5 -57.68,-404.5 L 7397.1,2142.6 7207.16,2112.7 c 0,0 109.86,1106.7 115.27,1319 5.42,212.8 169.21,514.9 137.05,605 -32.16,90 -517.73,1128.7 -517.73,1128.7 0,0 -367.67,1162 550.96,831.8" /><path
         id="path536"
         style="fill:#eea886;fill-opacity:1;fill-rule:nonzero;stroke:none"
         d="m 6879.58,1707.4 c 0,0 -147.09,-82.3 -241.81,23.3 -79.97,89.2 -124.24,207.7 -124.24,207.7 l 164.52,33.7 201.53,-264.7" /><path
         id="path538"
         style="fill:#eea886;fill-opacity:1;fill-rule:nonzero;stroke:none"
         d="m 7657.57,1780.3 c 0,0 -128.62,-32.2 -177.93,0 -49.31,32.1 -216.94,315.5 -272.48,332.4 0,0 53.8,109.2 189.94,29.9 0,0 224.03,-315.2 260.47,-362.3" /><path
         id="path540"
         style="fill:#eb4747;fill-opacity:1;fill-rule:nonzero;stroke:none"
         d="m 7912.7,4347.9 c 0,0 -689.26,-295.9 -1715.49,-295.9 0,0 108.09,1555 257.29,1889.8 149.19,334.9 1061.98,-33.8 1061.98,-33.8 0,0 396.22,-1279.6 396.22,-1560.1" /><path
         id="path542"
         style="fill:#eb4747;fill-opacity:1;fill-rule:nonzero;stroke:none"
         d="m 8687.98,6600.6 c 0,0 -628.62,-54.1 -784.19,15.2 -77.86,34.6 -183.35,178.3 -280.79,335.9 -16.54,26.8 -32.88,54 -48.79,81.1 -119.13,203 -215.39,402.5 -215.39,402.5 0,0 -287.58,361.7 18.5,491 0,0 118.87,-33 192.7,-147.3 73.88,-114.3 131.64,-285.8 146.23,-342.3 14.58,-56.5 260.68,-553.6 276.12,-567.6 15.43,-14 170.1,-4.7 289.33,-15.9 194.55,-18.4 399.7,-29.1 399.7,-29.1 l 6.58,-223.5" /><path
         id="path544"
         style="fill:#eb4747;fill-opacity:1;fill-rule:nonzero;stroke:none"
         d="m 7599.51,7105.5 c -77.33,-179 -4.4,-238.8 -39.78,-417.8 -35.38,-179 -48.02,-689 -41.39,-788.5 6.64,-99.4 -881.59,-201.6 -1087.17,-20.4 0,0 68.52,386.9 194.38,627.4 23.92,45.7 12.46,225.7 -11.83,287.6 -7.47,18.9 -37.23,92.1 -74.99,184.6 0,0 -0.06,0.1 -0.11,0.2 -39.3,96.2 -87.2,213.2 -127.61,311.8 -47.85,116.8 -85.18,207.8 -85.18,207.8 0,0 -30.66,288 88.94,380.9 103.91,80.7 387.03,109.4 437.84,127.1 50.87,17.7 198.74,25.4 302.64,9.9 0,0 159.12,-75.1 214.39,-86.2 55.26,-11 269.65,-289.5 307.25,-391.2 37.55,-101.7 0,-254.2 -77.38,-433.2" /><path
         id="path546"
         style="fill:#eea886;fill-opacity:1;fill-rule:nonzero;stroke:none"
         d="m 7231.2,8199.8 c 0,0 -31.75,-292 -25.12,-387 0,0 -132.99,-161.7 -321.08,197.5 0,0 46.78,143.9 -12.79,345.6 -59.57,201.7 358.99,-156.1 358.99,-156.1" /><path
         id="path548"
         style="fill:#eea886;fill-opacity:1;fill-rule:nonzero;stroke:none"
         d="m 6725.59,7980.7 c 0,0 113.75,-336 426.07,-311.3 312.33,24.7 148.06,283.7 148.06,283.7 0,0 -77.84,44.7 -99.75,48.9 -21.9,4.2 -309.94,16.4 -309.94,16.4 l -164.44,-37.7" /><path
         id="path550"
         style="fill:#434343;fill-opacity:1;fill-rule:nonzero;stroke:none"
         d="M 8737.31,6473.9 H 7992.9 c -32.69,0 -59.18,26.5 -59.18,59.2 v 1114.1 c 0,32.7 26.49,59.2 59.18,59.2 h 744.41 c 32.69,0 59.18,-26.5 59.18,-59.2 V 6533.1 c 0,-32.7 -26.49,-59.2 -59.18,-59.2" /><path
         id="path552"
         style="fill:#ffffff;fill-opacity:1;fill-rule:nonzero;stroke:none"
         d="m 8737.83,6557.7 h -745.46 v 1064.9 h 745.46 V 6557.7" /><path
         id="path554"
         style="fill:#eea886;fill-opacity:1;fill-rule:nonzero;stroke:none"
         d="m 7718.42,6725.7 c 0,0 28.2,-0.6 46.73,13.4 32.01,24.1 43.54,83.6 100.02,79.2 56.48,-4.3 82.69,-181.4 68.54,-215 -14.14,-33.5 -92.59,-50.3 -208.52,-27.2 -115.93,23.1 -6.77,149.6 -6.77,149.6" /><path
         id="path556"
         style="fill:#eea886;fill-opacity:1;fill-rule:nonzero;stroke:none"
         d="m 7845.79,6817.1 c 0,0 81.2,27.7 174.93,48 82.23,17.8 180.48,23.6 190.04,9.3 10.66,-15.9 -80.1,-29.6 -160.67,-52.5 -74.18,-21 -56.51,-28.8 -56.51,-28.8 0,0 -4.89,2.5 79.81,10.4 91.06,8.5 184.85,8.4 194.11,-9.8 4.5,-8.9 1.35,-14.9 -31.46,-23.2 19.72,0.9 22.5,-4.2 23.26,-12.1 3.9,-41 -128.93,-73.7 -181.68,-86.6 40.57,9.7 71.21,12.6 56.61,-14.9 -16.71,-31.4 -206.25,-69.4 -273.1,-89.3 -72.93,-21.7 -15.34,249.5 -15.34,249.5" /><path
         id="path558"
         style="fill:#eea886;fill-opacity:1;fill-rule:nonzero;stroke:none"
         d="m 8698.13,7469.8 c 0,0 122.62,28.5 162.08,-30.6 39.46,-59 40.9,-135.1 31.06,-170.3 -9.83,-35.1 -41.62,-125.6 -83.11,-107 -133.13,59.7 -110.03,307.9 -110.03,307.9" /><path
         id="path560"
         style="fill:#eea886;fill-opacity:1;fill-rule:nonzero;stroke:none"
         d="m 8819.49,7468.5 c 0,0 -17.17,82.9 -50.35,68.7 -33.18,-14.2 -3.21,-68.8 -3.21,-68.8 l 53.56,0.1" /><path
         id="path562"
         style="fill:#eea886;fill-opacity:1;fill-rule:nonzero;stroke:none"
         d="m 8698.13,7469.8 c 0,0 1.99,47.3 87.74,-1.4 85.75,-48.7 -87.74,1.4 -87.74,1.4" /><path
         id="path564"
         style="fill:#a33131;fill-opacity:1;fill-rule:nonzero;stroke:none"
         d="m 7574.21,7032.9 c 0,0 93.5,222.2 97.54,272.3 -0.85,-29.5 -7.53,-209.5 -48.75,-353.5 -16.54,26.8 -32.88,54 -48.79,81.1 0,0.1 0,0.1 0,0.1" /><path
         id="path566"
         style="fill:#d1c0ba;fill-opacity:1;fill-rule:nonzero;stroke:none"
         d="m 7671.75,7305.2 c 0.05,2.8 0.11,4.2 0.11,4.2 0.04,-1.2 0,-2.6 -0.11,-4.2" /><path
         id="path568"
         style="fill:#a33131;fill-opacity:1;fill-rule:nonzero;stroke:none"
         d="m 7192.31,6725.5 -389.41,685.6 c 0,0 136.04,-683.9 239.01,-706.9 102.98,-23 150.4,21.3 150.4,21.3" /><path
         id="path570"
         style="fill:#eb4747;fill-opacity:1;fill-rule:nonzero;stroke:none"
         d="m 6431.23,7891.6 c 0,0 -186.79,-93 -122.39,-333.7 64.39,-240.6 128.48,-309.8 189.99,-399.8 58.09,-85 176.63,-313.9 191.14,-339.5 14.5,-25.7 157.33,-399.3 288.34,-441.7 131.7,-42.7 780.27,163.9 794.91,141.4 14.64,-22.6 -0.83,227.5 -0.83,227.5 0,0 -301.4,-22.2 -367.89,-17.7 -108.01,7.3 -281.28,-36.8 -322.96,56.7 -48.95,109.9 -224.51,471.1 -242.99,530.6 -18.47,59.5 -234.07,637.3 -407.32,576.2" /><path
         id="path572"
         style="fill:#eea987;fill-opacity:1;fill-rule:nonzero;stroke:none"
         d="m 7183,9035.2 c 0,0 288.11,-188 194.47,-642.7 -93.65,-454.6 -433.79,-204.6 -470.75,-178.9 -36.95,25.8 -151.13,310.3 -155.61,434.5 -4.21,116.9 -65.15,585.4 431.89,387.1" /><path
         id="path574"
         style="fill:#3b3b40;fill-opacity:1;fill-rule:nonzero;stroke:none"
         d="m 7163.2,8944 c -30.06,8.9 -131.45,-187.1 -186.03,-235.5 -54.59,-48.3 -154.98,-169.8 -164.8,-302.8 -9.81,-133 -122.07,290.7 -83.23,447.9 38.83,157.2 90.65,387.8 441.76,204.9 351.12,-182.8 260.32,-509.7 260.32,-509.7 0,0 -116.19,350.4 -268.02,395.2" /><path
         id="path576"
         style="fill:#eea987;fill-opacity:1;fill-rule:nonzero;stroke:none"
         d="m 6919.91,8630.2 c -9.29,53.8 -128.02,99.3 -126.27,18.4 1.76,-80.8 67.3,-174.1 104.37,-168.2 37.06,5.9 30.48,100.1 21.9,149.8" /><path
         id="path578"
         style="fill:#a87860;fill-opacity:1;fill-rule:nonzero;stroke:none"
         d="m 6934.44,8194.8 c 2.1,-4 70.65,-135.8 280.38,-169 4.67,51.4 11.19,114.4 11.19,114.4 0,0 -151,-50.8 -291.57,54.6" /><path
         id="path580"
         style="fill:#e6e6e6;fill-opacity:1;fill-rule:nonzero;stroke:none"
         d="m 8338.8,7441.2 h -261.7 v 55.1 h 261.7 v -55.1" /><path
         id="path582"
         style="fill:#78c2ff;fill-opacity:1;fill-rule:nonzero;stroke:none"
         d="m 8494.99,7346.9 -37.06,60.7 c -3.03,5 -1.47,11.5 3.51,14.5 4.98,3 11.47,1.5 14.51,-3.5 l 26.2,-42.9 69.65,41.2 c 5.02,3 11.49,1.3 14.46,-3.7 2.97,-5 1.31,-11.5 -3.71,-14.5 l -87.56,-51.8" /><path
         id="path584"
         style="fill:#78c2ff;fill-opacity:1;fill-rule:nonzero;stroke:none"
         d="m 8519.86,7500.9 c -62.98,0 -114.21,-51.3 -114.21,-114.2 0,-63 51.23,-114.2 114.21,-114.2 62.98,0 114.21,51.2 114.21,114.2 0,62.9 -51.23,114.2 -114.21,114.2 z m 0,-247.5 c -73.47,0 -133.24,59.8 -133.24,133.3 0,73.4 59.77,133.2 133.24,133.2 73.47,0 133.25,-59.8 133.25,-133.2 0,-73.5 -59.78,-133.3 -133.25,-133.3" /><path
         id="path586"
         style="fill:#78c2ff;fill-opacity:1;fill-rule:nonzero;stroke:none"
         d="m 8494.99,7010.4 -37.06,60.6 c -3.03,5 -1.47,11.5 3.51,14.5 4.98,3.1 11.47,1.5 14.51,-3.5 l 26.2,-42.9 69.65,41.3 c 5.02,2.9 11.49,1.3 14.46,-3.8 2.97,-5 1.31,-11.5 -3.71,-14.4 l -87.56,-51.8" /><path
         id="path588"
         style="fill:#78c2ff;fill-opacity:1;fill-rule:nonzero;stroke:none"
         d="m 8519.86,7164.3 c -62.98,0 -114.21,-51.2 -114.21,-114.2 0,-63 51.23,-114.2 114.21,-114.2 62.98,0 114.21,51.2 114.21,114.2 0,63 -51.23,114.2 -114.21,114.2 z m 0,-247.5 c -73.47,0 -133.24,59.8 -133.24,133.3 0,73.5 59.77,133.2 133.24,133.2 73.47,0 133.25,-59.7 133.25,-133.2 0,-73.5 -59.78,-133.3 -133.25,-133.3" /><path
         id="path590"
         style="fill:#e6e6e6;fill-opacity:1;fill-rule:nonzero;stroke:none"
         d="m 8338.8,7331.5 h -261.7 v 55.2 h 261.7 v -55.2" /><path
         id="path592"
         style="fill:#e6e6e6;fill-opacity:1;fill-rule:nonzero;stroke:none"
         d="m 8338.8,7081.6 h -261.7 v 55.1 h 261.7 v -55.1" /><path
         id="path594"
         style="fill:#e6e6e6;fill-opacity:1;fill-rule:nonzero;stroke:none"
         d="m 8338.8,6971.9 h -261.7 v 55.2 h 261.7 v -55.2" /><path
         id="path596"
         style="fill:#eea886;fill-opacity:1;fill-rule:nonzero;stroke:none"
         d="m 8975.35,6154.6 c 0,0 -83.36,-31.7 -147.46,-38 -64.1,-6.3 -157.03,-73.3 -180.73,-102.4 -23.69,-29.1 -217.61,-237.4 -221.01,-263.9 -3.4,-26.6 49.57,-17.8 67.39,3.3 17.8,21 186.96,188.7 186.96,188.7 0,0 -189.79,-211.3 -188.57,-236.1 1.23,-24.7 29.78,-45.9 64.83,-24 0,0 27.97,-57.3 77.35,-7.7 l 98.81,98.7 c 0,0 -41.82,-60.2 13.05,-42.9 29.18,9.2 126.98,133.6 154.34,152.1 27.37,18.4 132.07,177.8 132.07,177.8 l -57.03,94.4" /><path
         id="path598"
         style="fill:#162d40;fill-opacity:1;fill-rule:nonzero;stroke:none"
         d="m 9649.97,2060.8 c 0,0 -72.2,-144.4 -115.96,-172.8 -43.75,-28.5 -288.78,-266.9 -339.1,-288.8 -50.32,-21.9 -212.21,-52.5 -210.03,-129.1 2.19,-76.6 417.87,-52.5 498.82,-24.1 80.94,28.5 216.58,212.3 271.28,210.1 54.69,-2.2 35.01,-225.4 35.01,-225.4 h 59.06 c 0,0 74.39,236.3 72.2,319.4 -2.19,83.2 -48.13,310.7 -48.13,310.7 h -223.15" /><path
         id="path600"
         style="fill:#162d40;fill-opacity:1;fill-rule:nonzero;stroke:none"
         d="m 10663.2,2150.5 c 0,0 -31.7,-143 -83.9,-192.9 -52.2,-49.9 -247.9,-260.9 -297.6,-283.6 -49.6,-22.7 -144.9,-38.6 -174.4,-74.9 -29.5,-36.3 -11.9,-142.9 174.4,-131.6 186.4,11.3 247.1,9.6 291.3,47.1 44.3,37.4 187.2,166.8 229.8,170.2 v -206 h 51 c 0,0 90.2,270.6 57.9,384.7 -32.3,114 -30.6,268.8 -30.6,268.8 l -217.9,18.2" /><path
         id="path602"
         style="fill:#eea886;fill-opacity:1;fill-rule:nonzero;stroke:none"
         d="m 10589.2,8273.2 c 0,0 85,-218.8 18.9,-387.9 0,0 311.6,19.7 323.4,55.1 11.8,35.4 -12.5,363.3 30.3,460.2 42.8,96.9 -372.6,-127.4 -372.6,-127.4" /><path
         id="path604"
         style="fill:#eea886;fill-opacity:1;fill-rule:nonzero;stroke:none"
         d="m 11153.4,5339 c 0,0 -18,-47.8 -15.3,-83 2.2,-27.9 -13.3,-73.6 -19.2,-98.2 -5.9,-24.7 -19.8,-133.6 -16.4,-160.4 1.4,-11 36.9,-74.3 37.3,-97 0.3,-22.6 -4.5,-68.6 15.2,-67.4 19.8,1.3 35.6,41.6 35.6,41.6 0,0 1.6,-20.6 19.2,-24.7 34.3,-8.2 48.8,8.6 48.8,8.6 0,0 15.5,-19.6 30.7,-19.4 33.5,0.4 47.1,17 47.1,17 0,0 16.4,-9.3 38.6,-4.1 28.5,6.7 36.3,34.6 36.3,34.6 0,0 37.5,0.3 45,19.8 7.6,19.6 2.6,37.6 4.3,54.2 1.7,16.5 -25.8,157 -90.2,248.6 -64.3,91.5 -32,206.5 -32,206.5 l -185,-76.7" /><path
         id="path606"
         style="fill:#0e1e2b;fill-opacity:1;fill-rule:nonzero;stroke:none"
         d="m 11091.1,4873.9 c -14.1,-2 -24,-15.2 -21.9,-29.3 l 38.6,-266.3 c 2.1,-14.1 15.2,-24 29.3,-21.9 l 422.4,61.3 c 14.1,2 24,15.2 21.9,29.3 l -38.6,266.3 c -2.1,14.1 -15.2,23.9 -29.3,21.9 z m -35.5,-303.2 -38.6,266.4 c -6.2,42.9 23.6,82.8 66.5,89.1 l 422.4,61.2 c 42.9,6.2 82.9,-23.6 89.1,-66.5 l 38.6,-266.4 c 6.2,-42.9 -23.6,-82.8 -66.5,-89.1 l -422.4,-61.2 c -42.9,-6.2 -82.9,23.6 -89.1,66.5" /><path
         id="path608"
         style="fill:#eddad3;fill-opacity:1;fill-rule:nonzero;stroke:none"
         d="m 10734.2,3422.3 1559.3,226.2 -164.7,1135.4 -1559.3,-226.2 164.7,-1135.4" /><path
         id="path610"
         style="fill:#db9c7c;fill-opacity:1;fill-rule:nonzero;stroke:none"
         d="m 11183.2,4886.7 c 0,0 -24.9,126 3.2,160.1 28,34 39.5,-10.9 39.5,-10.9 0,0 -12.1,44.2 22.5,58 34.7,13.8 45.4,-39.6 45.4,-39.6 0,0 -0.1,36.1 38.6,37.1 38.7,0.9 37.4,-45.5 37.4,-45.5 0,0 28.3,51.4 58.7,14.5 51.3,-62.3 27.8,-154 27.8,-154 0,0 -7.8,-21.5 -45,-19.8 0,0 -15.5,-54.2 -74.9,-30.5 0,0 -49.5,-42.5 -77.8,2.4 0,0 -55.3,-42.2 -75.4,28.2" /><path
         id="path612"
         style="fill:#eb4747;fill-opacity:1;fill-rule:nonzero;stroke:none"
         d="m 10559.1,7959.3 c 0,0 -184.1,-63.7 -267.3,-81.4 -83.2,-17.7 -257.3,-98 -243.1,-400.1 14.2,-302.1 66.1,-564.1 85,-693.9 18.9,-129.9 7.1,-460.3 -23.6,-620.8 0,0 441.4,-108.6 960.6,0 0,0 -92,273.8 -89.7,344.6 2.4,70.8 306.9,653.8 321.1,745.9 14.1,92 75.5,498 -63.8,587.7 -139.2,89.7 -252.5,77.9 -311.5,118 -59.1,40.1 -281.6,28.8 -367.7,0" /><path
         id="path614"
         style="fill:#eb4747;fill-opacity:1;fill-rule:nonzero;stroke:none"
         d="m 10322.7,7885.3 c 0,0 -203.2,5.6 -347.16,-313.1 -143.99,-318.6 -179.39,-505.1 -212.43,-549.9 -33.05,-44.9 -148.71,-219.6 -262.01,-304.5 -113.29,-85 -585.03,-563.6 -585.03,-563.6 l 129.49,-165.8 c 0,0 679.78,481.5 750.59,564.1 70.81,82.7 500.85,708.2 526.55,802.6 25.8,94.4 224.5,432.6 0,530.2" /><path
         id="path616"
         style="fill:#eb4747;fill-opacity:1;fill-rule:nonzero;stroke:none"
         d="m 11541.6,6302.4 c 1.3,-127.5 -131,-997.3 -131,-997.3 l -250.1,-10.6 c 0,0 80.2,862.7 108.5,1061 8.4,58.4 1.3,149.4 -12.8,248.4 v 0.1 c -8.9,63 -20.8,129.2 -33.3,192.5 -34.5,174.7 -74.3,327.2 -74.3,327.2 0,0 -225.4,742.6 121,688.2 0,0 119.8,-142.9 158.7,-366 39,-223 77.9,-555.8 70.8,-686.8 -7,-131 41.6,-363 42.5,-456.7" /><path
         id="path618"
         style="fill:#1d3b54;fill-opacity:1;fill-rule:nonzero;stroke:none"
         d="m 10110.1,6163.1 c 0,0 -80.3,-189.7 -87.4,-237.7 -7,-47.9 -258.61,-674.2 -276.12,-857.5 -17.7,-185.3 -70.81,-679.8 -89.7,-750.6 -18.88,-70.8 42.5,-387.1 51.93,-457.9 9.45,-70.8 4.73,-1227.4 -80.25,-1798.6 0,0 198.27,-85 349.34,0 0,0 250.2,892.2 236,1406.8 -14.1,514.5 -79.4,731.7 0.4,939.4 79.9,207.7 547.2,830.8 594.4,896.9 47.2,66.1 343,431.3 62.9,827 -280,395.7 -761.5,32.2 -761.5,32.2" /><path
         id="path620"
         style="fill:#1d3b54;fill-opacity:1;fill-rule:nonzero;stroke:none"
         d="m 11076.5,4473.1 c -24.8,-165.3 1.3,-382.4 53.2,-986.7 52,-604.2 -90.8,-1335.9 -90.8,-1335.9 -179.4,-61.4 -385.9,0 -385.9,0 4.7,42.5 0,1472.9 0,1600.3 0,127.5 -36.7,272.2 -46.1,418.5 -6.4,99.7 -52.8,283.5 -105,471.1 -15.6,56.3 -31.8,112.8 -47.5,167.5 0,0.1 0,0.1 0,0.1 -8.8,30.6 -17.5,60.8 -25.9,90 -73.5,254.9 -172.4,1239.2 -172.4,1239.2 0,0 547.9,441.3 814.6,25.9 266.8,-415.4 129.8,-717.6 120.4,-769.5 -9.4,-51.9 -89.7,-755.3 -114.6,-920.5" /><path
         id="path622"
         style="fill:#eb4747;fill-opacity:1;fill-rule:nonzero;stroke:none"
         d="m 10067.3,6935.9 c 0,0 36.9,-743.3 -140.15,-1171.7 0,0 584.15,-194.7 1338.35,0 0,0 -161.7,532.8 -148.7,614.3 12.9,81.4 295.1,1020.8 208.3,1241.8 -86.8,221 -1170.8,12.9 -1257.8,-684.4" /><path
         id="path624"
         style="fill:#eea886;fill-opacity:1;fill-rule:nonzero;stroke:none"
         d="m 10763.9,9134.8 c -131.5,14.9 -472.1,-11.8 -446.1,-524 26,-512.2 212.4,-481.5 398.9,-427.2 186.5,54.2 408.3,450.8 408.3,557 0,106.2 14.2,351.7 -361.1,394.2" /><path
         id="path626"
         style="fill:#fccca2;fill-opacity:1;fill-rule:nonzero;stroke:none"
         d="m 10336.7,8845.3 c 0,0 148.1,-189 297.1,-234.2 0,0 114.7,-205 314.8,-257.3 0,0 426.6,408 67.9,714.9 -358.8,306.8 -682.2,-66.8 -679.8,-223.4" /><path
         id="path628"
         style="fill:#eea886;fill-opacity:1;fill-rule:nonzero;stroke:none"
         d="m 10605.7,8681.6 c 5,28 67.2,85 115,21.2 47.9,-63.7 -39.4,-212.4 -72.5,-212.4 -33,0 -61.3,85 -42.5,191.2" /><path
         id="path630"
         style="fill:#fccca2;fill-opacity:1;fill-rule:nonzero;stroke:none"
         d="m 11076.6,8976.4 c 10.6,16.2 334,161.9 401.3,-142.6 67.3,-304.5 -260.4,-658.5 -317.9,-810.8 -57.4,-152.2 0,-513.3 0,-513.3 0,0 -171.2,185.7 -230.9,375.6 -65.5,208.6 -87.5,734.4 147.5,1091.1" /><path
         id="path632"
         style="fill:#162d40;fill-opacity:1;fill-rule:nonzero;stroke:none"
         d="m 10849.4,5360.9 c -4.3,-9.5 -277.2,-615.4 -347.5,-720.5 -15.6,56.3 -31.8,112.8 -47.5,167.5 0,0.1 0,0.1 0,0.1 0,0 385.8,539.5 395,552.9" /><path
         id="path634"
         style="fill:#ab3434;fill-opacity:1;fill-rule:nonzero;stroke:none"
         d="m 11313.3,7222.6 c 0,0 -8.6,-385.4 -57.1,-618.6 -8.9,63 -20.8,129.2 -33.3,192.5 2,8.7 80.9,365.8 90.4,426.1" /><path
         id="path636"
         style="fill:#353a3d;fill-opacity:1;fill-rule:nonzero;stroke:none"
         d="m 4341.66,1814.5 c 0,0 82.48,-123.4 198.18,-150 115.69,-26.7 229.65,-69.1 230.52,-142.1 0.88,-73 -334.5,-116.6 -466.9,-42.9 -197.6,109.8 -217.68,76.7 -239.59,131.6 -21.91,54.9 26.32,201.8 24.89,219.2 -1.76,21.6 252.9,-15.8 252.9,-15.8" /><path
         id="path638"
         style="fill:#81807e;fill-opacity:1;fill-rule:nonzero;stroke:none"
         d="m 4328.85,1875.4 c 0,0 15.05,-59.6 12.81,-60.9 -2.24,-1.2 -260.72,-32 -252.9,15.8 6.34,38.8 15.39,81 15.39,81 l 224.7,-35.9" /><path
         id="path640"
         style="fill:#353a3d;fill-opacity:1;fill-rule:nonzero;stroke:none"
         d="m 3471.77,1822.7 c 0,0 58.84,-118 159.35,-158.2 107.45,-43 193.62,-92.4 191.66,-163.5 -1.95,-71.2 -262.67,-143.3 -452.34,-6.7 -119.83,86.2 -157.81,86.6 -177.04,141 -19.23,54.3 33.39,195.4 32.67,212.5 -0.88,21.1 245.7,-25.1 245.7,-25.1" /><path
         id="path642"
         style="fill:#81807e;fill-opacity:1;fill-rule:nonzero;stroke:none"
         d="m 3474.71,1884 c 0,0 -0.72,-60.1 -2.94,-61.3 -2.23,-1.1 -252.05,-21.7 -245.7,25.1 5.04,37.2 24.24,82.1 24.24,82.1 l 224.4,-45.9" /><path
         id="path644"
         style="fill:#2d3133;fill-opacity:1;fill-rule:nonzero;stroke:none"
         d="m 4390.69,5489.9 c 0,0 232.09,-1023.8 285.11,-1335.6 45.12,-265.4 81.08,-541.8 59.46,-733.4 -26.76,-237.2 -362.56,-1466.6 -348.53,-1536.2 14.04,-69.5 -351.39,-11.1 -351.39,-11.1 0,0 255.4,1371.3 204.38,1626.6 -37.79,189 -368.85,1444.8 -419.59,1380.4 -50.74,-64.4 -113.65,-1185.2 -151.22,-1371.2 -37.58,-186.1 -152.93,-1656.1 -152.93,-1656.1 0,0 -257.92,-38 -326.81,20.3 0,0 -31.36,1255.2 -7.41,1604 9.12,132.9 -155.75,1593.8 55.66,2181.9 111.73,310.8 1153.27,-169.6 1153.27,-169.6" /><path
         id="path646"
         style="fill:#decbc4;fill-opacity:1;fill-rule:nonzero;stroke:none"
         d="m 5400.94,6420.6 c -165.42,23.2 -685.86,-207.3 -733.14,-189.9 -32.53,11.9 -108.84,260.6 -163.37,448.8 -32.25,111.3 -56.85,201.5 -60.27,209 l -0.2,0.4 c 0.52,-5 8.96,-90.1 -1.77,-202 -0.69,-7.2 -3.98,-9.1 -4.83,-16.6 -0.24,-1.9 -1.32,-7.9 -2.11,-9.7 -12.12,-27.6 -16.62,-79.5 -27.75,-122.7 -16.53,-63.8 -25.62,-150.6 -19.07,-241.1 v -0.4 c -0.04,-0.6 -0.04,-1.3 -0.12,-2 -0.04,-2.1 -0.16,-4.1 -0.16,-6.1 0,-0.8 -0.08,-1.7 -0.08,-2.5 -4.62,-161.2 6.51,-335 11.14,-427.5 7.27,-143.2 -39.85,-207.7 -41.22,-209.6 -0.04,0 -0.04,0 -0.04,0 l -49.85,7 -36.03,5.1 h -0.44 l -48.13,6.8 -188.74,26.5 -68.35,9.6 -16.17,2.3 -119.58,16.8 -337.14,47.5 -37,5.2 -15.23,2.1 -127.14,17.9 -57.46,8.1 h -0.2 c 0,0 -48.81,346.2 -52.55,533.3 -3.38,171.8 -95.38,520.7 -110.38,576.5 -0.07,0.4 -0.2,0.8 -0.32,1.2 -0.11,0.5 -0.24,1.1 -0.4,1.5 -0.28,1 -0.48,1.8 -0.68,2.5 -0.08,0.4 -0.2,0.8 -0.32,1.2 0,0.1 -0.04,0.2 -0.08,0.3 -0.04,0.1 -0.08,0.3 -0.08,0.4 -0.12,0.4 -0.12,0.6 -0.12,0.6 0,0 -275.19,-289.1 -328.59,-415.3 -16.28,-38.2 -66.06,-142.3 -129.43,-269.1 -43.34,82.7 -70.48,140.2 -70.48,154.6 0,1.8 0.04,3.7 0.08,5.7 4.06,124.7 134.78,630.4 237.91,960.8 80.1,161 149.17,291.2 171.33,307.1 33.57,24.1 174.82,84.6 298.1,133.5 4.06,1.6 8.08,3.2 12.02,4.8 11.5,4.5 22.84,8.9 33.86,13.2 5.51,2.2 10.93,4.3 16.29,6.3 2.93,1.1 5.83,2.2 8.72,3.3 2.37,0.9 4.7,1.8 7.04,2.7 h 0.04 c 61.64,23.4 108.48,39.8 118.13,40.4 1.61,0.1 4.18,0.1 7.68,-0.1 4.06,-0.1 9.32,-0.3 15.6,-0.7 76.19,-4.5 303.61,-25.8 376.79,-32.7 13.31,-1.3 21.55,-2.1 22.8,-2.2 0.12,0 0.16,0 0.16,0 0,0 34.86,-15.9 87.33,-39.9 h 0.04 l 4.87,-2.2 c 31.72,-14.6 68.43,-34 107.23,-55.2 76.08,-41.7 160.11,-90.4 229.79,-123.6 68.36,-32.5 161.92,-77.8 169.88,-84.2 l 346.23,-998.4 600.65,109.8 -34.69,-219.1" /><path
         id="path648"
         style="fill:#495055;fill-opacity:1;fill-rule:nonzero;stroke:none"
         d="m 4357.98,5648.7 c 0,0 25.37,-30.3 32.71,-158.8 0,0 -1043.01,121.7 -1153.27,169.6 0,0 -4.31,141.6 19.08,144.1 25.69,2.7 1101.48,-154.9 1101.48,-154.9" /><path
         id="path650"
         style="fill:#eea886;fill-opacity:1;fill-rule:nonzero;stroke:none"
         d="m 3468.53,7904.5 c 3.24,-163.7 320.18,-253.3 320.18,-253.3 0,0 132.57,166.2 100.9,182.1 -12.43,6.3 -17.48,31.1 -19.03,58.9 -1.43,26.5 0.26,55.7 1.8,74.3 0.95,11.5 1.84,19 1.84,19 0,0 -45.28,47.8 -102.89,104.7 -100.67,99.5 -239.07,227 -239.28,176.3 -0.02,-2.7 0.35,-5.9 1.16,-9.6 24.33,-114.2 -64.68,-352.4 -64.68,-352.4" /><path
         id="path652"
         style="fill:#353a3d;fill-opacity:1;fill-rule:nonzero;stroke:none"
         d="m 3494.82,5778.5 c 0,0 -22.77,-143.6 -24.74,-181 l -48.25,9.6 c 0,0 13.29,151.9 21.1,177.4 l 51.89,-6" /><path
         id="path654"
         style="fill:#353a3d;fill-opacity:1;fill-rule:nonzero;stroke:none"
         d="m 4270.97,5665.5 c 0,0 18.28,-130.5 18.71,-179.8 l -51.04,6.7 c 0,0 -10.46,162.9 -16.3,179.9 l 48.63,-6.8" /><path
         id="path656"
         style="fill:#a77860;fill-opacity:1;fill-rule:nonzero;stroke:none"
         d="m 3590.59,8144.3 c 0,0 0,0 0.03,0 0.62,-1 14.06,-21.1 37.01,-50 48.65,-61.2 140.12,-161.7 242.95,-202.1 -1.43,26.5 0.26,55.7 1.8,74.3 10.53,0.2 21.05,1.4 31.48,3.8 -28.2,49.2 -68.91,100.9 -68.91,100.9 l -63.62,19 -180.74,54.1" /><path
         id="path658"
         style="fill:#eea886;fill-opacity:1;fill-rule:nonzero;stroke:none"
         d="m 3529.75,8264.3 c 27.42,-59.7 53.45,-102.9 60.84,-120 0,0 0,0 0.03,0 4.8,-11.2 17.89,-29.4 37.01,-50 52.22,-56.2 149.31,-130.4 244.75,-127.8 10.53,0.2 21.05,1.4 31.48,3.8 38.54,8.4 84.05,26.3 109.08,75.3 197.73,387.1 54.57,703.7 54.57,703.7 0,0 -540.64,152.9 -625.23,-9.9 -59.36,-114.1 23.06,-335 87.47,-475.1" /><path
         id="path660"
         style="fill:#d6d6d6;fill-opacity:1;fill-rule:nonzero;stroke:none"
         d="m 4067.51,8749.3 c 0,0 50.22,2.8 62.63,98 12.27,94 -12.54,120.1 -12.54,120.1 0,0 -223.19,93.4 -303.34,105.6 -80.16,12.1 -277.25,23.8 -323.44,-29 0,0 -112.25,26 -142.83,-160.3 -48.51,-295.6 165.31,-582.7 165.31,-582.7 0,0 -1.82,193.2 40.77,218.8 42.59,25.6 79.35,-35.3 79.35,-35.3 l 87.12,-15.6 c 0,0 -132.32,285.7 26.41,296.3 158.72,10.6 229.7,-32.5 320.56,-15.9" /><path
         id="path662"
         style="fill:#eea886;fill-opacity:1;fill-rule:nonzero;stroke:none"
         d="m 3631.03,8561.5 c -8.29,85.1 -162.15,117.5 -151.85,28.4 10.31,-89.2 86.08,-174.9 121.08,-171.9 35,3 37.08,78.6 30.77,143.5" /><path
         id="path664"
         style="fill:#3c4145;fill-opacity:1;fill-rule:nonzero;stroke:none"
         d="m 3140.53,6298.9 c 0,-62.1 -20.19,-133.2 -51.22,-208.9 -0.81,-1.9 -1.58,-3.8 -2.38,-5.7 -21.39,45.6 -41.53,89.3 -59.59,129.8 -0.04,0.1 -0.07,0.1 -0.07,0.2 -49.66,111.1 -83.76,197.8 -85.65,232.1 -12.26,220.4 150.06,474.1 150.06,474.1 0,-0.1 0.04,-0.3 0.08,-0.4 0.04,-0.1 0.08,-0.2 0.08,-0.3 0.12,-0.4 0.24,-0.8 0.32,-1.2 0.24,-0.8 0.48,-1.6 0.68,-2.5 0.16,-0.4 0.29,-1 0.4,-1.5 0.12,-0.4 0.25,-0.8 0.32,-1.2 33.26,-131 46.97,-614.5 46.97,-614.5 z m -506.99,-62.2 c 67.03,-127.8 172.78,-316 277.2,-498.4 -13.75,-25.6 -27.18,-51.1 -40.05,-76.2 -31.4,-61.5 -59.26,-120.9 -79.04,-176.4 -23.81,-66.6 -56.9,-237.4 6.43,-269.1 l 333.64,-184.2 c 0,0 2.34,6.5 6.76,18.6 11.06,30 35.02,94 68.19,177.1 1.09,2.7 4.42,10.6 9.37,22.3 6.64,15.6 16.21,37.9 27.14,63.5 4.91,11.4 10.05,23.5 15.4,35.8 6.03,14.2 12.3,28.8 18.54,43.3 9.08,21.2 18.13,42.2 26.49,61.6 22.76,53 40.54,94.3 40.54,94.3 1.12,2.4 2.25,4.9 3.37,7.3 10.86,23.5 22,47.1 33.33,70.5 17.53,36.4 35.59,72.7 54.04,108.1 1.85,3.6 3.7,7.2 5.59,10.8 3.3,6.2 6.6,12.4 9.89,18.6 2.05,3.7 4.1,7.5 6.15,11.3 0.45,0.8 0.93,1.7 1.37,2.5 0.85,1.5 1.65,3 2.5,4.5 96.46,175.9 205.1,323 239.76,538.8 3.34,20.8 6.51,41.5 9.53,62.1 5.02,34.2 9.65,68 13.87,101.2 1.57,12.5 3.13,24.9 4.62,37.2 17.37,144 27.75,272.2 36.11,361.6 26.09,278.3 -144.39,579.6 -275.27,765.8 -70,99.6 -128.62,166.2 -139.92,178.8 -0.28,0.3 -0.48,0.5 -0.68,0.7 -2.34,-0.9 -4.67,-1.8 -7.04,-2.7 -2.89,-1.1 -5.79,-2.2 -8.72,-3.3 -5.36,-2 -10.78,-4.1 -16.29,-6.3 -11.02,-4.3 -22.36,-8.7 -33.86,-13.2 -3.94,-1.6 -7.96,-3.2 -12.02,-4.8 -126.73,-49.7 -425.46,-138 -459.03,-162.1 -19.38,-13.9 -30.93,-125.9 -80.99,-286.4 -103.14,-330.4 -164.35,-828.5 -167.32,-952.9 -0.04,-2 -0.08,-3.9 -0.08,-5.7 0,-14.4 27.14,-71.9 70.48,-154.6" /><path
         id="path666"
         style="fill:#3c4145;fill-opacity:1;fill-rule:nonzero;stroke:none"
         d="M 5622.65,6758.9 4867.14,6594.4 4507,7536.2 c -7.96,6.3 -111.21,61.9 -179.56,94.4 -71.17,33.9 -161.24,75.7 -241.13,112.6 -38.16,17.6 -74.11,34.1 -104.46,48.1 l -2.49,-2 c 0,0 44.59,-148.5 102.28,-519.1 0,-0.1 0,-0.1 0.04,-0.2 1.97,-12.4 3.9,-25.1 5.87,-38 0.2,-1.5 0.45,-3 0.69,-4.5 1.28,-8.6 2.61,-17.3 3.9,-26.1 0.15,-1 0.32,-2.1 0.48,-3.1 0.89,-5.9 1.77,-11.8 2.61,-17.9 2.17,-14.6 4.35,-29.5 6.52,-44.7 25.73,-180.4 61.83,-487.5 96.54,-797.4 v -0.2 c 27.42,-244.3 89.9,-495 109.77,-682 0,-0.2 0.04,-0.3 0.04,-0.4 3.94,-36.7 13.31,-85.5 25.97,-140.7 1.41,-6.2 2.89,-12.5 4.38,-18.9 55.89,-236.1 164.41,-570.4 164.41,-570.4 l 31.61,29.2 93.6,86.4 c 21.55,19.9 29.71,50.3 21.03,78.3 -51.91,167.5 -228.34,760.1 -260.67,1176.8 -0.04,0.2 -0.04,0.3 -0.04,0.4 -10.13,130.9 28.15,254.2 50.34,371.2 0.4,-1 0.77,-2 1.13,-3.1 18.57,-51.7 39.16,-107.8 59.91,-162.5 v 0 c 55.68,-146.9 112.66,-283 136.38,-291.6 52.8,-19.5 1047.59,252.5 1054.46,291.6 l -67.96,256.5" /><path
         id="path668"
         style="fill:#51565c;fill-opacity:1;fill-rule:nonzero;stroke:none"
         d="m 3436.41,7422.5 154.18,-87 -65.87,-67.2 175.41,-947 c 35.76,222 52.04,432.8 64.15,562 40.33,430.3 -389.13,915.7 -415.85,945.4 -20.63,-7.8 -42.91,-16.5 -65.94,-25.6 l 153.92,-380.6" /><path
         id="path670"
         style="fill:#51565c;fill-opacity:1;fill-rule:nonzero;stroke:none"
         d="m 3976.97,7793.5 c 0,0 57.61,-188.2 124.76,-657.8 25.73,-180.4 61.85,-487.5 96.57,-797.4 l 35.89,886.9 -73.45,79.6 65.3,81.6 -139.73,356.8 c -38.16,17.6 -74.09,34.1 -104.47,48.1 l -4.87,2.2" /><path
         id="path672"
         style="fill:#f5e2d9;fill-opacity:1;fill-rule:nonzero;stroke:none"
         d="m 3340.69,7826.8 127.84,77.7 c 0,0 3.58,-70.1 320.18,-253.3 L 3698.8,7398 3340.69,7826.8" /><path
         id="path674"
         style="fill:#f5e2d9;fill-opacity:1;fill-rule:nonzero;stroke:none"
         d="m 3872.93,7869.1 c 0,0 -4.98,-75.6 -84.22,-217.9 l 175.47,-228.7 12.79,371 -104.04,75.6" /><path
         id="path676"
         style="fill:#323657;fill-opacity:1;fill-rule:nonzero;stroke:none"
         d="m 3788.23,7651.2 c 0,0 -34,-136 -21.76,-174.1 0,0 74.78,-27.2 128.53,6.8 0,0 -38.08,95.2 -106.77,167.3" /><path
         id="path678"
         style="fill:#ad9f99;fill-opacity:1;fill-rule:nonzero;stroke:none"
         d="m 3964.03,5689.4 c 19.03,96 0.92,383.6 0.14,395.8 l -16.29,-1.1 c 0.19,-2.9 18.76,-297.6 0.14,-391.5 l 16.01,-3.2" /><path
         id="path680"
         style="fill:#69737a;fill-opacity:1;fill-rule:nonzero;stroke:none"
         d="m 3830.88,5733.7 c 0,0 153.47,-18.3 204.22,-31 l -6.65,-172 -200.97,21.4 3.4,181.6" /><path
         id="path682"
         style="fill:#323657;fill-opacity:1;fill-rule:nonzero;stroke:none"
         d="m 3864.47,7496.2 c 0,0 171.16,-432.3 143.24,-916.1 -28.95,-501.7 -76.42,-683.6 -76.42,-683.6 l -105.55,-132.3 -46.54,162.7 c 0,0 141.63,639.5 50.2,1261.8 -16.57,112.8 -41.17,326.5 -41.17,326.5 l 76.24,-19" /><path
         id="path684"
         style="fill:#eea886;fill-opacity:1;fill-rule:nonzero;stroke:none"
         d="m 3350.13,5454.8 c 0,0 36.73,-73.5 73.45,-85.7 36.73,-12.2 90.29,-71.9 90.29,-71.9 L 3255.25,5161 c 0,0 -68.86,134.6 -71.92,220.3 -3.06,85.7 166.8,73.5 166.8,73.5" /><path
         id="path686"
         style="fill:#decbc4;fill-opacity:1;fill-rule:nonzero;stroke:none"
         d="m 3374.68,5447.9 17.13,-34.4 c 0,0 -164.25,-120.1 -208.52,-127.8 l -15.2,45.9 206.59,116.3" /><path
         id="path688"
         style="fill:#3c4145;fill-opacity:1;fill-rule:nonzero;stroke:none"
         d="m 3391.81,5446.4 c 0,0 -123.09,-101.8 -226.8,-148.7 l -348.85,627.5 180.76,349.4 c 0,0 386.73,-767 394.89,-828.2" /><path
         id="path690"
         style="fill:#2d3133;fill-opacity:1;fill-rule:nonzero;stroke:none"
         d="m 4439.86,6664.9 c 18.57,-51.7 39.16,-107.8 59.91,-162.5 4.82,63.4 6.07,122.4 4.66,177.1 -8.32,325.5 -110.69,496.2 -110.69,496.2 23.48,-56.8 34.74,-178.5 40.13,-288.5 5.71,-116.1 4.86,-219.2 4.86,-219.2 v 0 l 1.13,-3.1" /><path
         id="path692"
         style="fill:#2d3133;fill-opacity:1;fill-rule:nonzero;stroke:none"
         d="m 2870.69,5662.1 279.29,-337.3 -239.24,413.5 c -13.75,-25.6 -27.18,-51.1 -40.05,-76.2" /><path
         id="path694"
         style="fill:#d9c9c2;fill-opacity:1;fill-rule:nonzero;stroke:none"
         d="m 4898.87,6085 h 644.8 c 44.19,0 82.65,30.2 93.05,73.2 l 280.08,1156.4 c 14.59,60.2 -31.06,118.3 -93.05,118.3 h -644.8 c -44.2,0 -82.65,-30.3 -93.05,-73.3 L 4805.82,6203.3 c -14.59,-60.3 31.06,-118.3 93.05,-118.3" /><path
         id="path696"
         style="fill:#eea886;fill-opacity:1;fill-rule:nonzero;stroke:none"
         d="m 5687.55,6406.5 c -31.55,29.2 -92.41,46.1 -144.53,80.9 -52.12,34.9 -8.6,70.8 -8.6,70.8 -53.55,18.4 -47.79,42.8 -40.92,59.4 9.26,22.5 67.74,16.2 67.74,16.2 0,0 -52.44,11.6 -74,21.1 -21.58,9.6 -14.26,47.2 18.93,59 33.18,11.9 168.4,-21.4 168.4,-21.4 0,0 -22.05,10.8 -88.74,44.3 -66.68,33.4 -81.33,63.9 -42,78.5 27.33,10.2 81.04,-11.1 184.15,-80.4 77.63,-52.2 71.32,-59 71.32,-59 0,0 -74.07,-304.3 -111.75,-269.4" /></g></g></svg>