<?xml version="1.0" encoding="UTF-8" standalone="no"?>
<svg
   xmlns:dc="http://purl.org/dc/elements/1.1/"
   xmlns:cc="http://creativecommons.org/ns#"
   xmlns:rdf="http://www.w3.org/1999/02/22-rdf-syntax-ns#"
   xmlns:svg="http://www.w3.org/2000/svg"
   xmlns="http://www.w3.org/2000/svg"
   viewBox="0 0 885.91998 666.66669"
   height="666.66669"
   width="885.91998"
   xml:space="preserve"
   id="svg2"
   version="1.1"><metadata
     id="metadata8"><rdf:RDF><cc:Work
         rdf:about=""><dc:format>image/svg+xml</dc:format><dc:type
           rdf:resource="http://purl.org/dc/dcmitype/StillImage" /></cc:Work></rdf:RDF></metadata><defs
     id="defs6"><clipPath
       id="clipPath22"
       clipPathUnits="userSpaceOnUse"><path
         id="path20"
         d="m 536.527,2043.31 c 50.832,24.32 101.422,-137.5 101.422,-137.5 86.391,-114.16 207.125,37.72 195.321,-132.94 -20.657,-298.61 343.72,-93.9 175.61,-405.66 -168.103,-311.77 148.43,-176.29 43.97,-427.671 -104.467,-251.391 30.93,-551.207 -126.248,-428.008 0,0 -138.411,303.52 -281.141,397.43 -142.734,93.889 85.512,205.309 40.852,332.859 -64.868,185.25 -221.153,177.97 -108.465,377.05 112.683,199.07 -214.102,341.81 -41.321,424.44 z" /></clipPath><linearGradient
       id="linearGradient28"
       spreadMethod="pad"
       gradientTransform="matrix(589.478,0,0,-589.478,485.024,1264.37)"
       gradientUnits="userSpaceOnUse"
       y2="0"
       x2="1"
       y1="0"
       x1="0"><stop
         id="stop24"
         offset="0"
         style="stop-opacity:1;stop-color:#3076a1" /><stop
         id="stop26"
         offset="1"
         style="stop-opacity:1;stop-color:#639c38" /></linearGradient><clipPath
       id="clipPath40"
       clipPathUnits="userSpaceOnUse"><path
         id="path38"
         d="m 1331.02,1238.74 c -12.5,-6.83 -22.97,-17.78 -35.09,-30.47 -30.28,-31.71 -67.96,-71.17 -163.43,-71.62 -47.54,-0.22 -74.17,-6.43 -86.33,-20.09 -13.31,-14.95 -10.4,-40.86 -6.38,-76.71 1.51,-13.53 3.23,-28.87 4.28,-45.549 C 1050.53,891.73 991.754,820.07 989.246,817.07 955.059,776.359 916.332,695.32 932.52,649.031 c 6.293,-17.992 20.683,-29.383 42.769,-33.84 77.061,-15.582 98.341,32.629 133.591,112.52 6.46,14.641 13.15,29.789 20.74,45.828 40.83,86.211 78.93,101.152 136.6,123.77 13.83,5.441 29.52,11.601 46.64,19.293 72.87,32.757 59.72,77.73 45.81,125.328 -2,6.82 -3.98,13.61 -5.71,20.33 -8.77,34.26 8.53,51.92 30.43,74.26 15.76,16.08 33.61,34.29 47.73,63.8 7.4,15.47 13.49,36.49 0.56,48.75 -17.03,16.14 -60.31,11.7 -100.66,-10.33 z M 1001.87,601.02 c -8.796,0 -18.347,1 -28.811,3.121 -26.262,5.3 -43.481,19.16 -51.18,41.168 -18.367,52.531 24.191,137.863 58.73,178.992 0.575,0.687 58.381,71.34 52.221,169.269 -1.04,16.42 -2.74,31.62 -4.24,45.02 -4.35,38.76 -7.49,66.76 9.16,85.46 14.67,16.5 42.99,23.63 94.69,23.87 90.69,0.43 126.53,37.96 155.35,68.13 12.23,12.82 23.79,24.92 37.83,32.58 v 0 c 45.19,24.67 93.05,28.29 113.81,8.62 9.86,-9.34 18.19,-27.65 1.85,-61.79 -14.92,-31.19 -34.28,-50.96 -49.84,-66.82 -20.93,-21.35 -34.76,-35.47 -27.55,-63.58 1.69,-6.61 3.63,-13.27 5.59,-19.96 13.98,-47.811 29.82,-101.998 -52,-138.78 -17.37,-7.8 -33.19,-14.019 -47.15,-19.488 -57.12,-22.422 -91.6,-35.953 -130.52,-118.113 -7.53,-15.91 -14.19,-30.989 -20.62,-45.559 -30.69,-69.551 -53.91,-122.14 -117.32,-122.14 z" /></clipPath><linearGradient
       id="linearGradient46"
       spreadMethod="pad"
       gradientTransform="matrix(533.076,0,0,-533.076,917.451,935.45)"
       gradientUnits="userSpaceOnUse"
       y2="0"
       x2="1"
       y1="0"
       x1="0"><stop
         id="stop42"
         offset="0"
         style="stop-opacity:1;stop-color:#3076a1" /><stop
         id="stop44"
         offset="1"
         style="stop-opacity:1;stop-color:#639c38" /></linearGradient><clipPath
       id="clipPath56"
       clipPathUnits="userSpaceOnUse"><path
         id="path54"
         d="m 974.273,535.961 -11.25,0.59 c 0.551,10.57 14.747,259.769 114.807,332.711 109.77,80.008 144.38,165.988 160.86,223.708 19.43,68.01 118.28,86.19 122.48,86.93 l 1.96,-11.09 c -0.96,-0.18 -96.12,-17.71 -113.6,-78.93 -16.94,-59.31 -52.48,-147.669 -165.07,-229.728 C 988.695,790.352 974.402,538.5 974.273,535.961 Z" /></clipPath><linearGradient
       id="linearGradient62"
       spreadMethod="pad"
       gradientTransform="matrix(400.107,0,0,-400.107,963.022,857.93)"
       gradientUnits="userSpaceOnUse"
       y2="0"
       x2="1"
       y1="0"
       x1="0"><stop
         id="stop58"
         offset="0"
         style="stop-opacity:1;stop-color:#3076a1" /><stop
         id="stop60"
         offset="1"
         style="stop-opacity:1;stop-color:#639c38" /></linearGradient><clipPath
       id="clipPath72"
       clipPathUnits="userSpaceOnUse"><path
         id="path70"
         d="m 1203.04,1791.83 c -71.11,24.38 -56.34,-112.68 -86.39,-214.11 C 1086.6,1476.31 782.355,1533.49 910.063,1279.53 1037.77,1025.57 748.551,1194.6 834.941,972.992 921.328,751.371 842.445,514.359 936.352,574.648 1030.26,634.93 989.109,914 1086.77,947.16 c 97.66,33.16 113.6,71.84 16.9,161.99 -96.69,90.15 253.38,179.64 166.98,361.67 -86.39,182.03 14.56,292.84 -67.61,321.01 z" /></clipPath><linearGradient
       id="linearGradient78"
       spreadMethod="pad"
       gradientTransform="matrix(465.957,0,0,-465.957,818.54,1179.9)"
       gradientUnits="userSpaceOnUse"
       y2="0"
       x2="1"
       y1="0"
       x1="0"><stop
         id="stop74"
         offset="0"
         style="stop-opacity:1;stop-color:#3076a1" /><stop
         id="stop76"
         offset="1"
         style="stop-opacity:1;stop-color:#639c38" /></linearGradient><clipPath
       id="clipPath90"
       clipPathUnits="userSpaceOnUse"><path
         id="path88"
         d="M 1141.59,704.148 1040.05,318.941 H 813.145 l -101.54,385.207 z" /></clipPath><linearGradient
       id="linearGradient96"
       spreadMethod="pad"
       gradientTransform="matrix(429.98,0,0,-429.98,711.606,511.54)"
       gradientUnits="userSpaceOnUse"
       y2="0"
       x2="1"
       y1="0"
       x1="0"><stop
         id="stop92"
         offset="0"
         style="stop-opacity:1;stop-color:#ff9340" /><stop
         id="stop94"
         offset="1"
         style="stop-opacity:1;stop-color:#ffce45" /></linearGradient><clipPath
       id="clipPath106"
       clipPathUnits="userSpaceOnUse"><path
         id="path104"
         d="m 1141.59,704.148 c 0,0 -223.527,-41.968 -223.527,-385.207 H 813.145 l -101.54,385.207 z" /></clipPath><linearGradient
       id="linearGradient112"
       spreadMethod="pad"
       gradientTransform="matrix(429.98,0,0,-429.98,711.606,511.54)"
       gradientUnits="userSpaceOnUse"
       y2="0"
       x2="1"
       y1="0"
       x1="0"><stop
         id="stop108"
         offset="0"
         style="stop-opacity:1;stop-color:#c97332" /><stop
         id="stop110"
         offset="1"
         style="stop-opacity:1;stop-color:#ffce45" /></linearGradient><clipPath
       id="clipPath140"
       clipPathUnits="userSpaceOnUse"><path
         id="path138"
         d="M 4340.9,750.898 H 2335.79 L 2192.38,214.922 h 2291.93 z" /></clipPath><linearGradient
       id="linearGradient146"
       spreadMethod="pad"
       gradientTransform="matrix(2291.93,0,0,-2291.93,2192.38,482.91)"
       gradientUnits="userSpaceOnUse"
       y2="0"
       x2="1"
       y1="0"
       x1="0"><stop
         id="stop142"
         offset="0"
         style="stop-opacity:1;stop-color:#ff9f55" /><stop
         id="stop144"
         offset="1"
         style="stop-opacity:1;stop-color:#ffd255" /></linearGradient><clipPath
       id="clipPath250"
       clipPathUnits="userSpaceOnUse"><path
         id="path248"
         d="M 4484.31,183.289 H 2192.38 v 31.633 h 2291.93 z" /></clipPath><linearGradient
       id="linearGradient256"
       spreadMethod="pad"
       gradientTransform="matrix(2291.93,0,0,-2291.93,1130.1,199.1)"
       gradientUnits="userSpaceOnUse"
       y2="0"
       x2="1"
       y1="0"
       x1="0"><stop
         id="stop252"
         offset="0"
         style="stop-opacity:1;stop-color:#e37e30" /><stop
         id="stop254"
         offset="1"
         style="stop-opacity:1;stop-color:#e8a12e" /></linearGradient><clipPath
       id="clipPath268"
       clipPathUnits="userSpaceOnUse"><path
         id="path266"
         d="m 2079.22,1424.57 h 2531.97 c 52.94,0 95.87,42.92 95.87,95.87 v 1729.69 c 0,52.95 -42.93,95.87 -95.87,95.87 H 2079.22 c -52.95,0 -95.87,-42.92 -95.87,-95.87 V 1520.44 c 0,-52.95 42.92,-95.87 95.87,-95.87 z" /></clipPath><linearGradient
       id="linearGradient274"
       spreadMethod="pad"
       gradientTransform="matrix(3025.88,0,0,-3025.88,1901.19,2385.28)"
       gradientUnits="userSpaceOnUse"
       y2="0"
       x2="1"
       y1="0"
       x1="0"><stop
         id="stop270"
         offset="0"
         style="stop-opacity:1;stop-color:#ff9f55" /><stop
         id="stop272"
         offset="1"
         style="stop-opacity:1;stop-color:#ffd255" /></linearGradient><clipPath
       id="clipPath284"
       clipPathUnits="userSpaceOnUse"><path
         id="path282"
         d="M 2079.63,1773.82 H 4605.95 V 3251.89 H 2079.63 Z" /></clipPath><linearGradient
       id="linearGradient292"
       spreadMethod="pad"
       gradientTransform="matrix(2526.32,0,0,-2526.32,2079.63,2512.85)"
       gradientUnits="userSpaceOnUse"
       y2="0"
       x2="1"
       y1="0"
       x1="0"><stop
         id="stop286"
         offset="0"
         style="stop-opacity:1;stop-color:#404b61" /><stop
         id="stop288"
         offset="0.46824067"
         style="stop-opacity:1;stop-color:#404b61" /><stop
         id="stop290"
         offset="1"
         style="stop-opacity:1;stop-color:#2f3e5c" /></linearGradient><clipPath
       id="clipPath304"
       clipPathUnits="userSpaceOnUse"><path
         id="path302"
         d="M 4054.73,891.859 H 2635.67 v 72.321 h 1419.06 z" /></clipPath><linearGradient
       id="linearGradient310"
       spreadMethod="pad"
       gradientTransform="matrix(1419.05,0,0,-1419.05,2635.67,928.02)"
       gradientUnits="userSpaceOnUse"
       y2="0"
       x2="1"
       y1="0"
       x1="0"><stop
         id="stop306"
         offset="0"
         style="stop-opacity:1;stop-color:#ff9f55" /><stop
         id="stop308"
         offset="1"
         style="stop-opacity:1;stop-color:#ffd255" /></linearGradient></defs><g
     transform="matrix(1.3333333,0,0,-1.3333333,0,666.66667)"
     id="g10"><g
       transform="scale(0.1)"
       id="g12"><path
         id="path14"
         style="fill:#f7f7f7;fill-opacity:1;fill-rule:nonzero;stroke:none"
         d="M 6644.36,5000 V 0 H 0 v 5000 h 6644.36" /><g
         id="g16"><g
           clip-path="url(#clipPath22)"
           id="g18"><path
             id="path30"
             style="fill:url(#linearGradient28);fill-opacity:1;fill-rule:nonzero;stroke:none"
             d="m 536.527,2043.31 c 50.832,24.32 101.422,-137.5 101.422,-137.5 86.391,-114.16 207.125,37.72 195.321,-132.94 -20.657,-298.61 343.72,-93.9 175.61,-405.66 -168.103,-311.77 148.43,-176.29 43.97,-427.671 -104.467,-251.391 30.93,-551.207 -126.248,-428.008 0,0 -138.411,303.52 -281.141,397.43 -142.734,93.889 85.512,205.309 40.852,332.859 -64.868,185.25 -221.153,177.97 -108.465,377.05 112.683,199.07 -214.102,341.81 -41.321,424.44" /></g></g><path
         id="path32"
         style="fill:#ffffff;fill-opacity:1;fill-rule:nonzero;stroke:none"
         d="m 976.371,625.762 c -68.133,47.91 -147.871,381.848 -152.633,580.728 -2.437,101.89 -32.55,144.33 -59.125,181.78 -25.394,35.79 -47.328,66.71 -34.55,137.7 24.417,135.64 -39.782,194.21 -40.434,194.78 l 7.437,8.47 c 2.852,-2.5 69.711,-62.89 44.086,-205.26 -11.937,-66.31 7.739,-94.06 32.653,-129.17 26.144,-36.85 58.683,-82.7 61.207,-188.02 5.093,-213.461 86.625,-528.739 147.84,-571.79 l -6.481,-9.218" /><g
         id="g34"><g
           clip-path="url(#clipPath40)"
           id="g36"><path
             id="path48"
             style="fill:url(#linearGradient46);fill-opacity:1;fill-rule:nonzero;stroke:none"
             d="m 1331.02,1238.74 c -12.5,-6.83 -22.97,-17.78 -35.09,-30.47 -30.28,-31.71 -67.96,-71.17 -163.43,-71.62 -47.54,-0.22 -74.17,-6.43 -86.33,-20.09 -13.31,-14.95 -10.4,-40.86 -6.38,-76.71 1.51,-13.53 3.23,-28.87 4.28,-45.549 C 1050.53,891.73 991.754,820.07 989.246,817.07 955.059,776.359 916.332,695.32 932.52,649.031 c 6.293,-17.992 20.683,-29.383 42.769,-33.84 77.061,-15.582 98.341,32.629 133.591,112.52 6.46,14.641 13.15,29.789 20.74,45.828 40.83,86.211 78.93,101.152 136.6,123.77 13.83,5.441 29.52,11.601 46.64,19.293 72.87,32.757 59.72,77.73 45.81,125.328 -2,6.82 -3.98,13.61 -5.71,20.33 -8.77,34.26 8.53,51.92 30.43,74.26 15.76,16.08 33.61,34.29 47.73,63.8 7.4,15.47 13.49,36.49 0.56,48.75 -17.03,16.14 -60.31,11.7 -100.66,-10.33 z M 1001.87,601.02 c -8.796,0 -18.347,1 -28.811,3.121 -26.262,5.3 -43.481,19.16 -51.18,41.168 -18.367,52.531 24.191,137.863 58.73,178.992 0.575,0.687 58.381,71.34 52.221,169.269 -1.04,16.42 -2.74,31.62 -4.24,45.02 -4.35,38.76 -7.49,66.76 9.16,85.46 14.67,16.5 42.99,23.63 94.69,23.87 90.69,0.43 126.53,37.96 155.35,68.13 12.23,12.82 23.79,24.92 37.83,32.58 v 0 c 45.19,24.67 93.05,28.29 113.81,8.62 9.86,-9.34 18.19,-27.65 1.85,-61.79 -14.92,-31.19 -34.28,-50.96 -49.84,-66.82 -20.93,-21.35 -34.76,-35.47 -27.55,-63.58 1.69,-6.61 3.63,-13.27 5.59,-19.96 13.98,-47.811 29.82,-101.998 -52,-138.78 -17.37,-7.8 -33.19,-14.019 -47.15,-19.488 -57.12,-22.422 -91.6,-35.953 -130.52,-118.113 -7.53,-15.91 -14.19,-30.989 -20.62,-45.559 -30.69,-69.551 -53.91,-122.14 -117.32,-122.14" /></g></g><g
         id="g50"><g
           clip-path="url(#clipPath56)"
           id="g52"><path
             id="path64"
             style="fill:url(#linearGradient62);fill-opacity:1;fill-rule:nonzero;stroke:none"
             d="m 974.273,535.961 -11.25,0.59 c 0.551,10.57 14.747,259.769 114.807,332.711 109.77,80.008 144.38,165.988 160.86,223.708 19.43,68.01 118.28,86.19 122.48,86.93 l 1.96,-11.09 c -0.96,-0.18 -96.12,-17.71 -113.6,-78.93 -16.94,-59.31 -52.48,-147.669 -165.07,-229.728 C 988.695,790.352 974.402,538.5 974.273,535.961" /></g></g><g
         id="g66"><g
           clip-path="url(#clipPath72)"
           id="g68"><path
             id="path80"
             style="fill:url(#linearGradient78);fill-opacity:1;fill-rule:nonzero;stroke:none"
             d="m 1203.04,1791.83 c -71.11,24.38 -56.34,-112.68 -86.39,-214.11 C 1086.6,1476.31 782.355,1533.49 910.063,1279.53 1037.77,1025.57 748.551,1194.6 834.941,972.992 921.328,751.371 842.445,514.359 936.352,574.648 1030.26,634.93 989.109,914 1086.77,947.16 c 97.66,33.16 113.6,71.84 16.9,161.99 -96.69,90.15 253.38,179.64 166.98,361.67 -86.39,182.03 14.56,292.84 -67.61,321.01" /></g></g><path
         id="path82"
         style="fill:#ffffff;fill-opacity:1;fill-rule:nonzero;stroke:none"
         d="m 979.926,585.262 c -8.942,37.937 -85.321,371.808 -14.059,412.168 62.823,35.57 61.263,173.92 51.463,304.56 -8.67,115.65 139.86,169.7 146.19,171.95 l 3.77,-10.63 c -1.47,-0.52 -146.74,-53.43 -138.72,-160.48 10.07,-134.16 11.15,-276.53 -57.144,-315.201 -54.121,-30.649 -4.297,-298.981 19.469,-399.777 l -10.969,-2.59" /><g
         id="g84"><g
           clip-path="url(#clipPath90)"
           id="g86"><path
             id="path98"
             style="fill:url(#linearGradient96);fill-opacity:1;fill-rule:nonzero;stroke:none"
             d="M 1141.59,704.148 1040.05,318.941 H 813.145 l -101.54,385.207 h 429.985" /></g></g><g
         id="g100"><g
           clip-path="url(#clipPath106)"
           id="g102"><path
             id="path114"
             style="fill:url(#linearGradient112);fill-opacity:1;fill-rule:nonzero;stroke:none"
             d="m 1141.59,704.148 c 0,0 -223.527,-41.968 -223.527,-385.207 H 813.145 l -101.54,385.207 h 429.985" /></g></g><path
         id="path116"
         style="fill:#78c2ff;fill-opacity:1;fill-rule:nonzero;stroke:none"
         d="m 5505.93,2177.07 h -540.79 v 9.66 h 531.13 v 436.3 h 9.66 v -445.96" /><path
         id="path118"
         style="fill:#6aafe8;fill-opacity:1;fill-rule:nonzero;stroke:none"
         d="m 5163.16,2969.85 h 241.32 v 241.32 h -241.32 z m 249.95,-8.62 h -258.56 v 258.56 h 258.56 v -258.56" /><path
         id="path120"
         style="fill:#6aafe8;fill-opacity:1;fill-rule:nonzero;stroke:none"
         d="m 5473.44,3133.6 h 574.57 v 45.97 h -574.57 z m 583.18,-8.61 h -591.81 v 63.2 h 591.81 v -63.2" /><path
         id="path122"
         style="fill:#6aafe8;fill-opacity:1;fill-rule:nonzero;stroke:none"
         d="m 5163.16,2839.67 h 884.85 v 45.97 h -884.85 z m 893.46,-8.62 h -902.07 v 63.21 h 902.07 v -63.21" /><path
         id="path124"
         style="fill:#6aafe8;fill-opacity:1;fill-rule:nonzero;stroke:none"
         d="m 5163.16,2718.29 h 557.35 v 45.97 h -557.35 z m 565.96,-8.61 h -574.57 v 63.2 h 574.57 v -63.2" /><path
         id="path126"
         style="fill:#6aafe8;fill-opacity:1;fill-rule:nonzero;stroke:none"
         d="m 5473.44,3013.04 h 383.52 V 3059 h -383.52 z m 392.14,-8.62 h -400.77 v 63.2 h 400.77 v -63.2" /><path
         id="path128"
         style="fill:#6aafe8;fill-opacity:1;fill-rule:nonzero;stroke:none"
         d="m 5060.46,2580.84 h 1090.25 v 767.78 H 5060.46 Z m 1098.87,-8.61 H 5051.85 v 785.01 h 1107.48 v -785.01" /><path
         id="path130"
         style="fill:#78c2ff;fill-opacity:1;fill-rule:nonzero;stroke:none"
         d="m 5501.1,2677.8 c -14.23,0 -25.81,-11.57 -25.81,-25.81 0,-14.23 11.58,-25.8 25.81,-25.8 14.23,0 25.8,11.57 25.8,25.8 0,14.24 -11.57,25.81 -25.8,25.81 z m 0,-61.27 c -19.55,0 -35.47,15.91 -35.47,35.46 0,19.56 15.92,35.47 35.47,35.47 19.55,0 35.46,-15.91 35.46,-35.47 0,-19.55 -15.91,-35.46 -35.46,-35.46" /><path
         id="path132"
         style="fill:#6aafe8;fill-opacity:1;fill-rule:nonzero;stroke:none"
         d="m 1159.29,2851.74 h 622.75 c -12.13,60.8 -66.74,105.98 -129.29,105.98 -14.2,0 -28.16,-2.25 -41.53,-6.69 l -3.4,-1.13 -2.07,2.93 c -34.55,49.03 -90.9,78.3 -150.73,78.3 -70.11,0 -133.21,-38.93 -164.67,-101.59 l -1.73,-3.45 -3.75,0.93 c -8.04,1.98 -16.35,2.99 -24.7,2.99 -47.74,0 -89.26,-32.57 -100.88,-78.27 z m 634.15,-9.66 h -646.05 l 1.12,5.75 c 10.38,53.22 57.33,91.84 111.66,91.84 7.84,0 15.66,-0.81 23.28,-2.42 33.66,63.97 99.05,103.54 171.57,103.54 61.79,0 120.04,-29.66 156.55,-79.52 13.32,4.05 27.15,6.1 41.18,6.1 70.31,0 129.11,-50.35 139.82,-119.72 l 0.87,-5.57" /><g
         id="g134"><g
           clip-path="url(#clipPath140)"
           id="g136"><path
             id="path148"
             style="fill:url(#linearGradient146);fill-opacity:1;fill-rule:nonzero;stroke:none"
             d="M 4340.9,750.898 H 2335.79 L 2192.38,214.922 H 4484.31 L 4340.9,750.898" /></g></g><path
         id="path150"
         style="fill:#ffffff;fill-opacity:1;fill-rule:nonzero;stroke:none"
         d="m 2351.58,608.551 h 131.2 c 5.48,0 9.61,-4.25 8.59,-8.852 l -12.7,-57.07 c -0.79,-3.527 -4.4,-6.078 -8.6,-6.078 h -133.44 c -5.6,0 -9.76,4.429 -8.53,9.09 l 14.94,57.07 c 0.9,3.418 4.45,5.84 8.54,5.84" /><path
         id="path152"
         style="fill:#ffffff;fill-opacity:1;fill-rule:nonzero;stroke:none"
         d="m 2542.93,608.551 h 99.19 l -13.2,-72 h -101.07 l 15.08,72" /><path
         id="path154"
         style="fill:#ffffff;fill-opacity:1;fill-rule:nonzero;stroke:none"
         d="m 2691.71,608.551 h 99.18 l -10.38,-72 -101.08,-0.09 12.28,72.09" /><path
         id="path156"
         style="fill:#ffffff;fill-opacity:1;fill-rule:nonzero;stroke:none"
         d="m 2840.48,608.551 h 99.18 l -7.54,-72 h -101.07 l 9.43,72" /><path
         id="path158"
         style="fill:#ffffff;fill-opacity:1;fill-rule:nonzero;stroke:none"
         d="m 2989.25,608.551 h 99.19 l -4.72,-72 h -101.07 l 6.6,72" /><path
         id="path160"
         style="fill:#ffffff;fill-opacity:1;fill-rule:nonzero;stroke:none"
         d="m 3138.02,608.551 h 99.19 l -1.89,-72 -101.07,-0.09 3.77,72.09" /><path
         id="path162"
         style="fill:#ffffff;fill-opacity:1;fill-rule:nonzero;stroke:none"
         d="m 4328.54,608.551 h -148.77 l 16.02,-72 h 151.6 l -18.85,72" /><path
         id="path164"
         style="fill:#ffffff;fill-opacity:1;fill-rule:nonzero;stroke:none"
         d="m 4130.18,608.551 h -99.19 l 13.2,-72 h 101.07 l -15.08,72" /><path
         id="path166"
         style="fill:#ffffff;fill-opacity:1;fill-rule:nonzero;stroke:none"
         d="m 3981.4,608.551 h -99.17 l 10.37,-72 101.07,-0.09 -12.27,72.09" /><path
         id="path168"
         style="fill:#ffffff;fill-opacity:1;fill-rule:nonzero;stroke:none"
         d="m 3832.64,608.551 h -99.19 l 7.54,-72 h 101.07 l -9.42,72" /><path
         id="path170"
         style="fill:#ffffff;fill-opacity:1;fill-rule:nonzero;stroke:none"
         d="m 3683.86,608.551 h -99.18 l 4.71,-72 h 101.06 l -6.59,72" /><path
         id="path172"
         style="fill:#ffffff;fill-opacity:1;fill-rule:nonzero;stroke:none"
         d="m 3535.08,608.551 h -99.18 l 1.88,-72 101.08,-0.09 -3.78,72.09" /><path
         id="path174"
         style="fill:#ffffff;fill-opacity:1;fill-rule:nonzero;stroke:none"
         d="m 3286.8,608.551 h 99.18 l 1.65,-72 H 3286.8 v 72" /><path
         id="path176"
         style="fill:#ffffff;fill-opacity:1;fill-rule:nonzero;stroke:none"
         d="m 2307.94,482.91 h 207.25 l -11.8,-74.269 h -211.18 l 15.73,74.269" /><path
         id="path178"
         style="fill:#ffffff;fill-opacity:1;fill-rule:nonzero;stroke:none"
         d="m 4360.9,482.91 h -256.18 l 14.59,-74.269 h 261.04 l -19.45,74.269" /><path
         id="path180"
         style="fill:#ffffff;fill-opacity:1;fill-rule:nonzero;stroke:none"
         d="m 4053.48,482.91 h -102.47 l 11.67,-74.269 h 104.42 l -13.62,74.269" /><path
         id="path182"
         style="fill:#ffffff;fill-opacity:1;fill-rule:nonzero;stroke:none"
         d="m 3899.78,482.91 h -102.49 l 8.76,-74.269 h 104.42 l -10.69,74.269" /><path
         id="path184"
         style="fill:#ffffff;fill-opacity:1;fill-rule:nonzero;stroke:none"
         d="m 3746.06,482.91 h -102.48 l 5.84,-74.269 h 104.42 l -7.78,74.269" /><path
         id="path186"
         style="fill:#ffffff;fill-opacity:1;fill-rule:nonzero;stroke:none"
         d="m 3592.35,482.91 h -102.47 l 2.92,-74.269 h 104.42 l -4.87,74.269" /><path
         id="path188"
         style="fill:#ffffff;fill-opacity:1;fill-rule:nonzero;stroke:none"
         d="m 2276.98,350.531 h 211.88 l -15.46,-73.769 h -215.74 l 19.32,73.769" /><path
         id="path190"
         style="fill:#ffffff;fill-opacity:1;fill-rule:nonzero;stroke:none"
         d="m 2541.83,350.531 h 105.94 l -12.56,-73.769 h -107.87 l 14.49,73.769" /><path
         id="path192"
         style="fill:#ffffff;fill-opacity:1;fill-rule:nonzero;stroke:none"
         d="m 2700.75,350.531 h 794.48 l 2.96,-73.769 h -809.04 l 11.6,73.769" /><path
         id="path194"
         style="fill:#ffffff;fill-opacity:1;fill-rule:nonzero;stroke:none"
         d="m 3548.27,350.531 h 105.94 l 5.8,-73.769 h -107.87 l -3.87,73.769" /><path
         id="path196"
         style="fill:#ffffff;fill-opacity:1;fill-rule:nonzero;stroke:none"
         d="m 3707.18,350.531 h 105.94 l 8.7,-73.769 h -107.88 l -6.76,73.769" /><path
         id="path198"
         style="fill:#ffffff;fill-opacity:1;fill-rule:nonzero;stroke:none"
         d="m 3866.09,350.531 h 105.94 l 11.59,-73.769 h -107.86 l -9.67,73.769" /><path
         id="path200"
         style="fill:#ffffff;fill-opacity:1;fill-rule:nonzero;stroke:none"
         d="m 4025,350.531 h 105.94 l 14.5,-73.769 H 4037.56 L 4025,350.531" /><path
         id="path202"
         style="fill:#ffffff;fill-opacity:1;fill-rule:nonzero;stroke:none"
         d="m 4183.92,350.531 h 211.87 l 19.33,-73.769 h -215.75 l -15.45,73.769" /><path
         id="path204"
         style="fill:#ffffff;fill-opacity:1;fill-rule:nonzero;stroke:none"
         d="m 3438.86,482.91 h -101.64 v -74.269 h 103.59 l -1.95,74.269" /><path
         id="path206"
         style="fill:#ffffff;fill-opacity:1;fill-rule:nonzero;stroke:none"
         d="m 3285.15,482.91 h -102.47 l -2.92,-74.269 h 104.41 l 0.98,74.269" /><path
         id="path208"
         style="fill:#ffffff;fill-opacity:1;fill-rule:nonzero;stroke:none"
         d="m 3131.44,482.91 h -102.47 l -5.84,-74.269 h 104.42 l 3.89,74.269" /><path
         id="path210"
         style="fill:#ffffff;fill-opacity:1;fill-rule:nonzero;stroke:none"
         d="m 2977.73,482.91 h -102.47 l -8.76,-74.269 h 104.42 l 6.81,74.269" /><path
         id="path212"
         style="fill:#ffffff;fill-opacity:1;fill-rule:nonzero;stroke:none"
         d="m 2824.02,482.91 h -102.47 l -11.67,-74.269 h 104.42 l 9.72,74.269" /><path
         id="path214"
         style="fill:#ffffff;fill-opacity:1;fill-rule:nonzero;stroke:none"
         d="m 2670.32,482.91 h -102.48 l -14.59,-74.269 h 104.42 l 12.65,74.269" /><path
         id="path216"
         style="fill:#ffffff;fill-opacity:1;fill-rule:nonzero;stroke:none"
         d="m 2356.42,653.801 16.84,64.281 h 48.16 l -15.72,-64.281 h -49.28" /><path
         id="path218"
         style="fill:#ffffff;fill-opacity:1;fill-rule:nonzero;stroke:none"
         d="m 2469.58,718.082 h 96.3 l -13.46,-64.281 h -98 l 15.16,64.281" /><path
         id="path220"
         style="fill:#ffffff;fill-opacity:1;fill-rule:nonzero;stroke:none"
         d="m 2614.04,718.082 h 96.32 l -10.95,-64.281 h -98 l 12.63,64.281" /><path
         id="path222"
         style="fill:#ffffff;fill-opacity:1;fill-rule:nonzero;stroke:none"
         d="m 2758.51,718.082 h 96.31 l -8.41,-64.281 h -98 l 10.1,64.281" /><path
         id="path224"
         style="fill:#ffffff;fill-opacity:1;fill-rule:nonzero;stroke:none"
         d="m 2902.98,718.082 h 96.32 l -5.9,-64.281 h -98 l 7.58,64.281" /><path
         id="path226"
         style="fill:#ffffff;fill-opacity:1;fill-rule:nonzero;stroke:none"
         d="m 3047.45,718.082 h 96.31 l -3.37,-64.281 h -97.99 l 5.05,64.281" /><path
         id="path228"
         style="fill:#ffffff;fill-opacity:1;fill-rule:nonzero;stroke:none"
         d="m 3191.91,718.082 h 96.32 l -0.84,-64.281 h -98 l 2.52,64.281" /><path
         id="path230"
         style="fill:#ffffff;fill-opacity:1;fill-rule:nonzero;stroke:none"
         d="m 3336.39,718.082 h 96.31 l 1.68,-64.281 h -97.99 v 64.281" /><path
         id="path232"
         style="fill:#ffffff;fill-opacity:1;fill-rule:nonzero;stroke:none"
         d="m 3480.85,718.082 h 96.33 l 4.2,-64.281 h -97.99 l -2.54,64.281" /><path
         id="path234"
         style="fill:#ffffff;fill-opacity:1;fill-rule:nonzero;stroke:none"
         d="m 3625.32,718.082 h 96.32 l 6.74,-64.281 h -98 l -5.06,64.281" /><path
         id="path236"
         style="fill:#ffffff;fill-opacity:1;fill-rule:nonzero;stroke:none"
         d="m 3769.79,718.082 h 96.31 l 9.26,-64.281 h -97.98 l -7.59,64.281" /><path
         id="path238"
         style="fill:#ffffff;fill-opacity:1;fill-rule:nonzero;stroke:none"
         d="m 3914.27,718.082 h 96.31 l 11.78,-64.281 h -97.99 l -10.1,64.281" /><path
         id="path240"
         style="fill:#ffffff;fill-opacity:1;fill-rule:nonzero;stroke:none"
         d="m 4058.73,718.082 h 96.32 l 14.31,-64.281 h -97.99 l -12.64,64.281" /><path
         id="path242"
         style="fill:#ffffff;fill-opacity:1;fill-rule:nonzero;stroke:none"
         d="m 4203.2,718.082 h 96.31 l 16.85,-64.281 h -98.01 l -15.15,64.281" /><g
         id="g244"><g
           clip-path="url(#clipPath250)"
           id="g246"><path
             id="path258"
             style="fill:url(#linearGradient256);fill-opacity:1;fill-rule:nonzero;stroke:none"
             d="M 4484.31,183.289 H 2192.38 v 31.633 h 2291.93 v -31.633" /></g></g><path
         id="path260"
         style="fill:#518afa;fill-opacity:1;fill-rule:nonzero;stroke:none"
         d="m 3187.49,928.02 h 315.43 v 958.05 H 3187.49 V 928.02" /><g
         id="g262"><g
           clip-path="url(#clipPath268)"
           id="g264"><path
             id="path276"
             style="fill:url(#linearGradient274);fill-opacity:1;fill-rule:nonzero;stroke:none"
             d="m 2079.22,1424.57 h 2531.97 c 52.94,0 95.87,42.92 95.87,95.87 v 1729.69 c 0,52.95 -42.93,95.87 -95.87,95.87 H 2079.22 c -52.95,0 -95.87,-42.92 -95.87,-95.87 V 1520.44 c 0,-52.95 42.92,-95.87 95.87,-95.87" /></g></g><g
         id="g278"><g
           clip-path="url(#clipPath284)"
           id="g280"><path
             id="path294"
             style="fill:url(#linearGradient292);fill-opacity:1;fill-rule:nonzero;stroke:none"
             d="M 2079.63,1773.82 H 4605.95 V 3251.89 H 2079.63 V 1773.82" /></g></g><path
         id="path296"
         style="fill:#696969;fill-opacity:1;fill-rule:nonzero;stroke:none"
         d="m 3257.35,1587.9 c 0,-48.53 39.33,-87.87 87.86,-87.87 48.52,0 87.86,39.34 87.86,87.87 0,48.52 -39.34,87.85 -87.86,87.85 -48.53,0 -87.86,-39.33 -87.86,-87.85" /><g
         id="g298"><g
           clip-path="url(#clipPath304)"
           id="g300"><path
             id="path312"
             style="fill:url(#linearGradient310);fill-opacity:1;fill-rule:nonzero;stroke:none"
             d="M 4054.73,891.859 H 2635.67 v 72.321 h 1419.06 v -72.321" /></g></g><path
         id="path314"
         style="fill:#6aafe8;fill-opacity:1;fill-rule:nonzero;stroke:none"
         d="m 3988.53,4329.51 c -2.9,-30.71 -12.55,-225.3 191.24,-330.76 203.78,105.46 194.13,300.05 191.24,330.76 -126.58,0.79 -178.07,36.04 -191.24,47.23 -13.17,-11.19 -64.67,-46.44 -191.24,-47.23 z m 191.24,-341.62 -2.2,1.13 c -229.26,117.04 -198.47,343.73 -198.14,346.01 l 0.62,4.13 h 4.16 c 145.76,0 191.57,46.97 192.02,47.45 l 3.56,3.78 3.52,-3.8 c 0.43,-0.46 46.25,-47.43 192,-47.43 h 4.17 l 0.62,-4.13 c 0.34,-2.28 31.12,-228.97 -198.15,-346.01 l -2.18,-1.13" /><path
         id="path316"
         style="fill:#e0e0e0;fill-opacity:1;fill-rule:nonzero;stroke:none"
         d="m 2507.77,3109.75 h -282.94 v 28.97 h 282.94 v -28.97" /><path
         id="path318"
         style="fill:#e0e0e0;fill-opacity:1;fill-rule:nonzero;stroke:none"
         d="m 2791.25,2891.6 h -204.29 v 28.97 h 204.29 v -28.97" /><path
         id="path320"
         style="fill:#1487e3;fill-opacity:1;fill-rule:nonzero;stroke:none"
         d="m 2958.63,2891.6 h -135.56 v 28.97 h 135.56 v -28.97" /><path
         id="path322"
         style="fill:#1487e3;fill-opacity:1;fill-rule:nonzero;stroke:none"
         d="m 3235.59,2015.79 h -135.56 v 28.98 h 135.56 v -28.98" /><path
         id="path324"
         style="fill:#1487e3;fill-opacity:1;fill-rule:nonzero;stroke:none"
         d="m 2363.6,2343.02 h -135.56 v 28.96 h 135.56 v -28.96" /><path
         id="path326"
         style="fill:#e0e0e0;fill-opacity:1;fill-rule:nonzero;stroke:none"
         d="m 3312.72,2891.6 h -327.3 v 28.97 h 327.3 v -28.97" /><path
         id="path328"
         style="fill:#e0e0e0;fill-opacity:1;fill-rule:nonzero;stroke:none"
         d="m 2438.36,2452.9 h -210.32 v 28.96 h 210.32 v -28.96" /><path
         id="path330"
         style="fill:#e0e0e0;fill-opacity:1;fill-rule:nonzero;stroke:none"
         d="m 3003.49,2233.94 h -210.32 v 28.97 h 210.32 v -28.97" /><path
         id="path332"
         style="fill:#e0e0e0;fill-opacity:1;fill-rule:nonzero;stroke:none"
         d="m 3789.09,2015.79 h -210.32 v 28.98 h 210.32 v -28.98" /><path
         id="path334"
         style="fill:#e0e0e0;fill-opacity:1;fill-rule:nonzero;stroke:none"
         d="m 2649.61,2233.94 h -128.39 v 28.97 h 128.39 v -28.97" /><path
         id="path336"
         style="fill:#1487e3;fill-opacity:1;fill-rule:nonzero;stroke:none"
         d="m 2482.42,2233.94 h -254.38 v 28.97 h 254.38 v -28.97" /><path
         id="path338"
         style="fill:#e0e0e0;fill-opacity:1;fill-rule:nonzero;stroke:none"
         d="m 2368.34,2124.86 h -140.3 v 28.98 h 140.3 v -28.98" /><path
         id="path340"
         style="fill:#78c2ff;fill-opacity:1;fill-rule:nonzero;stroke:none"
         d="m 2763.68,3109.75 h -200.86 v 28.97 h 200.86 v -28.97" /><path
         id="path342"
         style="fill:#1487e3;fill-opacity:1;fill-rule:nonzero;stroke:none"
         d="m 2763.68,2782.52 h -200.86 v 28.98 h 200.86 v -28.98" /><path
         id="path344"
         style="fill:#e0e0e0;fill-opacity:1;fill-rule:nonzero;stroke:none"
         d="m 2548.21,2673.45 h -85.82 v 28.97 h 85.82 v -28.97" /><path
         id="path346"
         style="fill:#78c2ff;fill-opacity:1;fill-rule:nonzero;stroke:none"
         d="m 2569.33,2562.77 h -192.76 v 28.97 h 192.76 v -28.97" /><path
         id="path348"
         style="fill:#1487e3;fill-opacity:1;fill-rule:nonzero;stroke:none"
         d="m 2864.59,2562.77 h -266.12 v 28.97 h 266.12 v -28.97" /><path
         id="path350"
         style="fill:#1487e3;fill-opacity:1;fill-rule:nonzero;stroke:none"
         d="m 3707.34,2124.86 h -266.11 v 28.98 h 266.11 v -28.98" /><path
         id="path352"
         style="fill:#1487e3;fill-opacity:1;fill-rule:nonzero;stroke:none"
         d="m 2428.9,2672.65 h -200.86 v 28.97 h 200.86 v -28.97" /><path
         id="path354"
         style="fill:#1487e3;fill-opacity:1;fill-rule:nonzero;stroke:none"
         d="m 2347.22,2562.77 h -119.18 v 28.97 h 119.18 v -28.97" /><path
         id="path356"
         style="fill:#ff8761;fill-opacity:1;fill-rule:nonzero;stroke:none"
         d="m 2701.11,2672.65 h -112.44 v 28.97 h 112.44 v -28.97" /><path
         id="path358"
         style="fill:#ff8761;fill-opacity:1;fill-rule:nonzero;stroke:none"
         d="m 2343.85,2015.79 h -112.44 v 28.98 h 112.44 v -28.98" /><path
         id="path360"
         style="fill:#78c2ff;fill-opacity:1;fill-rule:nonzero;stroke:none"
         d="m 2428.1,2891.6 h -200.86 v 28.97 h 200.86 v -28.97" /><path
         id="path362"
         style="fill:#78c2ff;fill-opacity:1;fill-rule:nonzero;stroke:none"
         d="m 2605.73,2343.02 h -200.86 v 28.96 h 200.86 v -28.96" /><path
         id="path364"
         style="fill:#78c2ff;fill-opacity:1;fill-rule:nonzero;stroke:none"
         d="m 2608.2,2124.86 h -200.86 v 28.98 h 200.86 v -28.98" /><path
         id="path366"
         style="fill:#78c2ff;fill-opacity:1;fill-rule:nonzero;stroke:none"
         d="m 2965.02,2124.86 h -200.86 v 28.98 h 200.86 v -28.98" /><path
         id="path368"
         style="fill:#78c2ff;fill-opacity:1;fill-rule:nonzero;stroke:none"
         d="m 2513.56,2782.52 h -286.32 v 28.98 h 286.32 v -28.98" /><path
         id="path370"
         style="fill:#78c2ff;fill-opacity:1;fill-rule:nonzero;stroke:none"
         d="m 3769.83,3109.75 h -200.86 v 28.97 h 200.86 v -28.97" /><path
         id="path372"
         style="fill:#78c2ff;fill-opacity:1;fill-rule:nonzero;stroke:none"
         d="m 3054.3,2015.79 h -200.87 v 28.98 h 200.87 v -28.98" /><path
         id="path374"
         style="fill:#78c2ff;fill-opacity:1;fill-rule:nonzero;stroke:none"
         d="m 3966.78,3109.75 h -134.46 v 28.97 h 134.46 v -28.97" /><path
         id="path376"
         style="fill:#78c2ff;fill-opacity:1;fill-rule:nonzero;stroke:none"
         d="m 4421.68,3000.68 h -134.45 v 28.96 h 134.45 v -28.96" /><path
         id="path378"
         style="fill:#1487e3;fill-opacity:1;fill-rule:nonzero;stroke:none"
         d="m 3073.66,3109.75 h -255.91 v 28.97 h 255.91 v -28.97" /><path
         id="path380"
         style="fill:#1487e3;fill-opacity:1;fill-rule:nonzero;stroke:none"
         d="m 4088.23,2015.79 h -255.91 v 28.98 h 255.91 v -28.98" /><path
         id="path382"
         style="fill:#1487e3;fill-opacity:1;fill-rule:nonzero;stroke:none"
         d="m 2642.2,2015.79 h -255.9 v 28.98 h 255.9 v -28.98" /><path
         id="path384"
         style="fill:#1487e3;fill-opacity:1;fill-rule:nonzero;stroke:none"
         d="m 4070.74,3000.68 h -255.9 v 28.96 h 255.9 v -28.96" /><path
         id="path386"
         style="fill:#1487e3;fill-opacity:1;fill-rule:nonzero;stroke:none"
         d="m 3756.89,2891.6 h -255.9 v 28.97 h 255.9 v -28.97" /><path
         id="path388"
         style="fill:#1487e3;fill-opacity:1;fill-rule:nonzero;stroke:none"
         d="m 3534.52,2015.79 h -255.9 v 28.98 h 255.9 v -28.98" /><path
         id="path390"
         style="fill:#1487e3;fill-opacity:1;fill-rule:nonzero;stroke:none"
         d="m 3495.15,2233.94 h -255.91 v 28.97 h 255.91 v -28.97" /><path
         id="path392"
         style="fill:#ff8761;fill-opacity:1;fill-rule:nonzero;stroke:none"
         d="m 2744.97,2233.94 h -55.17 v 28.97 h 55.17 v -28.97" /><path
         id="path394"
         style="fill:#78c2ff;fill-opacity:1;fill-rule:nonzero;stroke:none"
         d="m 4096.89,2811.35 -270.49,26.61 2.83,28.84 270.5,-26.61 -2.84,-28.84" /><path
         id="path396"
         style="fill:#ff8761;fill-opacity:1;fill-rule:nonzero;stroke:none"
         d="m 3518.83,3109.75 h -255.9 v 28.97 h 255.9 v -28.97" /><path
         id="path398"
         style="fill:#1487e3;fill-opacity:1;fill-rule:nonzero;stroke:none"
         d="m 3300.77,2677.5 -396.35,176.73 11.84,26.44 396.34,-176.72 -11.83,-26.45" /><path
         id="path400"
         style="fill:#ff8761;fill-opacity:1;fill-rule:nonzero;stroke:none"
         d="m 3003.49,2341.41 h -150.06 v 28.96 h 150.06 v -28.96" /><path
         id="path402"
         style="fill:#e0e0e0;fill-opacity:1;fill-rule:nonzero;stroke:none"
         d="m 3214.64,3109.75 h -93.66 v 28.97 h 93.66 v -28.97" /><path
         id="path404"
         style="fill:#e0e0e0;fill-opacity:1;fill-rule:nonzero;stroke:none"
         d="m 2911.43,2782.52 h -93.68 v 28.98 h 93.68 v -28.98" /><path
         id="path406"
         style="fill:#e0e0e0;fill-opacity:1;fill-rule:nonzero;stroke:none"
         d="m 4226.13,3000.68 h -93.67 v 28.96 h 93.67 v -28.96" /><path
         id="path408"
         style="fill:#1487e3;fill-opacity:1;fill-rule:nonzero;stroke:none"
         d="m 2371.37,3000.68 h -146.54 v 28.96 h 146.54 v -28.96" /><path
         id="path410"
         style="fill:#1487e3;fill-opacity:1;fill-rule:nonzero;stroke:none"
         d="m 2731.53,2452.09 h -115.7 v 28.96 h 115.7 v -28.96" /><path
         id="path412"
         style="fill:#1487e3;fill-opacity:1;fill-rule:nonzero;stroke:none"
         d="m 2454.66,3000.68 h -47.32 v 28.96 h 47.32 v -28.96" /><path
         id="path414"
         style="fill:#e0e0e0;fill-opacity:1;fill-rule:nonzero;stroke:none"
         d="m 3769.83,3000.68 h -391.1 v 28.96 h 391.1 v -28.96" /><path
         id="path416"
         style="fill:#e0e0e0;fill-opacity:1;fill-rule:nonzero;stroke:none"
         d="m 3394.58,2124.86 h -391.09 v 28.98 h 391.09 v -28.98" /><path
         id="path418"
         style="fill:#ff8761;fill-opacity:1;fill-rule:nonzero;stroke:none"
         d="m 2537.71,3000.68 h -48.29 v 28.96 h 48.29 v -28.96" /><path
         id="path420"
         style="fill:#1487e3;fill-opacity:1;fill-rule:nonzero;stroke:none"
         d="m 3342.61,3000.68 h -127.97 v 28.96 h 127.97 v -28.96" /><path
         id="path422"
         style="fill:#ff8761;fill-opacity:1;fill-rule:nonzero;stroke:none"
         d="m 3470.56,2891.6 h -127.95 v 28.97 h 127.95 v -28.97" /><path
         id="path424"
         style="fill:#ff8761;fill-opacity:1;fill-rule:nonzero;stroke:none"
         d="M 3184.95,2233.94 H 3057 v 28.97 h 127.95 v -28.97" /><path
         id="path426"
         style="fill:#ff8761;fill-opacity:1;fill-rule:nonzero;stroke:none"
         d="m 2812.61,2015.79 h -127.96 v 28.98 h 127.96 v -28.98" /><path
         id="path428"
         style="fill:#1487e3;fill-opacity:1;fill-rule:nonzero;stroke:none"
         d="m 3180.77,3000.68 h -272.24 v 28.96 h 272.24 v -28.96" /><path
         id="path430"
         style="fill:#1487e3;fill-opacity:1;fill-rule:nonzero;stroke:none"
         d="m 3814.23,2233.94 h -272.25 v 28.97 h 272.25 v -28.97" /><path
         id="path432"
         style="fill:#1487e3;fill-opacity:1;fill-rule:nonzero;stroke:none"
         d="m 2814.17,2341.41 h -159.05 v 28.96 h 159.05 v -28.96" /><path
         id="path434"
         style="fill:#1487e3;fill-opacity:1;fill-rule:nonzero;stroke:none"
         d="m 2724.42,2124.86 h -79.53 v 28.98 h 79.53 v -28.98" /><path
         id="path436"
         style="fill:#78c2ff;fill-opacity:1;fill-rule:nonzero;stroke:none"
         d="m 2869.9,3000.68 h -93.67 v 28.96 h 93.67 v -28.96" /><path
         id="path438"
         style="fill:#ff8761;fill-opacity:1;fill-rule:nonzero;stroke:none"
         d="m 3835.92,2124.86 h -93.66 v 28.98 h 93.66 v -28.98" /><path
         id="path440"
         style="fill:#ff8761;fill-opacity:1;fill-rule:nonzero;stroke:none"
         d="m 2554.6,2891.6 h -93.66 v 28.97 h 93.66 v -28.97" /><path
         id="path442"
         style="fill:#ff8761;fill-opacity:1;fill-rule:nonzero;stroke:none"
         d="m 2573.28,2452.09 h -93.67 v 28.96 h 93.67 v -28.96" /><path
         id="path444"
         style="fill:#1487e3;fill-opacity:1;fill-rule:nonzero;stroke:none"
         d="m 2740.5,3000.68 h -163.2 v 28.96 h 163.2 v -28.96" /><path
         id="path446"
         style="fill:#78c2ff;fill-opacity:1;fill-rule:nonzero;stroke:none"
         d="m 2224.83,2364.06 h -710.86 v 522.31 h 9.66 v -512.66 h 701.2 v -9.65" /><path
         id="path448"
         style="fill:#78c2ff;fill-opacity:1;fill-rule:nonzero;stroke:none"
         d="m 3664.84,2906.09 h -9.65 v 691.3 h 519.75 v 452.94 h 9.66 v -462.6 h -519.76 v -681.64" /><path
         id="path450"
         style="fill:#323657;fill-opacity:1;fill-rule:nonzero;stroke:none"
         d="m 2188.97,1931.74 c -0.03,0.02 -0.07,0.03 -0.12,0.02 0.52,-0.24 0.59,-0.26 0.12,-0.02" /><path
         id="path452"
         style="fill:#6aafe8;fill-opacity:1;fill-rule:nonzero;stroke:none"
         d="m 4499.33,3868.32 h -82.87 v 9.65 h 73.22 v 73.14 h 9.65 v -82.79" /><path
         id="path454"
         style="fill:#6aafe8;fill-opacity:1;fill-rule:nonzero;stroke:none"
         d="m 3942.13,3868.32 h -82.86 v 82.79 h 9.65 v -73.14 h 73.21 v -9.65" /><path
         id="path456"
         style="fill:#6aafe8;fill-opacity:1;fill-rule:nonzero;stroke:none"
         d="m 3868.96,4425.48 h -9.66 v 82.87 h 82.8 v -9.66 h -73.14 v -73.21" /><path
         id="path458"
         style="fill:#6aafe8;fill-opacity:1;fill-rule:nonzero;stroke:none"
         d="m 4499.33,4425.52 h -9.65 v 73.13 h -73.22 v 9.67 h 82.87 v -82.8" /><path
         id="path460"
         style="fill:#6aafe8;fill-opacity:1;fill-rule:nonzero;stroke:none"
         d="m 4499.33,4074.85 h -9.65 v 226.93 h 9.65 v -226.93" /><path
         id="path462"
         style="fill:#6aafe8;fill-opacity:1;fill-rule:nonzero;stroke:none"
         d="m 3868.92,4074.85 h -9.65 v 226.93 h 9.65 v -226.93" /><path
         id="path464"
         style="fill:#78c2ff;fill-opacity:1;fill-rule:nonzero;stroke:none"
         d="m 1518.8,2942.81 c -14.23,0 -25.81,-11.57 -25.81,-25.8 0,-14.24 11.58,-25.81 25.81,-25.81 14.23,0 25.8,11.57 25.8,25.81 0,14.23 -11.57,25.8 -25.8,25.8 z m 0,-61.27 c -19.56,0 -35.47,15.91 -35.47,35.47 0,19.55 15.91,35.47 35.47,35.47 19.55,0 35.46,-15.92 35.46,-35.47 0,-19.56 -15.91,-35.47 -35.46,-35.47" /><path
         id="path466"
         style="fill:#78c2ff;fill-opacity:1;fill-rule:nonzero;stroke:none"
         d="m 4179.77,4106.77 c -14.24,0 -25.81,-11.57 -25.81,-25.8 0,-14.23 11.57,-25.81 25.81,-25.81 14.22,0 25.8,11.58 25.8,25.81 0,14.23 -11.58,25.8 -25.8,25.8 z m 0,-61.27 c -19.56,0 -35.47,15.92 -35.47,35.47 0,19.56 15.91,35.47 35.47,35.47 19.55,0 35.45,-15.91 35.45,-35.47 0,-19.55 -15.9,-35.47 -35.45,-35.47" /><path
         id="path468"
         style="fill:#a1d4ff;fill-opacity:1;fill-rule:nonzero;stroke:none"
         d="m 1533.94,4226.62 h 224.14 v 224.13 h -224.14 z m 233.79,-9.66 h -243.45 v 243.45 h 243.45 v -243.45" /><path
         id="path470"
         style="fill:#a1d4ff;fill-opacity:1;fill-rule:nonzero;stroke:none"
         d="m 1650.83,4280.59 h -9.65 v 113.46 h 9.65 v -113.46" /><path
         id="path472"
         style="fill:#a1d4ff;fill-opacity:1;fill-rule:nonzero;stroke:none"
         d="m 1702.74,4332.49 h -113.47 v 9.66 h 113.47 v -9.66" /><path
         id="path474"
         style="fill:#a1d4ff;fill-opacity:1;fill-rule:nonzero;stroke:none"
         d="m 5139.31,3932.95 h 328.66 v 229.1 h -328.66 z m 338.32,-9.66 h -347.98 v 248.41 h 347.98 v -248.41" /><path
         id="path476"
         style="fill:#a1d4ff;fill-opacity:1;fill-rule:nonzero;stroke:none"
         d="m 5303.63,4021.25 -172.23,141.9 6.14,7.45 166.09,-136.85 166.1,136.85 6.13,-7.45 -172.23,-141.9" /><path
         id="path478"
         style="fill:#a1d4ff;fill-opacity:1;fill-rule:nonzero;stroke:none"
         d="m 5469.3,3924.79 -124.91,131.69 7.02,6.64 124.9,-131.68 -7.01,-6.65" /><path
         id="path480"
         style="fill:#a1d4ff;fill-opacity:1;fill-rule:nonzero;stroke:none"
         d="m 5137.98,3924.79 -7.01,6.65 124.89,131.68 7,-6.64 -124.88,-131.69" /><path
         id="path482"
         style="fill:#a1d4ff;fill-opacity:1;fill-rule:nonzero;stroke:none"
         d="m 1224.68,2274.21 c -6.69,0 -13.27,-3.13 -17.44,-8.98 -3.31,-4.64 -4.61,-10.31 -3.66,-15.93 0.95,-5.63 4.03,-10.56 8.68,-13.87 h 0.01 c 4.64,-3.3 10.32,-4.61 15.93,-3.66 5.63,0.95 10.56,4.03 13.86,8.68 6.84,9.61 4.59,22.97 -5.02,29.8 -3.74,2.68 -8.07,3.96 -12.36,3.96 z m -0.09,-49.99 c -5.89,0 -11.63,1.83 -16.53,5.31 h 0.01 c -12.86,9.14 -15.88,27.05 -6.73,39.9 9.15,12.86 27.05,15.87 39.9,6.72 12.86,-9.14 15.87,-27.05 6.73,-39.9 -4.43,-6.22 -11.03,-10.35 -18.56,-11.62 -1.61,-0.27 -3.22,-0.41 -4.82,-0.41 z m -17.91,-12.03 2.12,-0.81 c 3.85,-1.48 7.88,-2.41 12.01,-2.76 l 2.26,-0.2 3.1,-8.11 14.25,2.41 0.28,8.68 2.08,0.92 c 3.78,1.68 7.29,3.89 10.43,6.54 l 1.74,1.45 7.92,-3.54 8.38,11.78 -5.94,6.33 0.81,2.12 c 1.47,3.84 2.4,7.88 2.75,11.99 l 0.2,2.27 8.11,3.11 -2.4,14.24 -8.69,0.28 -0.91,2.07 c -1.69,3.78 -3.89,7.3 -6.53,10.44 l -1.46,1.73 3.53,7.93 -11.78,8.37 -6.32,-5.93 -2.12,0.82 c -3.85,1.46 -7.88,2.39 -12,2.74 l -2.26,0.21 -3.11,8.1 -14.25,-2.4 -0.28,-8.67 -2.07,-0.94 c -3.78,-1.68 -7.29,-3.88 -10.43,-6.52 l -1.74,-1.47 -7.93,3.54 -8.38,-11.78 5.94,-6.33 -0.81,-2.11 c -1.47,-3.85 -2.4,-7.88 -2.75,-12 l -0.19,-2.26 -8.12,-3.11 2.41,-14.26 8.67,-0.26 0.93,-2.07 c 1.69,-3.79 3.88,-7.31 6.53,-10.44 l 1.46,-1.73 -3.54,-7.93 11.78,-8.38 z m 14.85,-20 -3.62,9.46 c -3.25,0.43 -6.44,1.16 -9.53,2.19 l -7.39,-6.94 -21.43,15.26 4.12,9.26 c -1.98,2.57 -3.71,5.35 -5.18,8.28 l -10.13,0.32 -4.38,25.96 9.47,3.61 c 0.42,3.24 1.15,6.44 2.18,9.52 l -6.92,7.39 15.25,21.44 9.25,-4.13 c 2.59,1.99 5.35,3.72 8.28,5.18 l 0.33,10.13 25.95,4.38 3.62,-9.47 c 3.24,-0.43 6.43,-1.15 9.53,-2.17 l 7.38,6.92 21.44,-15.25 -4.12,-9.25 c 1.97,-2.59 3.72,-5.36 5.18,-8.29 l 10.12,-0.32 4.38,-25.94 -9.47,-3.64 c -0.42,-3.24 -1.15,-6.42 -2.18,-9.52 l 6.93,-7.38 -15.25,-21.45 -9.26,4.13 c -2.58,-1.99 -5.35,-3.72 -8.28,-5.18 l -0.32,-10.13 -25.95,-4.37" /><path
         id="path484"
         style="fill:#a1d4ff;fill-opacity:1;fill-rule:nonzero;stroke:none"
         d="m 1025.54,2350.71 c -2.95,0 -5.92,-0.24 -8.88,-0.74 -13.92,-2.34 -26.09,-9.97 -34.265,-21.46 -8.18,-11.5 -11.395,-25.49 -9.051,-39.41 2.344,-13.9 9.969,-26.08 21.461,-34.26 23.735,-16.88 56.775,-11.31 73.665,12.42 8.18,11.49 11.39,25.47 9.05,39.39 -2.34,13.92 -9.97,26.08 -21.46,34.27 -9.04,6.43 -19.64,9.79 -30.52,9.79 z m -0.19,-115.29 c -12.53,0 -25.18,3.75 -36.139,11.56 -13.602,9.67 -22.613,24.06 -25.395,40.52 -2.769,16.46 1.032,33.01 10.711,46.6 19.977,28.07 59.063,34.67 87.133,14.68 28.07,-19.97 34.65,-59.05 14.68,-87.13 -12.17,-17.1 -31.44,-26.23 -50.99,-26.23 z m -40.549,-35.42 2.82,-1.07 c 9.164,-3.52 18.799,-5.73 28.629,-6.57 l 3.03,-0.26 7.4,-19.35 38.57,6.51 0.66,20.7 2.77,1.23 c 9.01,4.02 17.39,9.26 24.9,15.58 l 2.31,1.95 18.9,-8.45 22.68,31.89 -14.16,15.09 1.08,2.82 c 3.51,9.16 5.72,18.8 6.56,28.64 l 0.26,3.01 19.35,7.4 -6.5,38.58 -20.71,0.65 -1.23,2.77 c -4.01,9.02 -9.26,17.4 -15.58,24.91 l -1.95,2.31 8.44,18.9 -31.88,22.68 -15.09,-14.16 -2.82,1.08 c -9.16,3.51 -18.8,5.72 -28.64,6.56 l -3.01,0.26 -7.41,19.35 -38.567,-6.51 -0.664,-20.7 -2.758,-1.23 c -9.015,-4.02 -17.394,-9.26 -24.906,-15.59 l -2.312,-1.94 -18.903,8.44 -22.679,-31.88 14.164,-15.08 -1.078,-2.84 c -3.516,-9.16 -5.719,-18.8 -6.567,-28.63 l -0.262,-3.01 -19.343,-7.4 6.496,-38.57 20.711,-0.67 1.226,-2.76 c 4.028,-9.02 9.27,-17.4 15.586,-24.91 l 1.949,-2.31 -8.441,-18.89 31.875,-22.69 z m 35.689,-38.09 -8.09,21.13 c -8.67,0.97 -17.173,2.92 -25.373,5.82 l -16.476,-15.47 -44.758,31.84 9.219,20.65 c -5.418,6.79 -10.051,14.19 -13.813,22.06 l -22.605,0.71 -9.125,54.18 21.121,8.08 c 0.973,8.67 2.926,17.18 5.816,25.37 l -15.468,16.48 31.851,44.76 20.641,-9.22 c 6.785,5.42 14.187,10.05 22.062,13.81 l 0.719,22.61 54.169,9.13 8.08,-21.13 c 8.67,-0.97 17.18,-2.92 25.37,-5.82 l 16.48,15.47 44.76,-31.84 -9.21,-20.65 c 5.41,-6.78 10.04,-14.2 13.81,-22.06 l 22.6,-0.72 9.13,-54.17 -21.13,-8.08 c -0.97,-8.68 -2.92,-17.17 -5.81,-25.38 l 15.47,-16.47 -31.85,-44.76 -20.64,9.22 c -6.79,-5.42 -14.2,-10.05 -22.06,-13.82 l -0.73,-22.6 -54.16,-9.13" /><path
         id="path486"
         style="fill:#78c2ff;fill-opacity:1;fill-rule:nonzero;stroke:none"
         d="m 3086.88,3773 c -85.53,0 -155.12,69.59 -155.12,155.12 0,85.53 69.59,155.12 155.12,155.12 85.53,0 155.12,-69.59 155.12,-155.12 h -9.66 c 0,80.2 -65.26,145.46 -145.46,145.46 -80.21,0 -145.47,-65.26 -145.47,-145.46 0,-80.21 65.26,-145.46 145.47,-145.46 z m 0,-25.05 c -99.35,0 -180.18,80.82 -180.18,180.17 h 9.66 c 0,-94.02 76.5,-170.51 170.52,-170.51 94.01,0 170.5,76.49 170.5,170.51 0,94.02 -76.49,170.51 -170.5,170.51 v 9.66 c 99.34,0 180.17,-80.83 180.17,-180.17 0,-99.35 -80.83,-180.17 -180.17,-180.17" /><path
         id="path488"
         style="fill:#78c2ff;fill-opacity:1;fill-rule:nonzero;stroke:none"
         d="m 3064.8,3868.43 -64.98,64.98 6.83,6.83 58.15,-58.15 102.3,102.29 6.83,-6.82 -109.13,-109.13" /><path
         id="path490"
         style="fill:#5c544d;fill-opacity:1;fill-rule:nonzero;stroke:none"
         d="m 4576.15,1428.25 c 0,0 8.8,-34.56 10,-39.76 1.2,-5.21 55.39,9.12 55.39,9.12 l -0.05,42.27 c 0,0 -58.97,-5.93 -65.34,-11.63" /><path
         id="path492"
         style="fill:#3c4145;fill-opacity:1;fill-rule:nonzero;stroke:none"
         d="m 4585.08,1392.89 c 0,0 -15.17,-23.04 -31.06,-34.08 -15.88,-11.04 -77.18,-25.32 -86.14,-35.95 -6.46,-7.66 -15.45,-36.69 82.93,-23.44 69.88,9.42 104.38,7.04 110.65,19.22 6.28,12.18 -19.93,82.75 -19.93,82.75 0,0 -14.95,-8.14 -56.45,-8.5" /><path
         id="path494"
         style="fill:#f0c141;fill-opacity:1;fill-rule:nonzero;stroke:none"
         d="m 4564.67,444.641 -196.35,2000.669 24.75,2.4 196.35,-2000.679 -24.75,-2.39" /><path
         id="path496"
         style="fill:#f0c141;fill-opacity:1;fill-rule:nonzero;stroke:none"
         d="m 4964.98,483.48 -196.35,2000.67 24.76,2.41 196.34,-2000.669 -24.75,-2.411" /><path
         id="path498"
         style="fill:#f0c141;fill-opacity:1;fill-rule:nonzero;stroke:none"
         d="m 4386.43,2388.07 -2.41,24.74 400.31,38.85 2.41,-24.75 -400.31,-38.84" /><path
         id="path500"
         style="fill:#f0c141;fill-opacity:1;fill-rule:nonzero;stroke:none"
         d="m 4404.48,2201.91 -2.39,24.77 400.3,38.84 2.4,-24.75 -400.31,-38.86" /><path
         id="path502"
         style="fill:#f0c141;fill-opacity:1;fill-rule:nonzero;stroke:none"
         d="m 4422.55,2015.78 -2.4,24.75 400.31,38.85 2.39,-24.75 -400.3,-38.85" /><path
         id="path504"
         style="fill:#f0c141;fill-opacity:1;fill-rule:nonzero;stroke:none"
         d="m 4440.62,1829.64 -2.4,24.74 400.31,38.85 2.4,-24.74 -400.31,-38.85" /><path
         id="path506"
         style="fill:#f0c141;fill-opacity:1;fill-rule:nonzero;stroke:none"
         d="m 4458.69,1643.49 -2.41,24.75 400.31,38.85 2.39,-24.75 -400.29,-38.85" /><path
         id="path508"
         style="fill:#f0c141;fill-opacity:1;fill-rule:nonzero;stroke:none"
         d="m 4476.75,1457.35 -2.4,24.75 400.3,38.85 2.4,-24.76 -400.3,-38.84" /><path
         id="path510"
         style="fill:#f0c141;fill-opacity:1;fill-rule:nonzero;stroke:none"
         d="m 4494.81,1271.2 -2.4,24.75 400.3,38.85 2.41,-24.74 -400.31,-38.86" /><path
         id="path512"
         style="fill:#f0c141;fill-opacity:1;fill-rule:nonzero;stroke:none"
         d="m 4512.88,1085.06 -2.4,24.75 400.3,38.84 2.4,-24.74 -400.3,-38.85" /><path
         id="path514"
         style="fill:#f0c141;fill-opacity:1;fill-rule:nonzero;stroke:none"
         d="m 4530.94,898.93 -2.4,24.742 400.31,38.848 2.39,-24.75 -400.3,-38.84" /><path
         id="path516"
         style="fill:#f0c141;fill-opacity:1;fill-rule:nonzero;stroke:none"
         d="m 4549.01,712.77 -2.41,24.75 400.3,38.851 2.42,-24.75 -400.31,-38.851" /><path
         id="path518"
         style="fill:#f0c141;fill-opacity:1;fill-rule:nonzero;stroke:none"
         d="m 4567.07,526.629 -2.4,24.762 400.31,38.828 2.4,-24.739 -400.31,-38.851" /><path
         id="path520"
         style="fill:#3c4145;fill-opacity:1;fill-rule:nonzero;stroke:none"
         d="m 4509.32,2155.9 c 0,0 -39.44,-146.43 -49.84,-198.77 -9.05,-45.61 -27.27,-167.06 -29.86,-195.94 -2.59,-28.88 116.4,-308.4 128.78,-358.89 l 108.41,17.41 c 0,0 -114.38,290.92 -84.54,355.56 44.37,96.16 50.15,93.26 85.1,172.45 34.95,79.21 114.99,81.09 136.48,228.04 0,0 -265.44,26.74 -294.53,-19.86" /><path
         id="path522"
         style="fill:#eea886;fill-opacity:1;fill-rule:nonzero;stroke:none"
         d="m 4702.08,2867.32 c 0,0 -71.98,26.88 -105.18,-27.91 -33.18,-54.8 -29.99,-164.5 6.3,-177.98 36.28,-13.5 90.79,-6.44 109.37,27.85 18.58,34.28 35.34,83.85 34.54,116.98 -0.81,33.12 -26.12,51.49 -45.03,61.06" /><path
         id="path524"
         style="fill:#eea886;fill-opacity:1;fill-rule:nonzero;stroke:none"
         d="m 4615.28,2664.79 c 0,0 2.91,-18.87 -1.89,-28.16 -4.82,-9.3 90.54,-9.55 90.54,-9.55 0,0 7.74,50.57 22.42,93.28 14.67,42.72 -111.07,-55.57 -111.07,-55.57" /><path
         id="path526"
         style="fill:#3a3f47;fill-opacity:1;fill-rule:nonzero;stroke:none"
         d="m 4726.35,2720.36 c 0,0 -6.58,-10.85 -33.45,-6.64 -26.86,4.21 -59.64,39.95 -70.85,43.87 -11.21,3.93 -11.32,10.52 -11.32,10.52 l -7.03,-10.26 -11.9,-0.75 c 0,0 10.86,31.97 -5.53,45 -16.4,13.04 17.01,103.48 103.16,73.37 0,0 66.17,-18.24 63.76,-55.87 -2.41,-37.63 -12.04,-80.49 -26.84,-99.24" /><path
         id="path528"
         style="fill:#eea886;fill-opacity:1;fill-rule:nonzero;stroke:none"
         d="m 4612.51,2781.79 c 1.5,6.32 17.56,24.35 23.7,5.04 6.15,-19.31 -9.29,-45.29 -17.89,-43.07 -8.6,2.23 -9.63,22.03 -5.81,38.03" /><path
         id="path530"
         style="fill:#518afa;fill-opacity:1;fill-rule:nonzero;stroke:none"
         d="m 4887.06,2389.56 c -0.79,-9.44 -11.57,-19.66 -18.92,-24.71 -4.71,-3.23 -10.36,-5.18 -16.41,-5.39 l -4.28,-0.14 h -0.01 l -74.8,-2.55 c 0,0 -55.61,179.73 48.71,248.28 3.22,-0.32 72.96,-128.86 65.71,-215.49" /><path
         id="path532"
         style="fill:#3c4145;fill-opacity:1;fill-rule:nonzero;stroke:none"
         d="m 4661.46,1318.64 c -6.28,-12.18 -40.77,-9.81 -110.66,-19.21 -19.1,-2.57 -34.15,-3.56 -45.96,-3.39 l -4.07,42.04 c 20.44,7.11 44.21,14.44 53.25,20.73 15.89,11.04 31.06,34.08 31.06,34.08 41.5,0.35 56.46,8.5 56.46,8.5 0,0 26.2,-70.57 19.92,-82.75" /><path
         id="path534"
         style="fill:#ffd255;fill-opacity:1;fill-rule:nonzero;stroke:none"
         d="m 4615.23,2642.1 c 0,0 58.7,13.66 91.78,2.49 l 5,-4.62 c 0,0 10.05,-19.28 -27.79,-20.94 -37.86,-1.65 -97.36,-4.41 -68.99,23.07" /><path
         id="path536"
         style="fill:#5c544d;fill-opacity:1;fill-rule:nonzero;stroke:none"
         d="m 4844.61,1266.62 c 0,0 8.8,-34.55 10,-39.76 1.2,-5.2 55.38,9.13 55.38,9.13 l -0.05,42.27 c 0,0 -58.96,-5.95 -65.33,-11.64" /><path
         id="path538"
         style="fill:#3c4145;fill-opacity:1;fill-rule:nonzero;stroke:none"
         d="m 4803.85,2175.76 c 0,0 19.75,-81.5 25.6,-163.08 5.41,-75.41 15.26,-158.12 23.07,-236.99 8.72,-87.91 33.6,-230.04 34.9,-277.06 1.3,-47.03 40.88,-252.57 40.88,-252.57 l -101.25,-11.63 c 0,0 -65.79,363.22 -81.33,400.35 -15.53,37.11 -92.59,301.8 -95.17,331.51 -2.6,29.7 153.3,209.47 153.3,209.47" /><path
         id="path540"
         style="fill:#3c4145;fill-opacity:1;fill-rule:nonzero;stroke:none"
         d="m 4853.54,1231.26 c 0,0 -15.17,-23.03 -31.05,-34.07 -15.89,-11.05 -77.2,-25.33 -86.15,-35.95 -6.47,-7.67 -15.45,-36.69 82.93,-23.44 69.88,9.42 104.37,7.03 110.65,19.22 6.28,12.18 -19.93,82.75 -19.93,82.75 0,0 -14.95,-8.14 -56.45,-8.51" /><path
         id="path542"
         style="fill:#518afa;fill-opacity:1;fill-rule:nonzero;stroke:none"
         d="m 4488.83,1973.01 c -8.62,1.23 21.4,258.31 19.11,274.43 -1.53,10.75 -1.29,94.3 -0.66,146.38 l -9.4,52.7 c -5.23,3.81 -12.25,8.22 -20.63,13.05 -13.06,7.54 -29.44,16.15 -47.63,25.24 2.11,12.45 3.58,22.26 4.15,27.98 4.54,46.3 35.63,70.84 53.26,81.17 7.2,4.2 12.15,6.05 12.15,6.05 6.7,2.85 13.28,5.6 19.66,8.22 42.47,17.48 96.39,33.87 96.39,33.87 h 86.65 c 0,0 65.95,-13.17 105.27,-29.26 5.04,-2.06 9.75,-4.7 14.2,-7.79 l -11.78,-247.01 c -0.01,-0.06 -0.01,-0.11 -0.02,-0.17 -0.01,-0.08 -0.03,-0.18 -0.05,-0.31 -5.3,-34.77 -10.88,-75.76 -12.74,-104.49 -0.76,-11.74 12.65,-74.76 19.67,-132.6 l 24.5,-138.42 c 0,0 -14.16,-57.36 -352.1,-9.04" /><path
         id="path544"
         style="fill:#eea886;fill-opacity:1;fill-rule:nonzero;stroke:none"
         d="m 4046.47,2774.14 c 0,0 5.12,-6.34 8.71,-8.02 0,0 6.76,-2.55 11.46,-4.66 1.49,-0.67 2.76,-1.29 3.56,-1.78 3.29,-2.03 9.89,-7.47 19.16,-10.13 9.24,-2.67 51.11,-12.2 51.11,-12.2 l 9.73,24.83 6.98,20.07 c 0,0 -38.74,50.19 -47.08,53.67 -0.82,0.33 -1.64,0.64 -2.43,0.86 -7.35,2.26 -13.76,0.86 -17.76,1.61 -1.46,0.27 -16.22,1.92 -19.41,-1.15 -4.45,-4.28 -5.78,-9.04 -5.02,-13.19 0,0 -8.32,-8.75 -8.92,-16.86 0,0 -7.95,-7.82 -5.82,-18.12 0,0 -7.16,-8.84 -4.27,-14.93" /><path
         id="path546"
         style="fill:#518afa;fill-opacity:1;fill-rule:nonzero;stroke:none"
         d="m 4495.1,2448.5 c -9.67,6.23 -22.19,14.65 -65.48,36.31 -80.61,40.33 -180.13,113.44 -199.05,124 -29.1,16.24 -121.02,128.54 -121.02,128.54 4.75,16.91 48.32,50.86 48.32,50.86 0,0 139.35,-131.98 169.81,-148.23 26.18,-13.97 155.52,-28.08 191.16,-31.75 5.79,-0.59 9.1,-0.92 9.1,-0.92 37.22,-50.75 -12.07,-172.19 -32.84,-158.81" /><path
         id="path548"
         style="fill:#6a75ba;fill-opacity:1;fill-rule:nonzero;stroke:none"
         d="m 1861.1,3406.4 c 0,0 -24.72,45.38 -38.78,61.71 -14.07,16.33 -60.79,28.58 -54.44,49.44 6.35,20.87 68.95,11.8 86.19,-8.62 17.24,-20.41 69.86,-27.67 71.67,-36.28 1.82,-8.63 -18.27,-55.8 -29.54,-63.51 -11.28,-7.72 -35.1,-2.74 -35.1,-2.74" /><path
         id="path550"
         style="fill:#545d94;fill-opacity:1;fill-rule:nonzero;stroke:none"
         d="m 1756.02,3367.96 c 0,0 -40.27,31.94 -59.66,41.34 -19.39,9.41 -67.14,2.09 -69.59,23.76 -2.46,21.68 58.6,38.21 82.52,26.32 23.93,-11.89 75.1,2.34 80.19,-4.85 5.09,-7.19 5.39,-58.46 -1.9,-70.02 -7.29,-11.55 -31.56,-16.55 -31.56,-16.55" /><path
         id="path552"
         style="fill:#eea886;fill-opacity:1;fill-rule:nonzero;stroke:none"
         d="m 1845.45,3284.84 c 0,0 17.58,120.22 16.78,141.08 -0.22,5.95 36.18,3.74 34.48,-7.72 -3.71,-24.93 13.1,-121.56 10.18,-139.25 -2.92,-17.7 -62.93,-5.25 -61.44,5.89" /><path
         id="path554"
         style="fill:#eea886;fill-opacity:1;fill-rule:nonzero;stroke:none"
         d="m 1790.37,3250.29 c 0,0 -32.95,116.73 -40.62,136.15 -3.42,8.63 30.15,22.02 34.7,6.61 7.15,-24.18 60.3,-106.38 64.65,-123.77 4.34,-17.41 -55.69,-29.81 -58.73,-18.99" /><path
         id="path556"
         style="fill:#207cd6;fill-opacity:1;fill-rule:nonzero;stroke:none"
         d="m 1813.24,3169.17 c 0,0 -35.38,119.3 -40.82,132 l 55.79,34.48 c 0,0 25.86,-76.21 29.49,-95.26 3.63,-19.05 -44.46,-71.22 -44.46,-71.22" /><path
         id="path558"
         style="fill:#2e334d;fill-opacity:1;fill-rule:nonzero;stroke:none"
         d="m 2800.9,3484.38 c 0,0 -53.88,-13.62 -79.51,-54.37 -25.64,-40.75 -47.8,-87.68 -95.97,-108.97 -48.16,-21.29 -48.48,-76.15 -44.73,-84.6 3.75,-8.47 151.73,-174.81 184.03,-181.24 32.29,-6.43 92.74,-1.96 86.27,40.78 -6.47,42.75 -69.82,134.69 -34.26,181.08 35.56,46.38 44.52,89.11 44.52,89.11 l -60.35,118.21" /><path
         id="path560"
         style="fill:#eea886;fill-opacity:1;fill-rule:nonzero;stroke:none"
         d="m 2791.51,3285.44 c 0,0 -1.58,0.53 -4.22,0.77 -3.05,0.28 -7.52,0.2 -12.6,-1.51 -1.26,-0.43 -2.95,-1.29 -4.93,-2.45 -12.8,-7.55 -43.1,-28.03 -47.2,-28.52 -4.72,-0.56 -0.73,70.11 -0.73,70.11 0,0 16.13,28.55 18.17,47.33 2.02,18.79 51.51,-85.73 51.51,-85.73" /><path
         id="path562"
         style="fill:#207cd6;fill-opacity:1;fill-rule:nonzero;stroke:none"
         d="m 2412.49,3211.58 c 0,0 -59.2,41.51 -128.61,28.58 -69.4,-12.93 -76.89,-45.37 -100.71,-46.84 -23.81,-1.47 -103.42,5.33 -168.74,-13.72 -65.32,-19.05 -120.44,-21.09 -127.93,-15.65 -7.48,5.44 40.83,114.32 40.83,129.28 l -80.97,21.1 c 0,0 -23.14,-96.62 -32.21,-118.4 -9.7,-23.29 -28.35,-67.14 -1.81,-105.24 26.54,-38.11 100.7,-20.93 145.61,-28.61 44.91,-7.68 245.92,-2.76 281.02,-0.88 38.11,2.04 153.11,7.49 153.11,7.49 l 20.41,142.89" /><path
         id="path564"
         style="fill:#eea886;fill-opacity:1;fill-rule:nonzero;stroke:none"
         d="m 2898.69,3426.71 c 0,0 3.78,-58.48 -9.21,-76.02 -5.19,-7.01 -8.72,-10.83 -11.08,-12.89 -3.33,-2.9 -5.91,-6.55 -7.4,-10.72 -4.01,-11.25 -6.48,-27.07 -9.68,-30.45 -3.48,-3.69 -13.58,5.69 -17.24,5.71 -3.65,0.02 -39.28,-30.73 -47.79,-24.43 -8.52,6.29 -60.49,59.02 -56.13,95.18 4.37,36.15 20.32,90.14 78.83,89.81 58.52,-0.34 75.23,-21.64 79.7,-36.19" /><path
         id="path566"
         style="fill:#ffc955;fill-opacity:1;fill-rule:nonzero;stroke:none"
         d="m 2721.87,3147.62 c -1.13,-2.4 -22.65,-36.76 -46.22,-56.7 -9.78,-8.27 -19.91,-14.06 -29.09,-14.06 -2.81,0 -5.54,-0.05 -8.2,-0.12 -27.05,-0.72 -47.82,-4.87 -84.34,-6.69 -37.94,-1.9 -129.96,3.4 -132.69,3.4 -2.72,0 -29.25,-4.76 -29.25,-4.76 -9.54,11.56 15.64,142.21 20.41,142.89 4.76,0.68 35.38,-10.89 64.64,-6.12 29.26,4.76 40.82,7.48 84.37,58.51 43.55,51.03 87.1,63.96 105.47,59.89 18.37,-4.09 54.9,0 54.9,0 0,0 1.57,-172.84 0,-176.24" /><path
         id="path568"
         style="fill:#2e334d;fill-opacity:1;fill-rule:nonzero;stroke:none"
         d="m 2874.11,3384.84 c 0,0 10.9,-28.26 16.68,-32.15 0,0 21.04,22.26 7.53,77.18 -13.52,54.92 -64.5,60.09 -97.42,54.51 -40.97,-6.94 -82.22,-145.57 -80.09,-159.07 2.12,-13.5 48.03,71.64 88.25,64.79 40.22,-6.85 40.54,-9.09 65.05,-5.26" /><path
         id="path570"
         style="fill:#a77860;fill-opacity:1;fill-rule:nonzero;stroke:none"
         d="m 2787.29,3286.21 c -3.05,0.28 -7.52,0.2 -12.6,-1.51 -1.26,-0.43 -2.95,-1.29 -4.93,-2.45 -9.41,14.67 -18.12,49.46 -18.41,50.64 6.27,-19.05 35.94,-46.68 35.94,-46.68" /><path
         id="path572"
         style="fill:#c29941;fill-opacity:1;fill-rule:nonzero;stroke:none"
         d="m 2675.65,3090.92 c -9.78,-8.27 -19.91,-14.06 -29.09,-14.06 -2.81,0 -5.54,-0.05 -8.2,-0.12 l 11.14,108.3 26.15,-94.12" /><path
         id="path574"
         style="fill:#eea886;fill-opacity:1;fill-rule:nonzero;stroke:none"
         d="m 2887.37,2904.43 -26.12,-23.76 c -22.53,12.07 -79,52.71 -89.86,61.97 -11.39,9.7 -87.37,73.24 -97.8,87.73 -10.52,14.48 -23.85,164.17 -22.49,171.02 1.35,6.77 66.04,10.24 73.38,-5.6 0,0 3.39,-85.37 5.12,-99.66 1.65,-14.29 7.12,-27.2 16.92,-39.22 13.57,-16.64 42.45,-55.28 70.41,-86.51 6.67,-7.45 61.82,-58.55 70.44,-65.97" /><path
         id="path576"
         style="fill:#ffc955;fill-opacity:1;fill-rule:nonzero;stroke:none"
         d="m 2729.8,3193.89 c 0,0 4.08,113.68 -32.89,112.27 -46.75,-1.78 -53.76,-58.97 -47.41,-121.12 0,0 69.87,-0.67 80.3,8.85" /><path
         id="path578"
         style="fill:#eea886;fill-opacity:1;fill-rule:nonzero;stroke:none"
         d="m 2874.79,2915.56 c 0,0 3.48,-5.48 8.52,-7.18 8.7,-2.94 21.57,2.72 27.92,-8.68 6.35,-11.4 -24.3,-39.88 -32.52,-41.6 -8.24,-1.73 -21.43,11.08 -31.75,36.36 -10.3,25.28 27.83,21.1 27.83,21.1" /><path
         id="path580"
         style="fill:#eea886;fill-opacity:1;fill-rule:nonzero;stroke:none"
         d="m 2908.54,2903.25 c 0,0 15.63,-11.9 31.44,-27.18 13.87,-13.4 27.97,-31 24.41,-34.32 -4.86,-4.54 -14.32,10.57 -28.95,22.98 -13.48,11.43 -12.71,7.02 -12.71,7.02 0,0 -0.15,1.27 12.14,-13.92 13.21,-16.33 26.86,-35.71 22.79,-38.51 -2.55,-1.75 -2.67,-2.22 -8.44,2.97 2.68,-3.66 2.05,-4.87 0.63,-6.07 -7.37,-6.18 -30.52,14.96 -39.72,23.36 7.02,-6.49 11.49,-11.98 4.36,-12.81 -8.16,-0.96 -39.56,30.33 -51.87,40.51 -13.44,11.1 45.92,35.97 45.92,35.97" /><path
         id="path582"
         style="fill:#e0e0e0;fill-opacity:1;fill-rule:nonzero;stroke:none"
         d="m 2439.08,3206.38 c 0,0 -12.47,-89.47 -6.33,-133.47 0,0 6.51,-4.84 19.46,-0.93 0,0 3.23,97.65 10.49,132.33 0,0 -3.99,3.01 -23.62,2.07" /><path
         id="path584"
         style="fill:#e0e0e0;fill-opacity:1;fill-rule:nonzero;stroke:none"
         d="m 2451.7,3138.72 h -9.65 V 4816.7 h 9.65 V 3138.72" /><path
         id="path586"
         style="fill:#5c544d;fill-opacity:1;fill-rule:nonzero;stroke:none"
         d="m 1621.41,688.398 c 0,0 -4.9,-34.328 -5.51,-39.488 -0.62,-5.16 -54.5,3.031 -54.5,3.031 l -4.37,40.879 c 0,0 57.64,0.422 64.38,-4.422" /><path
         id="path588"
         style="fill:#3c4145;fill-opacity:1;fill-rule:nonzero;stroke:none"
         d="m 1616.47,653.281 c 0,0 17.07,-20.691 33.59,-29.711 16.51,-9.011 42.46,-12.59 52.23,-21.922 7.05,-6.738 25.68,-35.75 -42.91,-35.168 -68.59,0.59 -101.66,-4.089 -109.01,7.04 -7.35,11.109 10.64,82.089 10.64,82.089 0,0 16.24,-5.91 55.46,-2.328" /><path
         id="path590"
         style="fill:#5c544d;fill-opacity:1;fill-rule:nonzero;stroke:none"
         d="m 2007.55,688.398 c 0,0 -4.9,-34.328 -5.51,-39.488 -0.61,-5.16 -54.51,3.031 -54.51,3.031 l -4.36,40.879 c 0,0 57.65,0.422 64.38,-4.422" /><path
         id="path592"
         style="fill:#3c4145;fill-opacity:1;fill-rule:nonzero;stroke:none"
         d="m 2002.61,653.281 c 0,0 17.08,-20.691 33.59,-29.711 16.51,-9.011 77.29,-16.422 87.05,-25.761 7.05,-6.739 18.78,-33.86 -77.73,-31.329 -68.57,1.809 -101.66,-4.089 -109.01,7.04 -7.35,11.109 10.63,82.089 10.63,82.089 0,0 15.31,-6.308 55.47,-2.328" /><path
         id="path594"
         style="fill:#33373b;fill-opacity:1;fill-rule:nonzero;stroke:none"
         d="m 1640.55,1574.79 c 0,0 -28.68,-85.19 -24.9,-158.62 3.77,-73.42 -14.83,-153.76 -22.44,-230.46 -8.48,-85.5 -43.19,-287.929 -44.45,-333.659 -1.26,-45.742 5.4,-191.801 5.4,-191.801 l 69.46,-1.602 c 0,0 58.35,353.892 73.46,389.992 15.11,36.12 90.05,293.55 92.56,322.42 2.52,28.89 -149.09,203.73 -149.09,203.73" /><path
         id="path596"
         style="fill:#3c4145;fill-opacity:1;fill-rule:nonzero;stroke:none"
         d="m 1932.6,1559.63 c 0,0 38.16,-201.23 43.2,-246.17 5.03,-44.93 8.39,-217.46 10.91,-245.56 2.52,-28.09 16.8,-367.521 30.23,-409.252 h -88.82 c 0,0 -68.18,246.762 -68.18,363.522 0,116.76 -52.66,253.82 -86.66,330.85 -34,77.03 -111.82,78.85 -132.73,221.77 0,0 263.75,30.17 292.05,-15.16" /><path
         id="path598"
         style="fill:#eea886;fill-opacity:1;fill-rule:nonzero;stroke:none"
         d="m 1752.1,2247.36 c 0,0 70.02,26.17 102.29,-27.14 32.28,-53.29 29.17,-159.98 -6.11,-173.09 -35.29,-13.13 -88.3,-6.27 -106.37,27.08 -18.06,33.35 -34.38,81.55 -33.59,113.77 0.78,32.22 25.41,50.09 43.78,59.38" /><path
         id="path600"
         style="fill:#eea886;fill-opacity:1;fill-rule:nonzero;stroke:none"
         d="m 1836.53,2050.4 c 0,0 -2.83,-18.35 1.84,-27.39 4.68,-9.04 -88.06,-9.28 -88.06,-9.28 0,0 -7.53,49.17 -21.79,90.71 -14.28,41.55 108.01,-54.04 108.01,-54.04" /><path
         id="path602"
         style="fill:#fccca2;fill-opacity:1;fill-rule:nonzero;stroke:none"
         d="m 1728.52,2104.44 c 0,0 6.4,-10.55 32.52,-6.46 26.12,4.1 58,38.86 68.91,42.67 10.9,3.82 11.01,10.23 11.01,10.23 l 6.82,-9.98 11.6,-0.72 c 0,0 -10.58,31.09 5.37,43.77 15.94,12.67 -16.55,100.63 -100.34,71.34 0,0 -64.35,-17.73 -62.01,-54.33 2.35,-36.59 11.71,-78.28 26.12,-96.52" /><path
         id="path604"
         style="fill:#e2d2ca;fill-opacity:1;fill-rule:nonzero;stroke:none"
         d="m 1843.88,2024.09 c 0,0 -0.3,17.28 -8.13,18.93 -7.83,1.67 -86.41,9.22 -96.02,5.44 v -20.12 c 0,0 18.51,-11.4 104.15,-4.25" /><path
         id="path606"
         style="fill:#eea886;fill-opacity:1;fill-rule:nonzero;stroke:none"
         d="m 1839.22,2164.19 c -1.46,6.14 -17.07,23.68 -23.05,4.89 -5.97,-18.77 9.04,-44.04 17.4,-41.87 8.37,2.16 9.37,21.42 5.65,36.98" /><path
         id="path608"
         style="fill:#495054;fill-opacity:1;fill-rule:nonzero;stroke:none"
         d="m 1843.88,2024.09 c 0,0 43.08,-15.49 92.98,-36.69 0,0 57.4,-21.42 63.61,-84.82 3.3,-33.65 39.13,-212.25 45.85,-227.36 6.71,-15.1 86.17,-257.86 88.96,-262.89 2.8,-5.04 -64.84,-33.11 -69.32,-30.87 -4.47,2.23 -76.92,221.4 -84.2,237.64 0,0 -41.7,131.41 -42.82,151 0,0 -1.2,-55.83 -3.43,-71.51 -2.24,-15.67 37.08,-319.97 35.96,-328.37 -1.12,-8.39 -178.72,-19.05 -249.8,-11.22 -71.08,7.84 -128.44,24.19 -128.44,24.19 0,0 55.94,240.15 54.22,266.77 -3.74,58.02 -23.13,167.28 -23.13,167.28 l -57.96,-109.26 74.19,-190.87 -16.99,-58.01 c 0,0 -137.86,208.32 -142.33,227.36 -4.48,19.03 6.75,43.27 14.03,58.94 7.27,15.66 55.07,134.94 66.26,151.73 11.19,16.8 30.11,84.03 75.83,102.75 38.23,15.64 102.38,28.46 102.38,28.46 l 104.15,-4.25" /><path
         id="path610"
         style="fill:#d6d6d6;fill-opacity:1;fill-rule:nonzero;stroke:none"
         d="m 1938.67,1302.31 324.76,83.29 -58.1,226.56 -324.76,-83.27 58.1,-226.58" /><path
         id="path612"
         style="fill:#c98462;fill-opacity:1;fill-rule:nonzero;stroke:none"
         d="m 2163.56,1362.78 c 0,0 9.28,-15 12.67,-19.26 3.39,-4.29 -8.33,-6.98 -13.35,-2.64 -5.03,4.33 0.68,21.9 0.68,21.9" /><path
         id="path614"
         style="fill:#de9d7d;fill-opacity:1;fill-rule:nonzero;stroke:none"
         d="m 2095.93,1311.56 c 0,0 -5.48,5.73 -6.66,9.39 0,0 -1.63,6.84 -3.08,11.63 -0.48,1.52 -0.91,2.83 -1.28,3.65 -1.56,3.42 -6,10.47 -7.43,19.74 -1.44,9.24 -5.48,50.8 -5.48,50.8 l 25.15,6.34 20.22,4.26 c 0,0 43.66,-43.55 45.99,-52.02 0.22,-0.83 0.41,-1.66 0.53,-2.45 1.28,-7.36 -0.86,-13.38 -0.63,-17.32 0.07,-1.44 -0.14,-15.89 -3.5,-18.6 -4.67,-3.75 -9.43,-4.46 -13.33,-3.21 0,0 -9.48,-6.95 -17.37,-6.53 0,0 -8.52,-6.7 -18.2,-3.38 0,0 -9.4,-5.83 -14.93,-2.3" /><path
         id="path616"
         style="fill:#495054;fill-opacity:1;fill-rule:nonzero;stroke:none"
         d="m 1997.73,1574.34 c 0,0 57.65,-174.56 68.23,-192.88 0,0 42.27,8.88 69.32,30.87 l -63.28,188.39 -74.27,-26.38" /></g></g></svg>