<?xml version="1.0" encoding="UTF-8" standalone="no"?>
<svg
   xmlns:dc="http://purl.org/dc/elements/1.1/"
   xmlns:cc="http://creativecommons.org/ns#"
   xmlns:rdf="http://www.w3.org/1999/02/22-rdf-syntax-ns#"
   xmlns:svg="http://www.w3.org/2000/svg"
   xmlns="http://www.w3.org/2000/svg"
   viewBox="0 0 3386.8401 2666.6667"
   height="2666.6667"
   width="3386.8401"
   xml:space="preserve"
   id="svg2"
   version="1.1"><metadata
     id="metadata8"><rdf:RDF><cc:Work
         rdf:about=""><dc:format>image/svg+xml</dc:format><dc:type
           rdf:resource="http://purl.org/dc/dcmitype/StillImage" /></cc:Work></rdf:RDF></metadata><defs
     id="defs6"><clipPath
       id="clipPath110"
       clipPathUnits="userSpaceOnUse"><path
         id="path108"
         d="M 6231.09,14369.6 H 17489.1 V 15358 H 6231.09 Z" /></clipPath><linearGradient
       id="linearGradient118"
       spreadMethod="pad"
       gradientTransform="matrix(11258,0,0,-11258,6231.09,14863.8)"
       gradientUnits="userSpaceOnUse"
       y2="0"
       x2="1"
       y1="0"
       x1="0"><stop
         id="stop114"
         offset="0"
         style="stop-opacity:1;stop-color:#ff9f55" /><stop
         id="stop116"
         offset="1"
         style="stop-opacity:1;stop-color:#ffd255" /></linearGradient><clipPath
       id="clipPath196"
       clipPathUnits="userSpaceOnUse"><path
         id="path194"
         d="m 18690,10196.7 c 191.6,91.7 382.4,-518.5 382.4,-518.5 325.7,-430.4 781,142.2 736.5,-501.2 -77.9,-1126 1296,-354.1 662.1,-1529.6 -633.8,-1175.6 559.7,-664.7 165.8,-1612.6 -393.9,-947.8 116.6,-2078.3 -476,-1613.8 0,0 -521.9,1144.4 -1060.1,1498.5 -538.2,354.1 322.4,774.2 154.1,1255.1 -244.6,698.5 -833.9,671.1 -409,1421.7 424.9,750.6 -807.3,1288.8 -155.8,1600.4 z" /></clipPath><linearGradient
       id="linearGradient204"
       spreadMethod="pad"
       gradientTransform="matrix(2222.68,0,0,-2222.68,18495.8,7259.7)"
       gradientUnits="userSpaceOnUse"
       y2="0"
       x2="1"
       y1="0"
       x1="0"><stop
         id="stop200"
         offset="0"
         style="stop-opacity:1;stop-color:#40d5e6" /><stop
         id="stop202"
         offset="1"
         style="stop-opacity:1;stop-color:#5577ff" /></linearGradient><clipPath
       id="clipPath218"
       clipPathUnits="userSpaceOnUse"><path
         id="path216"
         d="m 21685.7,7163 c -47.2,-25.8 -86.6,-67.1 -132.3,-114.9 -114.2,-119.6 -256.3,-268.4 -616.3,-270.1 -179.2,-0.8 -279.6,-24.2 -325.5,-75.7 -50.1,-56.4 -39.2,-154 -24,-289.3 5.7,-51 12.2,-108.8 16.1,-171.7 24.4,-386.7 -197.3,-656.9 -206.7,-668.3 -128.9,-153.5 -274.9,-459 -213.9,-633.5 23.7,-67.9 78,-110.9 161.3,-127.7 290.5,-58.7 370.8,123.1 503.7,424.3 24.3,55.2 49.5,112.3 78.2,172.8 154,325 297.6,381.4 515,466.7 52.2,20.5 111.3,43.7 175.9,72.7 274.8,123.5 225.2,293.1 172.7,472.6 -7.5,25.7 -15,51.3 -21.5,76.6 -33,129.3 32.2,195.8 114.8,280.1 59.3,60.6 126.7,129.3 179.9,240.5 27.9,58.4 50.9,137.6 2.1,183.8 -64.2,60.9 -227.4,44.2 -379.5,-38.9 z M 20444.6,4758.4 c -33.2,0 -69.2,3.8 -108.7,11.8 -99,20 -163.9,72.2 -192.9,155.2 -69.3,198.1 91.2,519.8 221.4,674.9 2.2,2.6 220.2,269 196.9,638.3 -3.9,61.9 -10.3,119.2 -16,169.7 -16.3,146.1 -28.2,251.7 34.6,322.3 55.3,62.1 162.1,89 357,89.9 341.9,1.6 477.1,143.2 585.8,256.9 46.1,48.4 89.7,94 142.6,122.9 v 0 c 170.4,93 350.9,106.7 429.1,32.5 37.2,-35.3 68.6,-104.3 7,-233 -56.3,-117.6 -129.2,-192.1 -187.9,-252 -78.9,-80.5 -131,-133.7 -103.9,-239.7 6.4,-24.9 13.7,-50 21.1,-75.3 52.7,-180.2 112.4,-384.6 -196.1,-523.2 -65.5,-29.5 -125.1,-52.9 -177.8,-73.5 -215.3,-84.5 -345.4,-135.6 -492.1,-445.4 -28.4,-59.9 -53.5,-116.8 -77.8,-171.7 -115.6,-262.3 -203.2,-460.6 -442.3,-460.6 z" /></clipPath><linearGradient
       id="linearGradient226"
       spreadMethod="pad"
       gradientTransform="matrix(2010,0,0,-2010,20126.3,6019.4)"
       gradientUnits="userSpaceOnUse"
       y2="0"
       x2="1"
       y1="0"
       x1="0"><stop
         id="stop222"
         offset="0"
         style="stop-opacity:1;stop-color:#40d5e6" /><stop
         id="stop224"
         offset="1"
         style="stop-opacity:1;stop-color:#5577ff" /></linearGradient><clipPath
       id="clipPath236"
       clipPathUnits="userSpaceOnUse"><path
         id="path234"
         d="m 20340.5,4513.1 -42.4,2.2 c 2.1,39.9 55.6,979.5 432.9,1254.5 413.9,301.7 544.4,625.9 606.5,843.5 73.3,256.5 446,325 461.9,327.8 l 7.3,-41.8 c -3.6,-0.7 -362.4,-66.8 -428.3,-297.6 -63.9,-223.7 -197.9,-556.8 -622.4,-866.2 -361.1,-263.2 -415,-1212.8 -415.5,-1222.4 z" /></clipPath><linearGradient
       id="linearGradient244"
       spreadMethod="pad"
       gradientTransform="matrix(1508.64,0,0,-1508.64,20298.1,5727.1)"
       gradientUnits="userSpaceOnUse"
       y2="0"
       x2="1"
       y1="0"
       x1="0"><stop
         id="stop240"
         offset="0"
         style="stop-opacity:1;stop-color:#40d5e6" /><stop
         id="stop242"
         offset="1"
         style="stop-opacity:1;stop-color:#5577ff" /></linearGradient><clipPath
       id="clipPath254"
       clipPathUnits="userSpaceOnUse"><path
         id="path252"
         d="m 21203.1,9248.5 c -268.1,91.9 -212.4,-424.9 -325.7,-807.3 -113.3,-382.4 -1260.5,-166.8 -779,-1124.4 481.6,-957.6 -609,-320.2 -283.2,-1155.9 325.7,-835.6 28.3,-1729.3 382.4,-1502 354,227.4 198.9,1279.6 567.1,1404.7 368.3,125 428.3,270.8 63.7,610.7 -364.5,340 955.4,677.4 629.7,1363.8 -325.8,686.3 54.8,1104.1 -255,1210.4 z" /></clipPath><linearGradient
       id="linearGradient262"
       spreadMethod="pad"
       gradientTransform="matrix(1756.94,0,0,-1756.94,19753.3,6941.1)"
       gradientUnits="userSpaceOnUse"
       y2="0"
       x2="1"
       y1="0"
       x1="0"><stop
         id="stop258"
         offset="0"
         style="stop-opacity:1;stop-color:#40d5e6" /><stop
         id="stop260"
         offset="1"
         style="stop-opacity:1;stop-color:#5577ff" /></linearGradient><clipPath
       id="clipPath276"
       clipPathUnits="userSpaceOnUse"><path
         id="path274"
         d="M 20971.4,5147.3 20588.6,3694.8 H 19733 l -382.9,1452.5 z" /></clipPath><linearGradient
       id="linearGradient284"
       spreadMethod="pad"
       gradientTransform="matrix(1621.29,0,0,-1621.29,19350.1,4421)"
       gradientUnits="userSpaceOnUse"
       y2="0"
       x2="1"
       y1="0"
       x1="0"><stop
         id="stop280"
         offset="0"
         style="stop-opacity:1;stop-color:#ff9340" /><stop
         id="stop282"
         offset="1"
         style="stop-opacity:1;stop-color:#ffce45" /></linearGradient><clipPath
       id="clipPath294"
       clipPathUnits="userSpaceOnUse"><path
         id="path292"
         d="m 20971.4,5147.3 c 0,0 -842.8,-158.3 -842.8,-1452.5 H 19733 l -382.9,1452.5 z" /></clipPath><linearGradient
       id="linearGradient302"
       spreadMethod="pad"
       gradientTransform="matrix(1621.29,0,0,-1621.29,19350.1,4421)"
       gradientUnits="userSpaceOnUse"
       y2="0"
       x2="1"
       y1="0"
       x1="0"><stop
         id="stop298"
         offset="0"
         style="stop-opacity:1;stop-color:#c97332" /><stop
         id="stop300"
         offset="1"
         style="stop-opacity:1;stop-color:#ffce45" /></linearGradient></defs><g
     transform="matrix(1.3333333,0,0,-1.3333333,0,2666.6667)"
     id="g10"><g
       transform="scale(0.1)"
       id="g12"><g
         transform="scale(1.55834)"
         id="g14"><path
           id="path16"
           style="fill:#fcfcfc;fill-opacity:1;fill-rule:nonzero;stroke:none"
           d="M 16300.2,12834.1 V 0 H 0 v 12834.1 h 16300.2" /></g><path
         id="path18"
         style="fill:#ffba55;fill-opacity:1;fill-rule:nonzero;stroke:none"
         d="m 6836.51,10411.3 c -1.81,0 -184.64,-1.7 -439.72,46.5 -235.43,44.5 -582.61,141.7 -899.51,352.4 -313.78,208.6 -720.68,281.6 -1006.77,306.1 -310.32,26.6 -549.09,3.5 -551.47,3.3 l -1.97,19.7 c 2.39,0.2 243,23.5 555.13,-3.2 288.4,-24.7 698.78,-98.5 1016.05,-309.4 313.98,-208.8 658.22,-305.2 891.72,-349.3 253.25,-47.9 434.49,-46.3 436.3,-46.3 l 0.24,-19.8" /><path
         id="path20"
         style="fill:#ffba55;fill-opacity:1;fill-rule:nonzero;stroke:none"
         d="m 3965.56,11133 c 274.24,-69 499.58,-242.5 759.23,-442.5 203.27,-156.5 433.66,-334 723.49,-485.4 238.13,-124.4 580.28,-173.4 938.73,-134.3 303.46,33.1 565.27,127.3 662.12,236.6 3.79,4.3 7.32,8.6 10.59,12.9 44.04,58.1 39.48,116.2 -13.56,172.5 -763.58,811.6 -1566.37,939.2 -2105.37,903.4 -506.83,-33.8 -881.89,-214.3 -975.23,-263.2 z m 3098.3,-838.8 c -209.13,-236.3 -1097.51,-382.2 -1624.77,-106.7 -291.37,152.3 -522.48,330.3 -726.39,487.3 -265.76,204.7 -495.27,381.4 -776.82,445 l -24.65,5.5 21.85,12.7 c 4.1,2.4 416.67,238.5 1005.51,277.9 345.9,23.1 684.17,-25 1005.42,-143.2 401.38,-147.6 777.06,-405.4 1116.6,-766.3 l -7.22,-6.8 7.22,6.8 c 59.8,-63.5 64.95,-132 14.91,-198 -3.62,-4.8 -7.51,-9.5 -11.66,-14.2" /><path
         id="path22"
         style="fill:#ffba55;fill-opacity:1;fill-rule:nonzero;stroke:none"
         d="m 4880.05,11075.5 -16.4,-11.1 -205.95,302.9 16.39,11.2 205.96,-303" /><path
         id="path24"
         style="fill:#ffba55;fill-opacity:1;fill-rule:nonzero;stroke:none"
         d="m 5127.03,10994.4 -371.07,-342.5 -13.46,14.6 371.07,342.5 13.46,-14.6" /><path
         id="path26"
         style="fill:#ffba55;fill-opacity:1;fill-rule:nonzero;stroke:none"
         d="m 5512.65,10819.2 -19.77,-1.5 -42.41,567.4 19.76,1.4 42.42,-567.3" /><path
         id="path28"
         style="fill:#ffba55;fill-opacity:1;fill-rule:nonzero;stroke:none"
         d="m 6739.97,11227.8 c -2.36,0.8 -240.71,85.8 -544.19,294.1 -280,192.2 -674.63,532 -964.56,1058.8 -336.08,610.6 -701.62,995.7 -949.08,1211.2 -268.12,233.5 -459.22,323.7 -461.11,324.6 l 8.02,17.3 c 1.93,-0.9 194.89,-91.9 464.86,-326.9 248.82,-216.6 616.31,-603.5 954,-1217.1 288.13,-523.5 680.35,-861.1 958.65,-1052.2 301.43,-206.9 537.39,-291 539.73,-291.8 l -6.32,-18" /><path
         id="path30"
         style="fill:#ffba55;fill-opacity:1;fill-rule:nonzero;stroke:none"
         d="m 3836.44,14118.5 c 416.69,-1723.6 1364.46,-2402.4 2086.8,-2668.3 409.79,-150.9 792.1,-187.9 1040.66,-192.3 188.96,-3.4 331.33,10.9 400.13,19.9 -71.31,22.6 -221.46,84.4 -424.43,245.1 -259.79,205.8 -657.97,620.2 -1079.65,1426.1 -419.25,801.2 -949.77,1075.8 -1321.01,1165 -364.43,87.5 -650.24,18.8 -702.5,4.5 z m 3630.51,-2842.8 -53.71,-9.8 c -1.75,-0.3 -177.81,-31.9 -448.84,-27.1 -250.02,4.4 -634.59,41.5 -1046.92,193.2 -463.54,170.5 -866.91,448 -1198.9,824.9 -414.7,470.7 -718.44,1098.5 -902.8,1866 l -2.08,8.7 8.49,2.6 c 3.09,1 314.35,96.1 721.2,-1.7 238.82,-57.4 463.53,-169 667.91,-331.6 255.14,-203.1 479.05,-486.7 665.53,-843.1 420.12,-802.9 816.26,-1215.4 1074.6,-1420 278.78,-220.8 459.86,-252.9 461.66,-253.1 l 53.86,-9" /><path
         id="path32"
         style="fill:#ffba55;fill-opacity:1;fill-rule:nonzero;stroke:none"
         d="m 5364.62,12368 -761.72,33.2 0.83,19.1 761.72,-33.3 -0.83,-19" /><path
         id="path34"
         style="fill:#ffba55;fill-opacity:1;fill-rule:nonzero;stroke:none"
         d="m 5132.8,12786.2 h -19.04 l -1.14,1069.8 h 19.05 l 1.13,-1069.8" /><path
         id="path36"
         style="fill:#ffba55;fill-opacity:1;fill-rule:nonzero;stroke:none"
         d="m 4634.15,13444.4 -616.85,32.2 1,19 616.85,-32.2 -1,-19" /><g
         transform="scale(1.2348)"
         id="g38"><path
           id="path40"
           style="fill:#78c2ff;fill-opacity:1;fill-rule:nonzero;stroke:none"
           d="m 15705.7,12171.4 -233.6,382.5 c -19.2,31.3 -9.3,72.3 22.1,91.5 31.3,19.1 72.3,9.2 91.4,-22.1 l 165.2,-270.6 439.3,260 c 31.6,18.7 72.5,8.3 91.2,-23.4 18.7,-31.6 8.3,-72.4 -23.4,-91.1 l -552.2,-326.8" /></g><g
         transform="scale(1.26531)"
         id="g42"><path
           id="path44"
           style="fill:#78c2ff;fill-opacity:1;fill-rule:nonzero;stroke:none"
           d="m 15480,12825.1 c -387.5,0 -702.8,-315.2 -702.8,-702.8 0,-387.5 315.3,-702.8 702.8,-702.8 387.5,0 702.8,315.3 702.8,702.8 0,387.6 -315.3,702.8 -702.8,702.8 z m 0,-1522.7 c -452.1,0 -820,367.8 -820,819.9 0,452.1 367.9,820 820,820 452.1,0 820,-367.9 820,-820 0,-452.1 -367.9,-819.9 -820,-819.9" /></g><g
         transform="scale(1.03874)"
         id="g46"><path
           id="path48"
           style="fill:#78c2ff;fill-opacity:1;fill-rule:nonzero;stroke:none"
           d="m 15576.9,15937.7 -171.7,281 c -14,23.1 -6.8,53.1 16.3,67.2 23,14.1 53,6.8 67.2,-16.2 l 121.3,-198.7 322.7,190.9 c 23.3,13.8 53.2,6.1 67,-17.1 13.8,-23.3 6.1,-53.3 -17.2,-67 l -405.6,-240.1" /></g><g
         transform="scale(1.06672)"
         id="g50"><path
           id="path52"
           style="fill:#78c2ff;fill-opacity:1;fill-rule:nonzero;stroke:none"
           d="m 15280.6,16214.1 c -284.2,0 -515.3,-231.1 -515.3,-515.2 0,-284 231.1,-515.2 515.3,-515.2 284,0 515.1,231.2 515.1,515.2 0,284.1 -231.1,515.2 -515.1,515.2 z m 0,-1116.2 c -331.5,0 -601.1,269.6 -601.1,601 0,331.5 269.6,601.1 601.1,601.1 331.3,0 601,-269.6 601,-601.1 0,-331.4 -269.7,-601 -601,-601" /></g><g
         transform="scale(1.11716)"
         id="g54"><path
           id="path56"
           style="fill:#78c2ff;fill-opacity:1;fill-rule:nonzero;stroke:none"
           d="m 11532.1,15783.3 -244.8,400.8 c -20,32.9 -9.7,75.8 23.2,95.8 32.9,20.1 75.7,9.7 95.8,-23.1 l 173.1,-283.5 460.3,272.4 c 33.1,19.6 75.9,8.7 95.5,-24.5 19.6,-33.1 8.7,-75.9 -24.5,-95.5 l -578.6,-342.4" /></g><g
         transform="scale(1.16008)"
         id="g58"><path
           id="path60"
           style="fill:#78c2ff;fill-opacity:1;fill-rule:nonzero;stroke:none"
           d="m 11263.8,16178.9 c -400.8,0 -726.8,-326 -726.8,-726.7 0,-400.7 326,-726.7 726.8,-726.7 400.6,0 726.7,326 726.7,726.7 0,400.7 -326.1,726.7 -726.7,726.7 z m 0,-1574.5 c -467.5,0 -847.9,380.3 -847.9,847.8 0,467.5 380.4,847.8 847.9,847.8 467.4,0 847.8,-380.3 847.8,-847.8 0,-467.5 -380.4,-847.8 -847.8,-847.8" /></g><g
         transform="scale(1.0393)"
         id="g62"><path
           id="path64"
           style="fill:#78c2ff;fill-opacity:1;fill-rule:nonzero;stroke:none"
           d="m 9612.74,15933 -173.89,284.7 c -14.26,23.3 -6.89,53.8 16.46,68 23.34,14.3 53.82,6.9 68.09,-16.4 l 122.96,-201.3 326.85,193.4 c 23.57,14 53.99,6.2 67.79,-17.3 14,-23.6 6.2,-54 -17.3,-67.9 L 9612.74,15933" /></g><g
         transform="scale(1.06766)"
         id="g66"><path
           id="path68"
           style="fill:#78c2ff;fill-opacity:1;fill-rule:nonzero;stroke:none"
           d="m 9471.06,16213 c -287.71,0 -521.77,-234 -521.77,-521.7 0,-287.7 234.06,-521.8 521.77,-521.8 287.64,0 521.7,234.1 521.7,521.8 0,287.7 -234.06,521.7 -521.7,521.7 z m 0,-1130.4 c -335.66,0 -608.73,273 -608.73,608.7 0,335.6 273.07,608.7 608.73,608.7 335.59,0 608.74,-273.1 608.74,-608.7 0,-335.7 -273.15,-608.7 -608.74,-608.7" /></g><g
         transform="scale(1.13239)"
         id="g70"><path
           id="path72"
           style="fill:#78c2ff;fill-opacity:1;fill-rule:nonzero;stroke:none"
           d="m 6580.53,15878.3 -199.77,327.1 c -16.4,26.8 -7.93,61.8 18.88,78.2 26.84,16.4 61.85,7.9 78.24,-18.9 l 141.27,-231.3 375.56,222.3 c 27.05,16 61.96,7.1 77.95,-20 16.02,-27 7.07,-61.9 -19.97,-77.9 l -472.16,-279.5" /></g><g
         transform="scale(1.16789)"
         id="g74"><path
           id="path76"
           style="fill:#78c2ff;fill-opacity:1;fill-rule:nonzero;stroke:none"
           d="m 6510.55,16200.5 c -329.24,0 -597.09,-267.9 -597.09,-597.1 0,-329.2 267.85,-597.1 597.09,-597.1 329.24,0 597.1,267.9 597.1,597.1 0,329.2 -267.86,597.1 -597.1,597.1 z m 0,-1293.7 c -384.11,0 -696.6,312.5 -696.6,696.6 0,384.1 312.49,696.6 696.6,696.6 384.12,0 696.61,-312.5 696.61,-696.6 0,-384.1 -312.49,-696.6 -696.61,-696.6" /></g><g
         transform="scale(1.02261)"
         id="g78"><path
           id="path80"
           style="fill:#78c2ff;fill-opacity:1;fill-rule:nonzero;stroke:none"
           d="m 4468.95,15782.3 -245.27,401.6 c -20.11,32.9 -9.71,75.9 23.21,96 32.93,20.1 75.92,9.7 96.04,-23.2 l 173.44,-284 461.06,272.9 c 33.21,19.7 76.05,8.7 95.71,-24.5 19.65,-33.2 8.66,-76.1 -24.55,-95.7 l -579.64,-343.1" /></g><g
         transform="scale(1.06197)"
         id="g82"><path
           id="path84"
           style="fill:#78c2ff;fill-opacity:1;fill-rule:nonzero;stroke:none"
           d="m 4461.88,16178.7 c -401.41,0 -727.99,-326.6 -727.99,-728 0,-401.4 326.58,-728 727.99,-728 401.42,0 727.99,326.6 727.99,728 0,401.4 -326.57,728 -727.99,728 z m 0,-1577.4 c -468.31,0 -849.32,381 -849.32,849.4 0,468.3 381.01,849.3 849.32,849.3 468.32,0 849.34,-381 849.34,-849.3 0,-468.4 -381.02,-849.4 -849.34,-849.4" /></g><g
         transform="scale(1.14679)"
         id="g86"><path
           id="path88"
           style="fill:#78c2ff;fill-opacity:1;fill-rule:nonzero;stroke:none"
           d="m 15983.7,15545.6 -124.3,203.6 c -10.2,16.7 -5,38.5 11.7,48.7 16.7,10.2 38.5,4.9 48.7,-11.8 l 87.9,-144 233.8,138.4 c 16.9,10 38.6,4.4 48.6,-12.5 9.9,-16.8 4.3,-38.5 -12.5,-48.5 l -293.9,-173.9" /></g><g
         transform="scale(1.16188)"
         id="g90"><path
           id="path92"
           style="fill:#78c2ff;fill-opacity:1;fill-rule:nonzero;stroke:none"
           d="m 15858.6,15853.7 c -208.7,0 -378.4,-169.7 -378.4,-378.3 0,-208.7 169.7,-378.4 378.4,-378.4 208.6,0 378.3,169.7 378.3,378.4 0,208.6 -169.7,378.3 -378.3,378.3 z m 0,-819.8 c -243.4,0 -441.5,198.1 -441.5,441.5 0,243.4 198.1,441.4 441.5,441.4 243.4,0 441.4,-198 441.4,-441.4 0,-243.4 -198,-441.5 -441.4,-441.5" /></g><path
         id="path94"
         style="fill:#8f8f8f;fill-opacity:1;fill-rule:nonzero;stroke:none"
         d="m 11152.8,3597.1 h 1414.6 V 7893.7 H 11152.8 V 3597.1" /><g
         transform="scale(1.1023)"
         id="g96"><path
           id="path98"
           style="fill:#f0f0f0;fill-opacity:1;fill-rule:nonzero;stroke:none"
           d="m 5782.42,5283.5 h 9954.08 c 311.2,0 563.5,252.29 563.5,563.54 v 6690.06 c 0,311.2 -252.3,563.6 -563.5,563.6 H 5782.42 c -311.26,0 -563.6,-252.4 -563.6,-563.6 V 5847.04 c 0,-311.25 252.34,-563.54 563.6,-563.54" /></g><g
         transform="scale(1.07295)"
         id="g100"><path
           id="path102"
           style="fill:#ffffff;fill-opacity:1;fill-rule:nonzero;stroke:none"
           d="M 5807.43,6686.51 H 16300 V 14313.8 H 5807.43 V 6686.51" /></g><g
         id="g104"><g
           clip-path="url(#clipPath110)"
           id="g106"><g
             transform="scale(1.07295)"
             id="g112"><path
               id="path120"
               style="fill:url(#linearGradient118);fill-opacity:1;fill-rule:nonzero;stroke:none"
               d="M 5807.43,13392.6 H 16300 v 921.2 H 5807.43 v -921.2" /></g></g></g><g
         transform="scale(1.04575)"
         id="g122"><path
           id="path124"
           style="fill:#cccccc;fill-opacity:1;fill-rule:nonzero;stroke:none"
           d="m 15413.9,6269.58 c 0,-208.08 198.4,-376.76 443.1,-376.76 244.7,0 443,168.68 443,376.76 0,208.08 -198.3,376.76 -443,376.76 -244.7,0 -443.1,-168.68 -443.1,-376.76" /></g><path
         id="path126"
         style="fill:#cccccc;fill-opacity:1;fill-rule:nonzero;stroke:none"
         d="M 15042.1,3435 H 8678.14 v 324.3 H 15042.1 V 3435" /><path
         id="path128"
         style="fill:#f5f7ff;fill-opacity:1;fill-rule:nonzero;stroke:none"
         d="M 8172.74,14677 H 6835.57 c -74.15,0 -134.27,60.2 -134.27,134.3 v 105 c 0,74.1 60.12,134.2 134.27,134.2 h 1337.17 c 74.16,0 134.27,-60.1 134.27,-134.2 v -105 c 0,-74.1 -60.11,-134.3 -134.27,-134.3" /><path
         id="path130"
         style="fill:#e6e6e6;fill-opacity:1;fill-rule:nonzero;stroke:none"
         d="M 11744.7,12919.4 H 7055.91 v 202.6 h 4688.79 v -202.6" /><path
         id="path132"
         style="fill:#e6e6e6;fill-opacity:1;fill-rule:nonzero;stroke:none"
         d="M 12416,12554.5 H 7055.91 v 202.6 H 12416 v -202.6" /><path
         id="path134"
         style="fill:#e6e6e6;fill-opacity:1;fill-rule:nonzero;stroke:none"
         d="M 12950.2,11826.4 H 7055.91 v 202.6 h 5894.29 v -202.6" /><path
         id="path136"
         style="fill:#78c2ff;fill-opacity:1;fill-rule:nonzero;stroke:none"
         d="M 12027.2,13327.2 H 7055.91 v 202.6 h 4971.29 v -202.6" /><path
         id="path138"
         style="fill:#e6e6e6;fill-opacity:1;fill-rule:nonzero;stroke:none"
         d="M 11427.6,11461.5 H 7055.91 v 202.6 h 4371.69 v -202.6" /><path
         id="path140"
         style="fill:#e6e6e6;fill-opacity:1;fill-rule:nonzero;stroke:none"
         d="M 9827.94,10668.6 H 7055.91 v 202.6 h 2772.03 v -202.6" /><path
         id="path142"
         style="fill:#e6e6e6;fill-opacity:1;fill-rule:nonzero;stroke:none"
         d="M 12036.1,10303.7 H 7055.91 v 202.6 h 4980.19 v -202.6" /><path
         id="path144"
         style="fill:#e6e6e6;fill-opacity:1;fill-rule:nonzero;stroke:none"
         d="M 10599.6,9431.7 H 7055.91 v 202.7 h 3543.69 v -202.7" /><path
         id="path146"
         style="fill:#e6e6e6;fill-opacity:1;fill-rule:nonzero;stroke:none"
         d="M 11383.1,9066.8 H 7055.91 v 202.7 h 4327.19 v -202.7" /><path
         id="path148"
         style="fill:#e6e6e6;fill-opacity:1;fill-rule:nonzero;stroke:none"
         d="M 11792.7,8194.9 H 7055.91 v 202.6 h 4736.79 v -202.6" /><path
         id="path150"
         style="fill:#e6e6e6;fill-opacity:1;fill-rule:nonzero;stroke:none"
         d="M 9545.99,7830 H 7055.91 v 202.6 H 9545.99 V 7830" /><path
         id="path152"
         style="fill:#78c2ff;fill-opacity:1;fill-rule:nonzero;stroke:none"
         d="m 6768.27,12554.5 h 148.12 v 567.5 h -148.12 v -567.5" /><path
         id="path154"
         style="fill:#78c2ff;fill-opacity:1;fill-rule:nonzero;stroke:none"
         d="m 6768.27,11461.5 h 148.12 v 567.5 h -148.12 v -567.5" /><path
         id="path156"
         style="fill:#78c2ff;fill-opacity:1;fill-rule:nonzero;stroke:none"
         d="m 6768.27,10303.7 h 148.12 v 567.5 h -148.12 v -567.5" /><path
         id="path158"
         style="fill:#78c2ff;fill-opacity:1;fill-rule:nonzero;stroke:none"
         d="m 6768.27,9066.8 h 148.12 v 567.6 h -148.12 v -567.6" /><path
         id="path160"
         style="fill:#78c2ff;fill-opacity:1;fill-rule:nonzero;stroke:none"
         d="m 6768.27,7830 h 148.12 v 567.5 H 6768.27 V 7830" /><path
         id="path162"
         style="fill:#78c2ff;fill-opacity:1;fill-rule:nonzero;stroke:none"
         d="m 14907.8,7707.9 h -472.1 c -93.9,0 -169.9,76 -169.9,169.8 v 472.1 c 0,93.9 76,169.9 169.9,169.9 h 472.1 c 93.8,0 169.8,-76 169.8,-169.9 v -472.1 c 0,-93.8 -76,-169.8 -169.8,-169.8" /><path
         id="path164"
         style="fill:#f3f3f3;fill-opacity:1;fill-rule:nonzero;stroke:none"
         d="m 14646,7935 -205.2,178.9 c -16.9,14.7 -18.6,40.2 -3.9,57 14.6,16.9 40.2,18.6 57,3.9 l 145.1,-126.5 207,230.9 c 14.9,16.6 40.5,18 57.1,3.1 16.6,-14.9 18,-40.5 3.1,-57.1 L 14646,7935" /><path
         id="path166"
         style="fill:#78c2ff;fill-opacity:1;fill-rule:nonzero;stroke:none"
         d="m 14450.4,9705.4 c -73.6,0 -133.5,-59.9 -133.5,-133.5 v -442.6 c 0,-73.6 59.9,-133.5 133.5,-133.5 h 442.6 c 73.6,0 133.5,59.9 133.5,133.5 v 442.6 c 0,73.6 -59.9,133.5 -133.5,133.5 z m 442.6,-761.1 h -442.6 c -102,0 -185,83 -185,185 v 442.6 c 0,102 83,185 185,185 h 442.6 c 102,0 185,-83 185,-185 v -442.6 c 0,-102 -83,-185 -185,-185" /><g
         transform="scale(1.00002)"
         id="g168"><path
           id="path170"
           style="fill:#78c2ff;fill-opacity:1;fill-rule:nonzero;stroke:none"
           d="m 15672.3,10941.9 c -73.5,0 -133.5,-59.8 -133.5,-133.5 v -442.5 c 0,-73.6 60,-133.5 133.5,-133.5 h 442.7 c 73.6,0 133.4,59.9 133.4,133.5 v 442.5 c 0,73.7 -59.8,133.5 -133.4,133.5 z m 442.7,-761 h -442.7 c -102,0 -185,82.9 -185,185 v 442.5 c 0,102.1 83,185.1 185,185.1 h 442.7 c 102,0 185,-83 185,-185.1 v -442.5 c 0,-102.1 -83,-185 -185,-185" /></g><g
         transform="scale(1.00002)"
         id="g172"><path
           id="path174"
           style="fill:#78c2ff;fill-opacity:1;fill-rule:nonzero;stroke:none"
           d="m 15672.3,8468.39 c -73.5,0 -133.5,-59.9 -133.5,-133.49 v -442.59 c 0,-73.6 60,-133.5 133.5,-133.5 h 442.7 c 73.6,0 133.4,59.9 133.4,133.5 v 442.59 c 0,73.59 -59.8,133.49 -133.4,133.49 z m 442.7,-761.08 h -442.7 c -102,0 -185,83 -185,185 v 442.59 c 0,101.99 83,184.99 185,184.99 h 442.7 c 102,0 185,-83 185,-184.99 v -442.59 c 0,-102 -83,-185 -185,-185" /></g><path
         id="path176"
         style="fill:#78c2ff;fill-opacity:1;fill-rule:nonzero;stroke:none"
         d="M 16130.1,8944.7 H 15658 c -93.8,0 -169.9,76 -169.9,169.9 v 472.1 c 0,93.8 76.1,169.8 169.9,169.8 h 472.1 c 93.8,0 169.9,-76 169.9,-169.8 v -472.1 c 0,-93.9 -76.1,-169.9 -169.9,-169.9" /><path
         id="path178"
         style="fill:#f3f3f3;fill-opacity:1;fill-rule:nonzero;stroke:none"
         d="m 15868.3,9171.8 -205.2,178.9 c -16.8,14.7 -18.6,40.2 -3.9,57 14.7,16.9 40.2,18.6 57,4 l 145.2,-126.6 206.9,230.9 c 14.9,16.6 40.5,18 57.1,3.1 16.7,-14.9 18,-40.5 3.1,-57.1 l -260.2,-290.2" /><path
         id="path180"
         style="fill:#78c2ff;fill-opacity:1;fill-rule:nonzero;stroke:none"
         d="m 14907.8,10181.5 h -472.1 c -93.9,0 -169.9,76.1 -169.9,169.9 v 472.1 c 0,93.8 76,169.8 169.9,169.8 h 472.1 c 93.8,0 169.8,-76 169.8,-169.8 v -472.1 c 0,-93.8 -76,-169.9 -169.8,-169.9" /><path
         id="path182"
         style="fill:#f3f3f3;fill-opacity:1;fill-rule:nonzero;stroke:none"
         d="m 14646,10408.6 -205.2,178.9 c -16.9,14.7 -18.6,40.2 -3.9,57.1 14.6,16.8 40.2,18.5 57,3.9 l 145.1,-126.6 207,230.9 c 14.9,16.6 40.5,18 57.1,3.1 16.6,-14.9 18,-40.5 3.1,-57.1 l -260.2,-290.2" /><g
         transform="scale(1.01098)"
         id="g184"><path
           id="path186"
           style="fill:#eef0f7;fill-opacity:1;fill-rule:nonzero;stroke:none"
           d="m 16300,12518.3 c 0,-289.9 -104.3,-555.4 -277.3,-761.1 -222.9,-265.1 -551.1,-422 -905.8,-422 -375.6,0 -717.4,176.2 -936.2,459.7 -154.8,200 -247,450.9 -247,723.4 0,653.4 529.8,1183.1 1183.2,1183.1 653.4,0 1183.1,-529.7 1183.1,-1183.1" /></g><path
         id="path188"
         style="fill:#78c2ff;fill-opacity:1;fill-rule:nonzero;stroke:none"
         d="m 16138.4,12014.4 c -4.4,4.4 -14.3,8.1 -20.1,11.8 -0.3,0.3 -0.7,0.5 -1.1,0.8 v -0.1 c -52.5,29 -206.4,105.4 -510,192.5 0,0 -0.1,0.1 -0.2,0.1 -55.1,16.8 -96.7,27.7 -111,31.3 l -25.7,41 c -4.2,41.3 -3.4,102.8 -2.1,144 42.7,49.6 81.3,127.1 103,248 6.9,-5.2 12.3,6.2 12.3,6.2 -3.9,6.8 57.7,157.1 46.6,190.9 -6.3,19.3 -19.1,16.9 -29,11.3 1.4,8.7 3,17.8 4.5,27.5 0,0 24.4,230.4 -92.2,358.8 -12.1,11.6 -55,14.4 -55,14.4 -187.3,57.4 -299.7,31.8 -370,1.7 -104.3,-85.5 -112.2,-230.9 -107.5,-311 2.1,-18.9 4.3,-38 6.4,-56.6 0.1,-0.4 0.1,-0.5 0.1,-0.5 0.9,-7.5 1.8,-14.6 2.6,-21.8 -9.7,6 -22.5,9.1 -29.6,-10 -12.4,-33.4 33.1,-183.4 38.8,-192.7 0,0 9.8,-15.4 17.5,-8.4 0,0 0.1,0.3 0.1,0.3 21.5,-131.8 60.3,-213.3 101,-263.3 -2.9,-53.5 -10.7,-116.4 -16.1,-156.6 l -46.3,-48.4 v 0 0 c -2.4,-0.8 -4.9,-1.6 -7.4,-2.5 0,0.2 0,0.3 0,0.3 -523.5,-139.7 -671.5,-236.9 -671.5,-236.9 -13.2,-8.1 -26.6,-29.8 -40.1,-62.1 218.8,-283.5 562.8,-464.8 946.5,-464.8 357.9,0 689.9,158.1 915.8,426.7 -22.6,55 -38.8,106.7 -60.3,128.1" /><g
         id="g190"><g
           clip-path="url(#clipPath196)"
           id="g192"><g
             transform="scale(1.2711)"
             id="g198"><path
               id="path206"
               style="fill:url(#linearGradient204);fill-opacity:1;fill-rule:nonzero;stroke:none"
               d="m 14703.7,8021.92 c 150.8,72.11 300.9,-407.91 300.9,-407.91 256.2,-338.6 614.4,111.87 579.4,-394.3 -61.3,-885.85 1019.6,-278.58 520.9,-1203.36 -498.6,-924.87 440.3,-522.94 130.4,-1268.67 -309.9,-745.65 91.8,-1635.03 -374.4,-1269.6 0,0 -410.6,900.32 -834,1178.89 -423.5,278.58 253.6,609.08 121.2,987.41 -192.4,549.53 -656.1,527.97 -321.8,1118.48 334.3,590.51 -635.1,1013.92 -122.6,1259.06" /></g></g></g><g
         transform="scale(1.24987)"
         id="g208"><path
           id="path210"
           style="fill:#ffffff;fill-opacity:1;fill-rule:nonzero;stroke:none"
           d="m 16280.4,3881.76 c -205.5,144.58 -446,1151.96 -460.4,1751.94 -7.3,307.31 -98.2,435.41 -178.4,548.38 -76.6,108.01 -142.8,201.22 -104.2,415.4 73.6,409.24 -120.1,585.9 -122,587.58 l 22.4,25.6 c 8.7,-7.6 210.4,-189.78 133,-619.26 -36,-200.02 23.4,-283.71 98.6,-389.64 78.8,-111.13 177,-249.55 184.6,-567.26 15.4,-643.9 261.3,-1595.04 446,-1724.9 l -19.6,-27.84" /></g><g
         id="g212"><g
           clip-path="url(#clipPath218)"
           id="g214"><g
             transform="scale(1.3581)"
             id="g220"><path
               id="path228"
               style="fill:url(#linearGradient226);fill-opacity:1;fill-rule:nonzero;stroke:none"
               d="m 15967.7,5274.29 c -34.8,-19 -63.8,-49.41 -97.4,-84.61 -84.1,-88.06 -188.7,-197.63 -453.8,-198.88 -132,-0.59 -205.9,-17.82 -239.7,-55.74 -36.9,-41.53 -28.9,-113.39 -17.7,-213.02 4.2,-37.55 9,-80.11 11.9,-126.42 18,-284.74 -145.3,-483.69 -152.2,-492.09 -94.9,-113.02 -202.4,-337.97 -157.5,-466.46 17.4,-49.99 57.4,-81.66 118.8,-94.03 213.9,-43.22 273,90.65 370.9,312.43 17.8,40.64 36.4,82.68 57.5,127.23 113.4,239.31 219.2,280.84 379.2,343.65 38.5,15.09 82,32.17 129.6,53.53 202.3,90.93 165.8,215.81 127.1,347.98 -5.5,18.93 -11,37.77 -15.8,56.4 -24.3,95.21 23.7,144.18 84.5,206.25 43.7,44.62 93.3,95.2 132.5,177.09 20.5,43 37.5,101.31 1.5,135.33 -47.2,44.84 -167.4,32.55 -279.4,-28.64 z m -913.9,-1770.57 c -24.4,0 -50.9,2.8 -80,8.69 -72.9,14.73 -120.7,53.17 -142,114.28 -51.1,145.87 67.1,382.74 163,496.94 1.6,1.92 162.1,198.08 145,470 -2.9,45.58 -7.6,87.77 -11.8,124.95 -12,107.58 -20.8,185.34 25.5,237.32 40.7,45.73 119.3,65.53 262.8,66.2 251.8,1.18 351.3,105.44 431.4,189.16 33.9,35.64 66,69.21 105,90.49 v 0 c 125.4,68.48 258.4,78.57 315.9,23.93 27.4,-25.99 50.5,-76.8 5.2,-171.56 -41.5,-86.59 -95.1,-141.45 -138.4,-185.55 -58.1,-59.28 -96.4,-98.45 -76.5,-176.5 4.7,-18.34 10.1,-36.82 15.6,-55.45 38.8,-132.68 82.7,-283.19 -144.4,-385.24 -48.3,-21.72 -92.1,-38.95 -130.9,-54.12 -158.6,-62.22 -254.4,-99.85 -362.4,-327.96 -20.9,-44.1 -39.4,-86 -57.3,-126.43 -85.1,-193.13 -149.6,-339.15 -325.7,-339.15" /></g></g></g><g
         id="g230"><g
           clip-path="url(#clipPath236)"
           id="g232"><g
             transform="scale(1.33783)"
             id="g238"><path
               id="path246"
               style="fill:url(#linearGradient244);fill-opacity:1;fill-rule:nonzero;stroke:none"
               d="m 15204,3373.44 -31.6,1.64 c 1.5,29.83 41.5,732.16 323.5,937.71 309.4,225.51 407,467.85 453.4,630.5 54.8,191.73 333.4,242.93 345.2,245.02 l 5.5,-31.24 c -2.7,-0.53 -270.9,-49.94 -320.1,-222.45 -47.8,-167.21 -148,-416.2 -465.3,-647.47 -269.9,-196.73 -310.2,-906.54 -310.6,-913.71" /></g></g></g><g
         id="g248"><g
           clip-path="url(#clipPath254)"
           id="g250"><g
             transform="scale(1.31969)"
             id="g256"><path
               id="path264"
               style="fill:url(#linearGradient262);fill-opacity:1;fill-rule:nonzero;stroke:none"
               d="m 16066.7,7008.07 c -203.2,69.64 -161,-321.97 -246.8,-611.74 -85.9,-289.76 -955.2,-126.39 -590.3,-852.01 364.9,-725.62 -461.5,-242.63 -214.6,-875.89 246.8,-633.17 21.4,-1310.38 289.8,-1138.14 268.2,172.31 150.7,969.62 429.7,1064.42 279.1,94.71 324.5,205.19 48.3,462.75 -276.2,257.64 723.9,513.3 477.1,1033.43 -246.9,520.04 41.5,836.63 -193.2,917.18" /></g></g></g><g
         transform="scale(1.29253)"
         id="g266"><path
           id="path268"
           style="fill:#ffffff;fill-opacity:1;fill-rule:nonzero;stroke:none"
           d="m 15753.4,3635.49 c -26.1,110.64 -248.9,1084.62 -40.9,1202.37 183.2,103.75 178.7,507.38 150.1,888.49 -25.3,337.32 407.9,495 426.4,501.57 l 11,-30.94 c -4.3,-1.55 -428.1,-155.9 -404.6,-468.23 29.3,-391.33 32.5,-806.71 -166.8,-919.51 -157.9,-89.36 -12.5,-872.17 56.8,-1166.24 l -32,-7.51" /></g><g
         id="g270"><g
           clip-path="url(#clipPath276)"
           id="g272"><g
             transform="scale(1.28659)"
             id="g278"><path
               id="path286"
               style="fill:url(#linearGradient284);fill-opacity:1;fill-rule:nonzero;stroke:none"
               d="m 16300,4000.73 -297.5,-1128.95 h -665 l -297.7,1128.95 H 16300" /></g></g></g><g
         id="g288"><g
           clip-path="url(#clipPath294)"
           id="g290"><g
             transform="scale(1.28659)"
             id="g296"><path
               id="path304"
               style="fill:url(#linearGradient302);fill-opacity:1;fill-rule:nonzero;stroke:none"
               d="m 16300,4000.73 c 0,0 -655.1,-123.03 -655.1,-1128.95 h -307.4 l -297.7,1128.95 H 16300" /></g></g></g><path
         id="path306"
         style="fill:#3c4169;fill-opacity:1;fill-rule:nonzero;stroke:none"
         d="m 7578.99,8217.7 c 0,0 37.59,-682 -87.55,-782 -57.85,-46.2 -194.24,-60.7 -341.58,-60.9 -48.53,-0.1 -98.23,1.5 -146.73,3.9 -0.11,0 -0.18,0 -0.18,0 -193.64,9.7 -367.47,34.3 -367.47,34.3 0,0 -502.04,-25.5 -477.48,286 0,0 58.46,94.3 133.43,115.8 69.22,19.8 385.43,-34.7 440.28,-37.1 60.43,-2.7 488.94,-97.9 507.32,-91.1 18.39,6.8 67.63,174.8 70.65,287.4 4.35,162.7 3.71,312.5 3.71,312.5 l 265.6,-68.8" /><path
         id="path308"
         style="fill:#252840;fill-opacity:1;fill-rule:nonzero;stroke:none"
         d="m 4918.41,1740.8 c 0,0 -42.16,-101.6 -77.7,-141.9 -35.53,-40.2 -171.61,-112.2 -172.34,-231.8 -0.8,-129.8 229.38,-93.8 319.41,-89 90.02,4.7 96.83,74 134.74,147.5 37.9,73.4 76.1,61 83.21,120.2 7.11,59.2 -29.02,191.8 -29.02,191.8 l -258.3,3.2" /><path
         id="path310"
         style="fill:#252840;fill-opacity:1;fill-rule:nonzero;stroke:none"
         d="m 6720.55,1717.5 c 0,0 125.4,-131.6 252.7,-159.2 127.31,-27.6 216.36,-62.8 217.32,-138.4 0.95,-75.5 -366.36,-125.3 -512.04,-49.1 -217.44,113.6 -239.54,79.4 -263.65,136.2 -24.1,56.8 28.96,208.8 27.4,226.9 -1.94,22.3 278.27,-16.4 278.27,-16.4" /><path
         id="path312"
         style="fill:#292c47;fill-opacity:1;fill-rule:nonzero;stroke:none"
         d="m 6705.63,5519.9 c 0,0 131.71,-956.7 185.5,-1280.1 62.89,-378.2 84.22,-690.6 101.76,-886.4 22.06,-246.2 -208.75,-1570.5 -193.31,-1642.5 15.45,-72 -415.6,29.9 -415.6,29.9 0,0 135.43,1575.8 69.72,1838 -61.18,244.1 -281.93,1317.2 -337.76,1250.5 -55.83,-66.6 -406.4,-1244.2 -447.75,-1436.7 -41.34,-192.5 -440.05,-1699.9 -440.05,-1699.9 0,0 -298,-64.1 -373.8,-3.7 0,0 260.04,1384.8 286.39,1745.8 10.04,137.6 91.56,1640.1 324.18,2248.7 122.94,321.7 1240.72,-163.6 1240.72,-163.6" /><path
         id="path314"
         style="fill:#c4b4af;fill-opacity:1;fill-rule:nonzero;stroke:none"
         d="m 3265.27,8167.5 24.16,359.3 c 4.97,73.9 68.89,129.8 142.76,124.8 l 770.89,-51.8 c 73.87,-5 129.74,-68.9 124.77,-142.8 l -24.16,-359.3 c -4.97,-73.9 -68.88,-129.8 -142.75,-124.8 l -770.89,51.8 c -73.88,5 -129.74,68.9 -124.78,142.8" /><path
         id="path316"
         style="fill:#eb4747;fill-opacity:1;fill-rule:nonzero;stroke:none"
         d="m 3792.46,7975.1 45.17,671.8 5041.14,-338.9 -45.17,-671.8 -5041.14,338.9" /><path
         id="path318"
         style="fill:#6880eb;fill-opacity:1;fill-rule:nonzero;stroke:none"
         d="M 8863.72,8084.1 3822.57,8423 3837.63,8646.9 8878.77,8308 8863.72,8084.1" /><path
         id="path320"
         style="fill:#4a64e0;fill-opacity:1;fill-rule:nonzero;stroke:none"
         d="m 3807.52,8199 15.05,224 5041.14,-338.9 -15.05,-224 -5041.14,338.9" /><path
         id="path322"
         style="fill:#4860cf;fill-opacity:1;fill-rule:nonzero;stroke:none"
         d="m 3792.46,7975.1 15.06,223.9 5041.14,-338.9 -15.06,-223.9 -5041.14,338.9" /><path
         id="path324"
         style="fill:#eddad3;fill-opacity:1;fill-rule:nonzero;stroke:none"
         d="m 8833.6,7636.2 45.17,671.8 729.76,-317.5 187.66,-81.6 -196.9,-55.8 -765.69,-216.9" /><path
         id="path326"
         style="fill:#deccc6;fill-opacity:1;fill-rule:nonzero;stroke:none"
         d="m 8863.72,8084.1 c -59.96,4 -105.18,57.4 -101.01,119.2 4.16,61.9 56.11,108.7 116.06,104.7 l -15.05,-223.9" /><path
         id="path328"
         style="fill:#e3d1ca;fill-opacity:1;fill-rule:nonzero;stroke:none"
         d="m 8848.66,7860.1 c -59.96,4.1 -105.16,57.5 -101.01,119.3 4.16,61.8 56.11,108.7 116.07,104.7 l -15.06,-224" /><path
         id="path330"
         style="fill:#eddad3;fill-opacity:1;fill-rule:nonzero;stroke:none"
         d="m 8833.6,7636.2 c -59.96,4 -105.16,57.4 -101,119.3 4.15,61.8 56.1,108.7 116.06,104.6 l -15.06,-223.9" /><path
         id="path332"
         style="fill:#b39696;fill-opacity:1;fill-rule:nonzero;stroke:none"
         d="m 3958.97,8413.8 -309.77,20.8 15.06,224 309.77,-20.9 -15.06,-223.9" /><path
         id="path334"
         style="fill:#dbb8b8;fill-opacity:1;fill-rule:nonzero;stroke:none"
         d="m 3634.15,8210.7 15.06,223.9 309.76,-20.8 -15.04,-223.9 -309.78,20.8" /><path
         id="path336"
         style="fill:#f2cbcb;fill-opacity:1;fill-rule:nonzero;stroke:none"
         d="m 3619.09,7986.8 15.06,223.9 309.78,-20.8 -15.06,-224 -309.78,20.9" /><path
         id="path338"
         style="fill:#deccc6;fill-opacity:1;fill-rule:nonzero;stroke:none"
         d="M 8863.72,8084.1 9796.19,7908.9 8878.77,8308 Z" /><path
         id="path340"
         style="fill:#e3d1ca;fill-opacity:1;fill-rule:nonzero;stroke:none"
         d="m 8848.66,7860.1 947.53,48.8 -932.47,175.2 z" /><path
         id="path342"
         style="fill:#eddad3;fill-opacity:1;fill-rule:nonzero;stroke:none"
         d="m 8848.66,7860.1 947.53,48.8 -962.59,-272.7 z" /><path
         id="path344"
         style="fill:#323438;fill-opacity:1;fill-rule:nonzero;stroke:none"
         d="m 9599.29,7853.1 9.24,137.4 187.66,-81.6 z" /><path
         id="path346"
         style="fill:#efaa88;fill-opacity:1;fill-rule:nonzero;stroke:none"
         d="m 7364.77,8442.1 c 0,0 -26.16,-116 -1.03,-148.2 25.12,-32.2 36.9,9.1 36.9,9.1 0,0 -12.35,-40.6 19.38,-54.2 31.73,-13.7 42.93,35.4 42.93,35.4 0,0 -1,-33.4 34.82,-35.2 35.81,-1.8 35.74,41.2 35.74,41.2 0,0 24.97,-48.2 54.01,-14.9 49.03,56.4 29.52,141.8 29.52,141.8 0,0 -6.66,20.2 -41.21,19.5 0,0 -12.99,50.6 -68.56,30.1 0,0 -44.69,40.5 -72.03,-0.4 0,0 -50.1,40.5 -70.47,-24.2" /><path
         id="path348"
         style="fill:#ffad55;fill-opacity:1;fill-rule:nonzero;stroke:none"
         d="m 4973.07,5535.8 c 0,0 163.52,-49.7 231.98,-37.1 68.56,12.5 33.87,852.8 36.57,1027.6 2.07,141.8 79.68,516.2 79.68,516.2 0,0 0,-0.2 0.11,-0.6 0.09,-0.1 0.09,-0.3 0.09,-0.4 0,-0.2 0.11,-0.4 0.11,-0.6 7.69,-28.1 112.4,-416.6 116.05,-603.3 3.83,-193.7 -25.25,-934.9 -25.25,-934.9 l 288.63,-28.1 829.54,-20.3 173.04,20.4 c 0,0 -20.67,316.9 -28.36,467.5 -4.78,95.6 -23.38,267 -18.6,433.8 0,0 -3.01,175.9 14.44,251.6 1.88,334.3 22.13,665.4 22.13,665.4 11.22,151.6 19.02,293.3 23.48,425.5 -36.56,19.4 -80.51,42 -115.72,58.7 -108.88,51.9 -260.56,121.7 -357.9,166.4 -57.04,26.1 -112.83,45.2 -112.83,45.2 0,0 -389.05,37.3 -420.63,35.4 -9.97,-0.7 -58.59,-17.6 -122.38,-41.9 -137.96,-52.4 -403.91,-159 -446.3,-189.4 -62.12,-44.5 -193.44,-1101.2 -199.36,-1175.2 -10.7,-133.2 31.48,-1081.9 31.48,-1081.9" /><path
         id="path350"
         style="fill:#1d2033;fill-opacity:1;fill-rule:nonzero;stroke:none"
         d="m 6678.64,5607.1 c 0,0 -569.35,-48.5 -1068.01,0 v -163.6 c 0,0 748.88,-108.1 1092.99,31.2 l -24.98,132.4" /><path
         id="path352"
         style="fill:#3c4169;fill-opacity:1;fill-rule:nonzero;stroke:none"
         d="m 6193.04,7965.1 c 0,0 92.6,-217.6 162.11,-703.9 26.7,-186.8 76.19,-501.2 112.13,-822.1 v -0.1 c 28.35,-253 93.08,-512.6 113.65,-706.3 21.3,-200.6 85.5,-791.6 85.5,-791.6 l 155.73,98.2 c 22.22,20.6 53.4,47.3 44.35,76.1 -42.8,138.3 -124.76,595.4 -173.17,993.8 0,0.3 -0.11,0.5 -0.11,0.8 -2.28,19.3 -4.57,38.3 -6.75,57.2 -0.1,0.9 -0.21,2 -0.31,3 -9.15,79.7 -16.73,156 -22.13,226 -4.16,53.6 -0.42,105.9 6.97,157.1 21.7,357.7 32.47,734.7 32.47,734.7 11.43,154.3 39.75,354.1 44.12,488.5 -54.23,7.2 -94.41,14.5 -137.98,27.6 0,0 -306.94,114.7 -416.58,161" /><path
         id="path354"
         style="fill:#eea987;fill-opacity:1;fill-rule:nonzero;stroke:none"
         d="m 5993.78,8992.2 c 0,0 288.88,-48.7 239.88,-501 -49,-452.3 -303.99,-412.4 -321.06,-411.7 -17.06,0.6 -256.48,-5.5 -269.11,547.5 0,0 -3.69,408.8 350.29,365.2" /><path
         id="path356"
         style="fill:#eea987;fill-opacity:1;fill-rule:nonzero;stroke:none"
         d="m 6120.35,8210.6 c 0,0 -0.04,-186.4 7.62,-226.7 8.23,-43.4 -231.96,-168.7 -387.03,-22.7 0,0 31.35,203.5 21.62,275.3 -9.74,71.9 357.79,-25.9 357.79,-25.9" /><path
         id="path358"
         style="fill:#eea987;fill-opacity:1;fill-rule:nonzero;stroke:none"
         d="m 6234.79,8596.5 c 0,0 32.05,33.5 43.3,-0.9 11.25,-34.4 -40.63,-179.7 -47.31,-193.7 0,0 -5.93,-13.2 -13.46,-5.8 -7.53,7.4 17.47,200.4 17.47,200.4" /><path
         id="path360"
         style="fill:#eea987;fill-opacity:1;fill-rule:nonzero;stroke:none"
         d="m 5646.81,8631.2 c 0,0 -30.66,34.8 -43.31,0.9 -12.66,-33.9 33.54,-186.1 39.3,-195.5 0,0 9.94,-15.6 17.77,-8.5 7.82,7 -13.76,203.1 -13.76,203.1" /><path
         id="path362"
         style="fill:#d88a51;fill-opacity:1;fill-rule:nonzero;stroke:none"
         d="m 6258,8657.5 c -9.95,-61.9 -19.36,-107.9 -19.36,-107.9 l -42.04,-54.9 c 0,0 2.48,121.4 -3.93,140.5 -2.44,7.2 -5.3,20 -8.25,33.9 -4.82,22.8 -9.76,48.7 -13.15,57.3 -5.41,13.7 -247.6,84.4 -463.3,-14.9 0,0 1.83,-18.7 1.7,-39.5 -0.07,-24.2 -2.74,-51.4 -13.86,-55.5 -20.68,-7.5 -12.04,-142.1 -12.04,-142.1 l -33.62,38.9 c 0,0 -9.73,70.2 -19.29,151 0,0 -0.05,0.2 -0.09,0.6 -2.17,18.8 -4.37,38.2 -6.48,57.4 -4.83,81.3 3.21,228.8 109,315.4 71.38,30.6 185.35,56.6 375.35,-1.6 0,0 43.58,-2.9 55.78,-14.7 118.32,-130.2 93.58,-363.9 93.58,-363.9" /><path
         id="path364"
         style="fill:#c78d71;fill-opacity:1;fill-rule:nonzero;stroke:none"
         d="m 5782.37,8139.9 c 0,0 46.12,-64 153.24,-61.6 107.12,2.4 153.62,58.3 153.62,58.3 0,0 -50.7,-106.1 -154.13,-105 -103.42,1.2 -152.73,108.3 -152.73,108.3" /><path
         id="path366"
         style="fill:#a09ea6;fill-opacity:1;fill-rule:nonzero;stroke:none"
         d="m 6139.15,7842.5 -107.78,-79.7 c 0,0 90.09,192 91.96,268.8 l 15.82,-189.1" /><path
         id="path368"
         style="fill:#eae6f2;fill-opacity:1;fill-rule:nonzero;stroke:none"
         d="m 6123.33,8031.6 73.75,-68.2 77.12,-230 -135.05,109.1 -15.82,189.1" /><path
         id="path370"
         style="fill:#eea987;fill-opacity:1;fill-rule:nonzero;stroke:none"
         d="m 6109.91,7963 c 0,0 -29.79,-104.6 -78.54,-200.2 0,0 -113.12,99.1 -148.71,134.4 -35.6,35.3 227.25,65.8 227.25,65.8" /><path
         id="path372"
         style="fill:#a09ea6;fill-opacity:1;fill-rule:nonzero;stroke:none"
         d="m 5913.03,7873.6 118.34,-110.8 c 0,0 -139.91,9.3 -166.05,32.6 l 47.71,78.2" /><path
         id="path374"
         style="fill:#eae6f2;fill-opacity:1;fill-rule:nonzero;stroke:none"
         d="m 5756.03,8077.7 c 0,0 94.66,-153.9 157,-204.1 l -105.02,-174.4 -168.36,305.9 116.38,72.6" /><path
         id="path376"
         style="fill:#3c4169;fill-opacity:1;fill-rule:nonzero;stroke:none"
         d="m 5253.51,6518.4 c -12.07,-162.3 56.57,-1060.1 -11.93,-1072.7 -68.48,-12.6 -320.22,42.7 -320.22,42.7 0,0 -31.57,968.2 -21.45,1069.7 7.36,73.9 124.97,1181.9 187.06,1226.4 35.86,25.8 301.61,120 432,171.4 23.85,9.4 99.33,41.1 120.68,49.2 27.66,-30.8 268.62,-596.2 291.53,-1037.3 6.97,-134.2 -24.48,-417.7 -48.42,-649.2 -25.53,-247.1 -53.8,-439.9 -74.53,-646.5 -40.84,-407.1 -69.4,-731 -69.4,-731 l -405.12,180.4 c -65.56,32.8 -156.34,167.3 -131.69,236.4 93.66,262.3 211.59,710.5 211.73,940.6 0,0 -45.2,563.7 -81.01,687.6 0,0 -63.89,-261.4 -79.23,-467.7" /><path
         id="path378"
         style="fill:#efaa88;fill-opacity:1;fill-rule:nonzero;stroke:none"
         d="m 4920.4,5027.4 c 0,0 -13.73,33.4 -12.58,51 0,0 4.52,31.8 6.38,54.6 0.56,7.3 0.89,13.6 0.66,17.7 -0.88,17.1 -7.94,54.5 1.51,96.3 9.41,41.7 57.63,185.8 57.63,185.8 l 130.08,-19.3 113.05,15.3 c 0,0 84.26,-245.9 79.97,-285.8 -0.44,-3.9 -1.02,-7.8 -1.84,-11.3 -6.9,-33.5 -26.09,-55.5 -31.71,-72.6 -2.1,-6.3 -27.2,-67.3 -46.04,-73.2 -26.13,-8.1 -47.56,-3.2 -62.06,8.7 0,0 -51.89,-13.7 -84.74,1.3 0,0 -47.45,-14.1 -83,16.2 0,0 -49.76,-9 -67.31,15.3" /><path
         id="path380"
         style="fill:#3c4169;fill-opacity:1;fill-rule:nonzero;stroke:none"
         d="m 5264.17,6064.5 -4.15,-713.5 c 0,0 -142.4,6.3 -338.66,78.8 l -13.61,1006.2 356.42,-371.5" /><path
         id="path382"
         style="fill:#3a4066;fill-opacity:1;fill-rule:nonzero;stroke:none"
         d="m 6273.41,5397.6 h -268.36 v 199.5 h 268.36 v -199.5" /><g
         transform="scale(1.19092)"
         id="g384"><path
           id="path386"
           style="fill:#1d3b54;fill-opacity:1;fill-rule:nonzero;stroke:none"
           d="m 15888.9,1866.88 c 0,0 38.9,63.56 92.1,88.33 53.3,24.77 162.6,-61.72 172.1,-109.83 l 126.7,-184.73 -24.1,-16.46 -67.5,98.67 c 46.1,-110.76 111.8,-243.35 65.6,-310.02 -62,-89.42 -202.6,-179.94 -239.8,-164.24 -37.1,15.62 -29.6,275.75 -29.6,275.75 40,229.66 -95.5,322.53 -95.5,322.53" /></g><g
         transform="scale(1.18113)"
         id="g388"><path
           id="path390"
           style="fill:#de9673;fill-opacity:1;fill-rule:nonzero;stroke:none"
           d="m 16020.5,1882.34 c 0,0 46.5,-89.49 70.5,-158.91 23.8,-69.51 28.3,-261.78 43.4,-275.16 15.1,-13.38 133.9,46.56 149.7,118.53 15.9,71.88 -32.3,215.64 -78.2,291.24 -45.9,75.52 -92.5,113.37 -92.5,113.37 0,0 -80.9,-15.75 -92.9,-89.07" /></g><g
         transform="scale(1.17591)"
         id="g392"><path
           id="path394"
           style="fill:#de9673;fill-opacity:1;fill-rule:nonzero;stroke:none"
           d="m 15631.1,3583.76 c 0,0 73.1,-387.86 73.1,-480.64 0,-92.7 25.3,-244.49 84.3,-356.92 59,-112.42 318,-880.5 340.5,-969.97 22.5,-89.46 41.7,-173.99 41.7,-173.99 0,0 129.3,59.02 129.3,143.38 0,84.28 -112.4,781.35 -132.1,919.03 -19.6,137.77 -182.6,843.18 -182.6,843.18 l -354.2,75.93" /></g><g
         transform="scale(1.19115)"
         id="g396"><path
           id="path398"
           style="fill:#eea886;fill-opacity:1;fill-rule:nonzero;stroke:none"
           d="m 15839.1,3562.87 c 0,0 -25,-319.11 -22.2,-402.3 2.8,-83.28 41.6,-271.93 41.6,-321.88 0,-49.95 0.1,-1084.75 -41.3,-1209.59 -41.5,-124.84 116.3,-38.95 116.3,-38.95 0,0 274.7,680.6 274.7,964.62 0,283.92 -33.4,425.47 -14,605.8 19.5,180.33 105.8,417.75 105.8,417.75 l -460.9,-15.45" /></g><g
         transform="scale(1.20429)"
         id="g400"><path
           id="path402"
           style="fill:#eb4747;fill-opacity:1;fill-rule:nonzero;stroke:none"
           d="m 16077.1,5043.04 c 0,0 146.1,-178.95 184.5,-417.68 38.4,-238.81 -45.5,-689.03 -75.3,-819.31 -26.2,-114.26 -76.3,-480.12 -79,-518.48 0,0 -491,-55.64 -864.3,62.36 0,0 -34.1,510.92 -56.1,727.73 -21.9,216.81 85.2,948.93 85.2,948.93 l 805,16.45" /></g><g
         transform="scale(1.17175)"
         id="g404"><path
           id="path406"
           style="fill:#1d3b54;fill-opacity:1;fill-rule:nonzero;stroke:none"
           d="m 15946.5,1336.03 c 180.8,157.88 132.5,320.03 132.5,320.03 0,0 72.2,25.69 130.9,11.01 58.7,-14.68 90.1,-154.64 66.6,-199.36 l -18.2,-229.82 -29.8,2.39 9.7,122.63 c -34.9,-118.45 -68,-267.12 -148.2,-290.59 -107.6,-31.49 -278.7,-12.8 -298.3,23.73 -19.5,36.61 154.8,239.98 154.8,239.98" /></g><g
         transform="scale(1.15391)"
         id="g408"><path
           id="path410"
           style="fill:#754836;fill-opacity:1;fill-rule:nonzero;stroke:none"
           d="m 16085.3,7008.49 c 0,0 45.4,-270.38 6.2,-361.2 -39.2,-90.82 208.5,106.16 208.5,106.16 0,0 -102.8,297.86 -214.7,255.04" /></g><g
         transform="scale(1.18484)"
         id="g412"><path
           id="path414"
           style="fill:#754836;fill-opacity:1;fill-rule:nonzero;stroke:none"
           d="m 15754.7,7557.05 c 0,0 387.1,88.62 435.4,-325.11 48.2,-413.81 -126,-465.72 -8.1,-746.09 118,-280.37 -287.9,91.32 -287.9,91.32 l -139.4,979.88" /></g><g
         transform="scale(1.1768)"
         id="g416"><path
           id="path418"
           style="fill:#eea886;fill-opacity:1;fill-rule:nonzero;stroke:none"
           d="m 15895.9,7614.69 c -100.1,2.04 -320.3,-54.47 -347.1,-320.35 0,0 10,-71.13 29,-126.79 18.9,-55.57 -26.7,-222.38 -13.3,-230.2 13.3,-7.82 67.8,-16.65 67.8,-16.65 0,0 63.4,-179.13 126.7,-175.73 63.4,3.31 302.2,59.65 409,287.64 106.8,227.99 132,573.93 -272.1,582.08" /></g><g
         transform="scale(1.22635)"
         id="g420"><path
           id="path422"
           style="fill:#1d3b54;fill-opacity:1;fill-rule:nonzero;stroke:none"
           d="m 16300,4142.13 c 0,0 -9,153.87 -49.7,177.76 -40.7,23.9 -17.2,-23.72 -17.2,-23.72 0,0 22.9,-111.64 28,-156.89 0.2,-2.21 38.9,2.85 38.9,2.85" /></g><g
         transform="scale(1.22639)"
         id="g424"><path
           id="path426"
           style="fill:#eea886;fill-opacity:1;fill-rule:nonzero;stroke:none"
           d="m 16111,4488.31 c 0,0 -11.3,-68.98 -32.2,-135.44 -21,-66.46 -40.2,-87.66 -31.8,-125.73 6.3,-28.79 38.9,-50.4 47,-41.18 8.3,9.29 12.3,121.08 58.6,120.51 46.3,-0.49 -13.9,-138.45 13.7,-128.26 27.5,10.11 133.7,68.25 127,124.59 -6.7,56.35 -49.1,97.03 -46.4,181.27 2.5,76.32 -21.3,108.2 -21.3,108.2 L 16111,4488.31" /></g><g
         transform="scale(1.21731)"
         id="g428"><path
           id="path430"
           style="fill:#1d3b54;fill-opacity:1;fill-rule:nonzero;stroke:none"
           d="m 16268.4,4343.34 c 0,0 -62.2,-15.94 -58.5,-226.07 l 70.4,11.74 c 0,0 -1.3,116.16 19.7,179.5 0,0 -3.6,41.07 -31.6,34.83" /></g><g
         transform="scale(1.23661)"
         id="g432"><path
           id="path434"
           style="fill:#eddad3;fill-opacity:1;fill-rule:nonzero;stroke:none"
           d="m 15760.5,4006.28 539.5,153 -1.6,-664.32 -536.9,-321.76 -1,833.08" /></g><g
         transform="scale(1.2405)"
         id="g436"><path
           id="path438"
           style="fill:#eddad3;fill-opacity:1;fill-rule:nonzero;stroke:none"
           d="m 15712.1,3163.25 67.4,-12.41 520.5,323.66 -6.4,668.76 -44.7,2.98 -536.8,-982.99" /></g><g
         transform="scale(1.20568)"
         id="g440"><path
           id="path442"
           style="fill:#eb4747;fill-opacity:1;fill-rule:nonzero;stroke:none"
           d="m 15462.5,6476.42 c 0,0 -147.5,-60.54 -173.8,-78.96 -26.4,-18.41 -79,-231.82 -92.2,-250.23 -13.1,-18.41 -140.4,-176.58 -122.8,-304.8 13.9,-100.78 70.8,-154.11 107.7,-193.59 36.8,-39.48 71,-252.14 82.6,-283.82 11.5,-31.6 -25.2,-446.39 -25.2,-446.39 0,0 432.7,-168.45 819.8,118.61 0,0 -77.3,277.76 -77.3,327.78 0,50.1 50.1,403 184.4,611.02 134.3,208.1 -23.7,429.3 -126.4,455.68 -102.7,26.29 -300.2,100.02 -300.2,100.02 l -276.6,-55.32" /></g><g
         transform="scale(1.22504)"
         id="g444"><path
           id="path446"
           style="fill:#eb4747;fill-opacity:1;fill-rule:nonzero;stroke:none"
           d="m 15682.8,6361 c 0,0 213.1,13.06 320.1,-111.34 106.9,-124.41 101,-272.16 128.3,-336.31 27.2,-64.17 89.4,-340.16 103,-384.89 13.6,-44.73 26.9,-296.07 46.3,-498.19 19.5,-202.19 15.5,-579.73 15.5,-579.73 l -203.9,36.98 c 0,0 -8.3,359.9 -13.4,568.55 -5.2,208.64 -175,577.36 -239.1,738.67 -64.2,161.38 -319.6,464.96 -156.8,566.26" /></g><g
         transform="scale(1.13915)"
         id="g448"><path
           id="path450"
           style="fill:#eb4747;fill-opacity:1;fill-rule:nonzero;stroke:none"
           d="m 16204.3,6783.72 c 0,0 -100.8,-6.4 -148.9,-106.74 -48.1,-100.34 -66.4,-183.83 -79,-208.93 -12.5,-25.02 -186.5,-355.53 -197,-428.65 -10.4,-73.21 6.4,-207 98.4,-242.55 92,-35.55 422.2,-39.68 422.2,-39.68 0,0 -83.6,169.86 -6.2,257.65 0,0 -239.8,43.36 -296.5,49.07 -59.9,6.06 282.9,644.6 207,719.83" /></g><g
         transform="scale(1.17084)"
         id="g452"><path
           id="path454"
           style="fill:#1d3b54;fill-opacity:1;fill-rule:nonzero;stroke:none"
           d="m 16300,6324.09 -434.6,-1014.91 -541.7,255.2 400.6,974.68 575.7,-214.97" /></g><g
         transform="scale(1.15984)"
         id="g456"><path
           id="path458"
           style="fill:#eea886;fill-opacity:1;fill-rule:nonzero;stroke:none"
           d="m 16203,5880.72 c 0,0 59.3,-15.77 78.2,-18.54 18.8,-2.67 -4.5,-37.5 -27.6,-38.62 -23,-1.04 -50.6,57.16 -50.6,57.16" /></g><g
         transform="scale(1.15913)"
         id="g460"><path
           id="path462"
           style="fill:#eea886;fill-opacity:1;fill-rule:nonzero;stroke:none"
           d="m 16173.1,5592.56 c 0,0 -27.6,1.38 -39.4,7.85 0,0 -20.5,13.46 -35.7,22.17 -4.8,2.68 -9,5.01 -12,6.13 -12.1,5 -40.2,12.16 -66,32.27 -25.8,20.01 -109.8,99.98 -109.8,99.98 l 55.6,83.69 42.9,66.51 c 0,0 180.4,-4.91 206.5,-20.79 2.6,-1.55 5,-3.19 7.2,-4.92 20.9,-15.61 29.9,-35.97 39.9,-45.46 3.6,-3.45 37.7,-40.64 35.6,-55.47 -2.8,-20.71 -13.2,-33.91 -26.1,-40.12 0,0 -7.3,-40.29 -28.3,-58.15 0,0 -5.6,-37.35 -38.1,-52.11 0,0 -9.9,-37.26 -32.3,-41.58" /></g><g
         transform="scale(1.13872)"
         id="g464"><path
           id="path466"
           style="fill:#eb4747;fill-opacity:1;fill-rule:nonzero;stroke:none"
           d="m 16300,6017.12 c 0,0 -272.1,48.65 -347.1,56.64 0,0 -5.2,95.37 8.5,176.34 13.8,80.88 80.2,189.42 80.2,189.42 l -139.2,-127.42 c 0,0 -114.3,-219.19 -116.9,-270.39 -2.6,-51.29 -16.1,-130.41 51.5,-210.59 67.7,-80.18 387.2,-43.47 387.2,-43.47 0,0 -26.7,98.36 75.8,229.47" /></g><g
         transform="scale(1.16984)"
         id="g468"><path
           id="path470"
           style="fill:#eea886;fill-opacity:1;fill-rule:nonzero;stroke:none"
           d="m 15947.8,6827.6 c 0,0 8.6,-25.3 18.6,-62.83 5.1,-19.24 10.6,-41.63 15.4,-65.48 13.5,-65.99 22.4,-143.27 6.7,-195.41 0,0 142.5,-44.88 248.3,157.63 0,0 -53.9,213.53 4.6,345.51 58.6,131.99 -293.6,-179.42 -293.6,-179.42" /></g><g
         transform="scale(1.18269)"
         id="g472"><path
           id="path474"
           style="fill:#754836;fill-opacity:1;fill-rule:nonzero;stroke:none"
           d="m 15471.4,7258.01 c 0,0 164.5,-105.44 325.4,-123.19 160.8,-17.67 250.3,-260.93 250.3,-260.93 0,0 252.9,393.76 49.2,635.75 -203.6,241.99 -668.4,54.62 -624.9,-251.63" /></g><g
         transform="scale(1.16096)"
         id="g476"><path
           id="path478"
           style="fill:#eea886;fill-opacity:1;fill-rule:nonzero;stroke:none"
           d="m 16160.2,7277.79 c 0,31.7 33.9,80.1 86.8,38.33 53,-41.69 -12.4,-193.89 -55.3,-180.37 -42.8,13.52 -31.5,109.39 -31.5,142.04" /></g><g
         transform="scale(1.16889)"
         id="g480"><path
           id="path482"
           style="fill:#eea886;fill-opacity:1;fill-rule:nonzero;stroke:none"
           d="m 15940.3,6676.59 c 0,0 -67.1,-197.96 89.7,-196.94 156.9,0.95 225.2,124.39 270,233.82 0,0 -72.4,35.07 -106,40.2 -33.6,5.05 -253.7,-77.08 -253.7,-77.08" /></g><g
         transform="scale(1.21585)"
         id="g484"><path
           id="path486"
           style="fill:#1d3b54;fill-opacity:1;fill-rule:nonzero;stroke:none"
           d="m 16229.3,4131.34 70.7,-9.13 -0.1,32.98 -70.6,-23.85" /></g><g
         transform="scale(1.2263)"
         id="g488"><path
           id="path490"
           style="fill:#1d3b54;fill-opacity:1;fill-rule:nonzero;stroke:none"
           d="m 16261.1,4144.42 38.7,-4.65 c 0,0 0.2,11.66 -0.1,15.57 -0.4,3.84 -37.2,-8.56 -38.6,-10.92" /></g><g
         transform="scale(1.16619)"
         id="g492"><path
           id="path494"
           style="fill:#eea886;fill-opacity:1;fill-rule:nonzero;stroke:none"
           d="m 16155.7,1663.97 c 0,0 -20.7,-101.45 -46.4,-172.27 -25.8,-70.83 -146.3,-227.16 -142.9,-247.48 3.5,-20.41 136.9,-49.22 195.9,-2.05 59.1,47.07 113.3,192.84 125.5,282.71 12.2,89.87 5.8,147.92 5.8,147.92 0,0 -81.2,41.93 -137.9,-8.83" /></g><g
         transform="scale(1.15998)"
         id="g496"><path
           id="path498"
           style="fill:#a77860;fill-opacity:1;fill-rule:nonzero;stroke:none"
           d="m 16089.4,6864.97 c 5.1,-19.4 12.8,-42.67 18.6,-65.78 129.8,87.68 192,191.73 192,191.73 -73.6,-70.43 -210.6,-125.95 -210.6,-125.95" /></g><path
         id="path500"
         style="fill:#5c544d;fill-opacity:1;fill-rule:nonzero;stroke:none"
         d="m 12537.3,5044.9 c 0,0 -36.5,-143.4 -41.5,-165 -4.9,-21.6 -229.8,37.8 -229.8,37.8 l 0.2,175.4 c 0,0 244.7,-24.6 271.1,-48.2" /><path
         id="path502"
         style="fill:#3c4145;fill-opacity:1;fill-rule:nonzero;stroke:none"
         d="m 12500.3,4898.1 c 0,0 62.9,-95.6 128.8,-141.4 65.9,-45.8 320.4,-105 357.5,-149.1 26.8,-31.8 64.1,-152.3 -344.1,-97.3 -290,39.1 -433.1,29.2 -459.2,79.7 -26.1,50.6 82.7,343.4 82.7,343.4 0,0 62.1,-33.7 234.3,-35.3" /><path
         id="path504"
         style="fill:#f0c141;fill-opacity:1;fill-rule:nonzero;stroke:none"
         d="m 12585,963.402 814.7,8301.698 -102.7,10 -814.7,-8301.799 102.7,-9.899" /><path
         id="path506"
         style="fill:#f0c141;fill-opacity:1;fill-rule:nonzero;stroke:none"
         d="m 10923.9,1124.6 814.7,8301.7 -102.7,10 -814.7,-8301.7 102.7,-10" /><path
         id="path508"
         style="fill:#f0c141;fill-opacity:1;fill-rule:nonzero;stroke:none"
         d="m 13324.6,9027.6 10,102.7 -1661.1,161.2 -10,-102.7 1661.1,-161.2" /><path
         id="path510"
         style="fill:#f0c141;fill-opacity:1;fill-rule:nonzero;stroke:none"
         d="m 13249.6,8255.2 10,102.7 -1661.1,161.2 -9.9,-102.7 1661,-161.2" /><path
         id="path512"
         style="fill:#f0c141;fill-opacity:1;fill-rule:nonzero;stroke:none"
         d="m 13174.7,7482.8 9.9,102.7 -1661,161.2 -10,-102.7 1661.1,-161.2" /><path
         id="path514"
         style="fill:#f0c141;fill-opacity:1;fill-rule:nonzero;stroke:none"
         d="m 13099.7,6710.4 10,102.7 -1661.1,161.2 -9.9,-102.7 1661,-161.2" /><path
         id="path516"
         style="fill:#f0c141;fill-opacity:1;fill-rule:nonzero;stroke:none"
         d="m 13024.8,5938 9.9,102.7 -1661,161.2 -10,-102.7 1661.1,-161.2" /><path
         id="path518"
         style="fill:#f0c141;fill-opacity:1;fill-rule:nonzero;stroke:none"
         d="m 12949.8,5165.6 10,102.7 -1661.1,161.2 -10,-102.7 1661.1,-161.2" /><path
         id="path520"
         style="fill:#f0c141;fill-opacity:1;fill-rule:nonzero;stroke:none"
         d="m 12874.8,4393.2 10,102.7 -1661.1,161.2 -9.9,-102.7 1661,-161.2" /><path
         id="path522"
         style="fill:#f0c141;fill-opacity:1;fill-rule:nonzero;stroke:none"
         d="m 12799.9,3620.8 9.9,102.7 -1661,161.2 -10,-102.7 1661.1,-161.2" /><path
         id="path524"
         style="fill:#f0c141;fill-opacity:1;fill-rule:nonzero;stroke:none"
         d="m 12724.9,2848.4 10,102.7 -1661.1,161.2 -10,-102.7 1661.1,-161.2" /><path
         id="path526"
         style="fill:#f0c141;fill-opacity:1;fill-rule:nonzero;stroke:none"
         d="m 12650,2076 9.9,102.7 -1661,161.2 -10,-102.7 L 12650,2076" /><path
         id="path528"
         style="fill:#f0c141;fill-opacity:1;fill-rule:nonzero;stroke:none"
         d="m 12575,1303.6 10,102.7 -1661.1,161.2 -10,-102.7 1661.1,-161.2" /><path
         id="path530"
         style="fill:#3c4145;fill-opacity:1;fill-rule:nonzero;stroke:none"
         d="m 12814.7,8064.2 c 0,0 163.6,-607.5 206.7,-824.7 37.6,-189.3 113.2,-693.3 124,-813.1 10.7,-119.8 -483,-1279.7 -534.4,-1489.2 l -449.8,72.2 c 0,0 474.6,1207.2 350.8,1475.5 -184.2,398.9 -208.2,386.9 -353.2,715.5 -145.1,328.7 -477.1,336.5 -566.3,946.3 0,0 1101.4,110.9 1222.2,-82.5" /><path
         id="path532"
         style="fill:#eea886;fill-opacity:1;fill-rule:nonzero;stroke:none"
         d="m 12014.8,11016.3 c 0,0 298.7,111.5 436.4,-115.8 137.7,-227.4 124.4,-682.6 -26.1,-738.6 -150.6,-56 -376.8,-26.7 -453.8,115.6 -77.1,142.3 -146.7,347.9 -143.4,485.4 3.4,137.5 108.4,213.7 186.9,253.4" /><path
         id="path534"
         style="fill:#eea886;fill-opacity:1;fill-rule:nonzero;stroke:none"
         d="m 12374.9,10175.9 c 0,0 -12,-78.3 7.9,-116.9 20,-38.6 -375.7,-39.6 -375.7,-39.6 0,0 -32.1,209.8 -93,387.1 -60.9,177.2 460.8,-230.6 460.8,-230.6" /><path
         id="path536"
         style="fill:#3a3f47;fill-opacity:1;fill-rule:nonzero;stroke:none"
         d="m 11914.1,10406.5 c 0,0 27.3,-45.1 138.8,-27.6 111.4,17.5 247.4,165.8 294,182.1 46.5,16.3 46.9,43.6 46.9,43.6 l 29.2,-42.6 49.4,-3.1 c 0,0 -45.1,132.7 23,186.8 68,54.1 -70.6,429.3 -428.1,304.4 0,0 -274.6,-75.7 -264.6,-231.8 10,-156.2 50,-334 111.4,-411.8" /><path
         id="path538"
         style="fill:#eea886;fill-opacity:1;fill-rule:nonzero;stroke:none"
         d="m 12386.5,10661.4 c -6.3,26.2 -72.9,101 -98.4,20.9 -25.5,-80.2 38.5,-187.9 74.3,-178.7 35.7,9.2 39.9,91.4 24.1,157.8" /><path
         id="path540"
         style="fill:#ffd255;fill-opacity:1;fill-rule:nonzero;stroke:none"
         d="m 11247.2,9033.8 c 3.3,-39.1 48,-81.5 78.5,-102.5 19.6,-13.4 43,-21.5 68.1,-22.4 l 17.8,-0.6 v 0 l 310.4,-10.5 c 0,0 230.7,745.8 -202.1,1030.2 -13.4,-1.3 -302.7,-534.7 -272.7,-894.2" /><path
         id="path542"
         style="fill:#3c4145;fill-opacity:1;fill-rule:nonzero;stroke:none"
         d="m 12183.3,4590 c 26.1,-50.5 169.2,-40.6 459.2,-79.7 79.3,-10.6 141.7,-14.7 190.7,-14.1 l 16.9,174.5 c -84.8,29.5 -183.4,59.9 -221,86 -65.9,45.8 -128.8,141.4 -128.8,141.4 -172.2,1.5 -234.3,35.3 -234.3,35.3 0,0 -108.8,-292.8 -82.7,-343.4" /><path
         id="path544"
         style="fill:#ffd255;fill-opacity:1;fill-rule:nonzero;stroke:none"
         d="m 12375.2,10081.8 c 0,0 -243.6,56.6 -380.9,10.3 l -20.7,-19.2 c 0,0 -41.7,-80 115.3,-86.9 157.1,-6.9 404,-18.3 286.3,95.8" /><path
         id="path546"
         style="fill:#5c544d;fill-opacity:1;fill-rule:nonzero;stroke:none"
         d="m 11423.3,4374.2 c 0,0 -36.5,-143.4 -41.4,-165 -5,-21.6 -229.9,37.9 -229.9,37.9 l 0.3,175.4 c 0,0 244.7,-24.6 271,-48.3" /><path
         id="path548"
         style="fill:#3c4145;fill-opacity:1;fill-rule:nonzero;stroke:none"
         d="m 11592.5,8146.7 c 0,0 -82,-338.2 -106.2,-676.8 -22.5,-312.9 -63.3,-656 -95.8,-983.3 -36.2,-364.8 -139.4,-954.5 -144.8,-1149.7 -5.3,-195.1 -169.6,-1048 -169.6,-1048 l 420.1,-48.3 c 0,0 273,1507.2 337.5,1661.2 64.5,154.1 384.2,1252.4 394.9,1375.7 10.8,123.2 -636.1,869.2 -636.1,869.2" /><path
         id="path550"
         style="fill:#3c4145;fill-opacity:1;fill-rule:nonzero;stroke:none"
         d="m 11386.3,4227.5 c 0,0 62.9,-95.6 128.9,-141.4 65.9,-45.8 320.3,-105.1 357.4,-149.2 26.9,-31.8 64.2,-152.2 -344.1,-97.2 -290,39 -433.1,29.1 -459.2,79.7 -26,50.5 82.8,343.4 82.8,343.4 0,0 62,-33.8 234.2,-35.3" /><path
         id="path552"
         style="fill:#ffd255;fill-opacity:1;fill-rule:nonzero;stroke:none"
         d="m 12899.7,7305.3 c 35.8,5.2 -88.9,1071.9 -79.3,1138.8 6.3,44.6 5.3,391.3 2.7,607.4 l 39,218.7 c 21.7,15.8 50.8,34.1 85.6,54.1 54.2,31.3 122.2,67 197.7,104.8 -8.8,51.6 -14.9,92.3 -17.3,116.1 -18.8,192.1 -147.9,293.9 -221,336.7 -29.9,17.5 -50.4,25.2 -50.4,25.2 -27.8,11.8 -55.1,23.2 -81.6,34.1 -176.2,72.5 -399.9,140.6 -399.9,140.6 h -359.6 c 0,0 -273.7,-54.7 -436.8,-121.5 -20.9,-8.5 -40.5,-19.5 -58.9,-32.3 l 48.9,-1025 c 0,-0.2 0,-0.4 0,-0.7 0.1,-0.3 0.2,-0.7 0.2,-1.3 22,-144.2 45.2,-314.3 52.9,-433.6 3.2,-48.7 -52.5,-310.2 -81.6,-550.2 l -101.6,-574.3 c 0,0 58.7,-238 1461,-37.6" /><path
         id="path554"
         style="fill:#eea886;fill-opacity:1;fill-rule:nonzero;stroke:none"
         d="m 14735.2,10629.6 c 0,0 -21.2,-26.3 -36.1,-33.2 0,0 -28.1,-10.6 -47.6,-19.4 -6.1,-2.8 -11.5,-5.3 -14.7,-7.4 -13.7,-8.4 -41.1,-31 -79.5,-42 -38.4,-11.1 -212.1,-50.6 -212.1,-50.6 l -40.4,103 -28.9,83.3 c 0,0 160.7,208.2 195.3,222.7 3.4,1.4 6.8,2.6 10.1,3.6 30.5,9.3 57.1,3.5 73.7,6.6 6,1.1 67.3,8 80.5,-4.8 18.5,-17.7 24,-37.5 20.8,-54.7 0,0 34.6,-36.3 37.1,-69.9 0,0 32.9,-32.5 24.1,-75.2 0,0 29.7,-36.7 17.7,-62" /><path
         id="path556"
         style="fill:#ffd255;fill-opacity:1;fill-rule:nonzero;stroke:none"
         d="m 12873.7,9278.4 c 40.1,25.8 92,60.8 271.7,150.7 334.4,167.3 747.4,470.7 825.9,514.5 120.8,67.4 502.2,533.4 502.2,533.4 -19.7,70.2 -200.5,211 -200.5,211 0,0 -578.2,-547.7 -704.6,-615.1 -108.7,-57.9 -645.4,-116.5 -793.3,-131.7 -24,-2.5 -37.7,-3.8 -37.7,-3.8 -154.5,-210.6 50,-714.5 136.3,-659" /></g></g></svg>