<?xml version="1.0" encoding="UTF-8" standalone="no"?>
<svg
   xmlns:dc="http://purl.org/dc/elements/1.1/"
   xmlns:cc="http://creativecommons.org/ns#"
   xmlns:rdf="http://www.w3.org/1999/02/22-rdf-syntax-ns#"
   xmlns:svg="http://www.w3.org/2000/svg"
   xmlns="http://www.w3.org/2000/svg"
   viewBox="0 0 666.66669 666.66669"
   height="666.66669"
   width="666.66669"
   xml:space="preserve"
   id="svg2"
   version="1.1"><metadata
     id="metadata8"><rdf:RDF><cc:Work
         rdf:about=""><dc:format>image/svg+xml</dc:format><dc:type
           rdf:resource="http://purl.org/dc/dcmitype/StillImage" /></cc:Work></rdf:RDF></metadata><defs
     id="defs6" /><g
     transform="matrix(1.3333333,0,0,-1.3333333,0,666.66667)"
     id="g10"><g
       transform="scale(0.1)"
       id="g12"><path
         id="path14"
         style="fill:#fafafa;fill-opacity:1;fill-rule:nonzero;stroke:none"
         d="M 0,0 H 5000 V 5000 H 0 Z" /><path
         id="path16"
         style="fill:#78c2ff;fill-opacity:1;fill-rule:nonzero;stroke:none"
         d="M 1053.21,2751.75 H 863.824 v -166.17 l 28.91,28.91 h 160.476 v 137.26" /><path
         id="path18"
         style="fill:#0e2d3d;fill-opacity:1;fill-rule:nonzero;stroke:none"
         d="m 771.055,2697.71 c 0,0 46.328,-22.66 34.875,-84.31 -11.457,-61.65 -16.528,-69.96 -3.711,-94.04 12.808,-24.09 27.933,-126.85 16.398,-146.33 -11.531,-19.48 -142.734,85.59 -160.929,173.75 -18.196,88.15 11.531,127.36 22.039,141.96 10.507,14.61 50.429,29.73 91.328,8.97" /><path
         id="path20"
         style="fill:#285173;fill-opacity:1;fill-rule:nonzero;stroke:none"
         d="m 783.891,2475.16 c 0,0 23.574,-4.8 36.816,-24.29 9.215,-13.56 9.961,-43.68 11.289,-49.36 1.328,-5.67 18.918,-69.87 18.918,-69.87 l -49.121,-32.92 -17.902,176.44" /><path
         id="path22"
         style="fill:#1d3b54;fill-opacity:1;fill-rule:nonzero;stroke:none"
         d="m 965.371,1377.32 c 0,0 32.055,-43.15 27.656,-49.99 -4.394,-6.84 -38.105,-7.81 -58.625,0 -20.519,7.82 -21.004,58.39 -30.293,80.12 -3.882,9.1 4.438,35.96 16.125,37.9 11.696,1.95 24.414,-3.77 24.414,-3.77 0,0 -12.128,-30.6 20.723,-64.26" /><path
         id="path24"
         style="fill:#eea886;fill-opacity:1;fill-rule:nonzero;stroke:none"
         d="m 944.863,1441.93 c 0,0 6.742,-18.38 9.207,-35.92 2.043,-14.56 22.84,-45.46 21.864,-49.36 -0.977,-3.92 -27.36,-7.45 -38.114,2.62 -10.746,10.08 -17.66,39.38 -20.027,56.9 -2.207,16.33 -4.984,24.4 -4.984,24.4 0,0 21.793,12.11 32.054,1.36" /><path
         id="path26"
         style="fill:#1d3b54;fill-opacity:1;fill-rule:nonzero;stroke:none"
         d="m 686.355,1376.61 c 0,0 30.903,-42.44 26.5,-49.28 -4.394,-6.84 -38.105,-7.81 -58.621,0 -20.523,7.82 -21.011,58.39 -30.293,80.12 -3.886,9.1 4.426,35.96 16.122,37.9 11.691,1.95 25.406,-4.18 25.406,-4.18 0,0 -11.969,-30.92 20.886,-64.56" /><path
         id="path28"
         style="fill:#eea886;fill-opacity:1;fill-rule:nonzero;stroke:none"
         d="m 665.469,1441.17 c 0,0 2.441,-20.04 6.351,-34.2 3.907,-14.18 24.914,-46.42 23.938,-50.32 -0.977,-3.92 -27.36,-7.45 -38.106,2.62 -10.75,10.08 -19.054,39.26 -20.035,56.9 -0.976,17.67 2.446,29.18 2.446,29.18 0,0 15.148,6.56 25.406,-4.18" /><path
         id="path30"
         style="fill:#eea886;fill-opacity:1;fill-rule:nonzero;stroke:none"
         d="m 819.879,2143.73 c 0,0 27.508,-127.96 33.82,-160.18 6.321,-32.22 24.012,-188.26 25.906,-214.79 1.895,-26.53 28.708,-126.51 27.442,-135.99 -1.266,-9.47 39.746,-199.83 39.746,-199.83 0,0 -14.012,-11.27 -28.77,-1.02 -7.593,5.28 -89.98,178.22 -89.98,225.6 0,65.49 -48.43,150.98 -54.68,165.63 -58.05,136.12 -46.621,177.74 -54.203,186.59 -7.578,8.83 -8.238,-5.47 -12.66,-25.05 -4.422,-19.58 -13.895,-188.89 -19.574,-210.37 -5.688,-21.49 -1.274,-94.13 -4.43,-130.78 -3.16,-36.64 -17.027,-202.37 -17.027,-202.37 0,0 -10.742,-16.83 -25.813,-0.44 -3.238,3.53 -26.011,184.62 -26.648,228.22 -0.629,43.58 -1.305,103.7 -2.524,122.55 -11.707,180.63 -40.468,206.44 4.836,334.27 84.832,239.37 204.559,17.96 204.559,17.96" /><path
         id="path32"
         style="fill:#1d3b54;fill-opacity:1;fill-rule:nonzero;stroke:none"
         d="m 635.152,2179.49 c 0,0 -78.367,-109.68 -44.625,-342.98 0,0 185.875,-25.28 285.453,29.25 0,0 -41.179,240.55 -56.101,277.97 -14.918,37.44 -184.727,35.76 -184.727,35.76" /><path
         id="path34"
         style="fill:#1d3b54;fill-opacity:1;fill-rule:nonzero;stroke:none"
         d="m 903.254,1411.25 v -45.19 h 5.863 v 34.93 l -5.863,10.26" /><path
         id="path36"
         style="fill:#1d3b54;fill-opacity:1;fill-rule:nonzero;stroke:none"
         d="m 623.082,1411.25 v -45.19 h 5.863 v 34.93 l -5.863,10.26" /><path
         id="path38"
         style="fill:#eddad3;fill-opacity:1;fill-rule:nonzero;stroke:none"
         d="m 740.32,2491.16 c 0,0 28.875,-13.64 38.899,-15.64 10.023,-2 48.922,-52.53 55.738,-70.98 6.816,-18.45 0,-46.11 -14.039,-78.58 -14.031,-32.48 -0.801,-43.31 -7.219,-75.79 -6.414,-32.48 -12.023,-101.25 -10.824,-119.3 1.203,-18.05 -162.187,-21.46 -199.477,11.43 0,0 37.481,56.14 42.29,64.16 4.816,8.02 0.804,51.72 -3.61,62.94 -4.406,11.24 -33.762,106.71 -33.762,106.71 0,0 -24.019,73.33 -2.324,90.18 18.848,14.65 70.207,19.85 79.434,23.07 9.222,3.2 36.051,4.6 54.894,1.8" /><path
         id="path40"
         style="fill:#d6c5be;fill-opacity:1;fill-rule:nonzero;stroke:none"
         d="m 749.547,2426.8 17.543,20.54 -15.235,54.09 c 0,0 -5.117,-30.12 -2.308,-74.63" /><path
         id="path42"
         style="fill:#eea886;fill-opacity:1;fill-rule:nonzero;stroke:none"
         d="m 754.105,2524.47 c 0,0 -0.789,-7.23 -1.722,-17.24 -0.406,-4.44 -0.852,-9.42 -1.266,-14.56 -1.176,-14.58 -2.129,-30.37 -1.57,-38.4 0,0 -30,-30.07 -64.121,35.09 0,0 14.355,26.85 3.551,63.45 -10.813,36.58 65.128,-28.34 65.128,-28.34" /><path
         id="path44"
         style="fill:#eea886;fill-opacity:1;fill-rule:nonzero;stroke:none"
         d="m 749.547,2454.27 v -27.47 l -34.527,25.8 z" /><path
         id="path46"
         style="fill:#d6c5be;fill-opacity:1;fill-rule:nonzero;stroke:none"
         d="m 749.547,2426.8 -14.336,17.74 -48.285,48.13 -15.621,-15.05 78.242,-50.82" /><path
         id="path48"
         style="fill:#285173;fill-opacity:1;fill-rule:nonzero;stroke:none"
         d="m 680.219,2488.07 c 0,0 40.523,-61.51 42.457,-88.57 1.937,-27.06 -15.059,-229.54 -28.668,-294.62 -13.61,-65.08 -111.953,7.35 -111.953,7.35 0,0 66.086,106.96 40.718,192.6 -25.367,85.65 -34.585,119.9 -34.585,119.9 0,0 8.73,47.69 39.66,54.39 27.117,5.89 52.371,8.95 52.371,8.95" /><path
         id="path50"
         style="fill:#285173;fill-opacity:1;fill-rule:nonzero;stroke:none"
         d="m 837.621,2396.33 c 0,0 7.313,-25.86 -21.16,-83.03 0,0 0.449,-73.16 1.254,-96.01 0.801,-22.86 16.965,-105.05 16.965,-105.05 l -38.91,-20.72 c -5.672,-3.33 -12.696,1.29 -11.903,7.81 7.973,65.78 33.914,315.27 -22.125,382.33 l 22.488,-6.63 c 0,0 39.95,-32.69 53.391,-78.7" /><path
         id="path52"
         style="fill:#fae6de;fill-opacity:1;fill-rule:nonzero;stroke:none"
         d="m 767.09,2447.34 22.105,-6.11 -37.34,60.2 z" /><path
         id="path54"
         style="fill:#fae6de;fill-opacity:1;fill-rule:nonzero;stroke:none"
         d="m 735.211,2444.54 -20.191,-26.46 -41.461,69.1 13.367,5.49 48.285,-48.13" /><path
         id="path56"
         style="fill:#eb4747;fill-opacity:1;fill-rule:nonzero;stroke:none"
         d="m 764.441,2337.52 5.735,4.53 53.648,-67.79 -5.734,-4.53 -53.649,67.79" /><path
         id="path58"
         style="fill:#eea886;fill-opacity:1;fill-rule:nonzero;stroke:none"
         d="m 761.121,2277.39 c 0,0 5.125,-0.09 8.492,2.45 5.821,4.38 7.914,15.19 18.184,14.4 10.266,-0.78 15.031,-32.99 12.457,-39.08 -2.566,-6.1 -16.832,-9.14 -37.899,-4.95 -21.078,4.2 -1.234,27.18 -1.234,27.18" /><path
         id="path60"
         style="fill:#eea886;fill-opacity:1;fill-rule:nonzero;stroke:none"
         d="m 784.273,2294.02 c 0,0 14.758,5.03 31.797,8.71 14.946,3.24 32.809,4.29 34.543,1.7 1.938,-2.89 -14.558,-5.38 -29.207,-9.54 -13.48,-3.83 -10.269,-5.22 -10.269,-5.22 0,0 -0.887,0.44 14.508,1.88 16.55,1.55 33.597,1.52 35.285,-1.79 0.812,-1.62 0.242,-2.7 -5.719,-4.21 3.582,0.16 4.086,-0.76 4.223,-2.21 0.711,-7.45 -23.434,-13.39 -33.024,-15.74 7.379,1.77 12.945,2.3 10.293,-2.7 -3.035,-5.71 -37.488,-12.61 -49.64,-16.23 -13.254,-3.94 -2.79,45.35 -2.79,45.35" /><path
         id="path62"
         style="fill:#285173;fill-opacity:1;fill-rule:nonzero;stroke:none"
         d="m 633.563,2478.03 c -10.157,3.28 -39.958,-7.29 -44.993,-37.84 -5.039,-30.56 -7.054,-64.49 -11.757,-80.94 -4.704,-16.46 -16.68,-89.37 -6.61,-95.41 10.078,-6.05 29.156,-11.57 55.918,-11.57 27.641,0 134.797,-4.81 134.797,-4.81 l 6.719,38.07 c 0,0 -40.699,2.1 -61.785,5.29 -18.774,2.85 -44.789,10.84 -75.418,14.2 0,0 6.496,45.17 11.199,57.92 4.699,12.76 37.605,100.31 -8.07,115.09" /><path
         id="path64"
         style="fill:#eea886;fill-opacity:1;fill-rule:nonzero;stroke:none"
         d="m 829.555,2282.6 5.023,-12.25 -10.754,7.71 z" /><path
         id="path66"
         style="fill:#e8734d;fill-opacity:1;fill-rule:nonzero;stroke:none"
         d="m 770.523,2218.75 107.938,21.41 80.055,171.29 -115.211,-12.1 -72.782,-180.6" /><path
         id="path68"
         style="fill:#eea886;fill-opacity:1;fill-rule:nonzero;stroke:none"
         d="m 891.918,2269.22 c 0,0 5.918,5.5 11.187,13.19 5.274,7.7 22.52,37.06 20.942,38.9 -1.574,1.84 -27.184,2.47 -31.824,-1.71 -4.641,-4.17 4.57,-5.82 4.57,-5.82 0,0 -14,-1.44 -13.004,-5.39 1,-3.96 9.434,-2.86 9.434,-2.86 0,0 -11.27,-2.16 -9.567,-5.63 1.711,-3.47 7.129,-3.43 7.129,-3.43 0,0 -9.984,-1.26 -8.75,-5.04 1.235,-3.79 17.031,-7.37 14.922,-10.52 -2.113,-3.15 -5.039,-11.69 -5.039,-11.69" /><path
         id="path70"
         style="fill:#eea987;fill-opacity:1;fill-rule:nonzero;stroke:none"
         d="m 764.336,2690.87 c 0,0 67.266,-21.13 30.754,-137.22 -36.52,-116.09 -128.387,13.45 -118.777,84.18 9.609,70.73 88.023,53.04 88.023,53.04" /><path
         id="path72"
         style="fill:#0e2d3d;fill-opacity:1;fill-rule:nonzero;stroke:none"
         d="m 801.965,2623.14 c 0,0 -33.426,-32.8 -89.367,-36.9 0,0 -21.493,-25.2 -23.145,-35.1 0,0 -49.906,85.07 11.442,136.07 61.347,50.99 123.617,-43.06 101.07,-64.07" /><path
         id="path74"
         style="fill:#eea987;fill-opacity:1;fill-rule:nonzero;stroke:none"
         d="m 713.27,2583.93 c -0.426,8.45 -5.633,27.68 -18.192,22.3 -12.558,-5.39 0.774,-44.54 9.098,-42.13 0,0 10.121,-0.16 9.094,19.83" /><path
         id="path76"
         style="fill:#a77860;fill-opacity:1;fill-rule:nonzero;stroke:none"
         d="m 752.383,2507.23 c -0.406,-4.44 -0.852,-9.42 -1.266,-14.56 h -0.008 c -38.89,19.2 -44.847,46.89 -45.023,47.75 27.707,-35.81 46.297,-33.19 46.297,-33.19" /><path
         id="path78"
         style="fill:#869135;fill-opacity:1;fill-rule:nonzero;stroke:none"
         d="m 1873.5,2315.92 c 0,0 -8.71,-67.21 39.85,-118.82 48.57,-51.61 158.07,-33.2 158.07,-33.2 0,0 -18.11,60.99 -57.82,86.12 -39.69,25.14 -117.68,33.79 -140.1,65.9" /><path
         id="path80"
         style="fill:#48753a;fill-opacity:1;fill-rule:nonzero;stroke:none"
         d="m 1930,2443.38 c 0,0 -40.03,-75.36 -5.64,-157.7 34.39,-82.33 171.61,-109.13 171.61,-109.13 0,0 5.66,79.93 -30.01,127.12 -35.67,47.2 -123.76,91.94 -135.96,139.71" /><path
         id="path82"
         style="fill:#bbd070;fill-opacity:1;fill-rule:nonzero;stroke:none"
         d="m 3726.09,3412.21 c 0,0 68.05,-103.24 10.64,-158.07 -57.41,-54.84 -64.17,6.39 -64.17,6.39 0,0 -30.71,-2.02 30.34,67.84 28.78,32.93 23.19,83.84 23.19,83.84" /><path
         id="path84"
         style="fill:#97a43c;fill-opacity:1;fill-rule:nonzero;stroke:none"
         d="m 3908.28,3464.9 c 0,0 48.54,-93.77 -65.7,-181.63 -114.23,-87.86 -113.68,-148.4 -113.68,-148.4 0,0 -80.42,217.32 179.38,330.03" /><path
         id="path86"
         style="fill:#48753a;fill-opacity:1;fill-rule:nonzero;stroke:none"
         d="m 3714.26,3174.85 c -43.42,1.21 20.17,111.46 90.88,133.83 70.7,22.38 127.17,13.08 170.2,40.43 0,0 -47.29,-180.22 -261.08,-174.26" /><path
         id="path88"
         style="fill:#78c2ff;fill-opacity:1;fill-rule:nonzero;stroke:none"
         d="m 1989.16,2433.33 h -9.13 v 1092.78 h 9.13 V 2433.33" /><path
         id="path90"
         style="fill:#78c2ff;fill-opacity:1;fill-rule:nonzero;stroke:none"
         d="m 2064.79,2730.69 h -754.42 v 9.13 h 754.42 v -9.13" /><path
         id="path92"
         style="fill:#4da8f2;fill-opacity:1;fill-rule:nonzero;stroke:none"
         d="m 2380.91,3168.78 c -62.71,0 -113.73,-53.52 -113.73,-119.29 V 2006.66 c 0,-65.78 51.02,-119.31 113.73,-119.31 h 1481.13 c 62.71,0 113.73,53.53 113.73,119.31 v 1042.83 c 0,65.77 -51.02,119.29 -113.73,119.29 z M 3862.04,1876.39 H 2380.91 c -68.75,0 -124.69,58.43 -124.69,130.27 v 1042.83 c 0,71.82 55.94,130.25 124.69,130.25 h 1481.13 c 68.76,0 124.69,-58.43 124.69,-130.25 V 2006.66 c 0,-71.84 -55.93,-130.27 -124.69,-130.27" /><path
         id="path94"
         style="fill:#c2bebc;fill-opacity:1;fill-rule:nonzero;stroke:none"
         d="m 1713.03,3934.3 c -12.37,0.34 -24.76,0.51 -36.83,0.51 -4.11,0 -8.2,-0.02 -12.29,-0.06 l -0.11,10.96 c 4.12,0.04 8.26,0.06 12.4,0.06 12.17,0 24.66,-0.17 37.13,-0.51 l -0.3,-10.96 m -147.16,-4.51 -1.03,10.91 c 16.15,1.53 32.78,2.72 49.44,3.56 l 0.54,-10.95 c -16.49,-0.83 -32.96,-2.01 -48.95,-3.52 m 245.29,-1.4 c -16.53,1.5 -33.02,2.76 -49.03,3.73 l 0.66,10.95 c 16.13,-0.98 32.73,-2.25 49.36,-3.76 l -0.99,-10.92 m 97.69,-11.55 c -16.46,2.36 -32.87,4.52 -48.78,6.4 l 1.29,10.89 c 16,-1.9 32.5,-4.07 49.05,-6.44 l -1.56,-10.85 m -440.11,-1 -2.11,10.76 c 15.97,3.13 32.43,5.91 48.93,8.27 l 1.55,-10.85 c -16.31,-2.33 -32.58,-5.08 -48.37,-8.18 m 537.24,-15.09 c -16.38,3.05 -32.69,5.92 -48.49,8.55 l 1.8,10.81 c 15.87,-2.63 32.25,-5.52 48.69,-8.58 l -2,-10.78 m -632.17,-9.1 -3.31,10.45 c 15.56,4.94 31.61,9.52 47.71,13.61 l 2.7,-10.62 c -15.89,-4.04 -31.73,-8.56 -47.1,-13.44 m 728.68,-10.54 c -16.31,3.59 -32.52,7.02 -48.18,10.21 l 2.19,10.75 c 15.71,-3.21 31.98,-6.65 48.34,-10.24 l -2.35,-10.72 m 95.98,-22.35 c -16.3,4 -32.42,7.86 -47.92,11.47 l 2.49,10.68 c 15.53,-3.63 31.7,-7.49 48.04,-11.5 l -2.61,-10.65 m -915.91,-2.38 -4.58,9.96 c 14.9,6.86 30.28,13.36 45.72,19.32 l 3.95,-10.23 c -15.23,-5.87 -30.39,-12.28 -45.09,-19.05 m 1011.45,-21.93 c -16.42,4.32 -32.48,8.47 -47.72,12.36 l 2.7,10.62 c 15.28,-3.89 31.36,-8.06 47.81,-12.38 l -2.79,-10.6 m -1097.5,-24.6 -5.82,9.29 c 13.97,8.76 28.4,17.17 42.88,25.01 l 5.21,-9.65 c -14.27,-7.72 -28.49,-16.01 -42.27,-24.65 m 1192.74,-0.98 c -15.83,4.32 -31.7,8.63 -47.59,12.91 l 2.85,10.58 c 15.91,-4.27 31.79,-8.59 47.63,-12.91 l -2.89,-10.58 m 95.23,-26 c -7.17,1.84 -14.36,3.76 -21.39,5.7 l -26.27,7.25 2.91,10.57 26.28,-7.25 c 6.96,-1.92 14.09,-3.83 21.2,-5.65 l -2.73,-10.62 m 96.71,-21.32 c -16.53,3.1 -32.85,6.42 -48.52,9.86 l 2.35,10.71 c 15.56,-3.42 31.77,-6.71 48.18,-9.79 l -2.01,-10.78 m -1464.09,-8.83 -6.95,8.49 c 12.8,10.48 26.05,20.65 39.35,30.23 l 6.41,-8.9 c -13.13,-9.44 -26.18,-19.48 -38.81,-29.82 m 1561.8,-6.88 c -16.69,2.28 -33.17,4.73 -48.94,7.26 l 1.73,10.82 c 15.7,-2.51 32.08,-4.94 48.7,-7.22 l -1.49,-10.86 m 98.25,-11.55 c -16.79,1.69 -33.33,3.48 -49.17,5.33 l 1.28,10.89 c 15.79,-1.85 32.26,-3.63 48.97,-5.31 l -1.08,-10.91 m 98.49,-8.56 c -16.92,1.28 -33.5,2.61 -49.27,3.97 l 0.94,10.92 c 15.74,-1.35 32.26,-2.69 49.16,-3.95 l -0.83,-10.94 m 98.62,-6.54 c -17.39,1.03 -33.52,2.04 -49.32,3.08 l 0.71,10.94 c 15.79,-1.04 31.9,-2.05 49.24,-3.07 l -0.63,-10.95 m 98.78,-5.38 c -16.51,0.85 -33,1.71 -49.47,2.6 l 0.59,10.95 c 16.47,-0.89 32.94,-1.75 49.43,-2.6 l -0.55,-10.95 m 98.7,-4.99 c -15.65,0.8 -31.3,1.59 -46.96,2.38 l -2.35,0.11 0.55,10.96 2.34,-0.12 c 15.67,-0.79 31.33,-1.58 46.97,-2.38 l -0.55,-10.95 m 98.37,-5.35 c -16.34,0.96 -32.73,1.88 -49.14,2.77 l 0.59,10.95 c 16.43,-0.9 32.83,-1.81 49.18,-2.78 l -0.63,-10.94 m 98.42,-6.53 c -15.63,1.18 -32.17,2.34 -49.18,3.46 l 0.71,10.94 c 17.04,-1.13 33.63,-2.29 49.3,-3.47 l -0.83,-10.93 m 98.24,-8.55 c -15.77,1.59 -32.28,3.13 -49.08,4.59 l 0.95,10.92 c 16.85,-1.46 33.41,-3.01 49.22,-4.6 l -1.09,-10.91 m -2421.6,-2.06 -7.89,7.61 c 11.54,11.95 23.46,23.62 35.44,34.7 l 7.45,-8.06 c -11.83,-10.93 -23.61,-22.45 -35,-34.25 m 2519.44,-9.52 c -15.74,2.17 -32.18,4.27 -48.86,6.24 l 1.28,10.89 c 16.75,-1.98 33.26,-4.09 49.07,-6.27 l -1.49,-10.86 m 97.16,-15.81 c -15.64,2.97 -31.96,5.84 -48.47,8.52 l 1.76,10.82 c 16.61,-2.69 33.03,-5.58 48.75,-8.57 l -2.04,-10.77 m 95.91,-21.54 c -15.38,4.04 -31.44,7.94 -47.76,11.59 l 2.39,10.7 c 16.46,-3.68 32.65,-7.61 48.16,-11.69 l -2.79,-10.6 m -2776.703,-27.15 -8.641,6.75 c 10.238,13.1 20.836,25.98 31.484,38.28 l 8.29,-7.17 c -10.54,-12.17 -21.012,-24.9 -31.133,-37.86 m 2870.393,-1.98 c -14.93,5.45 -30.57,10.71 -46.49,15.65 l 3.25,10.47 c 16.08,-4.98 31.89,-10.31 47,-15.82 l -3.76,-10.3 m 89.78,-38.89 c -14.13,7.23 -29.01,14.23 -44.26,20.81 l 4.34,10.06 c 15.46,-6.67 30.58,-13.77 44.92,-21.11 l -5,-9.76 m -3016.896,-39.12 -9.215,5.94 c 9.016,13.99 18.344,27.8 27.727,41.05 l 8.945,-6.34 c -9.289,-13.12 -18.527,-26.8 -27.457,-40.65 m 3100.116,-11.76 c -12.86,9.38 -26.51,18.48 -40.57,27.06 l 5.7,9.36 c 14.33,-8.74 28.22,-18.01 41.33,-27.57 l -6.46,-8.85 m 72.89,-64.21 c -10.94,11.67 -22.68,23.04 -34.9,33.77 l 7.24,8.23 c 12.48,-10.97 24.47,-22.58 35.65,-34.5 l -7.99,-7.5 m -3222.83,-8.6 -9.649,5.2 c 7.899,14.66 16.074,29.17 24.289,43.14 l 9.45,-5.56 c -8.149,-13.85 -16.254,-28.24 -24.09,-42.78 m 3281.8,-68.44 c -8.51,13.76 -17.78,27.21 -27.55,39.99 l 8.7,6.66 c 10,-13.06 19.48,-26.82 28.18,-40.89 l -9.33,-5.76 m -3325.437,-19.57 -9.973,4.55 c 6.907,15.14 14.055,30.18 21.235,44.69 l 9.824,-4.86 c -7.133,-14.41 -14.227,-29.34 -21.086,-44.38 m 3368.427,-67.5 c -5.88,15.26 -12.42,30.25 -19.47,44.55 l 9.83,4.85 c 7.19,-14.6 13.88,-29.89 19.86,-45.46 l -10.22,-3.94 m 27.66,-93.51 c -1.34,5.91 -2.75,11.9 -4.19,17.82 -2.42,10.01 -5.07,19.96 -7.89,29.57 l 10.51,3.09 c 2.87,-9.78 5.58,-19.9 8.04,-30.07 1.44,-5.97 2.87,-12.02 4.22,-17.98 l -10.69,-2.43 m 17.89,-96.53 c -2.21,15.84 -4.89,32.14 -7.92,48.44 l 10.77,2.01 c 3.06,-16.46 5.77,-32.92 8.01,-48.92 l -10.86,-1.53 m 8.78,-97.65 c -0.57,15.95 -1.62,32.41 -3.11,48.93 l 10.92,0.99 c 1.52,-16.72 2.58,-33.38 3.13,-49.53 l -10.94,-0.39 m 8.2,-98.83 -10.91,1.05 c 1.51,15.87 2.51,32.28 2.94,48.8 l 10.97,-0.29 c -0.45,-16.77 -1.46,-33.44 -3,-49.56 m -17.06,-97.73 -10.61,2.77 c 4.03,15.44 7.49,31.47 10.29,47.64 l 10.81,-1.87 c -2.87,-16.47 -6.38,-32.8 -10.49,-48.54 m -33.69,-93.41 -9.92,4.68 c 6.85,14.51 13.11,29.64 18.63,44.96 l 10.31,-3.71 c -5.63,-15.65 -12.03,-31.11 -19.02,-45.93 m -51.05,-85.25 -8.81,6.53 c 9.66,13 18.75,26.61 27.04,40.46 l 9.42,-5.63 c -8.49,-14.16 -17.79,-28.08 -27.65,-41.36 m -66.65,-73.74 -7.41,8.07 c 12.05,11.06 23.6,22.69 34.36,34.57 l 8.13,-7.36 c -10.99,-12.13 -22.78,-24 -35.08,-35.28 m -78.67,-60.73 -5.98,9.19 c 13.82,8.99 27.25,18.49 39.9,28.24 l 6.68,-8.69 c -12.88,-9.92 -26.54,-19.59 -40.6,-28.74 m -87,-48.18 -4.66,9.92 c 14.98,7.05 29.68,14.54 43.68,22.27 l 5.29,-9.59 c -14.21,-7.85 -29.12,-15.45 -44.31,-22.6 m -92.22,-37.02 -3.54,10.37 c 15.7,5.35 31.2,11.07 46.07,17.03 l 4.08,-10.17 c -15.05,-6.03 -30.73,-11.83 -46.61,-17.23 m -95.27,-27.54 -2.58,10.65 c 16.09,3.9 32.07,8.13 47.46,12.56 l 3.04,-10.52 c -15.55,-4.49 -31.66,-8.76 -47.92,-12.69 m -97.1,-19.61 -1.78,10.81 c 16.34,2.7 32.61,5.66 48.39,8.84 l 2.16,-10.74 c -15.9,-3.21 -32.31,-6.2 -48.77,-8.91 m -98.26,-12.91 -1.1,10.91 c 16.44,1.65 32.89,3.54 48.9,5.64 l 1.42,-10.87 c -16.11,-2.12 -32.68,-4.02 -49.22,-5.68 m -346.2,-2.71 c -31.01,2.54 -49.21,4.93 -49.39,4.96 l 1.43,10.86 c 0.18,-0.01 18.15,-2.38 48.86,-4.89 l -0.9,-10.93 m 247.35,-4.38 -0.49,10.95 c 16.48,0.74 33.03,1.7 49.17,2.85 l 0.79,-10.94 c -16.25,-1.15 -32.89,-2.12 -49.47,-2.86 m -148.53,-1.04 c -16.53,0.49 -33.17,1.19 -49.43,2.08 l 0.59,10.94 c 16.18,-0.88 32.72,-1.58 49.17,-2.07 l -0.33,-10.95 m 60.58,-0.9 c -3.74,0 -7.43,0.02 -11.11,0.04 l 0.06,10.95 c 16.14,-0.09 32.95,0.02 49.26,0.33 l 0.22,-10.95 c -12.7,-0.25 -25.64,-0.37 -38.43,-0.37" /><path
         id="path96"
         style="fill:#73c0ff;fill-opacity:1;fill-rule:nonzero;stroke:none"
         d="m 3846.87,3100.15 c -131.39,0 -237.91,106.52 -237.91,237.91 0,131.39 106.52,237.91 237.91,237.91 131.4,0 237.91,-106.52 237.91,-237.91 0,-131.39 -106.51,-237.91 -237.91,-237.91 z m 309.62,318.13 c -7.53,29.13 -19.07,56.65 -33.99,81.95 l 34.6,52.05 -48,48 -48.01,48.01 -52.05,-34.6 c -25.3,14.91 -52.81,26.46 -81.95,33.99 l -12.32,61.22 h -67.9 -67.9 l -12.32,-61.22 c -29.13,-7.53 -56.66,-19.08 -81.95,-33.99 l -52.04,34.6 -48.01,-48.01 -48.01,-48 34.6,-52.05 c -14.91,-25.3 -26.46,-52.82 -33.99,-81.95 l -61.22,-12.33 v -67.89 -67.9 l 61.22,-12.32 c 7.53,-29.14 19.08,-56.66 33.99,-81.95 l -34.6,-52.05 48.01,-48.01 48.01,-48.01 52.04,34.61 c 25.29,-14.92 52.82,-26.47 81.95,-33.99 l 12.32,-61.22 h 67.9 67.9 l 12.32,61.22 c 29.14,7.52 56.65,19.07 81.95,33.99 l 52.05,-34.61 48.01,48.01 48,48.01 -34.6,52.05 c 14.92,25.29 26.46,52.81 33.99,81.95 l 61.22,12.32 v 67.9 67.89 l -61.22,12.33" /><path
         id="path98"
         style="fill:#dae8f5;fill-opacity:1;fill-rule:nonzero;stroke:none"
         d="M 3846.86,3183.87 V 2141.04 c 0,-68.91 -55.86,-124.79 -124.78,-124.79 H 2171.59 c -68.92,0 -124.79,55.88 -124.79,124.79 v 1042.83 c 0,68.92 55.87,124.77 124.79,124.77 h 1550.49 c 68.92,0 124.78,-55.85 124.78,-124.77" /><path
         id="path100"
         style="fill:#78c2ff;fill-opacity:1;fill-rule:nonzero;stroke:none"
         d="m 2627.18,2597.27 c -111.52,-39.89 -231.73,-3.89 -304.18,81.27 -17.26,20.29 -31.82,43.39 -42.9,68.92 -2.44,5.64 -4.72,11.4 -6.82,17.26 -21.08,58.93 -20.97,120.29 -3.61,175.73 25.05,80.03 86.02,147.77 171.05,178.17 28.07,10.04 56.69,15.26 84.94,16.13 116.73,3.52 227.51,-67.67 268.97,-183.57 51.48,-143.98 -23.49,-302.42 -167.45,-353.91 z m 254.45,385.02 c -55.28,154.58 -203.02,249.52 -358.72,244.84 -37.7,-1.13 -75.85,-8.11 -113.31,-21.5 -113.41,-40.56 -194.74,-130.9 -228.14,-237.63 -23.16,-73.96 -23.31,-155.8 4.8,-234.41 2.8,-7.81 5.84,-15.5 9.1,-23.01 14.79,-34.05 34.19,-64.85 57.24,-91.92 96.62,-113.6 256.96,-161.61 405.7,-108.42 192.02,68.68 292.01,280.02 223.33,472.05" /><path
         id="path102"
         style="fill:#1a598c;fill-opacity:1;fill-rule:nonzero;stroke:none"
         d="m 2269.67,2940.45 -88.21,27.55 c 33.4,106.73 114.73,197.07 228.14,237.63 37.46,13.39 75.61,20.37 113.31,21.5 l 2.75,-92.38 c -28.25,-0.87 -56.87,-6.09 -84.94,-16.13 -85.03,-30.4 -146,-98.14 -171.05,-178.17" /><path
         id="path104"
         style="fill:#2273b5;fill-opacity:1;fill-rule:nonzero;stroke:none"
         d="m 2280.1,2747.46 -84.74,-36.88 c -3.26,7.51 -6.3,15.2 -9.1,23.01 -28.11,78.61 -27.96,160.45 -4.8,234.41 l 88.21,-27.55 c -17.36,-55.44 -17.47,-116.8 3.61,-175.73 2.1,-5.86 4.38,-11.62 6.82,-17.26" /><path
         id="path106"
         style="fill:#4da8f2;fill-opacity:1;fill-rule:nonzero;stroke:none"
         d="m 2252.6,2618.66 c -23.05,27.07 -42.45,57.87 -57.24,91.92 l 84.74,36.88 c 11.08,-25.53 25.64,-48.63 42.9,-68.92 l -70.4,-59.88" /><path
         id="path108"
         style="fill:#6eb2eb;fill-opacity:1;fill-rule:nonzero;stroke:none"
         d="m 2228.79,2316.82 c 25.67,54.25 81.64,84.43 138.12,79.87 13.46,-1.08 26.96,-4.13 40.07,-9.33 2.9,-1.13 5.78,-2.38 8.64,-3.73 28.67,-13.56 50.61,-35.59 64.26,-61.69 19.7,-37.64 22.13,-83.77 2.55,-125.12 -6.46,-13.67 -14.84,-25.79 -24.66,-36.23 -40.57,-43.09 -105.78,-57.28 -162.16,-30.6 -70.04,33.14 -99.96,116.79 -66.82,186.83 z m 46.79,-229.15 c 75.2,-35.58 162.16,-16.67 216.28,40.81 13.1,13.91 24.28,30.08 32.91,48.3 26.09,55.17 22.87,116.7 -3.41,166.91 -18.21,34.8 -47.48,64.18 -85.72,82.27 -3.8,1.8 -7.65,3.47 -11.5,5 -17.5,6.89 -35.5,10.97 -53.46,12.42 -75.33,6.08 -149.99,-34.16 -184.23,-106.52 -44.2,-93.43 -4.3,-204.99 89.13,-249.19" /><path
         id="path110"
         style="fill:#1a598c;fill-opacity:1;fill-rule:nonzero;stroke:none"
         d="m 2479.88,2321.94 41.48,21.75 c 26.28,-50.21 29.5,-111.74 3.41,-166.91 -8.63,-18.22 -19.81,-34.39 -32.91,-48.3 l -34.09,32.11 c 9.82,10.44 18.2,22.56 24.66,36.23 19.58,41.35 17.15,87.48 -2.55,125.12" /><path
         id="path112"
         style="fill:#2273b5;fill-opacity:1;fill-rule:nonzero;stroke:none"
         d="m 2406.98,2387.36 17.16,43.6 c 3.85,-1.53 7.7,-3.2 11.5,-5 38.24,-18.09 67.51,-47.47 85.72,-82.27 l -41.48,-21.75 c -13.65,26.1 -35.59,48.13 -64.26,61.69 -2.86,1.35 -5.74,2.6 -8.64,3.73" /><path
         id="path114"
         style="fill:#4da8f2;fill-opacity:1;fill-rule:nonzero;stroke:none"
         d="m 2370.68,2443.38 c 17.96,-1.45 35.96,-5.53 53.46,-12.42 l -17.16,-43.6 c -13.11,5.2 -26.61,8.25 -40.07,9.33 l 3.77,46.69" /><path
         id="path116"
         style="fill:#4da8f2;fill-opacity:1;fill-rule:nonzero;stroke:none"
         d="M 3846.86,3183.87 V 2141.04 c 0,-68.91 -55.86,-124.79 -124.78,-124.79 h -686.46 v 1292.39 h 686.46 c 68.92,0 124.78,-55.85 124.78,-124.77" /><path
         id="path118"
         style="fill:#e3f2ff;fill-opacity:1;fill-rule:nonzero;stroke:none"
         d="m 3726.35,3108.87 h -570.2 c -8.98,0 -16.28,7.28 -16.28,16.27 v 33.12 c 0,8.99 7.3,16.28 16.28,16.28 h 570.2 c 8.99,0 16.28,-7.29 16.28,-16.28 v -33.12 c 0,-8.99 -7.29,-16.27 -16.28,-16.27" /><path
         id="path120"
         style="fill:#73c0ff;fill-opacity:1;fill-rule:nonzero;stroke:none"
         d="m 3726.35,2968 h -570.2 c -8.98,0 -16.28,7.29 -16.28,16.28 v 33.12 c 0,8.99 7.3,16.28 16.28,16.28 h 570.2 c 8.99,0 16.28,-7.29 16.28,-16.28 v -33.12 c 0,-8.99 -7.29,-16.28 -16.28,-16.28" /><path
         id="path122"
         style="fill:#73c0ff;fill-opacity:1;fill-rule:nonzero;stroke:none"
         d="m 3687.89,2129.53 h -493.28 c -30.24,0 -54.74,24.5 -54.74,54.74 v 633.12 c 0,30.23 24.5,54.74 54.74,54.74 h 493.28 c 30.23,0 54.74,-24.51 54.74,-54.74 v -633.12 c 0,-30.24 -24.51,-54.74 -54.74,-54.74" /><path
         id="path124"
         style="fill:#a2d2fa;fill-opacity:1;fill-rule:nonzero;stroke:none"
         d="m 3139.87,2359.45 c -23.15,10.64 -39.23,34.03 -39.23,61.18 v 415.8 c 0,37.16 30.13,67.29 67.3,67.29 h 79.46 c 24.05,0 45.15,-12.62 57.05,-31.59 h -109.84 c -30.24,0 -54.74,-24.51 -54.74,-54.74 v -457.94" /><path
         id="path126"
         style="fill:#b2dcff;fill-opacity:1;fill-rule:nonzero;stroke:none"
         d="m 3247.4,2353.34 h -79.46 c -10.02,0 -19.52,2.19 -28.07,6.11 v 457.94 c 0,30.23 24.5,54.74 54.74,54.74 h 109.84 c 6.49,-10.35 10.24,-22.58 10.24,-35.7 v -415.8 c 0,-37.16 -30.13,-67.29 -67.29,-67.29" /><path
         id="path128"
         style="fill:#78c2ff;fill-opacity:1;fill-rule:nonzero;stroke:none"
         d="m 3082.39,3359.21 h -1375.6 v 9.14 h 1375.6 v -9.14" /><path
         id="path130"
         style="fill:#4da8f2;fill-opacity:1;fill-rule:nonzero;stroke:none"
         d="m 1844.56,3580.39 c -34.62,0 -62.78,-28.15 -62.78,-62.77 0,-34.61 28.16,-62.77 62.78,-62.77 34.61,0 62.76,28.16 62.76,62.77 0,34.62 -28.15,62.77 -62.76,62.77 z m 0,-136.5 c -40.66,0 -73.74,33.08 -73.74,73.73 0,40.66 33.08,73.74 73.74,73.74 40.65,0 73.73,-33.08 73.73,-73.74 0,-40.65 -33.08,-73.73 -73.73,-73.73" /><path
         id="path132"
         style="fill:#eea886;fill-opacity:1;fill-rule:nonzero;stroke:none"
         d="m 1646.95,2603.7 c 0,0 68.87,-12.3 69.48,-70.63 0.61,-58.32 -52.75,-142.8 -87.44,-136.55 -34.68,6.25 -74.13,37.04 -72.79,72.52 1.34,35.48 11.17,82.1 27.16,107.68 15.99,25.58 44.35,28.24 63.59,26.98" /><path
         id="path134"
         style="fill:#e8734d;fill-opacity:1;fill-rule:nonzero;stroke:none"
         d="m 1558.6,2496.05 c 0,0 0.13,-11.9 23.82,-21.32 23.69,-9.44 67.21,3.77 78.14,1.58 10.92,-2.19 14.16,3.08 14.16,3.08 l 0.76,-11.64 9.26,-6.29 c 0,0 6.5,30.99 25.95,33.69 19.46,2.7 35.68,91.64 -48.23,108.47 0,0 -62.12,16.88 -78.14,-14.65 -16.03,-31.52 -28.72,-70.72 -25.72,-92.92" /><path
         id="path136"
         style="fill:#9cd2fe;fill-opacity:1;fill-rule:nonzero;stroke:none"
         d="m 2071.83,1481.95 h -539.65 c -44.48,0 -80.55,36.07 -80.55,80.54 v 539.66 c 0,44.48 36.07,80.55 80.55,80.55 h 398.86 c 28.41,-17.83 66.43,-21.99 95.73,-21.99 7.32,0 14.08,0.26 20.03,0.63 v -20.3 c 0,-62.38 45.77,-114.08 105.57,-123.32 v -455.23 c 0,-44.47 -36.06,-80.54 -80.54,-80.54" /><path
         id="path138"
         style="fill:#87bfdb;fill-opacity:1;fill-rule:nonzero;stroke:none"
         d="m 2026.77,2160.71 c -29.3,0 -67.32,4.16 -95.73,21.99 h 115.76 v -21.36 c -5.95,-0.37 -12.71,-0.63 -20.03,-0.63" /><path
         id="path140"
         style="fill:#96cffd;fill-opacity:1;fill-rule:nonzero;stroke:none"
         d="m 2152.37,2017.72 c -59.8,9.24 -105.57,60.94 -105.57,123.32 v 20.3 21.36 h 25.03 c 44.48,0 80.54,-36.07 80.54,-80.55 v -84.43" /><path
         id="path142"
         style="fill:#e3f2ff;fill-opacity:1;fill-rule:nonzero;stroke:none"
         d="m 2098.08,3238.44 v -391.82 c 0,-38.77 -31.42,-70.2 -70.2,-70.2 h -560.36 c -38.77,0 -70.2,31.43 -70.2,70.2 v 391.82 c 0,38.78 31.43,70.2 70.2,70.2 h 560.36 c 38.78,0 70.2,-31.42 70.2,-70.2" /><path
         id="path144"
         style="fill:#e3f2ff;fill-opacity:1;fill-rule:nonzero;stroke:none"
         d="m 2082.4,2004.32 h -239.27 c -9.09,0 -16.46,7.37 -16.46,16.46 v 42.45 c 0,9.09 7.37,16.47 16.46,16.47 h 239.27 c 9.09,0 16.47,-7.38 16.47,-16.47 v -42.45 c 0,-9.09 -7.38,-16.46 -16.47,-16.46" /><path
         id="path146"
         style="fill:#e3f2ff;fill-opacity:1;fill-rule:nonzero;stroke:none"
         d="m 2060.96,1566.5 h -196.38 c -20.94,0 -37.91,16.98 -37.91,37.9 v 323.71 c 0,20.92 16.97,37.9 37.91,37.9 h 196.38 c 20.93,0 37.91,-16.98 37.91,-37.9 V 1604.4 c 0,-20.92 -16.98,-37.9 -37.91,-37.9" /><path
         id="path148"
         style="fill:#e3f2ff;fill-opacity:1;fill-rule:nonzero;stroke:none"
         d="m 1555.35,1987.01 c 0.39,30 14.81,56.53 36.94,73.43 16.12,12.31 36.31,19.52 58.16,19.25 40.16,-0.51 74.1,-26.17 87.05,-61.83 l 0.02,-0.05 c 3.08,-8.47 4.97,-17.52 5.48,-26.93 0.11,-2.07 0.14,-4.17 0.12,-6.29 -0.27,-21.22 -7.58,-40.69 -19.64,-56.27 -17.43,-22.47 -44.81,-36.8 -75.44,-36.39 -10.12,0.13 -19.83,1.85 -28.91,4.93 -37.51,12.67 -64.31,48.39 -63.78,90.15 z m 53.73,-119.84 c 12.11,-4.1 25.07,-6.4 38.55,-6.57 40.85,-0.53 77.38,18.56 100.63,48.52 16.11,20.77 25.84,46.76 26.19,75.07 0.04,2.82 -0.02,5.62 -0.16,8.39 -0.67,12.58 -3.21,24.66 -7.33,35.99 -17.26,47.53 -62.54,81.75 -116.1,82.46 -28.86,0.37 -55.56,-9.05 -76.94,-25.19 -29.88,-22.53 -49.38,-58.13 -49.89,-98.43 -0.71,-55.66 35.01,-103.31 85.05,-120.24" /><path
         id="path150"
         style="fill:#1a598c;fill-opacity:1;fill-rule:nonzero;stroke:none"
         d="m 1723.47,1928.32 24.78,-19.2 c -23.24,-29.96 -59.77,-49.05 -100.62,-48.53 -13.48,0.18 -26.44,2.48 -38.55,6.57 l 10.05,29.7 c 9.08,-3.08 18.79,-4.8 28.91,-4.93 30.62,-0.4 58,13.92 75.43,36.39" /><path
         id="path152"
         style="fill:#2273b5;fill-opacity:1;fill-rule:nonzero;stroke:none"
         d="m 1742.99,1990.89 31.3,1.7 c 0.14,-2.78 0.2,-5.58 0.16,-8.4 -0.36,-28.3 -10.09,-54.3 -26.2,-75.07 l -24.78,19.2 c 12.08,15.57 19.37,35.06 19.65,56.27 0.02,2.12 -0.02,4.22 -0.13,6.3" /><path
         id="path154"
         style="fill:#2273b5;fill-opacity:1;fill-rule:nonzero;stroke:none"
         d="m 1743,1990.88 c -0.51,9.41 -2.4,18.46 -5.48,26.93 l -0.02,0.05 29.46,10.71 c 4.12,-11.33 6.66,-23.41 7.33,-35.99 l -31.29,-1.7" /><path
         id="path156"
         style="fill:#4da8f2;fill-opacity:1;fill-rule:nonzero;stroke:none"
         d="m 1573.92,2085.84 c 21.38,16.14 48.08,25.56 76.94,25.19 53.56,-0.71 98.84,-34.93 116.1,-82.46 l -29.44,-10.76 -0.02,0.05 c -12.95,35.66 -46.89,61.32 -87.05,61.83 -21.85,0.27 -42.04,-6.94 -58.16,-19.25 l -18.37,25.4" /><path
         id="path158"
         style="fill:#d6d6d6;fill-opacity:1;fill-rule:nonzero;stroke:none"
         d="m 726.57,3071.5 150.946,235.84 -76.664,-34.76 z" /><path
         id="path160"
         style="fill:#e8e8e8;fill-opacity:1;fill-rule:nonzero;stroke:none"
         d="m 726.57,3071.5 9.215,142.14 54.836,31.26 z" /><path
         id="path162"
         style="fill:#c2c2c2;fill-opacity:1;fill-rule:nonzero;stroke:none"
         d="M 842.805,3253.11 861.656,3228.26 726.57,3071.5 Z" /><path
         id="path164"
         style="fill:#eea886;fill-opacity:1;fill-rule:nonzero;stroke:none"
         d="m 1775.28,2146.72 c 0,0 6.75,0.88 10.68,4.88 6.78,6.92 7.41,21.52 21.07,22.51 13.64,0.99 26.25,-40.41 24.06,-48.92 -2.18,-8.51 -20.32,-15.34 -48.85,-13.96 -28.52,1.38 -6.96,35.49 -6.96,35.49" /><path
         id="path166"
         style="fill:#eea886;fill-opacity:1;fill-rule:nonzero;stroke:none"
         d="m 1802.44,2173.13 c 0,0 18.41,9.52 40.08,17.71 19.01,7.19 42.52,12.3 45.07,9.03 5.68,-7.26 -16.5,-12.38 -34.93,-20.73 -16.97,-7.68 -14.05,-6.45 -14.05,-6.45 0,0 -1.26,0.42 18.69,5.33 21.46,5.29 43.88,8.6 46.74,4.59 1.39,-1.96 3.89,-8.77 -5.11,-8.49 4.68,0.92 3.95,1.63 4.41,-0.23 2.4,-9.66 -28.17,-22.22 -40.31,-27.2 9.35,3.77 16.56,5.58 14.05,-1.51 -2.86,-8.12 -46.79,-23.99 -62.05,-31.13 -16.65,-7.78 -12.59,59.08 -12.59,59.08" /><path
         id="path168"
         style="fill:#d4d8e8;fill-opacity:1;fill-rule:nonzero;stroke:none"
         d="m 1476.27,2431.94 c 0,0 -43.03,3.12 -73.4,0 -30.37,-3.1 -72.34,-27.96 -97.74,-35.13 -25.4,-7.18 -86.7,-48.37 -85.04,-54.01 1.65,-5.63 25.4,-72.66 69.3,-127.12 37.57,-46.6 186.88,216.26 186.88,216.26" /><path
         id="path170"
         style="fill:#a9adba;fill-opacity:1;fill-rule:nonzero;stroke:none"
         d="m 1383.41,2404.93 c 0,0 -46.39,-34.34 -62.55,-65.83 -16.15,-31.47 -21.66,-68.96 -21.66,-68.96 l 84.21,134.79" /><path
         id="path172"
         style="fill:#1c4154;fill-opacity:1;fill-rule:nonzero;stroke:none"
         d="m 1418.57,1382.02 c 0,0 13.26,-14.08 20.92,-17.81 7.66,-3.73 99.18,-19.47 105.4,-26.92 6.21,-7.46 6.21,-36.86 -17.4,-36.86 -23.6,0 -102.29,0.42 -115.55,0 -13.25,-0.41 -69.23,-11.6 -74.99,0 -5.76,11.59 -5.23,65.71 5,78.68 10.24,12.98 76.62,2.91 76.62,2.91" /><path
         id="path174"
         style="fill:#2a617d;fill-opacity:1;fill-rule:nonzero;stroke:none"
         d="m 1415.75,1398.46 2.82,-16.44 c 0,0 -24.43,-11.18 -76.62,-2.91 v 16.99 l 73.8,2.36" /><path
         id="path176"
         style="fill:#1c4154;fill-opacity:1;fill-rule:nonzero;stroke:none"
         d="m 859.918,1427.57 c 0,0 -10.25,-11.91 -15.324,-27.34 -3.242,-9.87 -18.637,-55.91 -12.012,-67.09 6.629,-11.19 58.809,-12.84 84.902,-8.7 26.09,4.14 82.826,-4.55 88.626,6.62 5.8,11.19 9.11,27.5 -7.868,33.84 -16.98,6.34 -55.906,22.91 -62.949,40.31 -7.039,17.39 -75.375,22.36 -75.375,22.36" /><path
         id="path178"
         style="fill:#2a617d;fill-opacity:1;fill-rule:nonzero;stroke:none"
         d="m 942.527,1423.84 -7.234,-18.63 c 0,0 -74.758,5.6 -75.375,22.36 l 23.605,34.37 59.004,-38.1" /><path
         id="path180"
         style="fill:#eea886;fill-opacity:1;fill-rule:nonzero;stroke:none"
         d="m 1556.31,2463.68 c 0,0 -41.67,-35.39 -53.53,-32.5 -11.86,2.89 40.87,-74.86 40.87,-74.86 0,0 50.2,49.41 61.51,50.91 11.3,1.5 -48.85,56.45 -48.85,56.45" /><path
         id="path182"
         style="fill:#d4d8e8;fill-opacity:1;fill-rule:nonzero;stroke:none"
         d="m 1559.14,2323.93 c -14.19,-8.58 -16.57,-11.33 -14.91,-51.92 1.65,-40.58 18.49,-73.3 19.73,-84.48 1.25,-11.18 23.79,-122.1 30,-128.31 6.22,-6.21 80.46,8.26 95.48,12.91 22.48,6.97 117.62,39.19 117.62,39.19 l -20.93,43.64 c 0,0 -120.1,-26.79 -123.97,-17.4 -3.86,9.38 -13.26,88.22 -16.58,105.34 -3.31,17.12 2.46,44.02 -17.99,84.63 -18.31,36.36 -68.45,-3.6 -68.45,-3.6" /><path
         id="path184"
         style="fill:#326ea0;fill-opacity:1;fill-rule:nonzero;stroke:none"
         d="m 1418.31,2018.56 c 0,0 25.45,-27.08 32.58,-35.88 48.76,-60.26 115.14,-170.91 123.42,-190.24 8.28,-19.32 -41.03,-156 -61.29,-203.75 -10.63,-25.05 -80.9,-197.56 -78.69,-201.42 2.21,-3.87 -74.34,-6.42 -108.58,11.25 0,0 49.23,145.84 59.59,174.43 15.67,43.18 69.96,162.78 71.62,174.37 1.65,11.61 -87.78,107.23 -117.6,125.45 -29.82,18.23 -102.7,82.84 -110.99,91.12 -8.28,8.28 -55.22,30.37 -50.8,72.34 4.42,41.96 35.61,75.09 35.61,75.09 l 205.13,-92.76" /><path
         id="path186"
         style="fill:#326ea0;fill-opacity:1;fill-rule:nonzero;stroke:none"
         d="m 1284.5,1914.74 c 0,0 -4.66,-12.26 -11.2,-29.45 -14.05,-36.88 -36.74,-96.42 -40.52,-105.84 -5.51,-13.81 -33.13,-73.44 -46.38,-85.05 -13.26,-11.59 -231.361,-273.33 -231.927,-275.53 -0.543,-2.21 -81.719,39.76 -86.684,55.78 0,0 118.164,154.06 136.381,176.69 18.23,22.64 56.33,56.32 69.03,109.89 12.71,53.56 103.79,259.53 104.07,267.27 0,0 14.66,63.49 35.91,82.82 21.26,19.33 98.57,-3.31 110.72,-43.61 12.15,-40.33 -39.4,-152.97 -39.4,-152.97" /><path
         id="path188"
         style="fill:#d4d8e8;fill-opacity:1;fill-rule:nonzero;stroke:none"
         d="m 1499.01,2431.55 17.61,6.95 c 0,0 44.45,-10.22 70.12,-45.83 l -2.2,-10.65 c 0,0 -67.79,14.7 -85.53,49.53" /><path
         id="path190"
         style="fill:#a9adba;fill-opacity:1;fill-rule:nonzero;stroke:none"
         d="m 1566.88,2172.28 c -3.57,-4.98 -6.46,-8.53 -8.3,-10.15 -1.26,-1.09 -2.78,-2.36 -4.54,-3.79 l -0.03,-0.02 -1.67,66.8 c 0,0 8.38,-25.75 9.62,-29.55 1.26,-3.84 4.92,-23.29 4.92,-23.29" /><path
         id="path192"
         style="fill:#215b8a;fill-opacity:1;fill-rule:nonzero;stroke:none"
         d="m 1284.5,1914.74 c 0,0 -4.66,-12.26 -11.2,-29.45 -14.84,17.09 -48.72,81.66 -48.72,81.66 2.21,-1.58 9.3,-8.23 10.94,-9.7 1.62,-1.5 48.98,-42.51 48.98,-42.51" /><path
         id="path194"
         style="fill:#eea886;fill-opacity:1;fill-rule:nonzero;stroke:none"
         d="m 1663.83,2481.55 c 1.57,5.06 -2.21,24.4 -14.56,13.39 -12.34,-11.01 -12.29,-35.68 -5.32,-37.69 6.97,-2.02 15.92,11.47 19.88,24.3" /><path
         id="path196"
         style="fill:#e8734d;fill-opacity:1;fill-rule:nonzero;stroke:none"
         d="m 1617.68,2590.13 c 0,0 -59.76,42.49 -60.09,-102.41 l 60.09,102.41" /><path
         id="path198"
         style="fill:#d4d8e8;fill-opacity:1;fill-rule:nonzero;stroke:none"
         d="m 1566.88,2172.28 c -3.57,-4.98 -6.46,-8.53 -8.3,-10.15 -1.26,-1.09 -2.78,-2.36 -4.54,-3.79 l -0.03,-0.02 c -16.86,-13.49 -54.7,-39.71 -72.18,-49.2 -19.33,-10.51 -55.98,-98.91 -55.98,-98.91 0,0 -172.91,11.66 -212.67,101.11 0,0 28.17,62.95 53.85,100.22 25.67,37.28 81.99,171.47 111.81,190.51 29.82,19.05 55.5,31.49 114.31,29.82 58.81,-1.66 91.39,-48.32 91.39,-48.32 0,0 44.73,-48.04 49.14,-73.44 3.81,-21.85 -44.75,-107.11 -66.8,-137.83" /><path
         id="path200"
         style="fill:#4da8f2;fill-opacity:1;fill-rule:nonzero;stroke:none"
         d="m 2098.08,3238.44 -1.22,-38.97 h -700.75 l 1.21,38.97 c 0,38.78 31.43,70.2 70.2,70.2 h 560.36 c 38.78,0 70.2,-31.42 70.2,-70.2" /><path
         id="path202"
         style="fill:#78c2ff;fill-opacity:1;fill-rule:nonzero;stroke:none"
         d="m 1476.14,3157.45 c -12.18,0 -22.08,-9.91 -22.08,-22.08 V 2854.3 c 0,-12.18 9.9,-22.08 22.08,-22.08 h 140.99 c 12.18,0 22.08,9.9 22.08,22.08 v 281.07 c 0,12.17 -9.9,22.08 -22.08,22.08 z m 140.99,-336.19 h -140.99 c -18.22,0 -33.04,14.82 -33.04,33.04 v 281.07 c 0,18.22 14.82,33.04 33.04,33.04 h 140.99 c 18.22,0 33.05,-14.82 33.05,-33.04 V 2854.3 c 0,-18.22 -14.83,-33.04 -33.05,-33.04" /><path
         id="path204"
         style="fill:#78c2ff;fill-opacity:1;fill-rule:nonzero;stroke:none"
         d="m 2034.46,3133.7 h -335.91 c -6.06,0 -10.97,4.91 -10.97,10.97 v 7.28 c 0,6.06 4.91,10.98 10.97,10.98 h 335.91 c 6.07,0 10.98,-4.92 10.98,-10.98 v -7.28 c 0,-6.06 -4.91,-10.97 -10.98,-10.97" /><path
         id="path206"
         style="fill:#78c2ff;fill-opacity:1;fill-rule:nonzero;stroke:none"
         d="m 2034.46,3074.32 h -335.91 c -6.06,0 -10.97,4.91 -10.97,10.97 v 7.28 c 0,6.06 4.91,10.98 10.97,10.98 h 335.91 c 6.07,0 10.98,-4.92 10.98,-10.98 v -7.28 c 0,-6.06 -4.91,-10.97 -10.98,-10.97" /><path
         id="path208"
         style="fill:#6eb2eb;fill-opacity:1;fill-rule:nonzero;stroke:none"
         d="m 2850.12,2333.9 h -221.84 c -9.38,0 -16.97,7.6 -16.97,16.98 v 34.26 c 0,9.37 7.59,16.97 16.97,16.97 h 221.84 c 9.37,0 16.98,-7.6 16.98,-16.97 v -34.26 c 0,-9.38 -7.61,-16.98 -16.98,-16.98" /><path
         id="path210"
         style="fill:#4da8f2;fill-opacity:1;fill-rule:nonzero;stroke:none"
         d="m 2850.12,2222.71 h -221.84 c -9.38,0 -16.97,7.6 -16.97,16.98 v 34.26 c 0,9.37 7.59,16.97 16.97,16.97 h 221.84 c 9.37,0 16.98,-7.6 16.98,-16.97 v -34.26 c 0,-9.38 -7.61,-16.98 -16.98,-16.98" /><path
         id="path212"
         style="fill:#2273b5;fill-opacity:1;fill-rule:nonzero;stroke:none"
         d="m 2850.12,2111.52 h -221.84 c -9.38,0 -16.97,7.6 -16.97,16.98 v 34.25 c 0,9.38 7.59,16.98 16.97,16.98 h 221.84 c 9.37,0 16.98,-7.6 16.98,-16.98 v -34.25 c 0,-9.38 -7.61,-16.98 -16.98,-16.98" /><path
         id="path214"
         style="fill:#e3f2ff;fill-opacity:1;fill-rule:nonzero;stroke:none"
         d="m 1509.49,3249.41 c 0,-16.82 -13.64,-30.45 -30.46,-30.45 -16.81,0 -30.45,13.63 -30.45,30.45 0,16.82 13.64,30.45 30.45,30.45 16.82,0 30.46,-13.63 30.46,-30.45" /><path
         id="path216"
         style="fill:#2273b5;fill-opacity:1;fill-rule:nonzero;stroke:none"
         d="m 3800.13,2196.73 c 0,0 123.8,-39.95 152.37,-32.92 15.11,3.73 38.73,25.15 60.68,48.25 3.63,3.83 7.21,7.71 10.72,11.54 24.2,26.63 43.97,52.01 43.97,52.01 0,0 59.96,70.27 11.85,101.59 0,0 -21.23,-2 -37.28,-19.19 -16.04,-17.19 -31.09,-44.59 -35.29,-53.76 -4.2,-9.17 -63.09,-94.11 -66.15,-96.02 -3.05,-1.9 -28.78,4.86 -49.41,6.57 -33.65,2.81 -83.99,19.96 -83.99,19.96 l -7.47,-38.03" /><path
         id="path218"
         style="fill:#16202e;fill-opacity:1;fill-rule:nonzero;stroke:none"
         d="m 3970.3,1434.04 c 0,0 -15.75,-28.18 -25.11,-33.89 -11.66,-7.11 -34.29,-29.94 -42.2,-31 -7.9,-1.04 -36.31,-6.09 -30.82,-22.13 4.49,-13.15 72.26,-11.26 79.9,-4.67 7.65,6.59 30.5,30.23 39.73,29.7 9.23,-0.53 5.8,-34.1 5.8,-34.1 h 10.01 c 0,0 3.49,32.67 3.91,38.29 1.25,16.62 -10.59,28.86 -11.12,38.34 -0.54,9.48 -1.07,16.56 -1.07,16.56 l -29.03,2.9" /><path
         id="path220"
         style="fill:#eea886;fill-opacity:1;fill-rule:nonzero;stroke:none"
         d="m 3905.26,1369.92 c 0,0 22.34,-7.71 39.53,2.17 17.19,9.88 50.19,24.88 61.86,24.99 0,0 -6.37,19.46 -6.49,21.64 -0.14,2.18 -0.83,12.42 -0.83,12.42 l -28.85,4.63 c 0,0 -18.71,-27.47 -26.96,-33.94 -8.25,-6.47 -29.37,-22.6 -38.26,-31.91" /><path
         id="path222"
         style="fill:#eea886;fill-opacity:1;fill-rule:nonzero;stroke:none"
         d="m 4242.68,1407.53 c 0,0 -2.8,-19.5 -5.83,-24.82 -3.04,-5.32 -11.4,-32.43 -15.2,-37.49 -3.8,-5.06 -12.16,-43.06 0,-47.61 12.16,-4.56 40.78,-12.16 50.4,3.03 9.63,15.21 10.89,30.4 9.38,42.05 -1.53,11.65 -13.08,65.12 -12.92,70.42 0.16,5.29 -25.83,-5.58 -25.83,-5.58" /><path
         id="path224"
         style="fill:#16202e;fill-opacity:1;fill-rule:nonzero;stroke:none"
         d="m 4226.5,1355.74 c 0,0 -1.3,-29.51 20.98,-29.51 22.3,0 32.17,26.86 32.17,26.86 0,0 7.6,-13.19 0,-41.29 -7.6,-28.13 -39.26,-22.3 -46.35,-21.28 -7.09,1 -40.7,9.9 -6.8,65.22" /><path
         id="path226"
         style="fill:#1a598c;fill-opacity:1;fill-rule:nonzero;stroke:none"
         d="m 4205.9,2079.98 c 0,0 28.82,-36.72 38.98,-61.01 10.17,-24.28 27.11,-77.53 24.86,-118.77 -2.26,-41.24 -15.82,-118.64 -11.87,-136.15 3.96,-17.51 7.9,-53.66 12.15,-66.09 4.24,-12.43 21.18,-48.59 22.88,-85.86 1.69,-37.29 -12.06,-200.84 -10.94,-216.09 1.14,-15.25 -49.35,-5.93 -49.35,-5.93 0,0 -1.29,147.44 -6.94,172.86 -5.65,25.43 -12.43,111.86 -17.52,118.08 -5.07,6.21 -19.34,71.74 -20.26,82.44 -0.89,10.35 -61.33,189.52 -64.71,220.02 -3.39,30.5 -79.07,96.5 -79.07,96.5 0,0 74.23,28.39 161.79,0" /><path
         id="path228"
         style="fill:#1a598c;fill-opacity:1;fill-rule:nonzero;stroke:none"
         d="m 4018.19,1425.96 c 10.75,1.69 39.5,166.93 36.11,196.31 -3.4,29.37 -6.78,92 2.83,117.46 6.3,16.71 45.67,101.72 72.17,161.4 3.73,8.43 7.21,16.34 10.31,23.5 8.41,19.41 13.96,33.18 14.11,36.01 0.58,11.3 37.4,205.92 -108.11,119.34 0,0 -1.48,-15.39 -3.17,-21.03 -1.71,-5.65 -40.68,-149.71 -44.63,-205.07 -3.96,-55.36 -14.13,-102.32 -15.82,-114.15 -1.7,-11.83 1.69,-51.38 5.08,-61.55 3.39,-10.16 -22.04,-239.74 -23.73,-245.4 -1.69,-5.65 44.13,-8.51 54.85,-6.82" /><path
         id="path230"
         style="fill:#eddad3;fill-opacity:1;fill-rule:nonzero;stroke:none"
         d="m 4102.69,2387.48 c 0,0 -27.54,-13 -37.1,-14.91 -9.56,-1.91 -46.66,-50.09 -53.18,-67.68 -6.5,-17.59 -0.01,-43.97 13.37,-74.95 13.38,-30.98 0.75,-41.31 6.87,-72.28 6.11,-30.97 11.45,-96.56 10.3,-113.76 -1.15,-17.21 154.67,-20.5 190.23,10.85 0,0 -35.72,53.54 -40.31,61.19 -4.59,7.65 -0.75,49.33 3.46,60.04 4.21,10.71 34.02,99.16 34.02,99.16 0,0 21.12,72.53 0.43,88.6 -17.97,13.96 -66.95,18.95 -75.74,22 -8.8,3.07 -34.39,4.41 -52.35,1.74" /><path
         id="path232"
         style="fill:#d6c5be;fill-opacity:1;fill-rule:nonzero;stroke:none"
         d="m 4093.87,2326.1 -16.72,19.59 14.54,51.59 c 0,0 4.87,-28.73 2.18,-71.18" /><path
         id="path234"
         style="fill:#eea886;fill-opacity:1;fill-rule:nonzero;stroke:none"
         d="m 4089.55,2419.26 c 0,0 5.48,-50.52 4.34,-66.97 0,0 28.59,-28.68 61.15,33.45 0,0 -13.68,25.62 -3.38,60.52 10.32,34.89 -62.11,-27 -62.11,-27" /><path
         id="path236"
         style="fill:#eea886;fill-opacity:1;fill-rule:nonzero;stroke:none"
         d="m 4093.89,2352.29 -0.02,-26.19 32.94,24.59 z" /><path
         id="path238"
         style="fill:#d6c5be;fill-opacity:1;fill-rule:nonzero;stroke:none"
         d="m 4093.87,2326.1 13.68,16.92 46.05,45.89 14.91,-14.36 -74.64,-48.45" /><path
         id="path240"
         style="fill:#2273b5;fill-opacity:1;fill-rule:nonzero;stroke:none"
         d="m 4146.77,2019.08 c 12.96,-62.07 106.76,6.98 106.76,6.98 0,0 -60.82,102.2 -36.62,183.88 l 0.58,1.93 c 1.54,5.16 3.09,10.07 4.63,14.74 l 0.82,2.51 c 5.28,16.06 9.6,29.34 13.1,40.26 v 0.01 c 10.81,33.62 13.94,44.69 13.94,44.69 0,0 -4.63,52.33 -30.47,58.07 -25.95,5.76 -53.36,11.18 -53.36,11.18 0,0 -44.8,-57.45 -46.66,-83.27 -1.85,-25.8 14.31,-218.9 27.28,-280.98" /><path
         id="path242"
         style="fill:#2273b5;fill-opacity:1;fill-rule:nonzero;stroke:none"
         d="m 4008.57,2293.01 c 0,0 -2.9,-35.59 21.54,-82.33 0,0 -0.52,-62.57 -1.29,-84.37 -0.77,-21.8 -5.96,-104.21 -5.96,-104.21 l 26.86,-15.74 c 5.41,-3.17 12.11,1.22 11.34,7.45 -7.58,62.72 -32.26,300.67 21.2,364.62 l -23.82,-8.22 c 0,0 -49.87,-52.31 -49.87,-77.2" /><path
         id="path244"
         style="fill:#fae6de;fill-opacity:1;fill-rule:nonzero;stroke:none"
         d="m 4077.15,2345.69 -21.09,-5.81 35.63,57.4 z" /><path
         id="path246"
         style="fill:#fae6de;fill-opacity:1;fill-rule:nonzero;stroke:none"
         d="m 4107.55,2343.02 19.25,-25.25 39.35,65.56 -12.55,5.58 -46.05,-45.89" /><path
         id="path248"
         style="fill:#eea886;fill-opacity:1;fill-rule:nonzero;stroke:none"
         d="m 4109.48,2582.29 c -20.14,1.93 -65.42,-6.09 -74.86,-59.29 0,0 0.93,-14.5 3.9,-26.01 2.95,-11.5 -8.79,-44.44 -6.22,-46.22 2.56,-1.77 13.42,-4.4 13.42,-4.4 0,0 10.05,-37.07 22.88,-37.37 12.84,-0.3 61.84,7.42 86.86,51.76 25.02,44.34 35.39,113.7 -45.98,121.53" /><path
         id="path250"
         style="fill:#344052;fill-opacity:1;fill-rule:nonzero;stroke:none"
         d="m 4034.62,2523 c 0,0 31.72,-23.91 64.03,-29.97 32.33,-6.06 49.81,-62.29 49.81,-62.29 0,0 54.21,81.47 16.66,133.64 -37.55,52.17 -134.61,21.34 -130.5,-41.38" /><path
         id="path252"
         style="fill:#eea886;fill-opacity:1;fill-rule:nonzero;stroke:none"
         d="m 4112.26,2493.89 c 0.47,6.29 7.94,15.41 17.85,6.31 9.91,-9.1 -5.39,-38.38 -13.71,-35.05 -8.32,3.34 -4.63,22.23 -4.14,28.74" /><path
         id="path254"
         style="fill:#a77860;fill-opacity:1;fill-rule:nonzero;stroke:none"
         d="m 4089.48,2411.95 c 0.73,-3.92 1.48,-8.51 2.09,-13.38 27.12,15.47 41.34,35.16 41.34,35.16 -15.69,-12.89 -43.43,-21.78 -43.43,-21.78" /><path
         id="path256"
         style="fill:#e4f2fe;fill-opacity:1;fill-rule:nonzero;stroke:none"
         d="m 3915,2068.62 c -0.06,0 -0.13,0 -0.2,0 l -90.77,0.45 c 14.38,20.34 22.83,45.17 22.83,71.97 v 41.7 c 33.03,-9.28 75.16,-19.76 96.95,-19.76 3.45,0 6.38,0.26 8.69,0.83 0.85,0.21 1.73,0.48 2.64,0.8 l -0.28,-56.33 c -0.1,-21.94 -17.94,-39.66 -39.86,-39.66 m 23.93,139.28 c -7.16,0 -29.22,5.4 -47.34,6.9 -13.65,1.14 -30.05,4.64 -44.73,8.4 v 190.44 c 3.05,1.07 6.08,2.17 9.1,3.27 l 60.56,-0.3 c 22.02,-0.11 39.78,-18.05 39.67,-40.07 l -0.74,-149.01 c -7.78,-10.94 -13.55,-18.74 -14.45,-19.3 -0.37,-0.23 -1.08,-0.33 -2.07,-0.33" /><path
         id="path258"
         style="fill:#dceaf6;fill-opacity:1;fill-rule:nonzero;stroke:none"
         d="m 3846.86,2413.64 v 3.31 l 9.1,-0.04 c -3.02,-1.1 -6.05,-2.2 -9.1,-3.27" /><path
         id="path260"
         style="fill:#cbe7fd;fill-opacity:1;fill-rule:nonzero;stroke:none"
         d="m 3824.03,2069.07 -311.27,1.54 c -22.02,0.11 -39.77,18.04 -39.66,40.05 l 0.09,18.87 h 214.7 c 30.23,0 54.74,24.5 54.74,54.74 v 233.2 l 104.23,-0.52 v -3.31 -190.44 c -21.48,5.5 -39.26,11.56 -39.26,11.56 l -7.47,-38.03 c 0,0 20.49,-6.62 46.73,-13.99 v -41.7 c 0,-26.8 -8.45,-51.63 -22.83,-71.97" /><path
         id="path262"
         style="fill:#d1eaff;fill-opacity:1;fill-rule:nonzero;stroke:none"
         d="m 3687.89,2129.53 h -214.7 l 1.23,249.4 c 0.11,21.95 17.94,39.66 39.86,39.66 0.07,0 0.14,0 0.2,0 l 228.15,-1.12 v -233.2 c 0,-30.24 -24.51,-54.74 -54.74,-54.74" /><path
         id="path264"
         style="fill:#c5dff5;fill-opacity:1;fill-rule:nonzero;stroke:none"
         d="m 3943.81,2162.98 c -21.79,0 -63.92,10.48 -96.95,19.76 -26.24,7.37 -46.73,13.99 -46.73,13.99 l 7.47,38.03 c 0,0 17.78,-6.06 39.26,-11.56 14.68,-3.76 31.08,-7.26 44.73,-8.4 18.12,-1.5 40.18,-6.9 47.34,-6.9 0.99,0 1.7,0.1 2.07,0.33 0.9,0.56 6.67,8.36 14.45,19.3 l -0.31,-62.92 c -0.91,-0.32 -1.79,-0.59 -2.64,-0.8 -2.31,-0.57 -5.24,-0.83 -8.69,-0.83" /><path
         id="path266"
         style="fill:#a1d4ff;fill-opacity:1;fill-rule:nonzero;stroke:none"
         d="m 3691.77,2097.54 204.9,-1.02 c 14.43,-0.06 26.19,11.59 26.27,26.01 l 1.12,227.9 c 0.07,14.42 -11.57,26.18 -26,26.26 l -204.92,1.01 c -14.42,0.07 -26.19,-11.57 -26.26,-26.01 l -1.12,-227.88 c -0.08,-14.44 11.57,-26.2 26.01,-26.27" /><path
         id="path268"
         style="fill:#a1d4ff;fill-opacity:1;fill-rule:nonzero;stroke:none"
         d="m 3524.71,2097.64 118.42,-0.59 c 4.06,-0.02 7.37,3.25 7.39,7.31 l 0.13,28.06 c 0.02,4.06 -3.25,7.37 -7.3,7.38 l -118.43,0.59 c -4.06,0.02 -7.36,-3.25 -7.38,-7.31 l -0.15,-28.06 c -0.01,-4.06 3.25,-7.36 7.32,-7.38" /><path
         id="path270"
         style="fill:#a1d4ff;fill-opacity:1;fill-rule:nonzero;stroke:none"
         d="m 3521.44,2153.3 125.12,-0.61 c 2.21,-0.01 4.01,1.76 4.02,3.97 l 0.02,4.66 c 0.01,2.22 -1.77,4.01 -3.98,4.02 l -125.13,0.62 c -2.2,0.02 -4,-1.77 -4.01,-3.98 l -0.02,-4.67 c -0.02,-2.2 1.77,-4 3.98,-4.01" /><path
         id="path272"
         style="fill:#eea886;fill-opacity:1;fill-rule:nonzero;stroke:none"
         d="m 3971.02,2181.22 c 0,0 -4.75,-1.1 -8.38,0.6 -6.28,2.93 -10.36,12.56 -19.76,9.8 -9.39,-2.76 -7.47,-33.64 -3.87,-38.8 3.6,-5.16 17.45,-5.17 36.21,2.88 18.77,8.06 -4.2,25.52 -4.2,25.52" /><path
         id="path274"
         style="fill:#eea886;fill-opacity:1;fill-rule:nonzero;stroke:none"
         d="m 3946.2,2192.11 c 0,0 -14.72,1.77 -31.28,1.84 -14.54,0.05 -31.36,-2.49 -32.46,-5.24 -1.23,-3.07 14.6,-2.13 29.04,-3.1 13.29,-0.91 10.59,-2.86 10.59,-2.86 0,0 0.73,0.6 -13.87,-1.1 -15.7,-1.83 -31.54,-5.21 -32.45,-8.62 -0.45,-1.66 0.29,-2.56 6.14,-2.8 -3.37,-0.54 -3.65,-1.51 -3.49,-2.88 0.81,-7.07 24.43,-7.83 33.81,-8.12 -7.21,0.18 -12.49,-0.41 -9.04,-4.53 3.96,-4.72 37.36,-4.35 49.37,-5.32 13.1,-1.04 -6.36,42.73 -6.36,42.73" /><path
         id="path276"
         style="fill:#344052;fill-opacity:1;fill-rule:nonzero;stroke:none"
         d="m 4142.52,2505.18 c -9.91,-22.55 -3.92,-47 13.38,-54.59 17.29,-7.61 39.35,4.51 49.26,27.06 9.91,22.55 3.91,46.99 -13.38,54.6 -17.3,7.59 -39.36,-4.53 -49.26,-27.07" /><path
         id="path278"
         style="fill:#2273b5;fill-opacity:1;fill-rule:nonzero;stroke:none"
         d="m 4224.79,2370.21 c 0,0 -25.66,-4.73 -38.35,-24.53 -12.69,-19.78 -25.67,-47.95 -28.16,-57.71 -2.48,-9.78 -50.6,-99.49 -53.27,-101.92 -2.66,-2.43 -29.2,-0.4 -49.79,-2.42 -33.61,-3.28 -86.21,4.53 -86.21,4.53 l -0.52,-38.75 c 0,0 128.98,-17.05 155.82,-4.98 32.82,14.75 112.24,125.67 112.24,125.67 0,0 41.2,77.95 -11.76,100.11" /><path
         id="path280"
         style="fill:#1a598c;fill-opacity:1;fill-rule:nonzero;stroke:none"
         d="m 4172.67,2188.86 50.27,40.26 c 5.28,16.06 9.6,29.34 13.1,40.26 0,0 -50.96,-66.75 -63.37,-80.52" /><path
         id="path282"
         style="fill:#1a598c;fill-opacity:1;fill-rule:nonzero;stroke:none"
         d="m 4013.18,2212.06 c 3.63,3.83 7.21,7.71 10.72,11.54 0,0 -13.63,36.22 -14.52,51.55 0,0 -3.2,-34.25 3.8,-63.09" /><path
         id="path284"
         style="fill:#73c0ff;fill-opacity:1;fill-rule:nonzero;stroke:none"
         d="m 3591.17,2283.41 c -17.76,-6.36 -36.9,-0.62 -48.45,12.95 -2.75,3.23 -5.07,6.9 -6.83,10.96 -0.39,0.91 -0.75,1.83 -1.09,2.76 -3.35,9.38 -3.34,19.16 -0.57,27.99 3.99,12.74 13.7,23.53 27.24,28.38 4.47,1.6 9.03,2.43 13.53,2.56 18.59,0.56 36.23,-10.78 42.84,-29.23 8.2,-22.93 -3.74,-48.18 -26.67,-56.37 z m 40.53,61.32 c -8.81,24.63 -32.34,39.74 -57.14,39 -6,-0.19 -12.08,-1.29 -18.05,-3.43 -18.06,-6.45 -31.01,-20.85 -36.33,-37.84 -3.7,-11.79 -3.72,-24.82 0.76,-37.34 0.45,-1.24 0.93,-2.47 1.45,-3.66 2.36,-5.42 5.45,-10.34 9.12,-14.64 15.38,-18.1 40.93,-25.75 64.62,-17.27 30.58,10.93 46.51,44.6 35.57,75.18" /><path
         id="path286"
         style="fill:#73c0ff;fill-opacity:1;fill-rule:nonzero;stroke:none"
         d="m 3534.23,2338.07 -14.05,4.39 c 5.32,16.99 18.27,31.39 36.33,37.84 5.97,2.14 12.05,3.24 18.05,3.43 l 0.44,-14.72 c -4.5,-0.13 -9.06,-0.96 -13.53,-2.56 -13.54,-4.85 -23.25,-15.64 -27.24,-28.38" /><path
         id="path288"
         style="fill:#73c0ff;fill-opacity:1;fill-rule:nonzero;stroke:none"
         d="m 3535.89,2307.32 -13.5,-5.86 c -0.52,1.19 -1,2.42 -1.45,3.66 -4.48,12.52 -4.46,25.55 -0.76,37.34 l 14.05,-4.39 c -2.77,-8.83 -2.78,-18.61 0.57,-27.99 0.34,-0.93 0.7,-1.85 1.09,-2.76" /><path
         id="path290"
         style="fill:#73c0ff;fill-opacity:1;fill-rule:nonzero;stroke:none"
         d="m 3531.51,2286.82 c -3.67,4.3 -6.76,9.22 -9.12,14.64 l 13.5,5.86 c 1.76,-4.06 4.08,-7.73 6.83,-10.96 l -11.21,-9.54" /><path
         id="path292"
         style="fill:#73c0ff;fill-opacity:1;fill-rule:nonzero;stroke:none"
         d="m 3548.82,2216.32 c -7.3,-2.61 -15.16,-0.26 -19.89,5.31 -1.14,1.33 -2.08,2.84 -2.82,4.51 l -0.44,1.14 c -1.38,3.85 -1.37,7.86 -0.23,11.49 1.63,5.23 5.62,9.67 11.18,11.66 1.84,0.64 3.71,1 5.56,1.04 7.63,0.24 14.88,-4.42 17.6,-12 3.36,-9.42 -1.54,-19.78 -10.96,-23.15 z m 16.65,25.18 c -3.61,10.11 -13.28,16.33 -23.47,16.02 -2.47,-0.07 -4.97,-0.53 -7.41,-1.41 -7.42,-2.65 -12.74,-8.55 -14.92,-15.54 -1.53,-4.84 -1.54,-10.2 0.31,-15.34 l 0.59,-1.5 c 0.97,-2.23 2.24,-4.25 3.75,-6.02 6.31,-7.43 16.81,-10.56 26.54,-7.09 12.56,4.5 19.1,18.33 14.61,30.88" /><path
         id="path294"
         style="fill:#73c0ff;fill-opacity:1;fill-rule:nonzero;stroke:none"
         d="m 3525.44,2238.77 -5.77,1.8 c 2.18,6.99 7.5,12.89 14.92,15.54 2.44,0.88 4.94,1.34 7.41,1.41 l 0.18,-6.05 c -1.85,-0.04 -3.72,-0.4 -5.56,-1.04 -5.56,-1.99 -9.55,-6.43 -11.18,-11.66" /><path
         id="path296"
         style="fill:#73c0ff;fill-opacity:1;fill-rule:nonzero;stroke:none"
         d="m 3526.11,2226.14 -5.54,-2.41 -0.59,1.5 c -1.85,5.14 -1.84,10.5 -0.31,15.34 l 5.77,-1.8 c -1.14,-3.63 -1.15,-7.64 0.23,-11.49 l 0.44,-1.14" /><path
         id="path298"
         style="fill:#73c0ff;fill-opacity:1;fill-rule:nonzero;stroke:none"
         d="m 3524.32,2217.71 c -1.51,1.77 -2.78,3.79 -3.75,6.02 l 5.54,2.41 c 0.74,-1.67 1.68,-3.18 2.82,-4.51 l -4.61,-3.92" /><path
         id="path300"
         style="fill:#78c2ff;fill-opacity:1;fill-rule:nonzero;stroke:none"
         d="m 1738.6,2983.74 h -42.68 v -157 h 42.68 v 157" /><path
         id="path302"
         style="fill:#78c2ff;fill-opacity:1;fill-rule:nonzero;stroke:none"
         d="m 1799.34,2999.58 h -42.68 v -172.84 h 42.68 v 172.84" /><path
         id="path304"
         style="fill:#78c2ff;fill-opacity:1;fill-rule:nonzero;stroke:none"
         d="m 1860.89,2966.69 h -42.68 v -139.95 h 42.68 v 139.95" /><path
         id="path306"
         style="fill:#78c2ff;fill-opacity:1;fill-rule:nonzero;stroke:none"
         d="m 1922.45,3031.55 h -42.68 v -204.81 h 42.68 v 204.81" /><path
         id="path308"
         style="fill:#78c2ff;fill-opacity:1;fill-rule:nonzero;stroke:none"
         d="m 1987.04,3011.15 h -42.68 v -184.41 h 42.68 v 184.41" /></g></g></svg>