<?xml version="1.0" encoding="UTF-8" standalone="no"?>
<svg
   xmlns:dc="http://purl.org/dc/elements/1.1/"
   xmlns:cc="http://creativecommons.org/ns#"
   xmlns:rdf="http://www.w3.org/1999/02/22-rdf-syntax-ns#"
   xmlns:svg="http://www.w3.org/2000/svg"
   xmlns="http://www.w3.org/2000/svg"
   viewBox="0 0 666.66669 666.66669"
   height="666.66669"
   width="666.66669"
   xml:space="preserve"
   id="svg2"
   version="1.1"><metadata
     id="metadata8"><rdf:RDF><cc:Work
         rdf:about=""><dc:format>image/svg+xml</dc:format><dc:type
           rdf:resource="http://purl.org/dc/dcmitype/StillImage" /></cc:Work></rdf:RDF></metadata><defs
     id="defs6" /><g
     transform="matrix(1.3333333,0,0,-1.3333333,0,666.66667)"
     id="g10"><g
       transform="scale(0.1)"
       id="g12"><path
         id="path14"
         style="fill:#fafafa;fill-opacity:1;fill-rule:nonzero;stroke:none"
         d="M 5000,0 H 0 V 5000 H 5000 V 0" /><path
         id="path16"
         style="fill:#4da8f2;fill-opacity:1;fill-rule:nonzero;stroke:none"
         d="m 2101.25,1374.71 h 340.17 v 1407.82 h -340.17 z m 344.9,-4.74 h -349.64 v 1417.3 h 349.64 v -1417.3" /><path
         id="path18"
         style="fill:#c2bebc;fill-opacity:1;fill-rule:nonzero;stroke:none"
         d="m 3060.39,3591.43 -0.19,4.73 c 11.07,0.44 22.25,0.72 33.23,0.84 l 0.05,-4.74 c -10.93,-0.12 -22.06,-0.4 -33.09,-0.83 z m 99.27,-0.4 c -10.93,0.53 -22.05,0.9 -33.09,1.11 l 0.09,4.74 c 11.07,-0.21 22.26,-0.58 33.23,-1.11 z m -165.32,-4.06 -0.45,4.72 c 11.03,1.05 22.17,1.95 33.12,2.69 l 0.31,-4.73 c -10.89,-0.73 -22,-1.63 -32.98,-2.68 z m 231.29,-1.21 c -10.86,1.22 -21.95,2.28 -32.94,3.16 l 0.38,4.72 c 11.03,-0.88 22.16,-1.95 33.08,-3.17 z m -297.02,-6.77 -0.69,4.69 c 10.96,1.62 22.04,3.11 32.93,4.44 l 0.58,-4.71 c -10.86,-1.32 -21.9,-2.8 -32.82,-4.42 z m 362.5,-2.72 c -10.76,1.93 -21.75,3.71 -32.66,5.29 l 0.68,4.69 c 10.97,-1.59 22,-3.37 32.82,-5.31 z m -427.73,-8.58 -0.92,4.65 c 10.85,2.16 21.85,4.2 32.66,6.07 l 0.81,-4.66 c -10.78,-1.88 -21.73,-3.91 -32.55,-6.06 z m 492.43,-5.3 c -10.6,2.67 -21.45,5.19 -32.23,7.5 l 0.99,4.64 c 10.84,-2.33 21.74,-4.86 32.39,-7.54 z m -557.04,-9.16 -1.16,4.59 c 4.96,1.26 10,2.49 14.97,3.67 5.77,1.36 11.61,2.7 17.37,3.99 l 1.04,-4.63 c -5.76,-1.28 -11.58,-2.62 -17.32,-3.98 -4.95,-1.17 -9.96,-2.39 -14.9,-3.64 z m 620.59,-9.24 c -10.4,3.43 -21.03,6.71 -31.62,9.77 l 1.32,4.56 c 10.64,-3.08 21.33,-6.39 31.78,-9.82 z m -684.15,-9.05 -1.46,4.51 c 10.57,3.4 21.26,6.67 31.78,9.7 l 1.32,-4.56 c -10.49,-3.01 -21.13,-6.26 -31.64,-9.65 z m 746.15,-13.95 c -10.1,4.19 -20.46,8.25 -30.79,12.08 l 1.66,4.44 c 10.38,-3.84 20.79,-7.93 30.95,-12.14 z m -808.64,-8.33 -1.71,4.42 c 10.38,4.04 20.87,7.96 31.19,11.65 l 1.59,-4.47 c -10.27,-3.66 -20.72,-7.57 -31.07,-11.6 z m 868.72,-19.33 c -9.75,4.97 -19.78,9.81 -29.77,14.41 l 1.98,4.31 c 10.06,-4.63 20.12,-9.5 29.94,-14.49 z m -929.73,-6.42 -1.96,4.32 c 10.14,4.6 20.39,9.08 30.45,13.33 l 1.83,-4.37 c -10.01,-4.23 -20.21,-8.7 -30.32,-13.28 z m 987.45,-25.85 c -9.35,5.72 -18.94,11.35 -28.54,16.71 l 2.32,4.14 c 9.65,-5.4 19.31,-11.05 28.7,-16.81 z m -1047.05,-2.93 -2.16,4.22 c 9.94,5.09 19.94,10.06 29.73,14.78 l 2.05,-4.26 c -9.75,-4.71 -19.71,-9.67 -29.62,-14.74 z m -58.26,-31.33 -2.32,4.13 c 9.73,5.48 19.51,10.87 29.05,16 l 2.24,-4.17 c -9.51,-5.12 -19.26,-10.49 -28.97,-15.96 z m 1160.12,-2.45 c -8.82,6.46 -17.93,12.82 -27.04,18.92 l 2.64,3.94 c 9.16,-6.14 18.32,-12.54 27.21,-19.03 z m -1217.19,-30.98 -2.46,4.05 c 9.57,5.81 19.15,11.53 28.46,16.99 l 2.4,-4.09 c -9.3,-5.45 -18.85,-11.15 -28.4,-16.95 z m 1268.9,-10.11 c -8.28,7.16 -16.84,14.25 -25.43,21.08 l 2.94,3.71 c 8.66,-6.86 17.26,-14 25.6,-21.2 z m -1324.98,-24.99 -2.56,3.99 c 9.47,6.09 18.88,12.07 27.97,17.76 l 2.52,-4.02 c -9.08,-5.68 -18.47,-11.64 -27.93,-17.73 z m 1373.21,-20.26 c -7.69,7.84 -15.65,15.62 -23.66,23.13 l 3.25,3.45 c 8.05,-7.55 16.05,-15.38 23.79,-23.26 z m -1428.51,-16.09 -2.64,3.94 c 9.42,6.31 18.7,12.47 27.6,18.33 l 2.61,-3.96 c -8.89,-5.85 -18.17,-12.01 -27.57,-18.31 z m 1472.9,-33.03 c -7.04,8.45 -14.34,16.88 -21.7,25.03 l 3.51,3.17 c 7.41,-8.19 14.75,-16.66 21.82,-25.17 z m -1527.66,-4.19 -2.69,3.9 c 9.11,6.27 18.23,12.51 27.35,18.71 l 2.67,-3.92 c -9.12,-6.2 -18.23,-12.43 -27.33,-18.69 z m -54.46,-37.73 -2.71,3.89 c 9.07,6.32 18.15,12.62 27.22,18.91 l 2.7,-3.9 c -9.07,-6.28 -18.14,-12.58 -27.21,-18.9 z m 1622.39,-10.71 c -6.33,9.02 -12.93,18.01 -19.61,26.73 l 3.76,2.88 c 6.72,-8.77 13.35,-17.81 19.74,-26.88 z m -1676.79,-27.16 -2.7,3.89 c 9.07,6.31 18.14,12.62 27.2,18.93 l 2.71,-3.89 c -9.06,-6.31 -18.13,-12.62 -27.21,-18.93 z m 1712.66,-28.4 c -5.59,9.47 -11.44,18.93 -17.38,28.14 l 3.98,2.57 c 5.98,-9.26 11.86,-18.77 17.49,-28.29 z m -1767.24,-9.27 -2.68,3.91 c 9.13,6.24 18.23,12.5 27.31,18.78 l 2.7,-3.9 c -9.1,-6.28 -18.2,-12.54 -27.33,-18.79 z m -54.99,-37.11 -2.62,3.94 c 8.83,5.87 18.09,12.08 27.53,18.45 l 2.65,-3.93 c -9.45,-6.38 -18.72,-12.59 -27.56,-18.46 z m 1853.66,-11.81 c -4.85,9.88 -9.95,19.77 -15.16,29.4 l 4.17,2.25 c 5.23,-9.68 10.35,-19.62 15.24,-29.56 z m -1909.26,-24.39 -2.55,3.99 c 9.05,5.76 18.42,11.79 27.85,17.94 l 2.59,-3.97 c -9.45,-6.16 -18.84,-12.2 -27.89,-17.96 z m -56.42,-34.93 -2.44,4.07 c 9.26,5.55 18.77,11.36 28.27,17.24 l 2.49,-4.03 c -9.52,-5.89 -19.04,-11.71 -28.32,-17.28 z m 1992.62,-1.09 c -4.1,10.22 -8.45,20.47 -12.91,30.46 l 4.33,1.93 c 4.48,-10.05 8.86,-20.34 12.99,-30.62 z m -2050,-32.17 -2.31,4.14 c 9.45,5.27 19.12,10.77 28.75,16.36 l 2.38,-4.1 c -9.65,-5.6 -19.34,-11.12 -28.82,-16.4 z m 2072.5,-30.04 c -3.38,10.49 -6.97,21.03 -10.69,31.31 l 4.45,1.61 c 3.74,-10.33 7.36,-20.92 10.75,-31.46 z m -2130.97,-1.17 -2.15,4.22 c 9.66,4.91 19.51,10.06 29.29,15.28 l 2.24,-4.18 c -9.81,-5.24 -19.7,-10.4 -29.38,-15.32 z m -59.73,-28.84 -1.97,4.32 c 9.9,4.51 19.99,9.24 29.98,14.07 l 2.06,-4.27 c -10.02,-4.84 -20.14,-9.59 -30.07,-14.12 z m -61.1,-26.08 -1.75,4.4 c 10.12,4.03 20.41,8.28 30.59,12.63 l 1.87,-4.36 c -10.22,-4.37 -20.55,-8.63 -30.71,-12.67 z m 2269.93,-7.54 c -2.67,10.7 -5.54,21.45 -8.53,31.97 l 4.56,1.3 c 3.01,-10.57 5.89,-21.38 8.56,-32.13 z m -2332.28,-15.4 -1.52,4.49 c 10.35,3.49 20.84,7.2 31.21,11.02 l 1.64,-4.45 c -10.41,-3.83 -20.95,-7.55 -31.33,-11.06 z m -63.51,-19.47 -1.26,4.56 c 10.53,2.91 21.22,6.02 31.76,9.26 l 1.39,-4.54 c -10.58,-3.24 -21.31,-6.37 -31.89,-9.28 z m -64.54,-15.77 -0.99,4.63 c 10.72,2.28 21.57,4.77 32.25,7.38 l 1.12,-4.6 c -10.72,-2.62 -21.62,-5.12 -32.38,-7.41 z m -65.37,-11.89 -0.7,4.69 c 10.85,1.63 21.83,3.46 32.63,5.43 l 0.85,-4.67 c -10.85,-1.97 -21.88,-3.8 -32.78,-5.45 z m 2539.58,-2.18 c -0.7,3.82 -1.42,7.65 -2.16,11.51 -1.35,6.98 -2.79,14.03 -4.27,20.96 l 4.64,0.99 c 1.49,-6.95 2.93,-14.04 4.28,-21.05 0.75,-3.87 1.47,-7.72 2.17,-11.55 z m -2605.57,-5.74 -0.43,4.71 0.5,0.05 c 10.79,0.97 21.7,2.12 32.43,3.4 l 0.56,-4.7 c -10.77,-1.29 -21.72,-2.44 -32.56,-3.42 z m -65.65,-8.09 -0.74,4.69 c 10.71,1.69 21.79,3.24 32.92,4.6 l 0.57,-4.7 c -11.07,-1.36 -22.09,-2.9 -32.75,-4.59 z m -64.84,-12.85 -1.12,4.61 c 10.54,2.55 21.47,4.95 32.48,7.12 l 0.92,-4.65 c -10.95,-2.16 -21.81,-4.54 -32.28,-7.08 z m -63.35,-18.63 -1.58,4.47 c 10.24,3.6 20.89,7.02 31.68,10.18 l 1.33,-4.54 c -10.71,-3.14 -21.28,-6.54 -31.43,-10.11 z m 2809.92,-20.09 c -1.47,10.8 -3.1,21.82 -4.86,32.76 l 4.68,0.75 c 1.75,-10.97 3.4,-22.03 4.88,-32.87 z m -2870.72,-5.5 -2.11,4.24 c 9.71,4.86 19.89,9.52 30.26,13.87 l 1.84,-4.37 c -10.28,-4.31 -20.37,-8.93 -29.99,-13.74 z m -56.54,-33.75 -2.75,3.87 c 8.87,6.31 18.27,12.42 27.93,18.17 l 2.43,-4.07 c -9.56,-5.69 -18.84,-11.73 -27.61,-17.97 z m 2934.54,-26.58 c -0.92,10.87 -2,21.96 -3.22,32.96 l 4.71,0.52 c 1.22,-11.05 2.31,-22.18 3.22,-33.08 z m -2984.48,-16.19 -3.41,3.29 c 7.61,7.89 15.79,15.57 24.3,22.85 l 3.08,-3.6 c -8.4,-7.18 -16.47,-14.76 -23.97,-22.54 z m 2988.19,-49.92 c -0.29,10.9 -0.76,22.04 -1.39,33.08 l 4.73,0.27 c 0.62,-11.1 1.1,-22.27 1.39,-33.22 z m -3028.761,-1.74 -4.012,2.52 c 5.887,9.36 12.359,18.54 19.234,27.28 l 3.727,-2.93 c -6.774,-8.61 -13.149,-17.66 -18.949,-26.87 z m -28.969,-58.97 -4.449,1.63 c 3.851,10.47 8.277,20.79 13.14,30.7 l 4.25,-2.08 c -4.789,-9.77 -9.144,-19.95 -12.941,-30.25 z m 3062.27,-5.64 -4.74,0.16 c 0.38,10.9 0.58,22.03 0.61,33.09 l 4.74,-0.01 c -0.03,-11.11 -0.24,-22.29 -0.61,-33.24 z m -3078.825,-58.03 -4.68,0.75 c 1.782,11.06 4.083,22.06 6.829,32.68 l 4.589,-1.19 c -2.714,-10.48 -4.984,-21.33 -6.738,-32.24 z m 3074.345,-8.3 -4.72,0.48 c 1.1,10.84 2.05,21.93 2.78,32.97 l 4.74,-0.32 c -0.75,-11.09 -1.7,-22.24 -2.8,-33.13 z M 925.023,2484.06 c -0.011,1.49 -0.023,2.96 -0.023,4.45 0,9.7 0.344,19.42 1.023,28.91 l 4.731,-0.34 c -0.676,-9.37 -1.012,-18.98 -1.012,-28.57 0,-1.47 0.004,-2.93 0.024,-4.4 z m 3074.707,-8.4 -4.67,0.83 c 1.9,10.74 3.63,21.73 5.15,32.68 l 4.69,-0.65 c -1.51,-11.01 -3.26,-22.06 -5.17,-32.86 z M 930.797,2417.63 c -1.777,11.02 -3.164,22.16 -4.121,33.09 l 4.719,0.42 c 0.949,-10.82 2.32,-21.83 4.085,-32.75 z m 3054.773,-6.94 -4.58,1.19 c 2.74,10.55 5.33,21.37 7.68,32.17 l 4.63,-1 c -2.36,-10.86 -4.96,-21.75 -7.73,-32.36 z M 945.93,2352.73 c -3.242,10.6 -6.164,21.43 -8.68,32.19 l 4.621,1.09 c 2.484,-10.68 5.375,-21.39 8.59,-31.9 z m 3020.14,-5.64 -4.46,1.58 c 3.65,10.28 7.13,20.83 10.37,31.4 l 4.53,-1.39 c -3.25,-10.62 -6.76,-21.25 -10.44,-31.59 z m -2996.281,-56.6 c -4.633,9.91 -9.012,20.24 -13.016,30.71 l 4.422,1.69 c 3.965,-10.35 8.301,-20.58 12.887,-30.4 z m 2971.191,-5.04 -4.3,1.99 c 4.58,9.9 9.01,20.1 13.17,30.33 l 4.39,-1.79 c -4.18,-10.29 -8.64,-20.56 -13.26,-30.53 z m -2938.07,-52.87 c -6.133,8.72 -12.129,18.23 -17.828,28.26 l 4.117,2.33 c 5.629,-9.9 11.541,-19.27 17.581,-27.86 z m 2907.16,-6.1 -4.08,2.42 c 5.54,9.38 10.95,19.11 16.07,28.88 l 4.21,-2.18 c -5.17,-9.87 -10.62,-19.65 -16.2,-29.12 z m -2885.39,-20.99 -0.87,0.95 3.48,3.21 0.86,-0.93 z m 2848.54,-34.47 -3.8,2.83 c 6.52,8.74 12.92,17.84 19.03,27.03 l 3.94,-2.62 c -6.15,-9.28 -12.6,-18.44 -19.17,-27.24 z m -41.71,-51.14 -4.24,2.13 c 0.97,1.95 3.88,5.28 9.16,11.33 3.38,3.89 7.59,8.72 12.48,14.56 l 3.64,-3.05 c -4.91,-5.87 -9.15,-10.72 -12.56,-14.63 -4.35,-4.99 -7.77,-8.92 -8.48,-10.34" /><path
         id="path20"
         style="fill:#78c2ff;fill-opacity:1;fill-rule:nonzero;stroke:none"
         d="m 3226.49,3522.89 c -94.88,0 -171.79,76.91 -171.79,171.79 0,94.88 76.91,171.79 171.79,171.79 94.88,0 171.79,-76.91 171.79,-171.79 0,-94.88 -76.91,-171.79 -171.79,-171.79 z m 223.58,229.71 c -5.43,21.04 -13.77,40.92 -24.54,59.18 l 24.99,37.59 -34.67,34.66 -34.67,34.67 -37.58,-24.99 c -18.27,10.77 -38.14,19.11 -59.18,24.55 l -8.9,44.2 h -49.03 -49.02 l -8.91,-44.2 c -21.03,-5.44 -40.9,-13.78 -59.17,-24.55 l -37.57,24.99 -34.67,-34.67 -34.67,-34.66 24.99,-37.59 c -10.78,-18.26 -19.12,-38.14 -24.55,-59.18 l -44.21,-8.89 v -49.03 -49.03 l 44.21,-8.9 c 5.43,-21.04 13.77,-40.91 24.55,-59.17 l -24.99,-37.58 34.67,-34.67 34.67,-34.67 37.57,24.99 c 18.27,-10.77 38.14,-19.11 59.17,-24.55 l 8.91,-44.21 h 49.02 49.03 l 8.9,44.21 c 21.04,5.44 40.91,13.78 59.18,24.55 l 37.58,-24.99 34.67,34.67 34.67,34.67 -24.99,37.58 c 10.77,18.26 19.11,38.13 24.54,59.17 l 44.21,8.9 v 49.03 49.03 l -44.21,8.89" /><path
         id="path22"
         style="fill:#4da8f2;fill-opacity:1;fill-rule:nonzero;stroke:none"
         d="m 1299.27,2478.41 c 1.28,-1.14 2.61,-2.2 4.01,-3.18 l -3.18,-3.99 -85,-106.82 -3.99,3.19 84.97,106.8 3.19,4" /><path
         id="path24"
         style="fill:#4da8f2;fill-opacity:1;fill-rule:nonzero;stroke:none"
         d="m 1695.13,2580.3 c 0.19,-1.68 0.52,-3.36 0.95,-5.03 l -5.03,-0.94 -320.6,-60.66 -5.04,-0.96 c -0.2,1.68 -0.52,3.36 -0.95,5.02 l 5.03,0.96 320.6,60.65 5.04,0.96" /><path
         id="path26"
         style="fill:#4da8f2;fill-opacity:1;fill-rule:nonzero;stroke:none"
         d="m 1925.76,2907.1 -2.59,-4.42 -163.8,-280.18 -2.59,-4.41 c -1.41,0.95 -2.88,1.81 -4.41,2.57 l 2.59,4.42 163.8,280.17 2.59,4.42 c 1.41,-0.95 2.88,-1.82 4.41,-2.57" /><path
         id="path28"
         style="fill:#4da8f2;fill-opacity:1;fill-rule:nonzero;stroke:none"
         d="m 2291.77,3052.35 c 0.26,-0.82 0.54,-1.62 0.85,-2.41 l -310.46,-97.85 c -0.2,0.83 -0.43,1.65 -0.69,2.47 -0.26,0.82 -0.54,1.61 -0.84,2.41 l 310.45,97.84 c 0.2,-0.82 0.43,-1.64 0.69,-2.46" /><path
         id="path30"
         style="fill:#4da8f2;fill-opacity:1;fill-rule:nonzero;stroke:none"
         d="m 2481.44,3383.19 -130.5,-279.41 -2.18,-4.64 c -1.48,0.83 -3.03,1.55 -4.62,2.16 l 2.17,4.64 130.5,279.42 4.63,-2.17" /><path
         id="path32"
         style="fill:#4da8f2;fill-opacity:1;fill-rule:nonzero;stroke:none"
         d="m 1365.41,2512.71 c 2.32,-18.64 -8.94,-36.92 -27.49,-42.77 -12.19,-3.84 -24.88,-1.48 -34.64,5.29 -1.4,0.98 -2.73,2.04 -4.01,3.18 -5.06,4.58 -9.02,10.53 -11.21,17.49 -6.59,20.91 5.06,43.27 25.96,49.86 20.9,6.59 43.27,-5.06 49.86,-25.96 0.21,-0.68 0.41,-1.37 0.58,-2.07 0.43,-1.66 0.75,-3.34 0.95,-5.02 z m -52.93,37.92 c -23.58,-7.43 -36.73,-32.68 -29.3,-56.26 2.52,-7.99 7.06,-14.76 12.9,-19.96 1.28,-1.14 2.62,-2.2 4.02,-3.17 11.05,-7.8 25.49,-10.55 39.35,-6.17 21.04,6.63 33.78,27.44 31,48.6 -0.22,1.67 -0.53,3.35 -0.96,5.02 -0.21,0.88 -0.46,1.77 -0.74,2.65 -7.43,23.58 -32.68,36.73 -56.27,29.29" /><path
         id="path34"
         style="fill:#4da8f2;fill-opacity:1;fill-rule:nonzero;stroke:none"
         d="m 1746.51,2547.25 c -20.89,-6.59 -43.26,5.06 -49.84,25.95 -0.22,0.69 -0.42,1.38 -0.59,2.07 -0.43,1.67 -0.76,3.35 -0.95,5.03 -2.31,18.65 8.94,36.91 27.49,42.76 10.24,3.22 20.84,2.07 29.75,-2.4 1.53,-0.76 3,-1.62 4.41,-2.57 7.21,-4.85 12.89,-12.08 15.7,-21 6.58,-20.89 -5.06,-43.25 -25.97,-49.84 z m 12.86,75.25 c -1.43,0.95 -2.9,1.81 -4.41,2.58 -10.13,5.17 -22.21,6.53 -33.88,2.85 -21.04,-6.63 -33.77,-27.43 -30.99,-48.59 0.22,-1.68 0.53,-3.35 0.96,-5.01 0.21,-0.89 0.46,-1.78 0.74,-2.66 7.43,-23.59 32.67,-36.73 56.26,-29.3 23.6,7.44 36.74,32.68 29.3,56.26 -3.2,10.17 -9.72,18.41 -17.98,23.87" /><path
         id="path36"
         style="fill:#4da8f2;fill-opacity:1;fill-rule:nonzero;stroke:none"
         d="m 1955.51,2904.7 c -10.24,-3.23 -20.84,-2.08 -29.75,2.4 -1.53,0.75 -3,1.62 -4.41,2.57 -7.21,4.84 -12.89,12.08 -15.7,20.99 -6.59,20.9 5.06,43.27 25.97,49.86 20.08,6.33 41.51,-4.17 49.01,-23.55 0.3,-0.8 0.58,-1.59 0.84,-2.41 0.26,-0.82 0.49,-1.64 0.69,-2.47 4.98,-20.17 -6.56,-41.06 -26.65,-47.39 z m 29.99,53.81 c -8.34,22.05 -32.65,34.06 -55.42,26.88 -23.59,-7.43 -36.74,-32.68 -29.3,-56.27 3.2,-10.17 9.72,-18.39 17.98,-23.87 1.43,-0.94 2.9,-1.8 4.41,-2.57 10.14,-5.18 22.21,-6.54 33.88,-2.86 22.76,7.18 35.81,30.96 29.99,53.81 -0.2,0.82 -0.43,1.64 -0.69,2.46 -0.26,0.82 -0.54,1.63 -0.85,2.42" /><path
         id="path38"
         style="fill:#4da8f2;fill-opacity:1;fill-rule:nonzero;stroke:none"
         d="m 2341.63,3026.39 c -20.09,-6.33 -41.52,4.17 -49.01,23.55 -0.31,0.79 -0.59,1.59 -0.85,2.41 -0.26,0.82 -0.49,1.64 -0.69,2.46 -4.98,20.18 6.57,41.07 26.65,47.4 8.99,2.83 18.25,2.3 26.41,-0.91 1.59,-0.61 3.14,-1.33 4.62,-2.16 8.7,-4.76 15.62,-12.73 18.83,-22.89 6.59,-20.91 -5.06,-43.27 -25.96,-49.86 z m 9.31,77.39 c -1.5,0.8 -3.04,1.53 -4.63,2.16 -9.29,3.72 -19.85,4.38 -30.11,1.14 -22.77,-7.17 -35.81,-30.95 -29.99,-53.8 0.19,-0.82 0.43,-1.64 0.68,-2.46 0.26,-0.82 0.54,-1.64 0.85,-2.42 8.33,-22.06 32.66,-34.06 55.42,-26.89 23.59,7.44 36.74,32.69 29.31,56.27 -3.66,11.59 -11.6,20.65 -21.53,26" /><path
         id="path40"
         style="fill:#4da8f2;fill-opacity:1;fill-rule:nonzero;stroke:none"
         d="m 2581.41,1284.23 h 139.57 v 1733.92 h -139.57 z m 150.62,-11.07 h -161.68 v 1756.05 h 161.68 V 1273.16" /><path
         id="path42"
         style="fill:#4da8f2;fill-opacity:1;fill-rule:nonzero;stroke:none"
         d="m 2579.15,1272.5 -6.53,12.39 150.61,79.39 6.54,-12.39 -150.62,-79.39" /><path
         id="path44"
         style="fill:#4da8f2;fill-opacity:1;fill-rule:nonzero;stroke:none"
         d="m 2579.15,1540.87 -6.53,12.39 150.61,79.39 6.54,-12.39 -150.62,-79.39" /><path
         id="path46"
         style="fill:#4da8f2;fill-opacity:1;fill-rule:nonzero;stroke:none"
         d="m 2579.15,1809.24 -6.53,12.39 150.61,79.39 6.54,-12.39 -150.62,-79.39" /><path
         id="path48"
         style="fill:#4da8f2;fill-opacity:1;fill-rule:nonzero;stroke:none"
         d="m 2579.15,2077.61 -6.53,12.38 150.61,79.39 6.54,-12.39 -150.62,-79.38" /><path
         id="path50"
         style="fill:#4da8f2;fill-opacity:1;fill-rule:nonzero;stroke:none"
         d="m 2579.15,2345.98 -6.53,12.38 150.61,79.39 6.54,-12.39 -150.62,-79.38" /><path
         id="path52"
         style="fill:#4da8f2;fill-opacity:1;fill-rule:nonzero;stroke:none"
         d="m 2579.15,2614.34 -6.53,12.39 150.61,79.39 6.54,-12.38 -150.62,-79.4" /><path
         id="path54"
         style="fill:#4da8f2;fill-opacity:1;fill-rule:nonzero;stroke:none"
         d="m 2579.15,2882.71 -6.53,12.39 150.61,79.39 6.54,-12.39 -150.62,-79.39" /><path
         id="path56"
         style="fill:#4da8f2;fill-opacity:1;fill-rule:nonzero;stroke:none"
         d="m 3270.12,1284.23 h 139.56 v 1733.92 h -139.56 z m 150.61,-11.07 h -161.67 v 1756.05 h 161.67 V 1273.16" /><path
         id="path58"
         style="fill:#4da8f2;fill-opacity:1;fill-rule:nonzero;stroke:none"
         d="m 3267.85,1272.5 -6.53,12.39 150.62,79.39 6.54,-12.39 -150.63,-79.39" /><path
         id="path60"
         style="fill:#4da8f2;fill-opacity:1;fill-rule:nonzero;stroke:none"
         d="m 3267.85,1540.87 -6.53,12.39 150.62,79.39 6.54,-12.39 -150.63,-79.39" /><path
         id="path62"
         style="fill:#4da8f2;fill-opacity:1;fill-rule:nonzero;stroke:none"
         d="m 3267.85,1809.24 -6.53,12.39 150.62,79.39 6.54,-12.39 -150.63,-79.39" /><path
         id="path64"
         style="fill:#4da8f2;fill-opacity:1;fill-rule:nonzero;stroke:none"
         d="m 3267.85,2077.61 -6.53,12.38 150.62,79.39 6.54,-12.39 -150.63,-79.38" /><path
         id="path66"
         style="fill:#4da8f2;fill-opacity:1;fill-rule:nonzero;stroke:none"
         d="m 3267.85,2345.98 -6.53,12.38 150.62,79.39 6.54,-12.39 -150.63,-79.38" /><path
         id="path68"
         style="fill:#4da8f2;fill-opacity:1;fill-rule:nonzero;stroke:none"
         d="m 3267.85,2614.34 -6.53,12.39 150.62,79.39 6.54,-12.38 -150.63,-79.4" /><path
         id="path70"
         style="fill:#4da8f2;fill-opacity:1;fill-rule:nonzero;stroke:none"
         d="m 3267.85,2882.71 -6.53,12.39 150.62,79.39 6.54,-12.39 -150.63,-79.39" /><path
         id="path72"
         style="fill:#d6d6d6;fill-opacity:1;fill-rule:nonzero;stroke:none"
         d="m 1122.29,2138.13 -148.774,68.06 48.654,7.2 z" /><path
         id="path74"
         style="fill:#e8e8e8;fill-opacity:1;fill-rule:nonzero;stroke:none"
         d="m 1122.29,2138.13 -49.51,66.89 -36.82,-1.99 z" /><path
         id="path76"
         style="fill:#c2c2c2;fill-opacity:1;fill-rule:nonzero;stroke:none"
         d="m 1007.73,2190.55 -1.4,-18.17 115.96,-34.25 z" /><path
         id="path78"
         style="fill:#78c2ff;fill-opacity:1;fill-rule:nonzero;stroke:none"
         d="m 3579.6,2117.28 h 217.17 V 1926.7 l -33.16,33.15 H 3579.6 v 157.43" /><path
         id="path80"
         style="fill:#2878bd;fill-opacity:1;fill-rule:nonzero;stroke:none"
         d="M 3226.49,3669.13 H 2764.6 V 1993.12 h 461.89 v 1676.01" /><path
         id="path82"
         style="fill:#2e8cdb;fill-opacity:1;fill-rule:nonzero;stroke:none"
         d="m 2516.97,2679.54 h -344.9 V 1266.98 h 344.9 v 1412.56" /><path
         id="path84"
         style="fill:#3197ed;fill-opacity:1;fill-rule:nonzero;stroke:none"
         d="m 2034.03,2345.07 h -344.9 V 1266.98 h 344.9 v 1078.09" /><path
         id="path86"
         style="fill:#3197ed;fill-opacity:1;fill-rule:nonzero;stroke:none"
         d="m 1633.56,1333.46 h 340.16 v 1073.36 h -340.16 z m 344.9,-4.74 h -349.64 v 1082.83 h 349.64 V 1328.72" /><path
         id="path88"
         style="fill:#35a2ff;fill-opacity:1;fill-rule:nonzero;stroke:none"
         d="m 1551.09,2017.16 h -344.9 v -750.18 h 344.9 v 750.18" /><path
         id="path90"
         style="fill:#35a2ff;fill-opacity:1;fill-rule:nonzero;stroke:none"
         d="m 1143.26,1320.9 h 340.16 v 745.45 h -340.16 z m 344.9,-4.74 h -349.63 v 754.93 h 349.63 v -754.93" /><path
         id="path92"
         style="fill:#1a598c;fill-opacity:1;fill-rule:nonzero;stroke:none"
         d="m 1894.47,895.211 -5.24,0.211 26.39,662.648 H 1459.1 l -26.4,-662.859 -5.25,0.211 26.61,667.888 h 467.02 l -26.61,-668.099" /><path
         id="path94"
         style="fill:#1a598c;fill-opacity:1;fill-rule:nonzero;stroke:none"
         d="m 1937.23,895.211 -26.4,662.859 H 1454.3 l 26.4,-662.648 -5.25,-0.211 -26.61,668.099 h 467.03 l 26.6,-667.888 -5.24,-0.211" /><path
         id="path96"
         style="fill:#1a598c;fill-opacity:1;fill-rule:nonzero;stroke:none"
         d="m 1478.08,1110.8 h 461.77 l -26.5,665.37 h -461.78 l 26.51,-665.37" /><path
         id="path98"
         style="fill:#e3f2ff;fill-opacity:1;fill-rule:nonzero;stroke:none"
         d="m 1878.82,1110.8 h -461.77 l 26.5,665.37 h 461.78 l -26.51,-665.37" /><path
         id="path100"
         style="fill:#78c2ff;fill-opacity:1;fill-rule:nonzero;stroke:none"
         d="m 1589.1,1595.03 c -22.6,-8.08 -46.95,-0.78 -61.63,16.47 -3.51,4.12 -6.45,8.8 -8.7,13.97 -0.49,1.14 -0.95,2.3 -1.38,3.5 -4.27,11.94 -4.25,24.38 -0.73,35.61 5.07,16.22 17.43,29.94 34.66,36.1 5.69,2.03 11.49,3.09 17.22,3.27 23.65,0.71 46.09,-13.72 54.49,-37.19 10.44,-29.18 -4.75,-61.29 -33.93,-71.73 z m 51.56,78.03 c -11.2,31.32 -41.13,50.55 -72.69,49.62 -7.63,-0.24 -15.37,-1.65 -22.96,-4.37 -22.98,-8.21 -39.46,-26.52 -46.23,-48.15 -4.69,-14.98 -4.72,-31.57 0.98,-47.5 0.56,-1.59 1.18,-3.14 1.84,-4.66 3,-6.9 6.93,-13.15 11.6,-18.63 19.58,-23.01 52.07,-32.74 82.21,-21.97 38.91,13.92 59.17,56.74 45.25,95.66" /><path
         id="path102"
         style="fill:#78c2ff;fill-opacity:1;fill-rule:nonzero;stroke:none"
         d="M 2995.55,4115.04 C 2792.26,3911.75 2764.6,3669.13 2764.6,3669.13 h 230.95 230.94 c 0,0 -27.65,242.62 -230.94,445.91" /><path
         id="path104"
         style="fill:#78c2ff;fill-opacity:1;fill-rule:nonzero;stroke:none"
         d="m 1793.13,1708.98 c -3.03,3.54 -6.21,7.02 -9.47,10.36 -3.26,-3.34 -6.44,-6.82 -9.47,-10.36 l -3.6,3.08 c 3.63,4.25 7.46,8.38 11.39,12.32 l 1.68,1.67 1.68,-1.67 c 3.93,-3.94 7.76,-8.07 11.39,-12.32 l -3.6,-3.08" /><path
         id="path106"
         style="fill:#78c2ff;fill-opacity:1;fill-rule:nonzero;stroke:none"
         d="m 1740.82,1656.04 -4.33,1.94 c 4.36,9.77 9.44,19.29 15.1,28.26 l 4.01,-2.52 c -5.54,-8.79 -10.51,-18.1 -14.78,-27.68 z m -15.28,-60.07 h -4.74 v 9.94 h 0.17 c -0.14,5.3 4.5,21.76 4.55,21.94 l 4.56,-1.29 c -3.35,-11.84 -4.41,-19.72 -4.54,-20.79 z m 0,-63.46 h -4.74 v 31.73 h 4.74 z m 0,-63.47 h -4.74 v 31.73 h 4.74 z m 0,-63.45 h -4.74 v 31.72 h 4.74 z m 0,-63.46 h -4.74 v 31.73 h 4.74 z m 0,-63.47 h -4.74 v 31.73 h 4.74 z m 0,-63.46 h -4.74 v 31.73 h 4.74 v -31.73" /><path
         id="path108"
         style="fill:#78c2ff;fill-opacity:1;fill-rule:nonzero;stroke:none"
         d="m 1739.76,1164.55 h -18.96 v 18.97 h 4.74 v -14.22 h 14.22 v -4.75" /><path
         id="path110"
         style="fill:#78c2ff;fill-opacity:1;fill-rule:nonzero;stroke:none"
         d="m 1798.29,1164.55 h -29.26 v 4.75 h 29.26 v -4.75" /><path
         id="path112"
         style="fill:#78c2ff;fill-opacity:1;fill-rule:nonzero;stroke:none"
         d="m 1846.52,1164.55 h -18.96 v 4.75 h 14.22 v 14.22 h 4.74 v -18.97" /><path
         id="path114"
         style="fill:#78c2ff;fill-opacity:1;fill-rule:nonzero;stroke:none"
         d="m 1846.52,1526.88 h -4.74 v 31.23 h 4.74 z m 0,-62.43 h -4.74 v 31.22 h 4.74 z m 0,-62.43 h -4.74 v 31.22 h 4.74 z m 0,-62.43 h -4.74 v 31.22 h 4.74 z m 0,-62.43 h -4.74 v 31.22 h 4.74 z m 0,-62.43 h -4.74 v 31.21 h 4.74 v -31.21" /><path
         id="path116"
         style="fill:#78c2ff;fill-opacity:1;fill-rule:nonzero;stroke:none"
         d="m 1846.52,1589.32 h -4.74 v 16.45 c -0.11,0.92 -0.9,6.79 -3.2,15.8 l 4.59,1.18 c 2.59,-10.14 3.3,-16.31 3.33,-16.57 l 0.02,-0.27 v -16.59" /><path
         id="path118"
         style="fill:#78c2ff;fill-opacity:1;fill-rule:nonzero;stroke:none"
         d="m 1827.89,1652.88 c -4.35,10.17 -9.49,20.05 -15.26,29.38 l 4.04,2.49 c 5.89,-9.53 11.13,-19.62 15.57,-29.99 l -4.35,-1.88" /><path
         id="path120"
         style="fill:#f5f5f5;fill-opacity:1;fill-rule:nonzero;stroke:none"
         d="m 3280.93,1476.32 c -19.23,0 -37.62,-2.83 -54.57,-8.01 -22.34,54.2 -77.84,92.59 -142.81,92.59 -72.19,0 -132.74,-47.43 -149,-111.31 -12.48,4.72 -26.06,7.31 -40.31,7.31 -60.1,0 -108.83,-46.3 -108.83,-103.43 h 159.23 58.43 124.54 94.87 211.76 c 0,67.84 -68.63,122.85 -153.31,122.85" /><path
         id="path122"
         style="fill:#ebebeb;fill-opacity:1;fill-rule:nonzero;stroke:none"
         d="m 2772.6,3562.73 c -13.64,0 -26.7,-2.23 -38.72,-6.31 -15.86,42.69 -55.24,72.91 -101.33,72.91 -51.23,0 -94.19,-37.35 -105.72,-87.65 -8.85,3.72 -18.5,5.77 -28.6,5.77 -42.65,0 -77.22,-36.47 -77.22,-81.45 h 112.96 41.47 88.37 67.31 150.26 c 0,53.42 -48.7,96.73 -108.78,96.73" /><path
         id="path124"
         style="fill:#ebebeb;fill-opacity:1;fill-rule:nonzero;stroke:none"
         d="m 3257.39,3678.53 c -8.49,0 -16.63,-1.4 -24.13,-3.94 -9.88,26.61 -34.43,45.45 -63.16,45.45 -31.95,0 -58.72,-23.29 -65.91,-54.64 -5.52,2.31 -11.53,3.59 -17.83,3.59 -26.58,0 -48.14,-22.73 -48.14,-50.77 h 70.42 25.85 55.09 41.97 93.66 c 0,33.3 -30.36,60.31 -67.82,60.31" /><path
         id="path126"
         style="fill:#dedede;fill-opacity:1;fill-rule:nonzero;stroke:none"
         d="m 3501.38,3313.04 c -14.24,0 -27.87,-2.47 -40.42,-6.99 -16.56,47.26 -57.67,80.73 -105.78,80.73 -53.49,0 -98.33,-41.36 -110.38,-97.04 -9.23,4.1 -19.3,6.37 -29.86,6.37 -44.51,0 -80.6,-40.37 -80.6,-90.18 h 117.94 43.28 92.24 70.29 156.85 c 0,59.15 -50.85,107.11 -113.56,107.11" /><path
         id="path128"
         style="fill:#78c2ff;fill-opacity:1;fill-rule:nonzero;stroke:none"
         d="m 1672.47,1520.62 h -43.95 v -357.77 h 43.95 v 357.77" /><path
         id="path130"
         style="fill:#78c2ff;fill-opacity:1;fill-rule:nonzero;stroke:none"
         d="m 1610.92,1435.91 h -43.96 v -273.06 h 43.96 v 273.06" /><path
         id="path132"
         style="fill:#78c2ff;fill-opacity:1;fill-rule:nonzero;stroke:none"
         d="m 1549.37,1352.85 h -43.96 v -190 h 43.96 v 190" /><path
         id="path134"
         style="fill:#292c47;fill-opacity:1;fill-rule:nonzero;stroke:none"
         d="m 1456.55,1725.48 102.9,-56.57 103.33,162.61 -124.98,43.42 -81.25,-149.46" /><path
         id="path136"
         style="fill:#e3f2ff;fill-opacity:1;fill-rule:nonzero;stroke:none"
         d="m 1463.07,1730.36 96.23,-52.89 96.64,152.06 -116.88,40.61 -75.99,-139.78" /><path
         id="path138"
         style="fill:#eea886;fill-opacity:1;fill-rule:nonzero;stroke:none"
         d="m 1427.83,1758.8 c 0,0 17.91,8.56 25.77,13.05 7.86,4.47 28.08,10.62 29.72,12.08 1.63,1.46 59.94,5.05 63.48,8.1 3.54,3.05 6.97,-7.15 -8.14,-10.46 -15.11,-3.31 -36.14,-11.4 -37.29,-17.31 -1.15,-5.91 15.52,-7.31 17.21,-12.17 1.69,-4.86 -0.47,-3.78 -2.86,-4.81 -2.39,-1.05 -19.84,8.61 -27.51,5.86 -7.67,-2.74 -19.39,1.06 -25.27,-0.95 -5.88,-2.01 -34.46,-11.63 -34.46,-11.63 l -0.65,18.24" /><path
         id="path140"
         style="fill:#ead8cf;fill-opacity:1;fill-rule:nonzero;stroke:none"
         d="m 1460.15,1746.15 9.23,3.41 c 0,0 -11.51,27 -16.53,26.35 -5.78,-0.76 -13,-2.67 -13,-2.67 l 20.3,-27.09" /><path
         id="path142"
         style="fill:#da9b5b;fill-opacity:1;fill-rule:nonzero;stroke:none"
         d="m 1462.26,1741.48 c -1.18,0.88 -19.61,36.24 -19.61,36.24 l -39.38,-5.34 21.28,-41.88 37.71,10.98" /><path
         id="path144"
         style="fill:#eea886;fill-opacity:1;fill-rule:nonzero;stroke:none"
         d="m 1564.46,1689.32 c 0,0 15.05,13.53 22.33,19.21 7.28,5.66 20.94,22.32 22.96,23.29 2.01,0.97 28.1,54.53 32.36,56.67 4.25,2.14 -4.03,9.36 -13.03,-3.6 -9.01,-12.96 -24.82,-29.62 -30.84,-28.41 -6.01,1.23 -0.84,17.48 -4.76,20.96 -3.93,3.5 -3.74,1.04 -5.66,-0.81 -1.91,-1.85 0.4,-22.05 -5.17,-28.21 -5.57,-6.15 -6.56,-18.69 -10.75,-23.44 -4.18,-4.76 -24.38,-27.96 -24.38,-27.96 l 16.94,-7.7" /><path
         id="path146"
         style="fill:#424773;fill-opacity:1;fill-rule:nonzero;stroke:none"
         d="m 1240.42,965.512 c 0,0 -3.25,-22.602 -3.65,-25.992 -0.41,-3.391 -36.21,2 -36.21,2 l -2.9,26.902 c 0,0 38.29,0.269 42.76,-2.91" /><path
         id="path148"
         style="fill:#292c47;fill-opacity:1;fill-rule:nonzero;stroke:none"
         d="m 1237.15,942.391 c 0,0 11.34,-13.61 22.31,-19.539 10.97,-5.942 28.21,-8.293 34.7,-14.422 4.68,-4.45 17.05,-23.532 -28.51,-23.141 -45.56,0.383 -67.53,-2.687 -72.41,4.609 -4.89,7.332 7.06,54.032 7.06,54.032 0,0 10.79,-3.891 36.85,-1.539" /><path
         id="path150"
         style="fill:#424773;fill-opacity:1;fill-rule:nonzero;stroke:none"
         d="m 1496.93,965.512 c 0,0 -3.25,-22.602 -3.66,-25.992 -0.4,-3.391 -36.2,2 -36.2,2 l -2.9,26.902 c 0,0 38.29,0.269 42.76,-2.91" /><path
         id="path152"
         style="fill:#292c47;fill-opacity:1;fill-rule:nonzero;stroke:none"
         d="m 1493.65,942.391 c 0,0 11.35,-13.61 22.32,-19.539 10.97,-5.942 51.34,-10.813 57.82,-16.954 4.69,-4.437 12.47,-22.289 -51.63,-20.609 -45.55,1.18 -67.54,-2.687 -72.41,4.609 -4.89,7.332 7.06,54.032 7.06,54.032 0,0 10.16,-4.149 36.84,-1.539" /><path
         id="path154"
         style="fill:#292c47;fill-opacity:1;fill-rule:nonzero;stroke:none"
         d="m 1270.07,1546 c 0,0 -33.63,-53.44 -31.12,-101.76 2.5,-48.3 -12.2,-101.05 -17.26,-151.52 -5.63,-56.26 -28.68,-189.45 -29.52,-219.54 -0.84,-30.09 3.58,-126.2 3.58,-126.2 l 46.14,-1.039 c 0,0 38.76,232.839 48.8,256.599 10.04,23.76 59.82,193.14 61.49,212.15 1.68,19 -82.11,131.31 -82.11,131.31" /><path
         id="path156"
         style="fill:#292c47;fill-opacity:1;fill-rule:nonzero;stroke:none"
         d="m 1447.15,1538.76 c 0,0 25.35,-132.41 28.69,-161.98 3.35,-29.56 5.58,-143.09 7.26,-161.57 1.67,-18.48 11.15,-241.819 20.07,-269.269 h -59 c 0,0 -45.29,162.359 -45.29,239.179 0,76.81 -34.98,167.01 -57.57,217.69 -22.58,50.69 -74.28,51.88 -88.17,145.92 0,0 175.21,19.85 194.01,-9.97" /><path
         id="path158"
         style="fill:#eea886;fill-opacity:1;fill-rule:nonzero;stroke:none"
         d="m 1326.2,1995.32 c 0,0 45.15,16.87 65.97,-17.51 20.82,-34.36 18.82,-103.16 -3.95,-111.63 -22.75,-8.46 -56.94,-4.03 -68.59,17.47 -11.65,21.51 -22.17,52.59 -21.67,73.37 0.51,20.78 16.39,32.31 28.24,38.3" /><path
         id="path160"
         style="fill:#eea886;fill-opacity:1;fill-rule:nonzero;stroke:none"
         d="m 1383.33,1864.61 c 0,0 -1.88,-12.19 1.22,-18.2 3.11,-6 -58.5,-6.16 -58.5,-6.16 0,0 -5,32.66 -14.47,60.27 -9.49,27.59 71.75,-35.91 71.75,-35.91" /><path
         id="path162"
         style="fill:#3a3f47;fill-opacity:1;fill-rule:nonzero;stroke:none"
         d="m 1311.58,1900.52 c 0,0 4.25,-7.02 21.6,-4.3 17.36,2.72 38.53,25.81 45.78,28.34 7.24,2.54 7.31,6.8 7.31,6.8 l 4.54,-6.63 7.69,-0.49 c 0,0 -7.02,20.65 3.57,29.08 10.59,8.42 -10.99,66.86 -66.65,47.4 0,0 -42.74,-11.78 -41.19,-36.09 1.56,-24.32 7.78,-52.01 17.35,-64.11" /><path
         id="path164"
         style="fill:#e2d2ca;fill-opacity:1;fill-rule:nonzero;stroke:none"
         d="m 1388.21,1847.14 c 0,0 -0.2,11.46 -5.4,12.58 -5.2,1.09 -57.4,6.11 -63.79,3.6 v -13.37 c 0,0 12.3,-7.57 69.19,-2.81" /><path
         id="path166"
         style="fill:#eea886;fill-opacity:1;fill-rule:nonzero;stroke:none"
         d="m 1385.12,1940.2 c -0.97,4.08 -11.35,15.73 -15.32,3.25 -3.97,-12.47 6.01,-29.26 11.57,-27.82 5.56,1.43 6.22,14.22 3.75,24.57" /><path
         id="path168"
         style="fill:#323657;fill-opacity:1;fill-rule:nonzero;stroke:none"
         d="m 1595.39,1711.57 c -0.02,0.01 -0.05,0.02 -0.09,0.01 0.36,-0.15 0.41,-0.17 0.09,-0.01" /><path
         id="path170"
         style="fill:#323657;fill-opacity:1;fill-rule:nonzero;stroke:none"
         d="m 1232.12,1418.68 c 0,0 27.69,-8.15 74.91,-13.36 47.22,-5.2 165.19,1.88 165.93,7.45 0.75,5.59 -25.37,207.73 -23.88,218.14 1.48,10.41 2.28,47.5 2.28,47.5 0.58,-10.17 10.93,-51.68 23.43,-74.31 4.52,-8.17 19.67,-33.8 26.97,-27.97 35.34,28.22 90.07,134.55 93.54,135.45 -2.92,1.27 -25.93,11.87 -29.17,12.94 -2.82,0.95 -28.32,-26.04 -43.77,-42.78 -6.89,-7.46 -11.78,-12.88 -11.78,-12.88 -4.46,10.04 -20.71,73.27 -25.76,95.15 -11.39,49.36 -9.64,51.41 -9.64,51.41 -34.54,10.45 -86.97,31.72 -86.97,31.72 l -69.19,2.81 c 0,0 -63.49,-13.97 -88.5,-25.26 -2.37,-1.08 -2.38,-56.65 -8.89,-71.22 l 20.73,-43.74 c 0,0 11.98,-86.64 14.46,-125.18 1.14,-17.68 -24.7,-165.87 -24.7,-165.87" /><path
         id="path172"
         style="fill:#323657;fill-opacity:1;fill-rule:nonzero;stroke:none"
         d="m 1218.75,1681.31 c 1.81,-5.83 10.01,-10.75 15.34,-12.91 3.41,-1.38 7.23,-1.83 11.08,-1.11 l 2.71,0.49 v 0.01 l 47.41,8.8 c 0,0 10.37,119.47 -64.77,148.1 -1.98,-0.66 -28.36,-89.89 -11.77,-143.38" /><path
         id="path174"
         style="fill:#252840;fill-opacity:1;fill-rule:nonzero;stroke:none"
         d="m 1234.09,1668.4 v 0 c 3.41,-1.38 7.23,-1.83 11.08,-1.11 l 2.71,0.49 v 0.01 l -4.68,61.06 -9.11,-60.45" /><path
         id="path176"
         style="fill:#252840;fill-opacity:1;fill-rule:nonzero;stroke:none"
         d="m 1510.58,1668.86 5.79,-24.54 c 0,0 6.29,24.63 5.99,37.42 -6.89,-7.46 -11.78,-12.88 -11.78,-12.88" /><path
         id="path178"
         style="fill:#3a3f47;fill-opacity:1;fill-rule:nonzero;stroke:none"
         d="m 1313.34,1991.27 c 0,0 -56.81,-5.76 -1.01,-92.01 l 1.01,92.01" /><path
         id="path180"
         style="fill:#292c47;fill-opacity:1;fill-rule:nonzero;stroke:none"
         d="m 1615.21,1840.25 6.02,10.34 -47.38,16.34 -6.01,-10.28 47.37,-16.4" /><path
         id="path182"
         style="fill:#78c2ff;fill-opacity:1;fill-rule:nonzero;stroke:none"
         d="m 3107.22,3314.53 c 0,-61.68 -50,-111.67 -111.67,-111.67 -61.68,0 -111.67,49.99 -111.67,111.67 0,61.67 49.99,111.67 111.67,111.67 61.67,0 111.67,-50 111.67,-111.67" /><path
         id="path184"
         style="fill:#78c2ff;fill-opacity:1;fill-rule:nonzero;stroke:none"
         d="m 3107.22,2979.27 c 0,-61.68 -50,-111.67 -111.67,-111.67 -61.68,0 -111.67,49.99 -111.67,111.67 0,61.67 49.99,111.67 111.67,111.67 61.67,0 111.67,-50 111.67,-111.67" /><path
         id="path186"
         style="fill:#f5f5f5;fill-opacity:1;fill-rule:nonzero;stroke:none"
         d="m 3078.76,2979.27 c 0,-45.96 -37.26,-83.22 -83.21,-83.22 -45.96,0 -83.22,37.26 -83.22,83.22 0,45.95 37.26,83.21 83.22,83.21 45.95,0 83.21,-37.26 83.21,-83.21" /><path
         id="path188"
         style="fill:#f5f5f5;fill-opacity:1;fill-rule:nonzero;stroke:none"
         d="m 3078.76,3314.53 c 0,-45.96 -37.26,-83.21 -83.21,-83.21 -45.96,0 -83.22,37.25 -83.22,83.21 0,45.95 37.26,83.21 83.22,83.21 45.95,0 83.21,-37.26 83.21,-83.21" /><path
         id="path190"
         style="fill:#eea886;fill-opacity:1;fill-rule:nonzero;stroke:none"
         d="m 1865.16,3031.11 c 0,0 7.87,13.77 -4.61,50.7 -12.08,35.7 -53.88,32.47 -67.16,9.59 -13.28,-22.88 -8.8,-37.09 10.76,-62.91 19.56,-25.83 52.89,-9.19 61.01,2.62" /><path
         id="path192"
         style="fill:#eea886;fill-opacity:1;fill-rule:nonzero;stroke:none"
         d="m 1768.08,2395.88 c 0,0 -2.07,-15.16 -2.33,-17.44 -0.26,-2.28 -23.01,1.35 -23.01,1.35 l -1.84,18.04 c 0,0 24.33,0.19 27.18,-1.95" /><path
         id="path194"
         style="fill:#5377b3;fill-opacity:1;fill-rule:nonzero;stroke:none"
         d="m 1765.99,2380.36 c 0,0 7.21,-9.13 14.18,-13.11 6.97,-3.99 17.93,-5.56 22.05,-9.68 2.98,-2.98 10.84,-15.79 -18.12,-15.54 -28.95,0.26 -42.91,-1.8 -46.01,3.11 -3.1,4.91 4.49,36.25 4.49,36.25 0,0 7.08,-2 23.41,-1.03" /><path
         id="path196"
         style="fill:#eea886;fill-opacity:1;fill-rule:nonzero;stroke:none"
         d="m 1925.59,2395.88 c 0,0 -2.06,-15.16 -2.32,-17.44 -0.26,-2.28 -23.01,1.35 -23.01,1.35 l -1.84,18.04 c 0,0 24.33,0.19 27.17,-1.95" /><path
         id="path198"
         style="fill:#5b83c2;fill-opacity:1;fill-rule:nonzero;stroke:none"
         d="m 1923.51,2380.36 c 0,0 7.2,-9.13 14.18,-13.11 6.97,-3.99 32.62,-7.26 36.74,-11.38 2.98,-2.98 7.93,-14.95 -32.81,-13.84 -28.94,0.8 -42.91,-1.8 -46.01,3.11 -3.11,4.91 4.48,36.25 4.48,36.25 0,0 9,-1.6 23.42,-1.03" /><path
         id="path200"
         style="fill:#2f4563;fill-opacity:1;fill-rule:nonzero;stroke:none"
         d="m 1775.74,2773.43 c 0,0 -11.67,-36.24 -10.13,-67.48 1.53,-31.24 -6.03,-65.42 -9.13,-98.05 -3.45,-36.38 -17.56,-122.49 -18.07,-141.95 -0.51,-19.47 2.19,-81.59 2.19,-81.59 l 28.25,-0.69 c 0,0 23.73,150.55 29.87,165.92 6.15,15.36 36.62,124.88 37.65,137.17 1.02,12.29 -60.63,86.67 -60.63,86.67" /><path
         id="path202"
         style="fill:#354c70;fill-opacity:1;fill-rule:nonzero;stroke:none"
         d="m 1892.87,2777.21 c 0,0 17.15,-95.84 19.2,-114.96 2.05,-19.12 3.41,-92.52 4.43,-104.47 1.03,-11.95 6.83,-156.35 12.3,-174.11 h -31.51 c 0,0 -32.33,104.98 -32.33,154.65 0,49.67 -21.42,107.99 -35.25,140.76 -13.83,32.77 -45.48,33.55 -53.97,94.35 0,0 105.62,23.06 117.13,3.78" /><path
         id="path204"
         style="fill:#eea886;fill-opacity:1;fill-rule:nonzero;stroke:none"
         d="m 1853.73,3021.36 c 0,0 -3.55,-10.34 0,-17.72 3.56,-7.38 -45.4,-2.96 -45.4,-2.96 0,0 2.22,15.26 -4.18,27.81 -6.4,12.54 49.58,-7.13 49.58,-7.13" /><path
         id="path206"
         style="fill:#2b3b57;fill-opacity:1;fill-rule:nonzero;stroke:none"
         d="m 1773.46,2765.54 c 0,0 17.61,-18.09 120.98,2.81 l -1.57,8.86 -117.52,-4.43 -1.89,-7.24" /><path
         id="path208"
         style="fill:#eea886;fill-opacity:1;fill-rule:nonzero;stroke:none"
         d="m 1861.14,3001.24 c 0,0 18.08,-1.85 23.24,-2.83 5.17,-0.98 39.95,6.22 47.08,6.96 7.13,0.74 37.55,21.58 38.54,24.04 0.98,2.46 18.5,46.83 19.49,56.42 0.98,9.59 17.06,4.64 15.68,-1.97 -2.58,-12.37 -5.89,-42.39 -7.7,-51.09 -1.97,-9.4 -7.22,-30.68 -10.18,-33.29 -2.94,-2.62 -30.33,-23.45 -57.15,-32.31 -26.81,-8.85 -47,-21.89 -47,-21.89 H 1751 c 0,0 -51.4,73.47 -52.51,84.54 -1.11,11.07 35.9,84.64 43.28,93.87 7.39,9.22 18.06,-3.02 18.06,-3.02 0,0 -22.12,-64.87 -25.07,-74.1 -2.95,-9.23 25.72,-49.75 33.59,-49.88 7.88,-0.12 28.09,2.46 37.07,2.83 8.98,0.37 18.45,4.3 18.45,4.3 l 37.27,-2.58" /><path
         id="path210"
         style="fill:#ff7e55;fill-opacity:1;fill-rule:nonzero;stroke:none"
         d="m 1918.09,2952.16 c 0,0 -16.18,-10.75 -17.66,-29.2 -1.47,-18.45 -7.37,-47.6 -10.33,-57.56 -2.95,-9.97 2.59,-82.28 3.32,-87.45 0.75,-5.17 -102.25,-17.44 -118.07,-5.17 0,0 -4.43,67.53 -6.27,86.72 -1.85,19.18 -10.7,65.68 -13.66,71.95 -2.94,6.27 -38.74,56.47 -40.21,63.09 0,0 18.51,29.52 31.8,29.89 0,0 21.1,-24.72 27.97,-25.83 6.88,-1.1 49.04,6.62 49.05,6.69 0,0 4.6,-6.27 29.07,1.11 0,0 29.13,-3.29 33.87,-3.9 5.74,-0.72 45.63,5.01 45.63,5.01 0,0 16.01,-27.02 13.21,-40.67 l -27.72,-14.68" /><path
         id="path212"
         style="fill:#eea886;fill-opacity:1;fill-rule:nonzero;stroke:none"
         d="m 1988.56,3080.06 c 0,0 3.61,17.1 -0.74,22.02 -2.47,2.79 -8.43,10.19 -8.97,11.27 -0.54,1.09 -6.93,4.77 -6.93,6.53 0,1.77 6.25,3.94 11.69,-1.09 5.43,-5.03 8.83,-6.11 11.01,-5.57 2.17,0.54 5.3,18.62 5.57,23.11 0.27,4.48 2,16.31 4.81,15.49 2.8,-0.81 2.67,-5.98 2.67,-5.98 0,0 3.26,8.97 5.44,7.21 2.17,-1.77 1.89,-6.12 1.89,-6.12 0,0 4.08,5.03 5.17,1.36 1.09,-3.67 0,-6.93 0,-6.93 0,0 4.21,2.31 4.49,-3.4 0.27,-5.71 -1.23,-22.43 -4.22,-28.41 -2.99,-5.98 -14.18,-21.63 -15.51,-27.73 -1.34,-6.12 -16.37,-1.76 -16.37,-1.76" /><path
         id="path214"
         style="fill:#eea886;fill-opacity:1;fill-rule:nonzero;stroke:none"
         d="m 1756.23,3110.09 c 0,0 12.29,20.67 16.47,22.52 4.18,1.84 10.09,2.89 15.25,6.58 5.17,3.69 12,6.76 11.63,7.99 -0.37,1.23 -6.46,0.74 -12.98,-2.09 -6.52,-2.83 -9.38,-1.46 -9.99,0.02 -0.62,1.47 3.47,11.89 5.44,14.35 1.97,2.46 15.99,16.57 13.65,18.66 -2.34,2.09 -11.44,-5.66 -12.91,-7.26 0,0 7.25,15.25 4.43,15.99 -2.84,0.74 -8.12,-4.68 -8.12,-4.68 0,0 0.61,13.04 -13.41,-8.11 0,0 2.95,7.01 -1.35,4.67 -4.31,-2.34 -8.49,-15.5 -9.84,-22.14 -1.36,-6.64 -7.49,-27.8 -12.73,-32.9 -5.23,-5.11 14.46,-13.6 14.46,-13.6" /><path
         id="path216"
         style="fill:#353a3d;fill-opacity:1;fill-rule:nonzero;stroke:none"
         d="m 1804.15,3028.49 c 0,0 6.48,-0.58 20.25,4.18 13.78,4.75 14.81,28.84 17.79,25.99 6.08,-5.82 11.81,-1.8 14.11,1.64 0,0 -6.72,8.86 -3.6,13.12 3.11,4.27 8.18,7.38 8.18,7.38 0,0 -9.68,46.7 -53.78,25.42 -51.66,-24.93 -2.95,-77.73 -2.95,-77.73" /><path
         id="path218"
         style="fill:#ff7e55;fill-opacity:1;fill-rule:nonzero;stroke:none"
         d="m 1853.73,3003.64 -1.55,6.75 c 0,0 -28.15,0.57 -43.5,-1.65 l -1.61,-8.08 c 0,0 19.65,-8.91 46.66,2.98" /><path
         id="path220"
         style="fill:#eea886;fill-opacity:1;fill-rule:nonzero;stroke:none"
         d="m 1846.79,3064.57 c -2.56,4.24 -12.01,7.1 -13.12,-4.93 -0.86,-9.32 16.89,-19.51 17.05,-10.82 0.17,8.69 -2.23,12.92 -3.93,15.75" /><path
         id="path222"
         style="fill:#e55353;fill-opacity:1;fill-rule:nonzero;stroke:none"
         d="m 1989.23,3083.95 c 0,0 10.15,-0.25 15.08,-4.7 0,0 0.32,-2.83 -0.82,-5.06 0,0 -8.8,4.11 -15.56,4.88 0,0 0.12,3.69 1.3,4.88" /><path
         id="path224"
         style="fill:#353a3d;fill-opacity:1;fill-rule:nonzero;stroke:none"
         d="m 2001.2,3081.42 c 0.94,-2.23 -0.1,-4.79 -2.32,-5.73 -2.22,-0.93 -4.79,0.11 -5.73,2.33 -0.93,2.22 0.11,4.78 2.33,5.72 2.22,0.94 4.78,-0.1 5.72,-2.32" /><path
         id="path226"
         style="fill:#ffa88c;fill-opacity:1;fill-rule:nonzero;stroke:none"
         d="m 2814.9,1560.9 h -100.61 v 427.12 H 2814.9 V 1560.9" /><path
         id="path228"
         style="fill:#ffa88c;fill-opacity:1;fill-rule:nonzero;stroke:none"
         d="m 3045.86,1560.9 h -100.63 v 427.12 h 100.63 V 1560.9" /><path
         id="path230"
         style="fill:#ffa88c;fill-opacity:1;fill-rule:nonzero;stroke:none"
         d="m 3276.81,1560.9 h -100.62 v 427.12 h 100.62 V 1560.9" /><path
         id="path232"
         style="fill:#2878bd;fill-opacity:1;fill-rule:nonzero;stroke:none"
         d="m 3078.76,1943.78 h -166.42 c 0,45.96 37.26,83.21 83.2,83.21 45.96,0 83.22,-37.25 83.22,-83.21" /><path
         id="path234"
         style="fill:#2878bd;fill-opacity:1;fill-rule:nonzero;stroke:none"
         d="m 3309.7,1943.78 h -166.42 c 0,45.96 37.27,83.21 83.2,83.21 45.96,0 83.22,-37.25 83.22,-83.21" /><path
         id="path236"
         style="fill:#ebebeb;fill-opacity:1;fill-rule:nonzero;stroke:none"
         d="m 3385.1,1703.77 c -28.18,0 -55.14,-4.62 -79.97,-13.05 -32.75,88.17 -114.1,150.6 -209.31,150.6 -105.8,0 -194.54,-77.16 -218.36,-181.04 -18.28,7.67 -38.2,11.91 -59.08,11.91 -88.08,0 -159.49,-75.32 -159.49,-168.24 h 233.34 85.64 182.52 139.04 310.36 c 0,110.35 -100.6,199.82 -224.69,199.82" /><path
         id="path238"
         style="fill:#f5f5f5;fill-opacity:1;fill-rule:nonzero;stroke:none"
         d="m 3217.63,1551.65 c -28.19,0 -55.15,-4.88 -79.98,-13.83 -32.75,93.51 -114.1,159.73 -209.3,159.73 -105.81,0 -194.54,-81.83 -218.37,-192.01 -18.28,8.12 -38.19,12.61 -59.07,12.61 -88.08,0 -159.5,-79.88 -159.5,-178.43 h 233.36 85.63 182.51 139.05 310.35 c 0,117.04 -100.59,211.93 -224.68,211.93" /><path
         id="path240"
         style="fill:#dedede;fill-opacity:1;fill-rule:nonzero;stroke:none"
         d="m 3769.44,1441.8 c -31.67,0 -61.97,-4.67 -89.88,-13.21 -36.81,89.29 -128.24,152.52 -235.24,152.52 -118.93,0 -218.66,-78.13 -245.44,-183.35 -20.55,7.76 -42.93,12.05 -66.4,12.05 -98.99,0 -179.26,-76.28 -179.26,-170.39 h 262.27 96.25 205.14 156.28 348.82 c 0,111.76 -113.07,202.38 -252.54,202.38" /><path
         id="path242"
         style="fill:#ebebeb;fill-opacity:1;fill-rule:nonzero;stroke:none"
         d="m 2958.31,1396.09 c -24.51,0 -47.97,-3.61 -69.58,-10.22 -28.5,69.12 -99.28,118.08 -182.11,118.08 -92.07,0 -169.27,-60.5 -190.01,-141.95 -15.9,6.01 -33.23,9.33 -51.4,9.33 -76.64,0 -138.77,-59.05 -138.77,-131.91 h 203.03 74.51 158.82 120.98 270.04 c 0,86.52 -87.53,156.67 -195.51,156.67" /><path
         id="path244"
         style="fill:#eea886;fill-opacity:1;fill-rule:nonzero;stroke:none"
         d="m 3810.23,1771.02 c 0,0 -5.02,12.46 -5.85,14.34 -0.83,1.88 -5.67,4.95 -11.54,7.98 -5.87,3.04 -15.15,4.51 -16.15,3.95 -1.01,-0.55 -2.27,-0.64 -3.55,-3.27 -1.28,-2.63 -0.92,-5.55 -0.92,-5.55 0,0 -3.11,-2.5 -2.4,-6.08 0,0 -2.8,-2.48 -1.33,-6.4 0,0 -2.68,-2.5 -1.36,-5.27 0,0 4.85,-3.07 6.31,-4.73 1.46,-1.66 12,-7.38 22.95,-11.3 0,0 11.59,-0.22 13.84,16.33" /><path
         id="path246"
         style="fill:#cf8c6c;fill-opacity:1;fill-rule:nonzero;stroke:none"
         d="m 3792.39,1777.81 c 0,0 -0.11,-6.75 0.8,-8.66 0.93,-1.91 -13.69,-6.16 -13.69,-6.16 0,0 4.69,14.76 12.89,14.82" /><path
         id="path248"
         style="fill:#3b3f66;fill-opacity:1;fill-rule:nonzero;stroke:none"
         d="m 4065.12,1117.77 -6.38,19.89 -27,-4.37 4.03,-17.93 29.35,2.41" /><path
         id="path250"
         style="fill:#555c94;fill-opacity:1;fill-rule:nonzero;stroke:none"
         d="m 3843.78,1120.14 -1.51,-10.93 -29.57,4.92 1.58,16.32 29.5,-10.31" /><path
         id="path252"
         style="fill:#e8734d;fill-opacity:1;fill-rule:nonzero;stroke:none"
         d="m 3907.8,1426.32 c 0,0 4.35,-23.73 9.41,-50.06 0.88,-4.59 1.76,-9.27 2.68,-13.9 4.93,-25.37 9.92,-49.78 11.77,-54.83 4.19,-11.48 94.71,-177.34 94.71,-177.34 0,0 37.02,2.82 38.41,7.58 0,0 -75.89,180.09 -75.46,186.66 0.42,6.56 -9.27,191.19 -9.27,191.19 0,0 -70.25,-78.64 -72.25,-89.3" /><path
         id="path254"
         style="fill:#e8734d;fill-opacity:1;fill-rule:nonzero;stroke:none"
         d="m 3866.44,1526.16 c 0,0 -35.41,-181.36 -38.44,-195.24 -3.03,-13.89 -16.45,-199.67 -16.45,-199.67 0,0 7.96,-16.42 37.36,-10.23 0,0 40.08,199.6 43.46,206.29 13.12,25.96 77.47,151.72 83.7,169.67 6.24,17.95 4.41,38.9 4.41,38.9 0,0 -47.81,26.85 -114.04,-9.72" /><path
         id="path256"
         style="fill:#292c47;fill-opacity:1;fill-rule:nonzero;stroke:none"
         d="m 3881.33,1761.07 c 0,0 -15.54,-38.72 -19.44,-37.57 -3.91,1.14 -48.55,53.56 -48.55,53.56 0,0 -20.43,-25.49 -17.7,-28.42 3.83,-4.07 56.55,-91.73 63.8,-90.14 7.25,1.58 39.67,55.16 39.67,55.16 0,0 1.84,40.41 -17.78,47.41" /><path
         id="path258"
         style="fill:#323657;fill-opacity:1;fill-rule:nonzero;stroke:none"
         d="m 3947.77,1835.02 c 0,0 -40.29,-30.79 -51.41,-43 -11.12,-12.21 -41.8,-62.86 -39.59,-78.08 8.48,-58.42 12.52,-108.2 12.77,-148.04 0.23,-34.72 -10.84,-43.58 -3.94,-44.09 7.9,-0.59 109.26,-37.33 124.27,-41.8 0,0 -9.83,122.25 -14.81,136.35 -4.98,14.11 15.94,161.91 -27.29,218.66" /><path
         id="path260"
         style="fill:#d9d0c4;fill-opacity:1;fill-rule:nonzero;stroke:none"
         d="m 3688.32,1893.43 -9.04,-45.54 -9.05,-45.54 c 0,0 51.72,16.19 110.42,4.53 l 4,20.09 4,20.21 c -58.69,11.65 -100.33,46.25 -100.33,46.25" /><path
         id="path262"
         style="fill:#2878bd;fill-opacity:1;fill-rule:nonzero;stroke:none"
         d="m 3842.27,1109.21 c 0,0 -22.32,4.32 -23.1,4.99 -0.78,0.68 -5.57,9.49 -9.02,7.96 -3.45,-1.54 -3.5,-12.27 -6.87,-14.08 -3.37,-1.82 -30,-19.81 -33.27,-23.09 -3.28,-3.27 -23.45,-1.35 -25.76,-7.04 -2.32,-5.69 -2.51,-19.14 27.59,-15.97 30.08,3.17 64.44,-1.74 70.92,1.83 6.48,3.54 1.58,36.74 -0.49,45.4" /><path
         id="path264"
         style="fill:#2878bd;fill-opacity:1;fill-rule:nonzero;stroke:none"
         d="m 4065.48,1118.27 c 0,0 -22.72,0.69 -23.6,1.24 -0.87,0.55 -7.02,8.47 -10.18,6.4 -3.16,-2.06 -1.48,-12.67 -4.52,-14.99 -3.04,-2.34 -26.45,-24.36 -29.15,-28.12 -2.71,-3.75 -22.93,-5.08 -24.3,-11.07 -1.38,-5.99 0.59,-19.29 29.79,-11.36 29.19,7.94 63.88,8.61 69.71,13.16 5.83,4.55 -4.32,36.52 -7.75,44.74" /><path
         id="path266"
         style="fill:#eea987;fill-opacity:1;fill-rule:nonzero;stroke:none"
         d="m 3889.05,1517.76 c 0,0 -2.72,-11.04 -7.08,-13.43 -4.36,-2.4 20.33,-26.01 20.33,-26.01 0,0 10.01,21.89 9.74,24.1 -0.27,2.21 -22.99,15.34 -22.99,15.34" /><path
         id="path268"
         style="fill:#494f80;fill-opacity:1;fill-rule:nonzero;stroke:none"
         d="m 3965.65,1787.28 c 0,0 28.92,-137.52 31.28,-151.61 2.25,-13.33 -84.75,-140.56 -84.75,-140.56 l -28.94,17.17 c 0,0 70.21,127.65 70.11,133.47 -0.11,5.82 -33.7,116.69 -33.7,116.69 0,0 -14.04,24.13 10.87,35.87 24.91,11.72 35.13,-11.03 35.13,-11.03" /><path
         id="path270"
         style="fill:#e8734d;fill-opacity:1;fill-rule:nonzero;stroke:none"
         d="m 3872.09,1508.27 c 0,0 -9.4,-46.76 -8.83,-61.08 0.59,-14.33 53.98,22.54 51.27,36.78 l -42.44,24.3" /><path
         id="path272"
         style="fill:#eea886;fill-opacity:1;fill-rule:nonzero;stroke:none"
         d="m 3947.76,1835.03 c 0,0 -73.37,-80.15 -68.85,-71.26 16.11,31.67 27.36,37.02 27.13,42.93 -0.18,4.52 -1.94,17.7 -2.24,22.12 -0.57,8.4 -1.19,15.21 -1.19,15.21 0,0 36.42,51.18 34.82,33.74 -1.61,-17.43 10.33,-42.74 10.33,-42.74" /><path
         id="path274"
         style="fill:#eea886;fill-opacity:1;fill-rule:nonzero;stroke:none"
         d="m 3877.89,1929.37 c 0,0 -10.09,-23.68 -10.23,-29.22 -0.15,-5.54 1.26,-9.8 0.4,-16.18 -0.89,-6.61 -6.44,-20.49 -5.76,-24.32 0.83,-4.64 10.6,-2.23 11.94,-9.87 1.35,-7.64 8.45,-22 11.98,-22.29 9.08,-0.74 43.88,13.45 46.08,20.71 2.22,7.29 14.83,47.86 18.74,55.58 3.93,7.72 -61.27,50.01 -67.22,37.8 -5.93,-12.21 -5.93,-12.21 -5.93,-12.21" /><path
         id="path276"
         style="fill:#fccca2;fill-opacity:1;fill-rule:nonzero;stroke:none"
         d="m 3966.55,1911.81 c 4.6,20.08 -18.48,22.56 -18.48,22.56 0,0 -15.05,17.5 -51.04,15.43 -35.99,-2.08 -30.49,-49.04 -30.49,-49.04 0,0 24.9,3.72 35.73,0.98 0,0 1.31,-20.06 0.14,-25.02 l 13.58,1.2 c 0,0 -1.52,17.8 5,18.64 6.52,0.84 8.7,-37.68 20.84,-46.17 0,0 0.11,2.72 1.64,5.38 v 0 0 c 2.42,4.25 6.18,11.36 9.43,19.66 5.29,11.64 11.29,26.08 13.65,36.38" /><path
         id="path278"
         style="fill:#eea886;fill-opacity:1;fill-rule:nonzero;stroke:none"
         d="m 3911.94,1892.26 c 0,0 5.04,13.59 16.99,4.77 8.68,-6.41 -0.25,-29.34 -8.71,-29.24 -8.44,0.11 -11.87,12.6 -8.28,24.47" /><path
         id="path280"
         style="fill:#c48a6f;fill-opacity:1;fill-rule:nonzero;stroke:none"
         d="m 3934.27,1854.56 c 0,0 -1.78,-7.22 -3.72,-8.91 -1.95,-1.68 -11.08,-9.09 -26.95,-14.07 l 1.42,-14.23 c 0,0 30.83,11.9 29.25,37.21" /><path
         id="path282"
         style="fill:#285173;fill-opacity:1;fill-rule:nonzero;stroke:none"
         d="m 3772.47,1757.07 -5.18,2.47 23.47,49.81 13.17,-6.21 -19.91,-42.21 c -2.2,-4.7 -6.85,-6.07 -11.55,-3.86" /><path
         id="path284"
         style="fill:#db9c7c;fill-opacity:1;fill-rule:nonzero;stroke:none"
         d="m 3778.25,1796.56 c 0,0 14.69,-8.05 13.68,-10.58 -0.99,-2.53 -2.91,-2.85 -2.91,-2.85 l 4.55,-6.06 c 0,0 0.75,-5.71 -5.69,-4.84 0,0 1.24,-5.27 -4.87,-3.7 0,0 -0.72,-3.83 -3.69,-3.61 -2.96,0.23 -12.19,5.8 -12.19,5.8 0,0 -1.43,2.05 1.36,5.27 0,0 -1.63,3.67 1.33,6.4 0,0 -0.85,3.16 2.4,6.08 0,0 -1.35,7.16 4.47,8.82 0,0 0.95,-0.39 1.56,-0.73" /><path
         id="path286"
         style="fill:#e8734d;fill-opacity:1;fill-rule:nonzero;stroke:none"
         d="m 3821.24,1798.5 -51.77,9.65 8.43,42.46 51.37,-11.71 -8.03,-40.4" /><path
         id="path288"
         style="fill:#eea886;fill-opacity:1;fill-rule:nonzero;stroke:none"
         d="m 3803.95,1785.66 c 0,0 -11.49,0.33 -17.85,-2.25 -1.43,-0.59 -2.72,-1.42 -2.72,-2.97 0,-1.54 2.25,-3.53 7.23,-3.92 4.96,-0.39 11.21,-3.18 11.21,-3.18 0,0 5.23,1.09 2.13,12.32" /><path
         id="path290"
         style="fill:#b0573a;fill-opacity:1;fill-rule:nonzero;stroke:none"
         d="m 3917.21,1376.26 c 0.88,-4.59 1.76,-9.27 2.68,-13.9 l 29.4,77.83 c -3.89,-7.86 -32.08,-63.93 -32.08,-63.93" /><path
         id="path292"
         style="fill:#2878bd;fill-opacity:1;fill-rule:nonzero;stroke:none"
         d="m 2847.8,1943.78 h -166.41 c 0,45.96 37.25,83.21 83.2,83.21 45.96,0 83.21,-37.25 83.21,-83.21" /></g></g></svg>