<?xml version="1.0" encoding="UTF-8" standalone="no"?>
<svg
   xmlns:dc="http://purl.org/dc/elements/1.1/"
   xmlns:cc="http://creativecommons.org/ns#"
   xmlns:rdf="http://www.w3.org/1999/02/22-rdf-syntax-ns#"
   xmlns:svg="http://www.w3.org/2000/svg"
   xmlns="http://www.w3.org/2000/svg"
   viewBox="0 0 4066.72 2666.6667"
   height="2666.6667"
   width="4066.72"
   xml:space="preserve"
   id="svg2"
   version="1.1"><metadata
     id="metadata8"><rdf:RDF><cc:Work
         rdf:about=""><dc:format>image/svg+xml</dc:format><dc:type
           rdf:resource="http://purl.org/dc/dcmitype/StillImage" /></cc:Work></rdf:RDF></metadata><defs
     id="defs6"><clipPath
       id="clipPath24"
       clipPathUnits="userSpaceOnUse"><path
         id="path22"
         d="m 25110,7396.5 -42.3,772.2 -1662.5,240.2 -259.4,-728.3 c -159,-17.4 -317.5,-44.4 -474.4,-81.2 l 391.8,-1856.8 c 587.8,152.1 1220.4,36.5 1717.7,-320.7 l 903.6,1676.8 c -184,115.7 -376.3,214.9 -574.5,297.8 z" /></clipPath><linearGradient
       id="linearGradient32"
       spreadMethod="pad"
       gradientTransform="matrix(-1719.54,4713.87,4713.87,1719.54,25276.7,3945.6)"
       gradientUnits="userSpaceOnUse"
       y2="0"
       x2="1"
       y1="0"
       x1="0"><stop
         id="stop28"
         offset="0"
         style="stop-opacity:1;stop-color:#ff9f55" /><stop
         id="stop30"
         offset="1"
         style="stop-opacity:1;stop-color:#ffd255" /></linearGradient><clipPath
       id="clipPath42"
       clipPathUnits="userSpaceOnUse"><path
         id="path40"
         d="m 11592.6,7096.3 v 80 c 834.2,0 1574,500.2 1884.6,1274.3 l 74.2,-29.8 C 13228.6,7616.2 12459.7,7096.3 11592.6,7096.3 Z" /></clipPath><linearGradient
       id="linearGradient48"
       spreadMethod="pad"
       gradientTransform="matrix(-312.15,401.918,401.918,312.15,12797.7,7467.9)"
       gradientUnits="userSpaceOnUse"
       y2="0"
       x2="1"
       y1="0"
       x1="0"><stop
         id="stop44"
         offset="0"
         style="stop-opacity:1;stop-color:#ff9f55" /><stop
         id="stop46"
         offset="1"
         style="stop-opacity:1;stop-color:#ffd255" /></linearGradient><clipPath
       id="clipPath58"
       clipPathUnits="userSpaceOnUse"><path
         id="path56"
         d="m 11592.6,6505.2 v 80 c 615.2,0 1194.7,201.3 1675.9,582.3 l 49.7,-62.7 C 12822.7,6712.5 12226,6505.2 11592.6,6505.2 Z" /></clipPath><linearGradient
       id="linearGradient64"
       spreadMethod="pad"
       gradientTransform="matrix(-397.562,511.894,511.894,397.562,12634.8,6573.9)"
       gradientUnits="userSpaceOnUse"
       y2="0"
       x2="1"
       y1="0"
       x1="0"><stop
         id="stop60"
         offset="0"
         style="stop-opacity:1;stop-color:#ff9f55" /><stop
         id="stop62"
         offset="1"
         style="stop-opacity:1;stop-color:#ffd255" /></linearGradient><clipPath
       id="clipPath74"
       clipPathUnits="userSpaceOnUse"><path
         id="path72"
         d="m 13561.2,6367.7 -44.7,66.2 c 540.6,365.3 964.9,873 1226.9,1468.3 l 73.3,-32.3 c -268.2,-609.1 -702.3,-1128.5 -1255.5,-1502.2 z" /></clipPath><linearGradient
       id="linearGradient80"
       spreadMethod="pad"
       gradientTransform="matrix(-303.374,390.619,390.619,303.374,14321.4,6948.2)"
       gradientUnits="userSpaceOnUse"
       y2="0"
       x2="1"
       y1="0"
       x1="0"><stop
         id="stop76"
         offset="0"
         style="stop-opacity:1;stop-color:#ff9f55" /><stop
         id="stop78"
         offset="1"
         style="stop-opacity:1;stop-color:#ffd255" /></linearGradient><clipPath
       id="clipPath94"
       clipPathUnits="userSpaceOnUse"><path
         id="path92"
         d="m 8298.45,5999.3 1315.31,-936.1 557.54,523.3 23.4,-9 c 146.8,-56.1 298,-103.5 450,-141.2 l 338.9,1790.2 c -216.7,65.5 -421.1,166.1 -608.1,299.2 -943.05,671.3 -1164.34,1984.6 -493.28,2927.7 671.18,943.2 1984.48,1164.4 2927.68,493.3 651.5,-463.6 984.2,-1266.4 854.5,-2053.9 l 1766.5,-435.2 c 29.3,145.1 50.5,292.8 63.1,439.7 l 2.1,25 714.9,273.5 -268.2,1591.7 -765,24.3 -10.2,22.9 c -148.6,333.2 -342.5,643.1 -576.2,921.1 l -16.2,19.2 311.8,698.3 -1315.3,935.8 -557.6,-523.2 -23.4,9 c -339,129.8 -695.4,211.4 -1059.1,242.5 l -25,2.2 -273.5,715 -1591.7,-268.4 -24.3,-764.9 -22.89,-10.3 c -333.82,-148.8 -643.73,-342.7 -921.09,-576.2 l -19.18,-16.1 -698.36,311.7 -935.83,-1315.3 523.26,-557.6 -8.96,-23.4 c -129.82,-339 -211.43,-695.2 -242.57,-1058.8 l -2.14,-25 -715.08,-273.8 268.17,-1591.7 765.2,-24.2 10.22,-22.9 c 148.74,-333.5 342.6,-643.3 576.22,-920.9 l 16.13,-19.2 z m 1322.31,-1039.2 -1422.05,1012 318.04,712.4 c -225.93,272 -414.74,573.7 -561.67,897.7 l -780.66,24.7 -289.94,1720.9 729.51,279.3 c 32.56,354.1 112.04,701 236.44,1032.2 l -533.82,568.8 1011.76,1422.1 712.48,-318.1 c 271.76,225.8 573.64,414.7 897.89,561.7 l 24.75,780.4 1720.91,290.2 279,-729.5 c 354.2,-32.5 701.3,-112 1032.4,-236.5 l 568.9,533.9 1422,-1011.8 -318,-712.5 c 226,-272.3 414.8,-574.1 561.7,-897.8 l 780.4,-24.8 289.9,-1720.9 -729.2,-279 c -14.4,-155.7 -38.1,-311.9 -70.7,-465 l -8.6,-40.4 -1919.8,473 6.8,37 c 141.1,768.9 -179.1,1558.4 -815.7,2011.4 -907.2,645.6 -2170.5,432.7 -2816.1,-474.5 -645.49,-907.1 -432.63,-2170.4 474.5,-2816.2 189.6,-134.9 397.8,-235 618.6,-297.6 l 35.3,-10 -368.1,-1944.2 -40.8,9.6 c -161,38.1 -321.4,86.9 -477.3,145.3 z" /></clipPath><linearGradient
       id="linearGradient102"
       spreadMethod="pad"
       gradientTransform="matrix(-4763.93,6133.95,6133.95,4763.93,13484.3,6800.7)"
       gradientUnits="userSpaceOnUse"
       y2="0"
       x2="1"
       y1="0"
       x1="0"><stop
         id="stop98"
         offset="0"
         style="stop-opacity:1;stop-color:#ff9f55" /><stop
         id="stop100"
         offset="1"
         style="stop-opacity:1;stop-color:#ffd255" /></linearGradient><clipPath
       id="clipPath112"
       clipPathUnits="userSpaceOnUse"><path
         id="path110"
         d="m 9914.88,10430.2 c 159.92,224.9 356.92,408 576.72,546.7 l -940.55,1648.3 c -175.79,-105.7 -344.34,-225.7 -503.7,-359.8 l -705.29,314.9 -486.89,-684.3 -486.88,-684.3 528.53,-563.3 c -133.18,-347.8 -214.2,-708 -245.15,-1069.7 l -722.31,-276.5 139.69,-828.2 139.49,-828.1 772.74,-24.5 c 148.1,-331.7 342.44,-645.5 582.24,-930.4 l -314.9,-705.3 684.28,-487.2 684.46,-486.9 563.14,528.5 c 162.8,-62.1 328.3,-113.1 495.7,-152.5 l 353.5,1867.1 c -220.3,62.3 -433.8,163.2 -631,303.5 -926.57,659.6 -1143.26,1945.4 -483.82,2872 z m 6201.62,-431.9 -139.6,828.2 -772.8,24.5 c -147.9,331.7 -342.6,645.6 -582,930.6 l 314.9,705.2 -1368.8,974 -563.1,-528.5 c -142.2,54.4 -286.4,100.1 -432,137.2 l -348,-1873.1 c 195.7,-63 385.2,-156.8 561.6,-282.4 673.4,-479 971.9,-1288.7 832,-2051.1 l 1843,-454 c 34.2,160.7 58.3,322.7 72.2,485 l 722,276.3 z" /></clipPath><linearGradient
       id="linearGradient118"
       spreadMethod="pad"
       gradientTransform="matrix(-7194.52,9263.53,9263.53,7194.52,15681.4,3971.9)"
       gradientUnits="userSpaceOnUse"
       y2="0"
       x2="1"
       y1="0"
       x1="0"><stop
         id="stop114"
         offset="0"
         style="stop-opacity:1;stop-color:#ff9f55" /><stop
         id="stop116"
         offset="1"
         style="stop-opacity:1;stop-color:#ffd255" /></linearGradient><clipPath
       id="clipPath198"
       clipPathUnits="userSpaceOnUse"><path
         id="path196"
         d="m 20750.3,12592.6 c 164.1,123.2 317,258 457.9,402.9 l -1318,1366 c -197.5,-214.8 -444.1,-390.9 -731.7,-509.3 -828,-340.8 -1749.8,-102.7 -2316.1,527.1 l -1293.6,-1392 c 136.5,-139.5 282.5,-267.7 436.6,-384 l -150.5,-758.4 775.1,-323.1 775.3,-322.9 432.3,640.9 c 359.6,-51.5 728.8,-53.8 1097.6,-2.9 l 429.3,-642.2 776.6,319.9 776.6,319.8 z" /></clipPath><linearGradient
       id="linearGradient206"
       spreadMethod="pad"
       gradientTransform="matrix(-515.203,5203.57,5203.57,515.203,18723.9,9503)"
       gradientUnits="userSpaceOnUse"
       y2="0"
       x2="1"
       y1="0"
       x1="0"><stop
         id="stop202"
         offset="0"
         style="stop-opacity:1;stop-color:#ff9f55" /><stop
         id="stop204"
         offset="1"
         style="stop-opacity:1;stop-color:#ffd255" /></linearGradient></defs><g
     transform="matrix(1.3333333,0,0,-1.3333333,0,2666.6667)"
     id="g10"><g
       transform="scale(0.1)"
       id="g12"><g
         transform="scale(1.87117)"
         id="g14"><path
           id="path16"
           style="fill:#fafafa;fill-opacity:1;fill-rule:nonzero;stroke:none"
           d="M 16300.2,10688.5 V 0 H 0 v 10688.5 h 16300.2" /></g><g
         id="g18"><g
           clip-path="url(#clipPath24)"
           id="g20"><g
             transform="scale(1.57574)"
             id="g26"><path
               id="path34"
               style="fill:url(#linearGradient32);fill-opacity:1;fill-rule:nonzero;stroke:none"
               d="m 15935.4,4694 -26.8,490.05 -1055.1,152.44 -164.6,-462.2 c -100.9,-11.04 -201.5,-28.17 -301.1,-51.53 l 248.7,-1178.37 c 373,96.53 774.5,23.17 1090.1,-203.52 L 16300,4505 c -116.8,73.43 -238.8,136.39 -364.6,189" /></g></g></g><g
         id="g36"><g
           clip-path="url(#clipPath42)"
           id="g38"><path
             id="path50"
             style="fill:url(#linearGradient48);fill-opacity:1;fill-rule:nonzero;stroke:none"
             d="m 11592.6,7096.3 v 80 c 834.2,0 1574,500.2 1884.6,1274.3 l 74.2,-29.8 C 13228.6,7616.2 12459.7,7096.3 11592.6,7096.3" /></g></g><g
         id="g52"><g
           clip-path="url(#clipPath58)"
           id="g54"><path
             id="path66"
             style="fill:url(#linearGradient64);fill-opacity:1;fill-rule:nonzero;stroke:none"
             d="m 11592.6,6505.2 v 80 c 615.2,0 1194.7,201.3 1675.9,582.3 l 49.7,-62.7 C 12822.7,6712.5 12226,6505.2 11592.6,6505.2" /></g></g><g
         id="g68"><g
           clip-path="url(#clipPath74)"
           id="g70"><path
             id="path82"
             style="fill:url(#linearGradient80);fill-opacity:1;fill-rule:nonzero;stroke:none"
             d="m 13561.2,6367.7 -44.7,66.2 c 540.6,365.3 964.9,873 1226.9,1468.3 l 73.3,-32.3 c -268.2,-609.1 -702.3,-1128.5 -1255.5,-1502.2" /></g></g><g
         transform="scale(1.21562)"
         id="g84"><path
           id="path86"
           style="fill:#98a6b1;fill-opacity:1;fill-rule:nonzero;stroke:none"
           d="m 16251.3,11610 -1157,1275.1 48.7,44.2 1157,-1275 -48.7,-44.3" /></g><g
         id="g88"><g
           clip-path="url(#clipPath94)"
           id="g90"><g
             transform="scale(1.00004)"
             id="g96"><path
               id="path104"
               style="fill:url(#linearGradient102);fill-opacity:1;fill-rule:nonzero;stroke:none"
               d="m 8298.09,5999.04 1315.26,-936.06 557.55,523.28 23.4,-9 c 146.8,-56.09 297.9,-103.49 449.9,-141.19 l 338.9,1790.12 c -216.7,65.5 -421.1,166.09 -608,299.19 -943.06,671.27 -1164.34,1984.51 -493.31,2927.52 671.11,943.2 1984.41,1164.4 2927.61,493.3 651.4,-463.6 984.1,-1266.31 854.4,-2053.78 l 1766.4,-435.18 c 29.3,145.09 50.5,292.79 63.1,439.68 l 2.1,25 714.9,273.49 -268.2,1591.59 -765,24.3 -10.1,22.9 c -148.6,333.2 -342.5,643.1 -576.2,921.1 l -16.2,19.2 311.8,698.3 -1315.3,935.8 -557.6,-523.3 -23.4,9 c -338.9,129.8 -695.3,211.4 -1059,242.5 l -25,2.2 -273.5,715 -1591.6,-268.3 -24.3,-765 -22.92,-10.2 c -333.8,-148.9 -643.7,-342.7 -921.05,-576.2 l -19.18,-16.1 -698.33,311.7 -935.79,-1315.3 523.24,-557.5 -8.96,-23.4 c -129.81,-339 -211.42,-695.22 -242.56,-1058.81 l -2.14,-25 -715.05,-273.79 268.16,-1591.63 765.17,-24.2 10.22,-22.9 c 148.73,-333.48 342.58,-643.27 576.19,-920.86 l 16.13,-19.2 z m 1322.26,-1039.15 -1421.99,1011.96 318.02,712.36 c -225.92,271.99 -414.72,573.68 -561.64,897.66 l -780.63,24.7 -289.92,1720.83 729.47,279.29 c 32.56,354.08 112.04,701.01 236.43,1032.11 l -533.79,568.9 1011.71,1421.9 712.45,-318 c 271.75,225.8 573.62,414.6 897.86,561.7 l 24.74,780.3 1720.84,290.2 279,-729.5 c 354.2,-32.5 701.3,-112 1032.3,-236.4 l 568.9,533.8 1422,-1011.7 -318,-712.5 c 226,-272.3 414.8,-574.1 561.6,-897.8 l 780.4,-24.8 289.9,-1720.79 -729.2,-278.99 c -14.4,-155.69 -38.1,-311.89 -70.7,-464.98 l -8.6,-40.4 -1919.7,472.98 6.8,37 c 141.1,768.87 -179.1,1558.38 -815.6,2011.28 -907.2,645.6 -2170.5,432.7 -2816.02,-474.5 -645.47,-907.01 -432.62,-2170.25 474.52,-2816.02 189.5,-134.9 397.7,-234.99 618.5,-297.59 l 35.3,-10 -368.1,-1944.12 -40.8,9.6 c -161,38.1 -321.3,86.9 -477.2,145.3 l -568.85,-533.78" /></g></g></g><g
         id="g106"><g
           clip-path="url(#clipPath112)"
           id="g108"><path
             id="path120"
             style="fill:url(#linearGradient118);fill-opacity:1;fill-rule:nonzero;stroke:none"
             d="m 9914.88,10430.2 c 159.92,224.9 356.92,408 576.72,546.7 l -940.55,1648.3 c -175.79,-105.7 -344.34,-225.7 -503.7,-359.8 l -705.29,314.9 -486.89,-684.3 -486.88,-684.3 528.53,-563.3 c -133.18,-347.8 -214.2,-708 -245.15,-1069.7 l -722.31,-276.5 139.69,-828.2 139.49,-828.1 772.74,-24.5 c 148.1,-331.7 342.44,-645.5 582.24,-930.4 l -314.9,-705.3 684.28,-487.2 684.46,-486.9 563.14,528.5 c 162.8,-62.1 328.3,-113.1 495.7,-152.5 l 353.5,1867.1 c -220.3,62.3 -433.8,163.2 -631,303.5 -926.57,659.6 -1143.26,1945.4 -483.82,2872 z m 6201.62,-431.9 -139.6,828.2 -772.8,24.5 c -147.9,331.7 -342.6,645.6 -582,930.6 l 314.9,705.2 -1368.8,974 -563.1,-528.5 c -142.2,54.4 -286.4,100.1 -432,137.2 l -348,-1873.1 c 195.7,-63 385.2,-156.8 561.6,-282.4 673.4,-479 971.9,-1288.7 832,-2051.1 l 1843,-454 c 34.2,160.7 58.3,322.7 72.2,485 l 722,276.3 -139.4,828.1" /></g></g><path
         id="path122"
         style="fill:#706865;fill-opacity:1;fill-rule:nonzero;stroke:none"
         d="m 11293.3,2046.3 h -85.2 v 3873.2 h 85.2 V 2046.3" /><path
         id="path124"
         style="fill:#706865;fill-opacity:1;fill-rule:nonzero;stroke:none"
         d="m 9379.03,2046.3 h -85.2 v 3873.2 h 85.2 V 2046.3" /><path
         id="path126"
         style="fill:#bdafaa;fill-opacity:1;fill-rule:nonzero;stroke:none"
         d="M 11413,2685.5 H 9120.73 c -141.26,0 -255.77,114.6 -255.77,255.8 v 4340.6 c 0,141.3 114.51,255.8 255.77,255.8 H 11413 c 141.3,0 255.8,-114.5 255.8,-255.8 V 2941.3 c 0,-141.2 -114.5,-255.8 -255.8,-255.8" /><path
         id="path128"
         style="fill:#ffffff;fill-opacity:1;fill-rule:nonzero;stroke:none"
         d="M 11339.2,2875.1 H 9194.6 c -139.57,0 -252.7,113.2 -252.7,252.7 v 4079 c 0,139.6 113.13,252.7 252.7,252.7 h 2144.6 c 139.5,0 252.7,-113.1 252.7,-252.7 v -4079 c 0,-139.5 -113.2,-252.7 -252.7,-252.7" /><path
         id="path130"
         style="fill:#706865;fill-opacity:1;fill-rule:nonzero;stroke:none"
         d="m 10684.6,7385.8 h -835.47 v 188.7 h 835.47 v -188.7" /><g
         transform="scale(1.03785)"
         id="g132"><path
           id="path134"
           style="fill:#ffb955;fill-opacity:1;fill-rule:nonzero;stroke:none"
           d="m 7270.63,13812.7 c -363.49,258.7 -448.46,763 -189.8,1126.5 258.67,363.5 763.01,448.5 1126.48,189.8 363.49,-258.7 448.46,-763 189.8,-1126.5 C 8138.45,13639 7634.1,13554 7270.63,13812.7 Z m 1918.08,104.2 c 52.22,136.4 83.98,277.7 96.17,419.6 l 283.24,108.4 -54.74,324.9 -54.73,324.9 -303.11,9.6 c -58.04,130.1 -134.33,253.2 -228.37,364.9 l 123.54,276.7 -268.43,191 -268.41,191.1 -220.95,-207.4 c -136.38,52.2 -277.66,84 -419.64,96.2 l -108.39,283.2 -324.87,-54.7 -324.86,-54.8 -9.62,-303.1 c -130.13,-58 -253.21,-134.3 -364.95,-228.3 l -276.7,123.5 -191.01,-268.4 -191.01,-268.5 207.36,-220.9 c -52.22,-136.4 -83.99,-277.7 -96.18,-419.6 l -283.23,-108.4 54.73,-324.9 54.73,-324.9 303.11,-9.6 c 58.05,-130.1 134.35,-253.2 228.37,-364.9 l -123.53,-276.7 268.43,-191 268.41,-191.1 220.95,207.4 c 136.37,-52.2 277.66,-84 419.63,-96.2 l 108.4,-283.2 324.86,54.7 324.88,54.8 9.6,303.1 c 130.15,58 253.22,134.3 364.96,228.4 l 276.7,-123.6 191,268.4 191.01,268.5 -207.35,220.9" /></g><path
         id="path136"
         style="fill:#cfcfcf;fill-opacity:1;fill-rule:nonzero;stroke:none"
         d="m 9989.09,5592.1 23.41,-8.9 c 61.7,-23.6 126.5,-38.5 192.7,-44.2 l 24.9,-2.1 49.9,-130.2 250.5,42.2 4.4,139.3 22.9,10.2 c 60.7,27.1 117.1,62.4 167.6,104.9 l 19.2,16.1 127.2,-56.8 147.3,207.1 -95.3,101.5 8.9,23.4 c 23.6,61.7 38.5,126.5 44.2,192.7 l 2.1,25 130.2,49.8 -42.2,250.6 -139.3,4.4 -10.2,22.9 c -27.1,60.6 -62.4,117 -104.9,167.5 l -16.1,19.2 56.8,127.2 -207.1,147.3 -101.5,-95.3 -23.4,9 c -61.7,23.6 -126.5,38.4 -192.7,44.1 l -25,2.2 -49.8,130.2 -250.6,-42.3 -4.38,-139.3 -22.9,-10.2 c -60.67,-27.1 -117.05,-62.3 -167.56,-104.8 l -19.17,-16.2 -127.18,56.8 -147.33,-207 95.32,-101.6 -8.97,-23.4 c -23.61,-61.7 -38.47,-126.5 -44.15,-192.7 l -2.15,-24.9 -130.2,-49.9 42.21,-250.5 139.35,-4.4 10.21,-22.9 c 27.06,-60.7 62.34,-117.1 104.84,-167.6 l 16.13,-19.2 -56.78,-127.2 207.03,-147.3 z m 239.51,-275.2 -55.4,145 c -56.5,6.6 -112,19.4 -165.6,37.9 l -113.1,-106.1 -313.75,223.2 63.23,141.7 c -35.07,44.5 -65.26,92.8 -90.09,144 l -155.15,4.9 -63.98,379.8 144.97,55.4 c 6.68,56.5 19.4,112 37.94,165.6 l -106.15,113.1 223.28,313.8 141.65,-63.3 c 44.5,35.1 92.76,65.3 143.98,90.1 l 4.92,155.2 379.75,63.9 55.5,-144.9 c 56.5,-6.7 112,-19.4 165.5,-38 l 113.1,106.2 313.8,-223.3 -63.2,-141.7 c 35,-44.5 65.2,-92.7 90.1,-143.9 l 155.1,-5 64,-379.7 -145,-55.5 c -6.7,-56.5 -19.4,-112 -37.9,-165.5 l 106.1,-113.2 -223.2,-313.7 -141.7,63.2 c -44.5,-35 -92.8,-65.2 -144,-90.1 l -4.9,-155.1 -379.8,-64" /><path
         id="path138"
         style="fill:#cfcfcf;fill-opacity:1;fill-rule:nonzero;stroke:none"
         d="m 10470.4,6536 c -59.8,42.4 -130.1,64.9 -203.2,64.9 v 0 c -50.4,0 -101.2,-11.1 -147,-32 l -33.2,72.7 c 56.1,25.7 118.4,39.3 180.2,39.3 v 0 c 89.8,0 176.1,-27.6 249.5,-79.7 z m -452.6,-639.7 -1.8,1.2 c -113.12,80.6 -180.97,212.2 -180.97,351.9 0,13.4 0.63,26.9 1.89,40.3 l 79.65,-7.5 c -1.03,-10.9 -1.54,-21.9 -1.54,-32.8 0,-113.9 55.28,-221.1 147.87,-287 z m 429.6,-39.6 -33.4,72.7 c 55.6,25.5 103.8,65.5 139.5,115.6 36,50.6 58.1,109.9 63.7,171.3 l 79.7,-7.3 c -7,-75.5 -34,-148.3 -78.2,-210.4 -43.8,-61.5 -103.1,-110.6 -171.3,-141.9" /><path
         id="path140"
         style="fill:#cfcfcf;fill-opacity:1;fill-rule:nonzero;stroke:none"
         d="m 10854,5118.7 c -51.7,0 -102.7,-24.2 -134.9,-69.4 -52.8,-74.3 -35.4,-177.7 38.9,-230.5 v 0 c 35.9,-25.6 79.7,-35.7 123.2,-28.3 43.6,7.3 81.6,31.2 107.2,67.1 52.9,74.3 35.5,177.7 -38.8,230.5 -29,20.7 -62.5,30.6 -95.6,30.6 z m -0.7,-410.6 c -50.6,0 -99.7,15.6 -141.7,45.5 v 0 c -110.2,78.4 -136.1,231.9 -57.7,342.1 78.4,110.2 231.9,136 342.1,57.6 110.2,-78.4 136,-231.9 57.6,-342.1 -38,-53.3 -94.5,-88.7 -159.1,-99.6 -13.8,-2.3 -27.6,-3.5 -41.2,-3.5 z m -149.4,-76.7 23.4,-9 c 30.7,-11.8 62.9,-19.1 95.8,-22 l 24.9,-2.1 24.8,-64.8 100.6,16.9 2.2,69.4 22.9,10.2 c 30.1,13.4 58.1,31 83.2,52.1 l 19.2,16.1 63.3,-28.2 59.1,83 -47.4,50.6 8.9,23.4 c 11.8,30.6 19.2,62.8 22,95.8 l 2.1,24.9 64.8,24.8 -16.9,100.5 -69.3,2.2 -10.3,22.9 c -13.4,30.2 -30.9,58.2 -52.1,83.3 l -16.1,19.2 28.3,63.3 -83.1,59.1 -50.5,-47.4 -23.5,8.9 c -30.6,11.8 -62.8,19.1 -95.7,22 l -25,2.1 -24.8,64.8 -100.5,-16.9 -2.2,-69.4 -22.9,-10.2 c -30.1,-13.4 -58.2,-31 -83.3,-52.1 l -19.2,-16.1 -63.3,28.2 -59.1,-83 47.5,-50.6 -9,-23.4 c -11.7,-30.6 -19.1,-62.8 -21.9,-95.7 l -2.2,-25 -64.8,-24.8 17,-100.5 69.3,-2.2 10.2,-22.9 c 13.5,-30.2 31,-58.2 52.1,-83.3 l 16.2,-19.2 -28.3,-63.3 83.1,-59.1 z m 117.6,-187.7 -30.5,80 c -23.2,3.3 -46,8.6 -68.3,15.6 l -62.3,-58.6 -189.9,135.1 34.9,78.1 c -13.9,18.7 -26.3,38.6 -37.1,59.4 l -85.6,2.7 -38.6,229.7 79.9,30.6 c 3.3,23.2 8.6,46 15.6,68.2 l -58.5,62.4 135,189.8 78.2,-34.9 c 18.7,14 38.5,26.4 59.3,37.1 l 2.7,85.6 229.7,38.7 30.6,-80 c 23.2,-3.3 46,-8.5 68.2,-15.6 l 62.4,58.5 189.8,-135 -34.9,-78.1 c 14,-18.7 26.4,-38.6 37.2,-59.4 l 85.5,-2.7 38.7,-229.7 -79.9,-30.6 c -3.4,-23.2 -8.6,-46 -15.7,-68.2 l 58.6,-62.4 -135.1,-189.8 -78.1,34.9 c -18.7,-14 -38.6,-26.4 -59.3,-37.1 l -2.7,-85.6 -229.8,-38.7" /><path
         id="path142"
         style="fill:#eea886;fill-opacity:1;fill-rule:nonzero;stroke:none"
         d="m 8775.42,4192.7 c 0,0 19.2,-31.5 21.62,-57.2 1.9,-20.3 19.01,-50.7 26.42,-67.5 7.41,-16.8 31.25,-92.9 32.1,-112.6 0.35,-8.1 -17.69,-59.1 -15.14,-75.4 2.55,-16.3 11.89,-48.6 -2.75,-50.8 -14.65,-2.1 -31.25,24.4 -31.25,24.4 0,0 1.39,-15 -11,-20.8 -24.1,-11.1 -36.85,-1.3 -36.85,-1.3 0,0 -8.89,-16.5 -20.04,-18.7 -24.6,-4.9 -36.65,4.9 -36.65,4.9 0,0 -10.83,-9.2 -27.83,-8.9 -21.74,0.4 -30.87,19.2 -30.87,19.2 0,0 -27.54,-5.6 -35.52,7.3 -7.99,12.8 -6.61,26.5 -9.91,38.1 -3.31,11.7 -0.81,116.8 34.9,192.5 35.71,75.7 -9.09,149.5 -9.09,149.5 l 151.86,-22.7" /><path
         id="path144"
         style="fill:#db9c7c;fill-opacity:1;fill-rule:nonzero;stroke:none"
         d="m 8810.3,3863.4 c 0,0 2.44,94.3 -22.38,114.4 -24.82,20.1 -27.64,-13.9 -27.64,-13.9 0,0 3.37,33.6 -23.76,38.1 -27.13,4.6 -28.26,-35.4 -28.26,-35.4 0,0 -4.45,26 -32.94,20.6 -28.5,-5.3 -21.71,-38.4 -21.71,-38.4 0,0 -27.22,32.5 -44.87,1.3 -29.81,-52.7 -1.08,-114.8 -1.08,-114.8 0,0 8.4,-14.3 35.52,-7.3 0,0 18.13,-36.6 58.7,-10.3 0,0 41.55,-22.9 56.69,13.8 0,0 45.79,-21.8 51.73,31.9" /><path
         id="path146"
         style="fill:#323657;fill-opacity:1;fill-rule:nonzero;stroke:none"
         d="m 9095.36,5551.4 c 0,0 -161.46,-538.2 -216.01,-736.6 -17.12,-62.3 -58.52,-656.8 -65.83,-680.8 -7.3,-23.9 -212.11,-56.7 -212.11,-56.7 0,0 24.82,743.7 27.14,784.3 2.31,40.6 225.96,871.1 291.01,900.7 48.73,22.2 74.45,3.9 135.86,-41.7 86.17,-64 39.94,-169.2 39.94,-169.2" /><path
         id="path148"
         style="fill:#4da8f2;fill-opacity:1;fill-rule:nonzero;stroke:none"
         d="m 10687.9,6277.7 -18,27.5 369.6,241.9 18,-27.5 -369.6,-241.9" /><path
         id="path150"
         style="fill:#efaa88;fill-opacity:1;fill-rule:nonzero;stroke:none"
         d="m 11096.9,6408 c 0,0 -3.5,-20.9 -9.5,-29.3 0,0 -12.1,-14.4 -20.1,-25.2 -2.5,-3.4 -4.6,-6.5 -5.8,-8.6 -4.9,-8.8 -12.9,-29.5 -30.5,-47.4 -17.6,-17.9 -86.2,-74.6 -86.2,-74.6 l -58.7,49.8 -61,27.4 c 0,0 34.1,148.4 48.6,166.9 1.4,1.8 2.9,3.5 4.4,5.1 13.8,14.5 30.1,19.5 38.2,26.3 3,2.4 34.4,25 45.6,22.1 15.5,-4 24.6,-13.1 28.2,-23.5 0,0 30,-9.2 41.7,-26.9 0,0 28,-7.6 36.3,-33.7 0,0 27.6,-10.9 28.8,-28.4" /><path
         id="path152"
         style="fill:#424773;fill-opacity:1;fill-rule:nonzero;stroke:none"
         d="m 8964.35,1877.1 c 0,0 -14.72,-102.1 -16.55,-117.5 -1.85,-15.3 -163.73,9.1 -163.73,9.1 l -13.11,121.6 c 0,0 173.16,1.2 193.39,-13.2" /><path
         id="path154"
         style="fill:#292c47;fill-opacity:1;fill-rule:nonzero;stroke:none"
         d="m 8949.52,1772.6 c 0,0 51.29,-61.5 100.9,-88.4 49.6,-26.8 127.56,-37.4 156.89,-65.2 21.18,-20 77.13,-106.4 -128.91,-104.6 -206.03,1.7 -305.37,-12.2 -327.45,20.9 -22.07,33.1 31.95,244.2 31.95,244.2 0,0 48.79,-17.5 166.62,-6.9" /><path
         id="path156"
         style="fill:#424773;fill-opacity:1;fill-rule:nonzero;stroke:none"
         d="m 10124.3,1877.1 c 0,0 -14.7,-102.1 -16.6,-117.5 -1.8,-15.3 -163.7,9.1 -163.7,9.1 l -13.11,121.6 c 0,0 173.11,1.2 193.41,-13.2" /><path
         id="path158"
         style="fill:#292c47;fill-opacity:1;fill-rule:nonzero;stroke:none"
         d="m 10109.4,1772.6 c 0,0 51.3,-61.5 100.9,-88.4 49.7,-26.8 232.2,-48.8 261.5,-76.6 21.2,-20.1 56.4,-100.8 -233.5,-93.2 -205.9,5.4 -305.34,-12.2 -327.42,20.9 -22.07,33.1 31.95,244.2 31.95,244.2 0,0 45.96,-18.7 166.57,-6.9" /><path
         id="path160"
         style="fill:#292c47;fill-opacity:1;fill-rule:nonzero;stroke:none"
         d="m 9098.4,4502.1 c 0,0 -152.11,-241.6 -140.76,-460.1 11.35,-218.5 -55.15,-457 -78.01,-685.2 -25.46,-254.4 -129.71,-856.7 -133.5,-992.8 -3.78,-136 16.18,-570.6 16.18,-570.6 l 208.68,-4.8 c 0,0 175.27,1053 220.67,1160.4 45.39,107.5 270.49,873.4 278.06,959.3 7.56,86 -371.32,593.8 -371.32,593.8" /><path
         id="path162"
         style="fill:#292c47;fill-opacity:1;fill-rule:nonzero;stroke:none"
         d="m 9899.15,4469.4 c 0,0 114.65,-598.8 129.75,-732.5 15.1,-133.7 25.2,-647 32.8,-730.6 7.6,-83.6 70.7,-1091 90.8,-1217.7 h -266.81 c 0,0 -204.8,734.2 -204.8,1081.6 0,347.4 -158.22,755.2 -260.35,984.4 -102.13,229.2 -335.91,234.7 -398.69,659.9 0,0 792.3,89.8 877.3,-45.1" /><path
         id="path164"
         style="fill:#eea886;fill-opacity:1;fill-rule:nonzero;stroke:none"
         d="m 9352.23,6534 c 0,0 204.17,76.2 298.31,-79.2 94.14,-155.4 85.07,-466.5 -17.84,-504.8 -102.92,-38.3 -257.51,-18.2 -310.2,79 -52.69,97.3 -100.26,237.8 -97.97,331.8 2.28,94 74.1,146.1 127.7,173.2" /><path
         id="path166"
         style="fill:#eea886;fill-opacity:1;fill-rule:nonzero;stroke:none"
         d="m 9610.53,5942.9 c 0,0 -8.49,-55.1 5.55,-82.3 14.04,-27.1 -264.51,-27.9 -264.51,-27.9 0,0 -22.62,147.8 -65.49,272.5 -42.86,124.8 324.45,-162.3 324.45,-162.3" /><path
         id="path168"
         style="fill:#d88a51;fill-opacity:1;fill-rule:nonzero;stroke:none"
         d="m 9286.08,6105.2 c 0,0 19.23,-31.7 97.7,-19.4 78.49,12.3 174.22,116.8 206.99,128.2 32.77,11.5 33.08,30.7 33.08,30.7 l 20.51,-29.9 34.81,-2.2 c 0,0 -31.74,93.4 16.14,131.4 47.89,38.1 -49.7,302.4 -301.38,214.4 0,0 -193.31,-53.3 -186.28,-163.2 7.03,-110 35.18,-235.2 78.43,-290" /><path
         id="path170"
         style="fill:#e2d2ca;fill-opacity:1;fill-rule:nonzero;stroke:none"
         d="m 9632.61,5863.9 c 0,0 -0.88,51.9 -24.39,56.8 -23.52,5 -259.58,27.7 -288.45,16.4 v -60.5 c 0,0 55.62,-34.2 312.84,-12.7" /><path
         id="path172"
         style="fill:#eea886;fill-opacity:1;fill-rule:nonzero;stroke:none"
         d="m 9618.65,6284.7 c -4.4,18.4 -51.29,71.1 -69.25,14.7 -17.95,-56.4 27.13,-132.3 52.27,-125.8 25.15,6.5 28.14,64.4 16.98,111.1" /><path
         id="path174"
         style="fill:#323657;fill-opacity:1;fill-rule:nonzero;stroke:none"
         d="m 10023.1,5785.3 c -161.88,21.4 -390.49,78.6 -390.49,78.6 l -312.85,12.7 c 0,0 -287.13,-63.2 -400.2,-114.3 -10.73,-4.8 -10.78,-256.1 -40.21,-322 l 93.75,-197.8 c 0,0 54.15,-391.8 65.39,-566 5.17,-80 -111.69,-750.1 -111.69,-750.1 0,0 125.21,-36.9 338.73,-60.4 213.52,-23.5 746.97,8.5 750.37,33.7 3.4,25.2 -103.32,939.1 -108.04,986.4 -7.25,72.6 25.04,458.6 25.04,458.6 49.29,38.2 482.1,239.2 600.2,343.9 31.6,28 165,157.9 202.9,202.7 134.3,158.8 244.4,295 257.8,324.3 15.2,16.7 -150.5,105.8 -165.1,110.6 -12.8,4.3 -189.7,-232.3 -259.6,-308 -31.1,-33.7 -160.6,-127.9 -160.6,-127.9 0,0 -284.2,-110.8 -385.4,-105" /><path
         id="path176"
         style="fill:#d88a51;fill-opacity:1;fill-rule:nonzero;stroke:none"
         d="m 9294.09,6515.6 c 0,0 -260.34,-20.3 -8.01,-410.4 l 8.01,410.4" /><path
         id="path178"
         style="fill:#dfe1e8;fill-opacity:1;fill-rule:nonzero;stroke:none"
         d="m 11057.5,6519.6 21.3,32.6 -39.3,-5.1 z" /><g
         transform="scale(1.1401)"
         id="g180"><path
           id="path182"
           style="fill:#385369;fill-opacity:1;fill-rule:nonzero;stroke:none"
           d="m 16120.1,13719.8 c 99.2,0 179.9,80.8 179.9,180 h -42.4 c 0,-75.9 -61.6,-137.6 -137.5,-137.6 -75.9,0 -137.5,61.7 -137.5,137.6 0,75.8 61.6,137.5 137.5,137.5 h 21.2 v 2178 h -42.3 v -2136.8 c -89.3,-10.6 -158.8,-86.7 -158.8,-178.7 0,-99.2 80.7,-180 179.9,-180" /></g><g
         transform="scale(1.13119)"
         id="g184"><path
           id="path186"
           style="fill:#98a6b1;fill-opacity:1;fill-rule:nonzero;stroke:none"
           d="m 16197.9,14198.6 h 102.1 v 1036.6 h -102.1 v -1036.6" /></g><g
         transform="scale(1.13094)"
         id="g188"><path
           id="path190"
           style="fill:#98a6b1;fill-opacity:1;fill-rule:nonzero;stroke:none"
           d="m 15035,12479.3 -52.4,47.5 1270.9,1399.1 46.5,-54.1 -1265,-1392.5" /></g><g
         id="g192"><g
           clip-path="url(#clipPath198)"
           id="g194"><g
             transform="scale(1.30112)"
             id="g200"><path
               id="path208"
               style="fill:url(#linearGradient206);fill-opacity:1;fill-rule:nonzero;stroke:none"
               d="m 15948.1,9678.29 c 126.1,94.67 243.6,198.33 351.9,309.69 l -1013,1049.82 c -151.8,-165 -341.3,-300.4 -562.3,-391.4 -636.4,-262 -1344.9,-79 -1780.1,405.1 l -994.2,-1069.87 c 104.9,-107.17 217.1,-205.73 335.5,-295.14 l -115.7,-582.86 595.8,-248.32 595.8,-248.16 332.3,492.57 c 276.4,-39.55 560.1,-41.35 843.6,-2.24 l 329.9,-493.58 596.9,245.84 596.9,245.85 -113.3,582.7" /></g></g></g><g
         transform="scale(1.03731)"
         id="g210"><path
           id="path212"
           style="fill:#ffce55;fill-opacity:1;fill-rule:nonzero;stroke:none"
           d="m 16300,7345.42 h -1246.3 v -903.29 -190.3 l 190.3,190.3 h 1056 v 903.29" /></g><path
         id="path214"
         style="fill:#eea886;fill-opacity:1;fill-rule:nonzero;stroke:none"
         d="m 15629.1,5493.7 c 0,0 27.9,69.2 32.5,79.6 4.6,10.4 31.5,27.5 64.1,44.3 32.5,16.9 84.1,25 89.6,22 5.6,-3.1 12.6,-3.6 19.7,-18.2 7.1,-14.6 5.1,-30.9 5.1,-30.9 0,0 17.3,-13.8 13.3,-33.7 0,0 15.6,-13.7 7.4,-35.5 0,0 14.9,-13.9 7.6,-29.2 0,0 -26.9,-17.1 -35.1,-26.3 -8.1,-9.2 -66.6,-41 -127.3,-62.8 0,0 -64.3,-1.2 -76.9,90.7" /><path
         id="path216"
         style="fill:#cf8c6c;fill-opacity:1;fill-rule:nonzero;stroke:none"
         d="m 15728.1,5531.4 c 0,0 0.7,-37.4 -4.4,-48.1 -5.2,-10.6 76,-34.2 76,-34.2 0,0 -26,82 -71.6,82.3" /><path
         id="path218"
         style="fill:#555c94;fill-opacity:1;fill-rule:nonzero;stroke:none"
         d="m 14214.3,1867.7 35.4,110.4 149.9,-24.3 -22.4,-99.5 -162.9,13.4" /><path
         id="path220"
         style="fill:#555c94;fill-opacity:1;fill-rule:nonzero;stroke:none"
         d="m 15442.9,1880.8 8.4,-60.7 164.1,27.4 -8.7,90.6 -163.8,-57.3" /><path
         id="path222"
         style="fill:#354c70;fill-opacity:1;fill-rule:nonzero;stroke:none"
         d="m 15087.5,3580.3 c 0,0 -24.1,-131.7 -52.2,-277.8 -4.8,-25.5 -9.8,-51.4 -14.9,-77.1 -27.4,-140.9 -55.1,-276.4 -65.3,-304.4 -23.3,-63.7 -525.7,-984.4 -525.7,-984.4 0,0 -205.5,15.7 -213.2,42.1 0,0 421.2,999.6 418.8,1036.1 -2.3,36.4 51.5,1061.2 51.5,1061.2 0,0 389.9,-436.5 401,-495.7" /><path
         id="path224"
         style="fill:#354c70;fill-opacity:1;fill-rule:nonzero;stroke:none"
         d="m 15317.1,4134.6 c 0,0 196.6,-1006.7 213.4,-1083.8 16.8,-77.1 91.3,-1108.3 91.3,-1108.3 0,0 -44.2,-91.1 -207.4,-56.8 0,0 -222.5,1108 -241.2,1145.1 -72.8,144.1 -430,842.2 -464.7,941.8 -34.6,99.6 -24.4,215.9 -24.4,215.9 0,0 265.4,149.1 633,-53.9" /><path
         id="path226"
         style="fill:#deb135;fill-opacity:1;fill-rule:nonzero;stroke:none"
         d="m 15234.5,5438.5 c 0,0 86.2,-214.9 107.9,-208.6 21.6,6.4 269.5,297.4 269.5,297.4 0,0 113.3,-141.5 98.2,-157.8 -21.2,-22.6 -313.9,-509.2 -354.1,-500.4 -40.3,8.8 -220.3,306.2 -220.3,306.2 0,0 -10.1,224.4 98.8,263.2" /><path
         id="path228"
         style="fill:#f2c344;fill-opacity:1;fill-rule:nonzero;stroke:none"
         d="m 14865.7,5849 c 0,0 223.6,-170.9 285.3,-238.7 61.7,-67.8 232.1,-348.9 219.8,-433.5 -47.1,-324.2 -69.5,-600.5 -70.9,-821.7 -1.2,-192.7 60.2,-241.9 21.9,-244.7 -43.9,-3.3 -606.6,-207.2 -689.8,-232 0,0 54.5,678.5 82.2,756.8 27.6,78.3 -88.5,898.8 151.5,1213.8" /><g
         transform="scale(1.00652)"
         id="g230"><path
           id="path232"
           style="fill:#d9d0c4;fill-opacity:1;fill-rule:nonzero;stroke:none"
           d="m 16200.3,6133.24 49.8,-251.16 49.9,-251.17 c 0,0 -285.2,89.32 -608.9,25.04 l -22,110.78 -22.1,111.37 c 323.6,64.29 553.3,255.14 553.3,255.14" /></g><path
         id="path234"
         style="fill:#ffb355;fill-opacity:1;fill-rule:nonzero;stroke:none"
         d="m 15451.3,1820.1 c 0,0 123.9,24 128.2,27.8 4.3,3.7 30.9,52.6 50.1,44.1 19.1,-8.5 19.4,-68.1 38.1,-78.2 18.7,-10 166.5,-109.9 184.7,-128.1 18.2,-18.2 130.1,-7.5 143,-39.1 12.8,-31.6 13.9,-106.2 -153.1,-88.6 -167.1,17.5 -357.8,-9.7 -393.7,10.1 -36,19.7 -8.8,203.9 2.7,252" /><path
         id="path236"
         style="fill:#ffb355;fill-opacity:1;fill-rule:nonzero;stroke:none"
         d="m 14212.3,1870.4 c 0,0 126.1,3.9 131,6.9 4.9,3 38.9,47.1 56.5,35.6 17.5,-11.5 8.2,-70.4 25.1,-83.3 16.9,-12.9 146.8,-135.2 161.8,-156 15,-20.9 127.3,-28.3 134.9,-61.5 7.6,-33.2 -3.3,-107.1 -165.3,-63 -162.1,44 -354.7,47.7 -387,73 -32.4,25.2 24,202.7 43,248.3" /><path
         id="path238"
         style="fill:#eea987;fill-opacity:1;fill-rule:nonzero;stroke:none"
         d="m 15191.6,4087.9 c 0,0 15.1,-61.3 39.3,-74.6 24.2,-13.2 -112.8,-144.3 -112.8,-144.3 0,0 -55.6,121.5 -54.1,133.7 1.5,12.3 127.6,85.2 127.6,85.2" /><path
         id="path240"
         style="fill:#ffd255;fill-opacity:1;fill-rule:nonzero;stroke:none"
         d="m 14766.4,5583.9 c 0,0 -160.5,-763.3 -173.7,-841.5 -12.4,-74 470.5,-780.2 470.5,-780.2 l 160.6,95.2 c 0,0 -389.7,708.6 -389.1,741 0.6,32.3 187.1,647.7 187.1,647.7 0,0 77.9,134 -60.4,199.1 -138.3,65 -195,-61.3 -195,-61.3" /><path
         id="path242"
         style="fill:#3c5780;fill-opacity:1;fill-rule:nonzero;stroke:none"
         d="m 15285.8,4035.3 c 0,0 52.2,-259.6 49,-339.1 -3.3,-79.5 -299.6,125.1 -284.6,204.2 l 235.6,134.9" /><path
         id="path244"
         style="fill:#eea886;fill-opacity:1;fill-rule:nonzero;stroke:none"
         d="m 14865.7,5849 c 0,0 407.3,-444.9 382.2,-395.6 -89.4,175.9 -151.9,205.6 -150.6,238.4 1,25.1 9.2,97.6 10.8,122.1 3.2,46.6 8.3,85.1 8.3,85.1 0,0 -202.2,284 -193.3,187.3 8.9,-96.8 -57.4,-237.3 -57.4,-237.3" /><path
         id="path246"
         style="fill:#eea886;fill-opacity:1;fill-rule:nonzero;stroke:none"
         d="m 15253.6,6372.7 c 0,0 56,-131.5 56.8,-162.2 0.8,-30.8 -7,-54.4 -2.3,-89.8 5,-36.7 35.7,-113.8 32,-135.1 -4.6,-25.7 -58.8,-12.3 -66.3,-54.7 -7.5,-42.4 -46.9,-122.1 -66.5,-123.7 -50.4,-4.2 -243.5,74.6 -255.8,115 -12.3,40.4 -82.2,265.6 -104,308.4 -21.8,42.9 340.2,277.6 373.1,209.9 33,-67.8 33,-67.8 33,-67.8" /><path
         id="path248"
         style="fill:#fccca2;fill-opacity:1;fill-rule:nonzero;stroke:none"
         d="m 14761.4,6275.2 c -25.6,111.5 102.7,125.2 102.7,125.2 0,0 83.4,97.2 283.2,85.7 199.8,-11.6 169.3,-272.3 169.3,-272.3 0,0 -138.2,20.7 -198.3,5.5 0,0 -7.4,-111.3 -0.9,-138.9 l -75.3,6.7 c 0,0 8.4,98.8 -27.7,103.5 -36.2,4.6 -48.4,-209.2 -115.7,-256.3 0,0 -0.7,15.1 -9.1,29.9 v 0 0 c -13.5,23.5 -34.4,63 -52.4,109.1 -29.4,64.6 -62.7,144.7 -75.8,201.9" /><path
         id="path250"
         style="fill:#eea886;fill-opacity:1;fill-rule:nonzero;stroke:none"
         d="m 15064.5,6166.7 c 0,0 -28,75.4 -94.2,26.5 -48.2,-35.6 1.3,-162.9 48.2,-162.3 46.9,0.6 66,69.9 46,135.8" /><path
         id="path252"
         style="fill:#c48a6f;fill-opacity:1;fill-rule:nonzero;stroke:none"
         d="m 14940.6,5957.4 c 0,0 9.9,-40 20.7,-49.4 10.8,-9.3 61.5,-50.5 149.5,-78.1 l -8.6,-79.9 c 0,0 -170.4,66.9 -161.6,207.4" /><path
         id="path254"
         style="fill:#e8734d;fill-opacity:1;fill-rule:nonzero;stroke:none"
         d="m 15838.7,5416.3 28.8,13.7 -130.3,276.4 -73,-34.4 110.4,-234.3 c 12.3,-26.1 38.1,-33.7 64.1,-21.4" /><path
         id="path256"
         style="fill:#db9c7c;fill-opacity:1;fill-rule:nonzero;stroke:none"
         d="m 15806.6,5635.5 c 0,0 -81.5,-44.8 -75.9,-58.8 5.5,-14 16.1,-15.8 16.1,-15.8 l -25.2,-33.6 c 0,0 -4.1,-31.7 31.6,-26.9 0,0 -6.9,-29.2 27,-20.5 0,0 4.1,-21.3 20.5,-20 16.4,1.2 67.7,32.2 67.7,32.2 0,0 7.9,11.4 -7.6,29.2 0,0 9.1,20.4 -7.4,35.5 0,0 4.7,17.5 -13.3,33.7 0,0 7.5,39.8 -24.8,49.1 0,0 -5.3,-2.2 -8.7,-4.1" /><path
         id="path258"
         style="fill:#e8734d;fill-opacity:1;fill-rule:nonzero;stroke:none"
         d="m 15568,5646.2 287.4,53.6 -46.8,235.7 -285.1,-65 44.5,-224.3" /><path
         id="path260"
         style="fill:#eea886;fill-opacity:1;fill-rule:nonzero;stroke:none"
         d="m 15664,5575 c 0,0 63.8,1.8 99.1,-12.5 7.9,-3.3 15.1,-7.9 15.1,-16.5 0,-8.6 -12.5,-19.6 -40.1,-21.8 -27.6,-2.1 -62.3,-17.6 -62.3,-17.6 0,0 -29,6.1 -11.8,68.4" /><path
         id="path262"
         style="fill:#293b57;fill-opacity:1;fill-rule:nonzero;stroke:none"
         d="m 15035.3,3302.5 c -4.8,-25.5 -9.8,-51.4 -14.9,-77.1 l -163.2,431.9 c 21.6,-43.6 178.1,-354.8 178.1,-354.8" /><g
         transform="scale(1.27129)"
         id="g264"><path
           id="path266"
           style="fill:#ffbb55;fill-opacity:1;fill-rule:nonzero;stroke:none"
           d="m 14138.9,3242.46 h 2072.6 l -653.2,-2006.08 61.1,-19.9 680.6,2090.24 h -2207.8 l -674.1,-2070.34 61.1,-19.9 659.7,2025.98" /></g><g
         transform="scale(1.32467)"
         id="g268"><path
           id="path270"
           style="fill:#ffbb55;fill-opacity:1;fill-rule:nonzero;stroke:none"
           d="m 14246.1,1186.56 -627,1925.22 h 1989.1 l 633.1,-1944.32 58.7,19.1 -647,1986.9 h -2118.8 l 653.2,-2006 58.7,19.1" /></g><g
         transform="scale(1.28555)"
         id="g272"><path
           id="path274"
           style="fill:#ffbb55;fill-opacity:1;fill-rule:nonzero;stroke:none"
           d="M 13791.4,2581.77 H 16300 v 63.55 h -2508.6 v -63.55" /></g><g
         transform="scale(1.30403)"
         id="g276"><path
           id="path278"
           style="fill:#ffbb55;fill-opacity:1;fill-rule:nonzero;stroke:none"
           d="M 13341.1,1865.22 H 16300 v 62.65 h -2958.9 v -62.65" /></g><g
         transform="scale(1.28507)"
         id="g280"><path
           id="path282"
           style="fill:#e09e7f;fill-opacity:1;fill-rule:nonzero;stroke:none"
           d="m 16126.5,7146.4 c 0,0 14.5,49.72 -7.7,69.25 -18.8,16.65 -31.1,51.75 -34.9,62.57 -5.1,14.39 -37.3,52.91 -19.2,59.53 18.1,6.61 56.2,-60.86 66.9,-73.46 10.8,-12.53 23,60.54 35.8,72.13 12.8,11.6 132.6,-15.48 118.4,-64.66 -14.1,-49.18 -61.8,-92.37 -62.5,-101.55 -0.8,-9.11 -9,-36.19 -9,-36.19 l -87.8,12.38" /></g><g
         transform="scale(1.28998)"
         id="g284"><path
           id="path286"
           style="fill:#e09e7f;fill-opacity:1;fill-rule:nonzero;stroke:none"
           d="m 16099.8,7297.78 c 0,0 53.2,147.13 65,153.96 11.7,6.82 19.5,3.48 15.1,-10.47 -4.4,-13.95 -47.3,-143.65 -47.3,-143.65 0,0 92.3,163.57 100.7,171.25 4.9,4.49 20.3,-1.09 18.7,-8.76 -1.6,-7.76 -83.8,-175.04 -83.8,-175.04 0,0 86.4,152.55 95.4,156.9 7.8,3.8 20.7,-4.89 15.1,-16.67 -5.7,-11.78 -77.8,-157.83 -77.8,-157.83 0,0 69.8,107.05 79.6,106.28 5.9,-0.46 19.5,-4.73 0.7,-31.78 -19,-27.06 -56.9,-95.59 -56.9,-95.59 l -124.5,51.4" /></g><g
         transform="scale(1.11082)"
         id="g288"><path
           id="path290"
           style="fill:#e09e7f;fill-opacity:1;fill-rule:nonzero;stroke:none"
           d="m 16272.5,6715.78 c 0,0 -54.9,-24.12 -80.6,-1.71 -22,19.09 -64,28 -77.1,30.7 -17.3,3.69 -66.3,34.75 -71.1,12.97 -4.9,-21.79 78.3,-55.19 94.3,-65.63 16.1,-10.44 -65.9,-35.56 -77.2,-51.95 -11.4,-16.38 37.8,-149.71 92.1,-126.03 54.2,23.68 96.5,84.89 106.9,87.14 10.4,2.25 40.2,15.67 40.2,15.67 l -27.5,98.84" /></g><g
         transform="scale(1.10061)"
         id="g292"><path
           id="path294"
           style="fill:#e09e7f;fill-opacity:1;fill-rule:nonzero;stroke:none"
           d="m 16221.1,6710.35 c 0,0 -162.8,-84.41 -168.9,-99.13 -6.1,-14.72 -1.1,-23.26 14.5,-15.99 15.5,7.27 159.6,76.96 159.6,76.96 0,0 -175.8,-132.2 -183.5,-143.2 -4.5,-6.45 4.4,-23.53 13.1,-20.44 8.7,3.09 190.5,124.3 190.5,124.3 0,0 -164,-123.84 -167.6,-134.93 -3.3,-9.63 8.8,-23.35 21.6,-14.99 12.8,8.36 171.4,114.67 171.4,114.67 0,0 -113.6,-97.59 -111.2,-108.85 1.5,-6.82 8.5,-21.99 37,4.08 28.5,26.17 102.4,80.69 102.4,80.69 l -78.9,136.83" /></g><g
         transform="scale(1.1992)"
         id="g296"><path
           id="path298"
           style="fill:#323657;fill-opacity:1;fill-rule:nonzero;stroke:none"
           d="m 15019.6,6218.21 79.9,-98.64 c 0,0 514.8,212.72 593.5,286.52 0,0 20.9,8.01 127.3,92.48 v 0 c 22.8,18.1 45.1,35.19 65.5,50.12 0,0 5.3,4.75 13.8,12.42 0.1,0 0.1,0.08 0.1,0.08 38.3,34.19 142.1,126.84 142.1,126.84 0,0 258.2,137.09 153,285.19 0,0 -43.8,39.52 -110.9,7.59 -67.3,-31.86 -164.4,-115.83 -187.4,-137.93 -23,-22.01 -172.2,-149.26 -180.2,-157.35 -29.8,-30.19 -131.2,-120.5 -183.5,-159.94 -92.3,-69.55 -513.2,-307.38 -513.2,-307.38" /></g><g
         transform="scale(1.21852)"
         id="g300"><path
           id="path302"
           style="fill:#eea987;fill-opacity:1;fill-rule:nonzero;stroke:none"
           d="m 16230.2,7149.68 c -0.1,-0.16 -0.1,-0.16 -0.1,-0.16 -19.4,-41.28 -42.9,-80.43 -68.9,-113.66 -89.6,-114.98 -298.5,-117.85 -301.5,197.7 -0.6,59.82 6.8,108.24 18.9,147.55 42.7,140.09 143.2,163.4 143.2,163.4 74.3,4.1 204.2,-14.28 247.4,-110.95 30.8,-68.7 8.6,-182.52 -39,-283.88" /></g><g
         transform="scale(1.22067)"
         id="g304"><path
           id="path306"
           style="fill:#665249;fill-opacity:1;fill-rule:nonzero;stroke:none"
           d="m 16201.5,7137.07 c -0.1,-0.16 -0.1,-0.16 -0.1,-0.16 0,0 -10.6,-2.87 -49.1,74.87 -7.8,15.65 -13.7,4.43 -17,11.39 l -61.4,23.92 c 0,0 60.7,101.42 -18.7,129.6 -80.9,28.68 -204.6,-8.6 -204.6,-8.6 26.4,250.28 142.9,163.11 142.9,163.11 74.2,4.1 232.6,-0.41 275.8,-96.91 30.7,-68.57 -20.3,-196.04 -67.8,-297.22" /></g><g
         transform="scale(1.2135)"
         id="g308"><path
           id="path310"
           style="fill:#eea987;fill-opacity:1;fill-rule:nonzero;stroke:none"
           d="m 16218,7313.21 c 4.5,21.18 46.4,39.39 64.2,-6.1 17.8,-45.49 -41.7,-93.78 -57.4,-83.81 -15.7,9.97 -14.4,54.89 -6.8,89.91" /></g><g
         transform="scale(1.16155)"
         id="g312"><path
           id="path314"
           style="fill:#2e2626;fill-opacity:1;fill-rule:nonzero;stroke:none"
           d="m 16105.3,3789.78 c 0,0 -90.3,-73.87 -166.4,-90.31 -76,-16.45 -115.8,-55.36 -116.5,-100.47 -0.6,-45.12 218.8,-74.82 305.8,-29.36 129.9,67.93 143,47.44 157.4,81.36 14.4,33.92 2.9,123.71 3.8,134.56 1.1,13.26 -184.1,4.22 -184.1,4.22" /></g><g
         transform="scale(1.15972)"
         id="g316"><path
           id="path318"
           style="fill:#2e2626;fill-opacity:1;fill-rule:nonzero;stroke:none"
           d="m 16136.9,3820.31 c 0,0 -10,-36.91 -8.5,-37.68 1.5,-0.78 171.6,-19.84 166.4,9.82 -4.1,23.98 -10.1,50.1 -10.1,50.1 l -147.8,-22.24" /></g><g
         transform="scale(1.23865)"
         id="g320"><path
           id="path322"
           style="fill:#2e2626;fill-opacity:1;fill-rule:nonzero;stroke:none"
           d="m 16115.9,3498.41 c 0,0 -52.8,-79.85 -119.7,-95.92 -66,-15.82 -90.3,-40.93 -93.6,-80.81 -3.2,-39.8 155.6,-91.95 267.3,-22.04 73.3,46.02 100.6,43.35 115.4,72.58 14.7,29.22 3.6,111.49 5,121.02 1.9,11.71 -174.4,5.17 -174.4,5.17" /></g><g
         transform="scale(1.23712)"
         id="g324"><path
           id="path326"
           style="fill:#2f6b8c;fill-opacity:1;fill-rule:nonzero;stroke:none"
           d="m 16153.5,3531.82 c 0,0 -3.3,-33.62 -2,-34.43 1.3,-0.73 148.5,-26.84 147.6,-0.24 -0.7,21.09 -9.3,47.29 -9.3,47.29 l -136.3,-12.62" /></g><g
         transform="scale(1.2406)"
         id="g328"><path
           id="path330"
           style="fill:#f2c344;fill-opacity:1;fill-rule:nonzero;stroke:none"
           d="m 15502.1,5546.83 c 0,0 -199.6,-494.92 -256.9,-662.99 -75.5,-221.1 -117.1,-415.92 -126.6,-521.92 -11.9,-133.33 -58.6,-762.53 -67,-801.47 -8.4,-39.01 223.9,-25.95 223.9,-25.95 0,0 130.7,793.4 166.3,935.43 33.1,132.19 346.8,731.98 377.1,695.87 30.2,-36.03 130.6,-650.01 153,-754.31 22.4,-104.3 82.5,-925.12 82.5,-925.12 0,0 203.8,-32.72 244.9,0 0,0 -32.2,731.91 -46.5,927.46 -5.4,74.48 47.2,891.9 -78.8,1221.58 -66.6,174.19 -671.9,-88.58 -671.9,-88.58" /></g><g
         transform="scale(1.2402)"
         id="g332"><path
           id="path334"
           style="fill:#323657;fill-opacity:1;fill-rule:nonzero;stroke:none"
           d="m 15722.5,6791.75 c 0,0 -172.7,-35.48 -195,-55.32 -24.4,-21.12 -72.9,-234.72 -75.5,-292.37 -2.6,-57.57 12.2,-294.95 36.6,-384.61 24.3,-89.59 -21.5,-462.59 -36.9,-586.77 0,0 299.4,-136.02 805.5,-29.99 0,0 -88.9,386.07 -74,508.87 19.2,157.31 70.4,501.77 70.4,501.77 0,0 46.4,328.26 3.6,320.12 -140.3,-26.45 -321.6,18.3 -321.6,18.3 h -213.1" /></g><g
         transform="scale(1.21478)"
         id="g336"><path
           id="path338"
           style="fill:#eea886;fill-opacity:1;fill-rule:nonzero;stroke:none"
           d="m 16012,6893.02 c 0,0 54.1,-40.66 235,39.1 0,0 -18,98.46 17.5,214.37 35.5,115.82 -233.3,-120.77 -233.3,-120.77 2.9,-2.06 3.5,-13.66 1.8,-29.8 -0.1,-1.07 -0.2,-2.06 -0.4,-3.13 -1.3,-11.69 -3.7,-25.43 -7.2,-39.51 -0.4,-1.73 -0.8,-3.46 -1.3,-5.27 -10.2,-38.69 -12.1,-21.15 -12.1,-54.99" /></g><g
         transform="scale(1.2094)"
         id="g340"><path
           id="path342"
           style="fill:#a77860;fill-opacity:1;fill-rule:nonzero;stroke:none"
           d="m 16096.7,6984.21 v 0 c 130.2,-16.7 201.2,123.54 203.3,127.67 -89.1,-129.9 -196,-87.73 -196,-87.73 v 0 c -1.3,-11.74 -3.8,-25.8 -7.3,-39.94" /></g><g
         transform="scale(1.21247)"
         id="g344"><path
           id="path346"
           style="fill:#eea886;fill-opacity:1;fill-rule:nonzero;stroke:none"
           d="m 16043.3,6938.63 c 0,0 -41.6,-61.77 16.3,-72.25 57.9,-10.55 176,2.31 240.4,80.67 0,0 -169.7,32.57 -256.7,-8.42" /></g><g
         transform="scale(1.28016)"
         id="g348"><path
           id="path350"
           style="fill:#323657;fill-opacity:1;fill-rule:nonzero;stroke:none"
           d="m 15477.8,6264.69 c -17.4,35.93 26.7,129.67 101.3,195.21 59,51.79 122,83.97 152.8,95.53 30.7,11.48 240.6,79.13 250.7,105.38 12.8,33.28 68.6,196.54 73.1,210.83 9,28.52 113.8,351.6 113.8,351.6 l 130.5,-29.92 c 0,0 -97.3,-467.13 -109.4,-527.04 -8,-39.45 -14.7,-109.13 -102.6,-165.21 -89.4,-56.95 -285.1,-201.62 -304.8,-209.28 -19.7,-7.57 -227.8,-187.24 -305.4,-27.1" /></g><g
         transform="scale(1.4545)"
         id="g352"><path
           id="path354"
           style="fill:#4b5182;fill-opacity:1;fill-rule:nonzero;stroke:none"
           d="m 16119.5,1323.62 c 0,0 -30.6,-9.49 -64.1,-33.89 -33.4,-24.41 -78.3,-64.29 -127.7,-73.23 -49.4,-8.93 -101.6,-8.18 -93.6,-61.05 8,-52.87 170.5,-78.93 317.1,-34.17 146.7,44.76 148.8,48.81 148.8,61.88 0,12.99 -22.1,143.97 -28.9,148.43 -6.6,4.47 -151.6,-7.97 -151.6,-7.97" /></g><g
         transform="scale(1.53131)"
         id="g356"><path
           id="path358"
           style="fill:#4b5182;fill-opacity:1;fill-rule:nonzero;stroke:none"
           d="m 16122.2,1303.53 c 0,0 -53.6,-55.51 -99.8,-64.85 -46.2,-9.34 -106.8,-24.36 -110,-54.66 -3,-30.36 16.2,-38.27 18,-40.09 11.5,-8.89 232,-16.92 317.3,15.21 52.3,19.79 -8,183.63 -8,183.63 l -117.5,-39.24" /></g><g
         transform="scale(1.46956)"
         id="g360"><path
           id="path362"
           style="fill:#eea987;fill-opacity:1;fill-rule:nonzero;stroke:none"
           d="m 16300,3843.11 c 0,0 -164.3,-183.11 -158.9,-128.95 3.3,32.6 -12,89.08 -24.6,128.95 -8.3,26.4 -15.5,45.46 -15.5,45.46 v 0 c 1.3,2.58 178.8,254.36 172.3,175.63 -6.4,-79.21 26.7,-221.09 26.7,-221.09" /></g><g
         transform="scale(1.52674)"
         id="g364"><path
           id="path366"
           style="fill:#f2c344;fill-opacity:1;fill-rule:nonzero;stroke:none"
           d="m 15631.2,2370.74 c 0,0 -69.5,-242.15 -57.8,-285.11 11.7,-43.04 131.2,-199.71 147.4,-223.29 21.8,-31.57 368,-574.95 371.9,-584.06 3.9,-9.1 199.5,37.93 207.3,79.65 0,0 -274.2,562.77 -339.3,637.05 -65.2,74.34 -80.3,151.36 -69.9,237.43 10.5,86 137.6,364.76 118.1,479.45 -19.6,114.69 -366,-220.07 -377.7,-341.12" /></g><g
         transform="scale(1.50072)"
         id="g368"><path
           id="path370"
           style="fill:#f2c344;fill-opacity:1;fill-rule:nonzero;stroke:none"
           d="m 15771.1,2739.81 c 0,0 -475,-359.89 -528.2,-433.46 -53.2,-73.56 6.5,-182.97 14.4,-218.76 8,-35.78 328.2,-744.37 332.2,-806.01 0,0 214.9,-17.92 252.7,29.79 0,0 -233.8,672.61 -267.6,787.95 -33.8,115.35 82.4,143.4 175.9,185.18 93.5,41.71 503.8,282.46 527.6,373.08 21.9,82.7 0.3,145 0.3,145 0,0 -114.9,74.3 -507.3,-62.77" /></g><g
         transform="scale(1.46552)"
         id="g372"><path
           id="path374"
           style="fill:#22243b;fill-opacity:1;fill-rule:nonzero;stroke:none"
           d="m 16123.9,3551.09 c 0,0 -326.2,113.95 -320.6,184.78 5.7,70.83 292,420.47 292,420.47 l 96.9,-63.05 -139.3,-365.06 247.1,-93.07 -176.1,-84.07" /></g><g
         transform="scale(1.47127)"
         id="g376"><path
           id="path378"
           style="fill:#323657;fill-opacity:1;fill-rule:nonzero;stroke:none"
           d="m 16300,3848.72 c 0,0 -37.3,75.99 -38,92.23 0,0 -163.5,-128.73 -179.7,-159.18 0,0 8.6,-56.14 2.6,-83.87 l 215.1,150.82" /></g><g
         transform="scale(1.50353)"
         id="g380"><path
           id="path382"
           style="fill:#323657;fill-opacity:1;fill-rule:nonzero;stroke:none"
           d="m 15950.2,3766.13 c 0,0 -31.7,15.89 -80.7,-15.9 -49,-31.72 -217.2,-200.26 -247.6,-210.83 0,0 72.4,-315.39 76.3,-398.73 4,-83.41 58.6,-519.64 26.8,-575.25 0,0 122.1,33.32 272.6,83.14 156.9,51.81 302.4,139.81 302.4,139.81 0,0 -107.1,262.24 -117.9,346.58 -11.3,87.92 -98.9,524.76 -231.9,631.18" /></g><g
         transform="scale(1.43374)"
         id="g384"><path
           id="path386"
           style="fill:#eea987;fill-opacity:1;fill-rule:nonzero;stroke:none"
           d="m 16300,4163.23 c 0,0 -27.5,28.39 -31.7,94.65 -4.5,72.12 -2,46.59 -2,46.59 l 33.7,-141.24" /></g><g
         transform="scale(1.44947)"
         id="g388"><path
           id="path390"
           style="fill:#5c5c5c;fill-opacity:1;fill-rule:nonzero;stroke:none"
           d="m 16300,4150.63 c 0,0 -81,41.54 -121.4,41.54 -42.9,-0.07 -86.4,-29.74 -86.4,-29.74 0,0 -18.3,65.75 -2.8,91.89 15.6,26.15 210.6,-103.69 210.6,-103.69" /></g><g
         transform="scale(1.46201)"
         id="g392"><path
           id="path394"
           style="fill:#a87860;fill-opacity:1;fill-rule:nonzero;stroke:none"
           d="m 16300,4036.3 c 0,0 -20.7,-117.37 -99.9,-173.18 -0.1,-0.07 -0.2,-0.07 -0.2,-0.14 -8.5,26.54 -15.7,45.69 -15.7,45.69 v 0 c 1.2,0.68 80.8,44.73 115.8,127.63" /></g><g
         transform="scale(1.44424)"
         id="g396"><path
           id="path398"
           style="fill:#efaa88;fill-opacity:1;fill-rule:nonzero;stroke:none"
           d="m 16300,4315.9 c 0,0 -54.4,-161.74 -59.8,-199.27 -5.5,-37.46 -117,35.04 -117,35.04 0,0 50.7,137.37 61.8,204.33 11.1,66.88 115,-40.1 115,-40.1" /></g><g
         transform="scale(1.47574)"
         id="g400"><path
           id="path402"
           style="fill:#323657;fill-opacity:1;fill-rule:nonzero;stroke:none"
           d="m 16296.8,3614.52 c -8.4,45.06 -56.6,92.63 -102.4,95.27 -100.6,5.83 -327.9,6.44 -335.3,19.38 -9.3,16.47 101,458.14 101,458.14 0,0 -92.8,37.89 -150.6,43.17 0,0 -248.1,-655.33 -218.7,-675.05 106.9,-71.83 583.4,-89.85 583.4,-89.85 0,0 100.5,23.51 119.5,90.6 6.2,21.82 6.3,41.33 3.1,58.34" /></g><g
         transform="scale(1.45403)"
         id="g404"><path
           id="path406"
           style="fill:#efaa88;fill-opacity:1;fill-rule:nonzero;stroke:none"
           d="m 16147.3,4524.53 c 0,0 -14.2,-12.04 -17.9,-20.36 0,0 -5.4,-15.61 -9.9,-26.41 -1.5,-3.44 -2.9,-6.46 -3.9,-8.25 -4.5,-7.64 -16.5,-23.04 -22.1,-44.36 -5.5,-21.32 -17.5,-98.49 -17.5,-98.49 l 64,-21.87 50.2,-17.95 c 0,0 94.4,76.75 101.8,95.94 0.8,1.93 1.4,3.78 1.9,5.64 4.7,16.92 1.1,31.5 2.6,40.65 0.5,3.37 3.5,37.14 -3.7,44.29 -10.1,9.9 -21,12.65 -30.5,10.66 0,0 -20.4,18.5 -39,19.39 0,0 -18.3,17.68 -41.7,12.24 0,0 -20.7,15.82 -34.3,8.88" /></g><g
         transform="scale(1.46761)"
         id="g408"><path
           id="path410"
           style="fill:#eea886;fill-opacity:1;fill-rule:nonzero;stroke:none"
           d="m 15914,4215.64 c 0,0 -20.5,-99.28 6.3,-105.75 22.2,-5.32 6.4,-101.53 5.1,-116.86 -1.2,-15.33 41.3,-13.42 52.4,-19.69 11,-6.34 68.5,-107.39 102,-100.92 33.6,6.48 165.1,101.6 192.7,155.15 27.5,53.63 4,251.23 -46.4,322.44 -50.5,71.27 -275.5,39.38 -312.1,-134.37" /></g><g
         transform="scale(1.46939)"
         id="g412"><path
           id="path414"
           style="fill:#323657;fill-opacity:1;fill-rule:nonzero;stroke:none"
           d="m 15890.2,4195.9 c 0,0 -34.5,24.57 -13.6,136.93 24,129.51 263.1,55.53 282.2,56.28 19.1,0.75 141.2,12.05 133.2,-166.6 -8.5,-191.85 -17.5,-188.24 -17.5,-188.24 0,0 -41.2,101.88 -75.4,99.7 -37.2,-2.31 -96.9,-11.71 -96.9,-11.71 0,0 6.2,89.02 -44.3,86.23 -50.5,-2.79 -125.3,19.33 -167.7,-12.59" /></g><g
         transform="scale(1.45999)"
         id="g416"><path
           id="path418"
           style="fill:#eea886;fill-opacity:1;fill-rule:nonzero;stroke:none"
           d="m 16228,4143.3 c -0.5,10.14 -2.2,55.55 32.7,59.11 34.8,3.57 39.3,-51.64 22.8,-89.65 -16.5,-37.95 -53,-25.96 -55.5,30.54" /></g><path
         id="path420"
         style="fill:#ffce55;fill-opacity:1;fill-rule:nonzero;stroke:none"
         d="m 4815.88,7052.3 h 1001.85 v -879.1 l -152.95,153 h -848.9 v 726.1" /><path
         id="path422"
         style="fill:#5c5049;fill-opacity:1;fill-rule:nonzero;stroke:none"
         d="M 7038.42,2033.4 6837,3373 l 38.79,6 201.42,-1339.6 -38.79,-6" /><path
         id="path424"
         style="fill:#5c5049;fill-opacity:1;fill-rule:nonzero;stroke:none"
         d="m 6792.46,2033.4 -201.43,1339.6 38.8,6 201.42,-1339.6 -38.79,-6" /><path
         id="path426"
         style="fill:#5c5049;fill-opacity:1;fill-rule:nonzero;stroke:none"
         d="m 5580.94,2033.4 -38.79,6 201.42,1339.6 38.79,-6 -201.42,-1339.6" /><path
         id="path428"
         style="fill:#fab46c;fill-opacity:1;fill-rule:nonzero;stroke:none"
         d="m 6900.02,3359.4 157.8,1660 c 0,0 -275.97,36.1 -442.74,27.2 L 6364.47,3359.4 h 535.55" /><path
         id="path430"
         style="fill:#fab46c;fill-opacity:1;fill-rule:nonzero;stroke:none"
         d="m 6900.02,3443.7 h -535.55 v -84.3 h 535.55 v 84.3" /><path
         id="path432"
         style="fill:#fab46c;fill-opacity:1;fill-rule:nonzero;stroke:none"
         d="m 6014.1,3427 -83.7,1582 c 0,0 698.41,75.8 1127.42,10.4 L 6014.1,3427" /><path
         id="path434"
         style="fill:#fccca2;fill-opacity:1;fill-rule:nonzero;stroke:none"
         d="m 6571.83,5521.2 c 0,0 107.84,316.3 -97.96,414.3 -205.8,98.1 -380.54,-43.7 -413.54,-120.4 -33.01,-76.6 -24.28,-216.1 3.87,-313.4 28.16,-97.2 24.06,-245.2 -37.11,-294.8 -61.15,-49.5 -136.99,-131.7 -133.23,-299.1 2.34,-103.8 408.62,265.7 408.62,265.7 l 269.35,347.7" /><path
         id="path436"
         style="fill:#d4c3bd;fill-opacity:1;fill-rule:nonzero;stroke:none"
         d="m 6297.22,2117.9 c 0,0 -6.4,-223.5 25.51,-236.9 31.91,-13.5 152.71,64.2 206,141.1 53.27,76.9 -66.77,255.8 -86.47,354.4 -8.24,41.4 -102.11,115.7 -147.88,94.4 -45.77,-21.3 -79.18,-75.9 -79.18,-75.9 0,0 116.46,-79.8 82.02,-277.1" /><path
         id="path438"
         style="fill:#de9673;fill-opacity:1;fill-rule:nonzero;stroke:none"
         d="m 6215.2,2395 c 0,0 39.64,-76.2 60.01,-135.4 20.38,-59.2 24.19,-223.1 37.03,-234.5 12.84,-11.3 114.06,39.7 127.57,101 13.52,61.3 -27.53,183.8 -66.61,248.2 -39.07,64.4 -78.82,96.6 -78.82,96.6 0,0 -69,-13.4 -79.18,-75.9" /><path
         id="path440"
         style="fill:#d4c3bd;fill-opacity:1;fill-rule:nonzero;stroke:none"
         d="m 6442.26,2376.5 108.77,-158.7 -20.6,-14.1 -84.07,122.7 -4.1,50.1" /><path
         id="path442"
         style="fill:#de9673;fill-opacity:1;fill-rule:nonzero;stroke:none"
         d="m 6050.72,4131.8 c 0,0 53.19,-89.8 0,-155.2 -53.19,-65.4 -410.8,-245.1 -408.19,-348.8 2.62,-103.8 68.13,-266.2 91.67,-307.4 23.55,-41.2 110.39,-212.1 155.51,-312.2 45.13,-100 306.05,-578.7 357.05,-686.6 51.01,-107.9 19.61,431.6 19.61,431.6 l -260.91,765.1 609.62,593.9 c 0,0 -73.78,164.2 -564.36,19.6" /><path
         id="path444"
         style="fill:#ffd255;fill-opacity:1;fill-rule:nonzero;stroke:none"
         d="m 6282.66,5145 c 0,0 -169.16,-37.5 -236.3,-76.8 -67.14,-39.2 -216.24,-219.7 -216.24,-297.3 0,-77.6 652.05,-150.1 652.05,-150.1 l 123.6,-451.2 c 0,0 329.57,80.4 368.81,147.1 39.23,66.7 -129.78,541.5 -153.32,641.5 -23.54,100.1 -146.83,167.5 -284.16,186.8 -137.32,19.2 -254.44,0 -254.44,0" /><path
         id="path446"
         style="fill:#eea886;fill-opacity:1;fill-rule:nonzero;stroke:none"
         d="m 6682.45,4116.9 c 0,0 -11.78,-77.1 19.62,-109.8 31.38,-32.7 175.96,-223.4 99.39,-410.7 -70.29,-172 -206.65,-168.7 -206.65,-168.7 H 6383.8 c 0,0 61.26,-309.6 41.48,-513.7 -19.79,-204 -112.85,-669.9 -114.82,-693.4 -1.96,-23.6 -89.21,-97.1 -114.7,-59.9 0,0 -2.37,280.6 -16.11,386.5 -13.73,105.9 -72.17,529.7 -89.83,592.5 -17.66,62.7 -121.63,253 -121.63,272.6 0,19.7 -101.55,326.8 120.13,405.3 221.68,78.4 300.02,297.7 594.13,299.3" /><path
         id="path448"
         style="fill:#e6d3cc;fill-opacity:1;fill-rule:nonzero;stroke:none"
         d="m 6090.7,1944.4 c 0,0 -145.53,-169.8 -129.17,-200.3 16.36,-30.5 159.15,-46.1 248.91,-19.8 89.76,26.2 108.92,240.8 155.68,329.9 19.57,37.3 -6.66,154.2 -55.66,166.4 -48.98,12.2 -109.27,-9.2 -109.27,-9.2 0,0 40.37,-135.3 -110.49,-267" /><path
         id="path450"
         style="fill:#eea886;fill-opacity:1;fill-rule:nonzero;stroke:none"
         d="m 6201.19,2211.4 c 0,0 -17.14,-84.2 -38.52,-143.1 -21.39,-58.8 -121.47,-188.6 -118.64,-205.5 2.83,-17 113.64,-40.9 162.68,-1.8 49.04,39.2 94.15,160.2 104.27,234.9 10.12,74.6 -0.52,124.7 -0.52,124.7 0,0 -62.09,33 -109.27,-9.2" /><path
         id="path452"
         style="fill:#e6d3cc;fill-opacity:1;fill-rule:nonzero;stroke:none"
         d="m 6366.12,2054.2 -15.27,-191.8 -24.89,2 11.8,148.3 28.36,41.5" /><path
         id="path454"
         style="fill:#323657;fill-opacity:1;fill-rule:nonzero;stroke:none"
         d="m 6801.46,3596.4 c -66.38,-174.3 -206.65,-168.7 -206.65,-168.7 H 6383.8 c 0,0 -88.01,139.5 -303.55,163.4 -47.77,5.3 -101.82,5 -162.55,-3.8 -0.72,-0.1 -1.46,-0.2 -2.19,-0.4 -286.37,-42.4 -231.08,-147.5 -230.21,-150.2 -23.79,58.1 -48.8,150.5 -42.77,200.2 27.47,226.7 354.99,274.3 408.19,339.7 53.19,65.4 0,155.2 0,155.2 490.58,144.6 564.36,-19.6 564.36,-19.6 21.51,3 76.62,34.7 100.06,34.8 0,0 24.55,-53.6 41.86,-102 15.25,-42.7 116.49,-259.5 44.46,-448.6" /><path
         id="path456"
         style="fill:#ded1c5;fill-opacity:1;fill-rule:nonzero;stroke:none"
         d="m 6597.92,4844.4 72.58,-674.8 h -955.38 l -72.59,674.8 h 955.39" /><path
         id="path458"
         style="fill:#ded1c5;fill-opacity:1;fill-rule:nonzero;stroke:none"
         d="m 6746.53,4230.3 h -159.56 v -60.7 h 159.56 v 60.7" /><path
         id="path460"
         style="fill:#bc8551;fill-opacity:1;fill-rule:nonzero;stroke:none"
         d="M 8099.48,4077.7 H 5056.7 v 91.9 h 3042.78 v -91.9" /><path
         id="path462"
         style="fill:#eea886;fill-opacity:1;fill-rule:nonzero;stroke:none"
         d="m 6388.36,5881.6 c 0,0 214.05,-63.4 183.47,-360.4 -30.58,-297 -170.36,-281.8 -183.47,-283.9 -13.1,-2.2 -179.1,-13.1 -231.52,347.2 -52.42,360.4 231.52,297.1 231.52,297.1" /><path
         id="path464"
         style="fill:#eea886;fill-opacity:1;fill-rule:nonzero;stroke:none"
         d="m 6490.38,5291.9 c 0,0 -11.34,-98.4 7.59,-159.5 18.93,-61.2 -249.31,-62.9 -249.16,-12.6 0.17,57.2 27.44,104.9 1.75,202.8 -25.69,97.9 239.82,-30.7 239.82,-30.7" /><path
         id="path466"
         style="fill:#fccca2;fill-opacity:1;fill-rule:nonzero;stroke:none"
         d="m 6333.11,5749.1 c 0,0 116.31,-185 238.72,-227.9 0,0 66.84,310.4 -209.23,375.5 -276.07,65 -232.82,-313.6 -212.21,-414.5 0,0 57.49,148.5 182.72,266.9" /><path
         id="path468"
         style="fill:#a77860;fill-opacity:1;fill-rule:nonzero;stroke:none"
         d="m 6282.31,5279.4 c 0,0 84.69,-88.3 192.99,-9.3 0,0 -8.95,-56.4 -86.85,-63.6 -77.88,-7.3 -106.14,72.9 -106.14,72.9" /><path
         id="path470"
         style="fill:#23344a;fill-opacity:1;fill-rule:nonzero;stroke:none"
         d="m 6177.1,5777 c 0,0 61.23,118.6 164.61,123.9 103.38,5.2 164.87,-84.4 164.87,-84.4 0,0 -40.36,100.9 -164.74,100.9 -124.37,0 -164.74,-140.4 -164.74,-140.4" /><path
         id="path472"
         style="fill:#eea886;fill-opacity:1;fill-rule:nonzero;stroke:none"
         d="m 6525.37,5146.5 c 0,0 -3.8,-205.6 -166.85,-211.7 -163.06,-6.1 -129.12,197.2 -129.12,197.2 0,0 119.27,48.3 295.97,14.5" /><path
         id="path474"
         style="fill:#807066;fill-opacity:1;fill-rule:nonzero;stroke:none"
         d="m 8031.9,1758.6 h 67.58 V 4077.7 H 8031.9 V 1758.6" /><path
         id="path476"
         style="fill:#807066;fill-opacity:1;fill-rule:nonzero;stroke:none"
         d="m 5056.7,1758.6 h 67.58 V 4077.7 H 5056.7 V 1758.6" /><path
         id="path478"
         style="fill:#ffd255;fill-opacity:1;fill-rule:nonzero;stroke:none"
         d="m 13615.1,16003.7 c -304.9,88.5 -625,-87.7 -713.5,-392.6 -53.9,-185.7 -11.3,-385 114,-532.9 l 4.7,-5.6 1.1,-7.2 c 15,-102.9 28.8,-255.3 9.3,-396.8 l -0.3,-1.9 c -11.2,-51.4 2.2,-105.2 37.6,-151.4 36.4,-47.4 91.4,-81.2 154.8,-94.9 129.5,-28.1 253.9,36.8 277.2,144.5 l 0.2,1 0.3,0.9 c 31.4,105.3 86.2,220.4 163.1,342.2 l 4.3,6.9 7.5,3.1 c 162.3,67.5 283.4,202.8 332.3,371.2 88.4,305 -87.7,625 -392.6,713.5 z m -426.2,-1627.6 c -65.6,19 -122.4,56.8 -161.6,108 -44.5,58.1 -61.3,126.4 -47.3,192.5 18.1,132 5.8,275 -8.4,374.2 -132.6,160.4 -177.2,374.7 -119.2,574.6 96.3,332.1 444.9,523.9 777,427.6 332.1,-96.4 523.9,-444.9 427.5,-777.1 -52.4,-180.7 -181.3,-326.5 -354.2,-401.1 -71.9,-114.9 -123.3,-223.1 -152.8,-321.7 -29.8,-134.8 -181.2,-216.8 -337.9,-182.8 -7.8,1.6 -15.5,3.6 -23.1,5.8" /><path
         id="path480"
         style="fill:#ffd255;fill-opacity:1;fill-rule:nonzero;stroke:none"
         d="m 13119,14609.3 59.9,685.7 115.3,-144.6 106.5,77.8 55.9,-105.7 153.5,83.1 -219.7,-653.3 -48.6,16.4 178.1,529.7 -84.4,-45.7 -52.4,99.1 -98.4,-71.8 -65.9,82.6 -48.7,-557.8 -51.1,4.5" /><path
         id="path482"
         style="fill:#ffd255;fill-opacity:1;fill-rule:nonzero;stroke:none"
         d="m 13404.2,14209.2 -434.7,94.2 37.9,175.2 434.8,-94.2 -38,-175.2" /><path
         id="path484"
         style="fill:#ffd255;fill-opacity:1;fill-rule:nonzero;stroke:none"
         d="m 13489.8,14266.2 -574.6,124.5 61.1,282 574.6,-124.5 -61.1,-282" /><path
         id="path486"
         style="fill:#ffd078;fill-opacity:1;fill-rule:nonzero;stroke:none"
         d="m 5222.03,9951.5 -31.01,10.6 259.94,756.7 580.8,160.9 199.82,829.6 447.27,203.6 93.26,644.3 32.46,-4.7 -95.83,-662.1 -449.04,-204.4 -200.58,-832.8 -582.76,-161.4 -254.33,-740.3" /><path
         id="path488"
         style="fill:#ffffff;fill-opacity:1;fill-rule:nonzero;stroke:none"
         d="m 6112.5,10922.6 c 30.98,-37.1 26.08,-92.2 -10.95,-123.2 -37.03,-31 -92.17,-26.1 -123.17,10.9 -30.98,37.1 -26.08,92.2 10.95,123.2 37.03,31 92.18,26.1 123.17,-10.9" /><path
         id="path490"
         style="fill:#ffd078;fill-opacity:1;fill-rule:nonzero;stroke:none"
         d="m 5999.85,10920.9 c -30.04,-25.1 -34.02,-70 -8.89,-100 25.14,-30.1 70.03,-34.1 100.07,-8.9 30.04,25.1 34.02,70 8.89,100 -25.14,30.1 -70.03,34.1 -100.07,8.9 z m 112.22,-134.1 c -43.9,-36.7 -109.52,-30.9 -146.25,13 -36.74,43.9 -30.91,109.5 12.99,146.3 43.91,36.7 109.52,30.9 146.25,-13 36.74,-43.9 30.91,-109.5 -12.99,-146.3" /><path
         id="path492"
         style="fill:#ffffff;fill-opacity:1;fill-rule:nonzero;stroke:none"
         d="m 6315.11,11748.8 c 30.99,-37 26.09,-92.2 -10.94,-123.2 -37.04,-31 -92.17,-26.1 -123.17,11 -30.99,37 -26.08,92.1 10.95,123.1 37.03,31 92.17,26.1 123.16,-10.9" /><path
         id="path494"
         style="fill:#ffd078;fill-opacity:1;fill-rule:nonzero;stroke:none"
         d="m 6202.47,11747.2 c -30.04,-25.2 -34.03,-70.1 -8.89,-100.1 25.14,-30 70.03,-34 100.07,-8.9 30.04,25.1 34.02,70 8.88,100.1 -25.13,30 -70.03,34 -100.06,8.9 z m 112.21,-134.1 c -43.89,-36.8 -109.51,-31 -146.25,12.9 -36.74,43.9 -30.91,109.6 13,146.3 43.91,36.7 109.51,30.9 146.25,-13 36.74,-43.9 30.91,-109.5 -13,-146.2" /><path
         id="path496"
         style="fill:#ffffff;fill-opacity:1;fill-rule:nonzero;stroke:none"
         d="m 6755.41,11958 c 30.98,-37.1 26.09,-92.2 -10.94,-123.2 -37.04,-31 -92.18,-26.1 -123.17,11 -30.98,37 -26.09,92.1 10.94,123.1 37.03,31 92.18,26.1 123.17,-10.9" /><path
         id="path498"
         style="fill:#ffd078;fill-opacity:1;fill-rule:nonzero;stroke:none"
         d="m 6642.77,11956.3 c -30.05,-25.1 -34.03,-70 -8.9,-100 25.14,-30.1 70.03,-34.1 100.07,-8.9 30.04,25.1 34.03,70 8.9,100 -25.14,30.1 -70.03,34.1 -100.07,8.9 z m 112.22,-134.1 c -43.91,-36.7 -109.52,-30.9 -146.25,13 -36.75,43.9 -30.92,109.5 12.98,146.3 43.91,36.7 109.52,30.9 146.25,-13 36.75,-43.9 30.92,-109.5 -12.98,-146.3" /><path
         id="path500"
         style="fill:#ffffff;fill-opacity:1;fill-rule:nonzero;stroke:none"
         d="m 5534.06,10754.1 c 30.98,-37.1 26.08,-92.2 -10.95,-123.2 -37.03,-31 -92.17,-26.1 -123.15,11 -31,37 -26.1,92.1 10.93,123.1 37.03,31 92.18,26.1 123.17,-10.9" /><path
         id="path502"
         style="fill:#ffd078;fill-opacity:1;fill-rule:nonzero;stroke:none"
         d="m 5421.42,10752.4 c -30.05,-25.1 -34.03,-70 -8.9,-100 25.14,-30.1 70.03,-34.1 100.07,-8.9 30.04,25.1 34.04,70 8.9,100.1 -25.15,30 -70.03,34 -100.07,8.8 z m 112.22,-134.1 c -43.91,-36.7 -109.52,-30.9 -146.26,13 -36.74,43.9 -30.91,109.5 13,146.3 43.9,36.7 109.51,30.9 146.25,-13 36.74,-43.9 30.91,-109.5 -12.99,-146.3" /><g
         transform="scale(1.44533)"
         id="g504"><path
           id="path506"
           style="fill:#ffd887;fill-opacity:1;fill-rule:nonzero;stroke:none"
           d="m 15326.6,8333 h 973.4 v 68.24 h -973.4 V 8333" /></g><g
         transform="scale(1.44533)"
         id="g508"><path
           id="path510"
           style="fill:#ffd887;fill-opacity:1;fill-rule:nonzero;stroke:none"
           d="m 15326.6,7985.77 h 973.4 v 286.87 h -973.4 v -286.87" /></g><g
         transform="scale(1.36939)"
         id="g512"><path
           id="path514"
           style="fill:#ffd887;fill-opacity:1;fill-rule:nonzero;stroke:none"
           d="m 15693.9,8281.57 h 606.1 v 45.25 h -606.1 v -45.25" /></g><g
         transform="scale(1.36939)"
         id="g516"><path
           id="path518"
           style="fill:#ffd887;fill-opacity:1;fill-rule:nonzero;stroke:none"
           d="m 15693.9,8139.24 h 606.1 v 122.53 h -606.1 v -122.53" /></g><g
         transform="scale(1.46329)"
         id="g520"><path
           id="path522"
           style="fill:#ffd989;fill-opacity:1;fill-rule:nonzero;stroke:none"
           d="m 16257.7,8661.32 h 42.3 v -793.89 h -42.3 v 793.89" /></g><g
         transform="scale(1.45964)"
         id="g524"><path
           id="path526"
           style="fill:#d6d6d6;fill-opacity:1;fill-rule:nonzero;stroke:none"
           d="m 16300,5917.77 -693.8,388.04 238.5,15.69 455.3,-403.73" /></g><g
         transform="scale(1.45964)"
         id="g528"><path
           id="path530"
           style="fill:#e8e8e8;fill-opacity:1;fill-rule:nonzero;stroke:none"
           d="m 16300,5917.77 -213.5,343.37 -179.1,4.8 392.6,-348.17" /></g><g
         transform="scale(1.45964)"
         id="g532"><path
           id="path534"
           style="fill:#c2c2c2;fill-opacity:1;fill-rule:nonzero;stroke:none"
           d="m 15765.8,6216.54 -14,-87.42 548.2,-211.35 -534.2,298.77" /></g><g
         transform="scale(1.40323)"
         id="g536"><path
           id="path538"
           style="fill:#e0e0e0;fill-opacity:1;fill-rule:nonzero;stroke:none"
           d="m 6280.47,7652.81 -4.38,0.39 c -83.63,7.43 -165.38,10.85 -243.39,11.21 -30.73,0 -60.82,-0.59 -90.31,-1.72 l -2.2,56.97 c 30.28,1.16 62.09,1.72 92.74,1.76 79.47,0 162.99,-3.85 248.24,-11.44 l 4.25,-0.37 z m 676.12,-86.29 c -116.4,18.69 -229.93,35.21 -337.47,49.07 l 7.29,56.55 c 108.12,-13.94 222.25,-30.54 339.22,-49.33 z m -1663.97,-52.25 -24.84,51.33 c 100.15,48.44 210.79,86.09 328.84,111.86 l 12.17,-55.7 c -113.69,-24.82 -220.06,-60.99 -316.17,-107.49 z m 2335.44,-71.01 c -120.58,24.33 -230.19,45.58 -335.23,64.99 l 10.34,56.06 c 105.32,-19.47 215.29,-40.78 336.15,-65.17 z m 668.96,-140.88 c -111.89,24.06 -223.35,48.01 -334.38,71.53 l 11.84,55.76 c 111.1,-23.51 222.55,-47.48 334.51,-71.56 z m 5757.18,-62.17 -4.3,56.85 c 116.7,8.72 232.2,13.72 343.6,14.87 l 0.5,-57.01 c -110.1,-1.13 -224.4,-6.08 -339.8,-14.71 z M 15071,7209.6 c -108.2,16.68 -221.7,28.94 -337.3,36.43 l 3.6,56.89 c 117.4,-7.59 232.6,-20.04 342.4,-36.97 z m -6104.45,-48.56 c -112.17,22.79 -223.85,46.14 -335.09,69.72 l 11.83,55.77 c 111.1,-23.54 222.56,-46.87 334.66,-69.62 z m 4412.45,-8.61 -10.1,56.1 c 114.6,20.76 228.7,38.63 339.3,53.14 l 7.4,-56.54 c -109.7,-14.38 -222.8,-32.11 -336.6,-52.7 z m -8576.74,-77.81 -48.22,30.43 c 63.59,100.68 138.99,190.51 224.1,266.94 l 38.1,-42.42 c -81.21,-72.92 -153.21,-158.71 -213.98,-254.95 z m 4837.52,-39.76 c -108.54,18.24 -218.85,37.98 -337.22,60.29 l 10.54,55.99 c 118.02,-22.22 227.98,-41.88 336.16,-60.06 z m 6083.82,-0.36 c -100.3,40.83 -208.2,76.68 -320.8,106.45 l 14.5,55.12 c 115,-30.39 225.3,-66.99 327.8,-108.84 z m -3013.2,-24.16 -11.1,55.94 c 81.7,16.18 164.2,34.07 245.2,53.31 29.6,7 59,13.78 88,20.36 l 12.6,-55.64 c -28.9,-6.48 -58,-13.25 -87.4,-20.24 -81.7,-19.31 -165,-37.41 -247.3,-53.73 z m -2392,-71.98 c -110,12.48 -224.4,27.15 -339.97,43.69 l 8.05,56.37 c 115.02,-16.39 228.92,-31 338.32,-43.4 z m 1712.7,-27.08 -5.5,56.73 c 113.1,10.76 226.8,24.52 338.1,40.69 l 8.2,-56.44 c -112.2,-16.32 -226.9,-30.14 -340.8,-40.98 z m -1028.8,-26.15 c -111.8,4.49 -227,11.33 -342.5,20.45 l 4.5,56.8 c 114.7,-8.98 229.2,-15.82 340.3,-20.24 z m 343.1,-6.63 -0.1,57.01 c 114.3,0.22 228.9,3.07 340.6,8.34 l 2.7,-56.94 c -112.6,-5.34 -228,-8.19 -343.2,-8.41 z m 4911.8,-176.23 c -3,3.34 -73.3,82.45 -232.6,180.87 l 30,48.45 c 166.4,-102.76 242.3,-188.13 245.4,-191.7 z m -11680.59,-256.91 -56.28,9.12 c 19.32,118.94 47.6,232.18 84.04,336.58 l 53.83,-18.81 c -35.36,-101.27 -62.81,-211.23 -81.59,-326.89 z m -70.54,-682.07 c -0.7,4.7 -17.21,117.65 -17.21,289.83 0,18.17 0.19,37.05 0.61,56.51 l 56.99,-1.21 c -0.4,-19.03 -0.59,-37.48 -0.59,-55.3 0,-167.62 16.43,-280.36 16.59,-281.49 l -56.39,-8.34" /></g></g></g></svg>