<?xml version="1.0" encoding="utf-8"?>
<!-- Generator: Adobe Illustrator 19.0.0, SVG Export Plug-In . SVG Version: 6.00 Build 0)  -->
<svg version="1.1" id="Layer_1" xmlns="http://www.w3.org/2000/svg" xmlns:xlink="http://www.w3.org/1999/xlink" x="0px" y="0px"
	 viewBox="0 0 612 792" style="enable-background:new 0 0 612 792;" xml:space="preserve">
<style type="text/css">
	.st0{fill:url(#XMLID_2_);}
	.st1{fill:url(#XMLID_3_);}
	.st2{fill:url(#XMLID_4_);}
	.st3{fill:url(#XMLID_29_);}
	.st4{fill:url(#XMLID_30_);}
	.st5{fill:url(#XMLID_31_);}
	.st6{fill:url(#XMLID_32_);}
	.st7{fill:url(#XMLID_33_);}
	.st8{fill:url(#XMLID_34_);}
	.st9{fill:url(#XMLID_35_);}
	.st10{fill:url(#XMLID_36_);}
	.st11{fill:url(#XMLID_37_);}
	.st12{fill:url(#XMLID_38_);}
	.st13{fill:url(#XMLID_39_);}
	.st14{fill:url(#XMLID_40_);}
	.st15{fill:url(#XMLID_41_);}
	.st16{fill:url(#XMLID_42_);}
	.st17{fill:url(#XMLID_43_);}
	.st18{fill:url(#XMLID_44_);}
	.st19{fill:url(#XMLID_45_);}
	.st20{fill:url(#XMLID_46_);}
	.st21{fill:url(#XMLID_47_);}
	.st22{fill:url(#XMLID_49_);}
	.st23{fill:url(#XMLID_50_);}
	.st24{fill:url(#XMLID_51_);}
	.st25{fill:url(#XMLID_52_);}
	.st26{fill:url(#XMLID_53_);}
	.st27{fill:url(#XMLID_54_);}
	.st28{fill:url(#XMLID_56_);}
</style>
<g id="XMLID_5_">
	<g id="XMLID_63_">
		<g id="XMLID_196_">
			<linearGradient id="XMLID_2_" gradientUnits="userSpaceOnUse" x1="182.1324" y1="523.711" x2="461.8654" y2="527.0214">
				<stop  offset="0.2151" style="stop-color:#ED1F24"/>
				<stop  offset="0.4032" style="stop-color:#ED2024"/>
				<stop  offset="0.8602" style="stop-color:#B01F24"/>
			</linearGradient>
			<path id="XMLID_27_" class="st0" d="M143,528.1v24.2h-10.8v-57.9h24.2c11.7,0,17.7,7,17.7,16.6c0,7-3.7,12.4-9.7,14.9l11.1,26.5
				h-11.7l-9.6-24.2H143z M143,503.9v14.6h11.9c5.2,0,7.6-2.9,7.6-7.7c0-4.2-2.2-6.9-7.2-6.9H143z"/>
			<linearGradient id="XMLID_3_" gradientUnits="userSpaceOnUse" x1="182.1403" y1="523.0455" x2="461.8733" y2="526.356">
				<stop  offset="0.2151" style="stop-color:#ED1F24"/>
				<stop  offset="0.4032" style="stop-color:#ED2024"/>
				<stop  offset="0.8602" style="stop-color:#B01F24"/>
			</linearGradient>
			<path id="XMLID_57_" class="st1" d="M182.2,552.2v-57.9h36.9v9.6H193v13.9h22.4v9.6H193v15.2h26.6v9.6H182.2z"/>
			<linearGradient id="XMLID_4_" gradientUnits="userSpaceOnUse" x1="182.1455" y1="522.6047" x2="461.8785" y2="525.9152">
				<stop  offset="0.2151" style="stop-color:#ED1F24"/>
				<stop  offset="0.4032" style="stop-color:#ED2024"/>
				<stop  offset="0.8602" style="stop-color:#B01F24"/>
			</linearGradient>
			<path id="XMLID_59_" class="st2" d="M228.4,552.2v-57.9h18.8c14.4,0,23.2,9.5,23.2,28.1c0,19.8-8.8,29.8-23.2,29.8H228.4z
				 M239.2,503.9v38.7h7c8,0,13.1-6,13.1-18.1v-4.2c0-10.9-5.1-16.4-13.1-16.4H239.2z"/>
			<linearGradient id="XMLID_29_" gradientUnits="userSpaceOnUse" x1="182.1544" y1="521.8499" x2="461.8874" y2="525.1603">
				<stop  offset="0.2151" style="stop-color:#ED1F24"/>
				<stop  offset="0.4032" style="stop-color:#ED2024"/>
				<stop  offset="0.8602" style="stop-color:#B01F24"/>
			</linearGradient>
			<path id="XMLID_62_" class="st3" d="M314.3,503.9h-14.4v48.3h-10.8v-48.3h-14.4v-9.6h39.5V503.9z"/>
			<linearGradient id="XMLID_30_" gradientUnits="userSpaceOnUse" x1="182.1553" y1="521.7792" x2="461.8882" y2="525.0897">
				<stop  offset="0.2151" style="stop-color:#ED1F24"/>
				<stop  offset="0.4032" style="stop-color:#ED2024"/>
				<stop  offset="0.8602" style="stop-color:#B01F24"/>
			</linearGradient>
			<path id="XMLID_65_" class="st4" d="M320.8,494.3h10.8v39.4c0,6.7,3.3,10.2,9,10.2c5.7,0,9.1-3.5,9.1-10.2v-39.4h10.8v39.8
				c0,12.6-7.5,19.2-19.9,19.2s-19.8-6.6-19.8-19.2V494.3z"/>
			<linearGradient id="XMLID_31_" gradientUnits="userSpaceOnUse" x1="182.1658" y1="520.8892" x2="461.8988" y2="524.1996">
				<stop  offset="0.2151" style="stop-color:#ED1F24"/>
				<stop  offset="0.4032" style="stop-color:#ED2024"/>
				<stop  offset="0.8602" style="stop-color:#B01F24"/>
			</linearGradient>
			<path id="XMLID_67_" class="st5" d="M381.5,528.1v24.2h-10.8v-57.9h24.2c11.7,0,17.7,7,17.7,16.6c0,7-3.7,12.4-9.7,14.9
				l11.1,26.5h-11.7l-9.6-24.2H381.5z M381.5,503.9v14.6h11.9c5.2,0,7.6-2.9,7.6-7.7c0-4.2-2.2-6.9-7.2-6.9H381.5z"/>
			<linearGradient id="XMLID_32_" gradientUnits="userSpaceOnUse" x1="182.1729" y1="520.2939" x2="461.9058" y2="523.6044">
				<stop  offset="0.2151" style="stop-color:#ED1F24"/>
				<stop  offset="0.4032" style="stop-color:#ED2024"/>
				<stop  offset="0.8602" style="stop-color:#B01F24"/>
			</linearGradient>
			<path id="XMLID_70_" class="st6" d="M420.7,494.3h24.9c9.1,0,15.8,5.8,15.8,14.4c0,6.7-3.9,11.4-8.9,13.2v0.3
				c5.7,1.8,10.2,7.1,10.2,14.5c0,9.7-7.9,15.5-17.1,15.5h-24.9V494.3z M431.5,503.9v13.9h11.1c5.2,0,7.7-3.3,7.7-7.2
				c0-4.4-2.9-6.7-7.2-6.7H431.5z M431.5,527.3v15.3h12.3c4.5,0,7.9-2.5,7.9-7.3c0-4.5-2.7-8-8.4-8H431.5z"/>
			<linearGradient id="XMLID_33_" gradientUnits="userSpaceOnUse" x1="182.1812" y1="519.5925" x2="461.9141" y2="522.903">
				<stop  offset="0.2151" style="stop-color:#ED1F24"/>
				<stop  offset="0.4032" style="stop-color:#ED2024"/>
				<stop  offset="0.8602" style="stop-color:#B01F24"/>
			</linearGradient>
			<path id="XMLID_74_" class="st7" d="M516.6,523.3c0,20.4-9.1,30-24.1,30c-14.9,0-24.1-9.5-24.1-30c0-20.4,9.1-30,24.1-30
				C507.5,493.3,516.6,502.8,516.6,523.3z M479.6,521.2v4.2c0,11.6,4.3,18.6,12.9,18.6c8.6,0,12.9-7,12.9-18.6v-4.2
				c0-11.6-4.3-18.6-12.9-18.6C483.9,502.6,479.6,509.6,479.6,521.2z"/>
		</g>
		<g id="XMLID_192_">
			<linearGradient id="XMLID_34_" gradientUnits="userSpaceOnUse" x1="181.4473" y1="581.6047" x2="461.1802" y2="584.9152">
				<stop  offset="0.2151" style="stop-color:#ED1F24"/>
				<stop  offset="0.4032" style="stop-color:#ED2024"/>
				<stop  offset="0.8602" style="stop-color:#B01F24"/>
			</linearGradient>
			<path id="XMLID_6_" class="st8" d="M178.7,600.5v-37.5h21.4v2.5h-18.9v11.7h12.8v2.5h-12.8V598h20.2v2.5H178.7z"/>
			<linearGradient id="XMLID_35_" gradientUnits="userSpaceOnUse" x1="181.4504" y1="581.3445" x2="461.1833" y2="584.655">
				<stop  offset="0.2151" style="stop-color:#ED1F24"/>
				<stop  offset="0.4032" style="stop-color:#ED2024"/>
				<stop  offset="0.8602" style="stop-color:#B01F24"/>
			</linearGradient>
			<path id="XMLID_8_" class="st9" d="M217,562.9c2.6,0,5,0.5,7.3,1.5c2.3,1,4.3,2.3,6,4c1.7,1.7,3,3.7,4,6c1,2.3,1.5,4.7,1.5,7.3
				s-0.5,5-1.5,7.3c-1,2.3-2.3,4.3-4,5.9c-1.7,1.7-3.7,3-6,4c-2.3,1-4.7,1.5-7.3,1.5h-11.4v-37.5H217z M233.3,581.7
				c0-2.2-0.4-4.3-1.3-6.3c-0.9-2-2-3.7-3.5-5.2c-1.5-1.5-3.2-2.6-5.2-3.5c-2-0.9-4.1-1.3-6.3-1.3h-8.9V598h8.9
				c2.2,0,4.3-0.4,6.3-1.3c2-0.9,3.7-2,5.2-3.5c1.5-1.5,2.6-3.2,3.5-5.2C232.8,586.1,233.3,584,233.3,581.7z"/>
			<linearGradient id="XMLID_36_" gradientUnits="userSpaceOnUse" x1="181.4555" y1="580.912" x2="461.1884" y2="584.2225">
				<stop  offset="0.2151" style="stop-color:#ED1F24"/>
				<stop  offset="0.4032" style="stop-color:#ED2024"/>
				<stop  offset="0.8602" style="stop-color:#B01F24"/>
			</linearGradient>
			<path id="XMLID_11_" class="st10" d="M257.3,600.9c-2.1,0-4-0.4-5.9-1.1c-1.8-0.8-3.4-1.8-4.8-3.1c-1.4-1.3-2.4-2.8-3.2-4.6
				c-0.8-1.8-1.2-3.6-1.2-5.6v-23.5h2.5v23.5c0,1.7,0.3,3.2,1,4.7c0.6,1.4,1.5,2.7,2.7,3.8c1.1,1.1,2.5,1.9,4,2.6
				c1.5,0.6,3.2,0.9,4.9,0.9c1.7,0,3.3-0.3,4.8-0.9c1.5-0.6,2.8-1.5,4-2.6c1.1-1.1,2-2.3,2.7-3.8c0.6-1.4,1-3,1-4.7v-23.5h2.5v23.5
				c0,2-0.4,3.8-1.2,5.6c-0.8,1.8-1.9,3.3-3.2,4.6c-1.3,1.3-2.9,2.3-4.8,3.1C261.3,600.5,259.3,600.9,257.3,600.9z"/>
			<linearGradient id="XMLID_37_" gradientUnits="userSpaceOnUse" x1="181.4632" y1="580.2598" x2="461.1962" y2="583.5703">
				<stop  offset="0.2151" style="stop-color:#ED1F24"/>
				<stop  offset="0.4032" style="stop-color:#ED2024"/>
				<stop  offset="0.8602" style="stop-color:#B01F24"/>
			</linearGradient>
			<path id="XMLID_13_" class="st11" d="M311.1,595.9c-1.9,1.6-3.9,2.8-6,3.6c-2.2,0.9-4.4,1.3-6.8,1.3c-2.7,0-5.1-0.5-7.5-1.5
				c-2.3-1-4.3-2.4-6.1-4.1c-1.7-1.7-3.1-3.8-4.1-6.1c-1-2.3-1.5-4.8-1.5-7.4c0-2.7,0.5-5.1,1.5-7.5c1-2.3,2.3-4.3,4.1-6.1
				c1.7-1.7,3.7-3.1,6.1-4.1c2.3-1,4.8-1.5,7.5-1.5c2,0,4.1,0.4,6.1,1.1c2,0.7,3.9,1.7,5.8,3l-2,1.5c-1.4-1-3-1.8-4.7-2.3
				c-1.7-0.5-3.4-0.8-5.2-0.8c-2.3,0-4.5,0.4-6.5,1.3c-2,0.9-3.8,2.1-5.3,3.6c-1.5,1.5-2.7,3.3-3.5,5.3c-0.9,2-1.3,4.2-1.3,6.5
				c0,2.3,0.4,4.4,1.3,6.4c0.9,2,2,3.8,3.5,5.3c1.5,1.5,3.3,2.7,5.3,3.6c2,0.9,4.2,1.3,6.5,1.3c2,0,4-0.4,5.9-1.2
				c1.9-0.8,3.7-1.9,5.4-3.3L311.1,595.9z"/>
			<linearGradient id="XMLID_38_" gradientUnits="userSpaceOnUse" x1="181.4662" y1="580.0054" x2="461.1992" y2="583.3159">
				<stop  offset="0.2151" style="stop-color:#ED1F24"/>
				<stop  offset="0.4032" style="stop-color:#ED2024"/>
				<stop  offset="0.8602" style="stop-color:#B01F24"/>
			</linearGradient>
			<path id="XMLID_15_" class="st12" d="M328.7,562.3l15.4,38.1c-0.4,0.1-0.8,0.2-1.2,0.3c-0.4,0.1-0.8,0.2-1.2,0.3l-6.4-15.3h-13.4
				l-3.1,7.7c-0.5,1.3-1.1,2.6-1.6,3.9c-0.5,1.3-1,2.6-1.5,3.8c-0.2,0-0.4-0.1-0.6-0.1c-0.2,0-0.4-0.1-0.7-0.2l-1.1-0.3L328.7,562.3
				z M334.4,583.6c-0.2-0.3-0.3-0.7-0.5-1.2c-0.2-0.5-0.3-0.9-0.5-1.3c-0.4-1.1-0.8-2.1-1.2-3.1c-0.4-1-0.8-2-1.1-3.1l-2.4-6.7
				l-5.9,15.4H334.4z"/>
			<linearGradient id="XMLID_39_" gradientUnits="userSpaceOnUse" x1="181.4724" y1="579.4791" x2="461.2054" y2="582.7896">
				<stop  offset="0.2151" style="stop-color:#ED1F24"/>
				<stop  offset="0.4032" style="stop-color:#ED2024"/>
				<stop  offset="0.8602" style="stop-color:#B01F24"/>
			</linearGradient>
			<path id="XMLID_18_" class="st13" d="M377.7,562.9v2.5h-14.8v35h-2.5v-35h-14.9v-2.5H377.7z"/>
			<linearGradient id="XMLID_40_" gradientUnits="userSpaceOnUse" x1="181.4744" y1="579.3107" x2="461.2074" y2="582.6212">
				<stop  offset="0.2151" style="stop-color:#ED1F24"/>
				<stop  offset="0.4032" style="stop-color:#ED2024"/>
				<stop  offset="0.8602" style="stop-color:#B01F24"/>
			</linearGradient>
			<path id="XMLID_20_" class="st14" d="M384.6,562.9v37.5h-2.6v-37.5H384.6z"/>
			<linearGradient id="XMLID_41_" gradientUnits="userSpaceOnUse" x1="181.4781" y1="578.9962" x2="461.2111" y2="582.3067">
				<stop  offset="0.2151" style="stop-color:#ED1F24"/>
				<stop  offset="0.4032" style="stop-color:#ED2024"/>
				<stop  offset="0.8602" style="stop-color:#B01F24"/>
			</linearGradient>
			<path id="XMLID_22_" class="st15" d="M412.2,562.6c2.6,0,5.1,0.5,7.4,1.5c2.3,1,4.3,2.4,6.1,4.1c1.7,1.7,3.1,3.7,4.1,6.1
				c1,2.3,1.5,4.8,1.5,7.5c0,2.6-0.5,5.1-1.5,7.4c-1,2.3-2.4,4.4-4.1,6.1c-1.7,1.7-3.7,3.1-6.1,4.1c-2.3,1-4.8,1.5-7.4,1.5
				c-2.7,0-5.1-0.5-7.5-1.5c-2.3-1-4.3-2.4-6.1-4.1c-1.7-1.7-3.1-3.8-4.1-6.1c-1-2.3-1.5-4.8-1.5-7.4c0-2.7,0.5-5.1,1.5-7.5
				c1-2.3,2.4-4.3,4.1-6.1c1.7-1.7,3.7-3.1,6.1-4.1C407.1,563.1,409.6,562.6,412.2,562.6z M428.8,581.7c0-2.3-0.4-4.5-1.3-6.5
				c-0.9-2-2.1-3.8-3.6-5.3c-1.5-1.5-3.3-2.7-5.3-3.6c-2-0.9-4.2-1.3-6.4-1.3c-2.3,0-4.5,0.4-6.5,1.3c-2,0.9-3.8,2.1-5.3,3.6
				c-1.5,1.5-2.7,3.3-3.6,5.3c-0.9,2-1.3,4.2-1.3,6.5c0,2.3,0.4,4.4,1.3,6.5c0.9,2,2.1,3.8,3.6,5.3c1.5,1.5,3.3,2.7,5.3,3.6
				c2,0.9,4.2,1.3,6.5,1.3c2.3,0,4.4-0.4,6.4-1.3c2-0.9,3.8-2.1,5.3-3.6c1.5-1.5,2.7-3.3,3.6-5.3C428.3,586.2,428.8,584,428.8,581.7
				z"/>
			<linearGradient id="XMLID_42_" gradientUnits="userSpaceOnUse" x1="181.4808" y1="578.7716" x2="461.2138" y2="582.0821">
				<stop  offset="0.2151" style="stop-color:#ED1F24"/>
				<stop  offset="0.4032" style="stop-color:#ED2024"/>
				<stop  offset="0.8602" style="stop-color:#B01F24"/>
			</linearGradient>
			<path id="XMLID_25_" class="st16" d="M467,562.9v39.8l-25.7-34.2v31.8h-2.5v-39.3l25.7,34.2v-32.4H467z"/>
		</g>
	</g>
	<g id="XMLID_48_">
		<g id="XMLID_213_">
			<linearGradient id="XMLID_43_" gradientUnits="userSpaceOnUse" x1="240.1309" y1="330.8064" x2="417.24" y2="334.1169">
				<stop  offset="0.2151" style="stop-color:#ED1F24"/>
				<stop  offset="0.4032" style="stop-color:#ED2024"/>
				<stop  offset="0.8602" style="stop-color:#B01F24"/>
			</linearGradient>
			<path id="XMLID_235_" class="st17" d="M319.4,445.9c-0.9,1.2-2.1,0.9-3.1,0.9c-16.4,0-32.8,0.1-49.2,0c-4.2,0-6.4-2.3-6.5-6.5
				c-0.1-5.6-0.1-11.1,0-16.7c0.1-2.9-0.6-5.6-2-8.2c-11-22-21.8-44-33.1-65.9c-5.2-10.1-9.8-20.5-15.1-30.5
				c-1.3-2.5-1.2-4.2,0.8-6.4c11.4-12.9,24.5-24.3,36.3-36.9c10.3-11,21.2-21.4,31.7-32.2c1.4-1.4,1.7-2.9,1.7-4.7
				c0-4.6-0.1-9.2,0-13.8c0.1-4.6,2.3-7,6.8-7.6c1.1-0.1,2.2-0.1,3.3-0.1c21.9,0,43.7,0,65.6,0c7,0,9,1.9,9,8.9c0,4,0.1,8.1,0,12.1
				c0,2.3,0.7,4.2,2.4,5.9c13.1,13,26.3,26,39.3,39c9.5,9.5,18.9,19.1,28.4,28.6c2,2,2.5,4,1.2,6.5c-3.8,7.1-7.1,14.5-10.9,21.6
				c-4,7.5-7.5,15.3-11.3,22.9c-9.1,18-18.1,36.1-27.2,54.1c-0.8,1.5-0.9,3.1-0.9,4.8c0,5.7,0.1,11.4,0,17c-0.1,6.1-2.1,8-8.1,8.1
				c-15.4,0-30.8,0-46.2,0c-1.5,0-3,0.3-4.5-0.8c1.1-1.6,2.8-1.5,4.2-1.8c8.6-1.8,15.8-6.1,21.7-12.6c6.4-7,9.9-15.2,10.1-24.6
				c0.2-15.2-0.1-30.4,0.1-45.6c0.2-11.1,0.2-22.2,0.1-33.3c-0.1-14,0-28-0.2-41.9c-0.1-11.2-9.8-18-20.4-13.8
				c-14.2,5.6-28.3,11.6-42.5,17.4c-9.4,3.9-18.8,7.8-28.2,11.6c-1.4,0.6-2.9,0.9-4.4,1.2c-10.7,1.6-19.9,14.2-14.7,27.1
				c8,19.6,15.2,39.4,22.8,59.2c1.7,4.5,3.4,9,5.3,13.4c1.5,3.6,1.6,7.5,2.3,11.2c2.5,13.8,15.1,27.1,28.7,30.3
				C314.9,444.2,317.3,444.6,319.4,445.9z"/>
			<linearGradient id="XMLID_44_" gradientUnits="userSpaceOnUse" x1="240.0469" y1="335.3032" x2="417.1559" y2="338.6136">
				<stop  offset="0.2151" style="stop-color:#ED1F24"/>
				<stop  offset="0.4032" style="stop-color:#ED2024"/>
				<stop  offset="0.8602" style="stop-color:#B01F24"/>
			</linearGradient>
			<path id="XMLID_234_" class="st18" d="M355.1,338.9c0,11.6,0,23.2,0,34.8c0,1.3,0.5,3-0.9,3.6c-1.6,0.7-2.5-1-3.4-1.9
				c-18.5-17.8-49-13.4-62,8.9c-0.7,1.2-1,2.9-2.9,2.8c-1.7-0.1-1.7-1.9-2.1-3c-5.1-12.8-10.2-25.6-15.2-38.4
				c-1.2-3.1-0.3-4.2,2.7-4.1c7.5,0.4,13.1-3.2,16.9-9.2c5.1-7.9,4.2-16-1.8-23.3c-2-2.4-1.8-3.3,1.1-4.5
				c14.3-5.9,28.7-11.8,43-17.8c2.8-1.2,3.9-0.4,4.6,2.4c1.7,6.1,5.7,9.9,12,11.1c1.1,0.2,2.2,0.3,3.2,0.1c4.6-0.7,4.6-0.7,4.6,4.1
				C355.1,315.9,355.1,327.4,355.1,338.9z"/>
			<linearGradient id="XMLID_45_" gradientUnits="userSpaceOnUse" x1="241.5144" y1="256.7909" x2="418.6234" y2="260.1013">
				<stop  offset="0.2151" style="stop-color:#ED1F24"/>
				<stop  offset="0.4032" style="stop-color:#ED2024"/>
				<stop  offset="0.8602" style="stop-color:#B01F24"/>
			</linearGradient>
			<path id="XMLID_230_" class="st19" d="M247.2,222.5c4.6,0.5,8.6,1.9,11.8,4.9c3.1,2.9,6.1,6,9.1,9c3,3,3,3.6-0.1,6.6
				c-14,14.1-28.1,28.1-42.1,42.2c-0.5,0.5-0.9,0.9-1.4,1.4c-5.5,5.6-5.5,5.6-11.3-0.1c-2.2-2.2-4.4-4.3-6.5-6.5
				c-6.7-7-6.4-16.8,0.6-23.6c9.7-9.5,19.2-19.1,28.7-28.7C239.3,224.4,243.1,223,247.2,222.5z M243.6,253.8c0.1,2.4,2,4.1,4.2,4.1
				c2.1,0,4.4-2.3,4.1-4.2c-0.4-2.3-1.7-4.1-4.4-4C244.8,249.8,243.8,251.7,243.6,253.8z M233.3,264.6c-2.7,0-4.5,1.6-4.5,3.7
				c0,2.3,1.9,4.1,4.2,4c2.4-0.1,3.9-1.5,3.9-3.9C236.9,265.9,235.3,264.8,233.3,264.6z"/>
			<linearGradient id="XMLID_46_" gradientUnits="userSpaceOnUse" x1="241.5743" y1="253.5857" x2="418.6833" y2="256.8961">
				<stop  offset="0.2151" style="stop-color:#ED1F24"/>
				<stop  offset="0.4032" style="stop-color:#ED2024"/>
				<stop  offset="0.8602" style="stop-color:#B01F24"/>
			</linearGradient>
			<path id="XMLID_226_" class="st20" d="M399.5,222.5c4.1,0.5,8.1,1.8,11.2,5c9.8,9.8,19.7,19.5,29.4,29.5
				c6.3,6.4,6.3,16.2,0.2,22.8c-3.2,3.4-6.7,6.6-9.9,10c-1.7,1.7-3,1.6-4.7-0.1c-15.8-15.9-31.6-31.7-47.5-47.5
				c-1.9-1.9-1.9-3.4,0-5.3c3.3-3.2,6.5-6.5,9.8-9.7C391.1,224.3,395,222.9,399.5,222.5z M403.4,253.9c0-2.1-2.1-4.3-4.1-4.3
				c-2.1,0-4.2,2-4.1,4.3c0.1,2.4,1.5,3.8,3.9,4C401.4,258,403.4,256.2,403.4,253.9z M413.9,272.4c2.5-0.2,3.9-1.6,3.8-3.9
				c-0.1-2.5-1.6-4-4.2-3.9c-2.5,0.1-3.9,1.5-3.9,3.9C409.7,271.1,411.5,272.2,413.9,272.4z"/>
			<linearGradient id="XMLID_47_" gradientUnits="userSpaceOnUse" x1="238.7781" y1="403.1852" x2="415.8871" y2="406.4957">
				<stop  offset="0.2151" style="stop-color:#ED1F24"/>
				<stop  offset="0.4032" style="stop-color:#ED2024"/>
				<stop  offset="0.8602" style="stop-color:#B01F24"/>
			</linearGradient>
			<path id="XMLID_223_" class="st21" d="M355.1,404.8c0.8,17.6-14.5,32.3-32,32c-18.9-0.3-31.6-15.3-31.6-32.3
				c0-17.8,14.5-31.8,32.7-31.7C339.6,372.8,356,386.9,355.1,404.8z M303.9,404.5c0,11.2,8.5,20,19.4,20c11,0,20-9,19.9-20
				c-0.1-10.7-8.7-19.3-19.4-19.3C312.4,385.1,303.9,393.4,303.9,404.5z"/>
			<linearGradient id="XMLID_49_" gradientUnits="userSpaceOnUse" x1="239.082" y1="386.9268" x2="416.191" y2="390.2372">
				<stop  offset="0.2151" style="stop-color:#ED1F24"/>
				<stop  offset="0.4032" style="stop-color:#ED2024"/>
				<stop  offset="0.8602" style="stop-color:#B01F24"/>
			</linearGradient>
			<path id="XMLID_222_" class="st22" d="M395,427c-1.7-7,3.5-12.6,6.5-18.7c7.8-16.2,16.1-32.2,24.1-48.4c2.4-4.8,4.6-9.6,7-14.4
				c1.7-3.4,2.6-3.4,5.2-0.7c2.5,2.6,5.1,5.1,7.6,7.7c3.2,3.2,3.8,5.6,1.7,9.7c-6.6,13.3-13.3,26.6-19.9,39.9
				c-4.7,9.5-9.5,18.9-14.2,28.4c-2.8,5.7-10.7,8.7-16.4,6.1c-1.3-0.6-1.6-1.7-1.6-3C395,431.7,395,429.7,395,427z"/>
			<linearGradient id="XMLID_50_" gradientUnits="userSpaceOnUse" x1="239.0141" y1="390.557" x2="416.1231" y2="393.8674">
				<stop  offset="0.2151" style="stop-color:#ED1F24"/>
				<stop  offset="0.4032" style="stop-color:#ED2024"/>
				<stop  offset="0.8602" style="stop-color:#B01F24"/>
			</linearGradient>
			<path id="XMLID_221_" class="st23" d="M252,427.4c0,9.7,0,9.6-9.2,9.6c-4.1,0-6.8-1.7-8.6-5.3c-9.8-19.8-19.7-39.7-29.6-59.5
				c-1.7-3.4-3.6-6.7-5.3-10.1c-1.8-3.7-1.3-6.2,1.5-9.2c2.6-2.8,5.5-5.3,8.3-7.9c2-1.9,3.2-2,4.7,0.7c5.5,9.9,10.3,20.2,15.4,30.3
				c5.5,11,11.1,22,16.6,33c1.9,3.7,3.7,7.4,5.5,11.2C252.6,422.7,251.7,425.4,252,427.4z"/>
			<linearGradient id="XMLID_51_" gradientUnits="userSpaceOnUse" x1="237.6157" y1="465.3721" x2="414.7247" y2="468.6825">
				<stop  offset="0.2151" style="stop-color:#ED1F24"/>
				<stop  offset="0.4032" style="stop-color:#ED2024"/>
				<stop  offset="0.8602" style="stop-color:#B01F24"/>
			</linearGradient>
			<path id="XMLID_220_" class="st24" d="M323.3,455.9c12.6,0,25.1,0,37.7,0c4.4,0,4.6,0.2,4.6,4.7c0,10.6-6.9,17.6-17.7,17.6
				c-16.4,0-32.8,0-49.1,0c-10.6,0-18.1-7.7-17.9-18.4c0-3,1.2-4,4.1-4C297.8,456,310.6,455.9,323.3,455.9z"/>
			<linearGradient id="XMLID_52_" gradientUnits="userSpaceOnUse" x1="242.6452" y1="196.2907" x2="419.7543" y2="199.6012">
				<stop  offset="0.2151" style="stop-color:#ED1F24"/>
				<stop  offset="0.4032" style="stop-color:#ED2024"/>
				<stop  offset="0.8602" style="stop-color:#B01F24"/>
			</linearGradient>
			<path id="XMLID_219_" class="st25" d="M323.2,208.8c-9.1,0-18.1,0-27.2,0c-4.2,0-4.6-0.5-4.6-4.8c0.2-10.7,7.1-17.5,17.8-17.5
				c9.6,0,19.2,0,28.8,0c11.1,0,18.5,8.7,17,19.7c-0.4,2.7-2.1,2.6-4,2.7c-0.1,0-0.2,0-0.3,0C341.5,208.8,332.3,208.8,323.2,208.8z"
				/>
			<linearGradient id="XMLID_53_" gradientUnits="userSpaceOnUse" x1="240.3072" y1="321.3777" x2="417.4162" y2="324.6882">
				<stop  offset="0.2151" style="stop-color:#ED1F24"/>
				<stop  offset="0.4032" style="stop-color:#ED2024"/>
				<stop  offset="0.8602" style="stop-color:#B01F24"/>
			</linearGradient>
			<path id="XMLID_216_" class="st26" d="M260.6,322.1c0-6.1,5.2-11.6,11-11.5c6.1,0.1,11.3,5.3,11.4,11.3c0,5.9-5.4,11.4-11.2,11.5
				C265.6,333.4,260.6,328.3,260.6,322.1z M271.9,317.8c-2.4,0-4,1.6-4,4c0,2.4,1.7,4.3,4,4.1c2.4-0.2,3.8-1.5,3.8-4
				C275.7,319.3,274.1,318.2,271.9,317.8z"/>
			<linearGradient id="XMLID_54_" gradientUnits="userSpaceOnUse" x1="241.0106" y1="283.7471" x2="418.1196" y2="287.0576">
				<stop  offset="0.2151" style="stop-color:#ED1F24"/>
				<stop  offset="0.4032" style="stop-color:#ED2024"/>
				<stop  offset="0.8602" style="stop-color:#B01F24"/>
			</linearGradient>
			<path id="XMLID_215_" class="st27" d="M355,285.9c-0.1,3.4-2.7,6-5.8,5.9c-3.1-0.1-6.1-3.3-6-6.3c0.1-3.3,2.8-5.9,5.9-5.8
				C352.5,279.8,355.1,282.6,355,285.9z"/>
			<linearGradient id="XMLID_56_" gradientUnits="userSpaceOnUse" x1="238.7761" y1="403.2913" x2="415.8851" y2="406.6018">
				<stop  offset="0.2151" style="stop-color:#ED1F24"/>
				<stop  offset="0.4032" style="stop-color:#ED2024"/>
				<stop  offset="0.8602" style="stop-color:#B01F24"/>
			</linearGradient>
			<path id="XMLID_214_" class="st28" d="M323.3,416c-5.8,0-11.2-5.2-11.4-11c-0.1-6,5.2-11.3,11.3-11.3c6.1,0,11.3,4.8,11.5,10.7
				C334.8,410.6,329.5,416,323.3,416z"/>
		</g>
	</g>
</g>
</svg>
